<?xml version="1.0" encoding="UTF-8"?>
<svg xmlns="http://www.w3.org/2000/svg" xmlns:xlink="http://www.w3.org/1999/xlink" id="Ebene_2" viewBox="0 0 415 309.49">
  <defs>
    <style>.cls-1,.cls-2,.cls-3,.cls-4,.cls-5,.cls-6,.cls-7,.cls-8,.cls-9,.cls-10,.cls-11,.cls-12,.cls-13,.cls-14,.cls-15,.cls-16,.cls-17,.cls-18,.cls-19{fill:#fff;}.cls-20{filter:url(#drop-shadow-1);}.cls-2{filter:url(#drop-shadow-5);}.cls-3{filter:url(#drop-shadow-7);}.cls-4{filter:url(#drop-shadow-4);}.cls-5{filter:url(#drop-shadow-9);}.cls-6{filter:url(#drop-shadow-6);}.cls-7{filter:url(#drop-shadow-8);}.cls-8{filter:url(#drop-shadow-2);}.cls-9{filter:url(#drop-shadow-3);}.cls-10{filter:url(#drop-shadow-16);}.cls-11{filter:url(#drop-shadow-15);}.cls-12{filter:url(#drop-shadow-12);}.cls-13{filter:url(#drop-shadow-13);}.cls-14{filter:url(#drop-shadow-11);}.cls-15{filter:url(#drop-shadow-10);}.cls-16{filter:url(#drop-shadow-14);}.cls-17{filter:url(#drop-shadow-17);}.cls-18{filter:url(#drop-shadow-18);}.cls-19{filter:url(#drop-shadow-19);}</style>
    <filter id="drop-shadow-1">
      <feOffset dx="-5.67" dy="7"></feOffset>
      <feGaussianBlur result="blur" stdDeviation="5"></feGaussianBlur>
      <feFlood flood-color="#000" flood-opacity=".1"></feFlood>
      <feComposite in2="blur" operator="in"></feComposite>
      <feComposite in="SourceGraphic"></feComposite>
    </filter>
    <filter id="drop-shadow-2">
      <feOffset dx="-5.67" dy="7"></feOffset>
      <feGaussianBlur result="blur-2" stdDeviation="5"></feGaussianBlur>
      <feFlood flood-color="#000" flood-opacity=".1"></feFlood>
      <feComposite in2="blur-2" operator="in"></feComposite>
      <feComposite in="SourceGraphic"></feComposite>
    </filter>
    <filter id="drop-shadow-3">
      <feOffset dx="-5.67" dy="7"></feOffset>
      <feGaussianBlur result="blur-3" stdDeviation="5"></feGaussianBlur>
      <feFlood flood-color="#000" flood-opacity=".1"></feFlood>
      <feComposite in2="blur-3" operator="in"></feComposite>
      <feComposite in="SourceGraphic"></feComposite>
    </filter>
    <filter id="drop-shadow-4">
      <feOffset dx="-5.67" dy="7"></feOffset>
      <feGaussianBlur result="blur-4" stdDeviation="5"></feGaussianBlur>
      <feFlood flood-color="#000" flood-opacity=".1"></feFlood>
      <feComposite in2="blur-4" operator="in"></feComposite>
      <feComposite in="SourceGraphic"></feComposite>
    </filter>
    <filter id="drop-shadow-5">
      <feOffset dx="-5.67" dy="7"></feOffset>
      <feGaussianBlur result="blur-5" stdDeviation="5"></feGaussianBlur>
      <feFlood flood-color="#000" flood-opacity=".1"></feFlood>
      <feComposite in2="blur-5" operator="in"></feComposite>
      <feComposite in="SourceGraphic"></feComposite>
    </filter>
    <filter id="drop-shadow-6">
      <feOffset dx="-5.67" dy="7"></feOffset>
      <feGaussianBlur result="blur-6" stdDeviation="5"></feGaussianBlur>
      <feFlood flood-color="#000" flood-opacity=".1"></feFlood>
      <feComposite in2="blur-6" operator="in"></feComposite>
      <feComposite in="SourceGraphic"></feComposite>
    </filter>
    <filter id="drop-shadow-7">
      <feOffset dx="-5.67" dy="7"></feOffset>
      <feGaussianBlur result="blur-7" stdDeviation="5"></feGaussianBlur>
      <feFlood flood-color="#000" flood-opacity=".1"></feFlood>
      <feComposite in2="blur-7" operator="in"></feComposite>
      <feComposite in="SourceGraphic"></feComposite>
    </filter>
    <filter id="drop-shadow-8">
      <feOffset dx="-5.67" dy="7"></feOffset>
      <feGaussianBlur result="blur-8" stdDeviation="5"></feGaussianBlur>
      <feFlood flood-color="#000" flood-opacity=".1"></feFlood>
      <feComposite in2="blur-8" operator="in"></feComposite>
      <feComposite in="SourceGraphic"></feComposite>
    </filter>
    <filter id="drop-shadow-9">
      <feOffset dx="-5.67" dy="7"></feOffset>
      <feGaussianBlur result="blur-9" stdDeviation="5"></feGaussianBlur>
      <feFlood flood-color="#000" flood-opacity=".1"></feFlood>
      <feComposite in2="blur-9" operator="in"></feComposite>
      <feComposite in="SourceGraphic"></feComposite>
    </filter>
    <filter id="drop-shadow-10">
      <feOffset dx="-5.67" dy="7"></feOffset>
      <feGaussianBlur result="blur-10" stdDeviation="5"></feGaussianBlur>
      <feFlood flood-color="#000" flood-opacity=".1"></feFlood>
      <feComposite in2="blur-10" operator="in"></feComposite>
      <feComposite in="SourceGraphic"></feComposite>
    </filter>
    <filter id="drop-shadow-11">
      <feOffset dx="-5.67" dy="7"></feOffset>
      <feGaussianBlur result="blur-11" stdDeviation="5"></feGaussianBlur>
      <feFlood flood-color="#000" flood-opacity=".1"></feFlood>
      <feComposite in2="blur-11" operator="in"></feComposite>
      <feComposite in="SourceGraphic"></feComposite>
    </filter>
    <filter id="drop-shadow-12">
      <feOffset dx="-5.67" dy="7"></feOffset>
      <feGaussianBlur result="blur-12" stdDeviation="5"></feGaussianBlur>
      <feFlood flood-color="#000" flood-opacity=".1"></feFlood>
      <feComposite in2="blur-12" operator="in"></feComposite>
      <feComposite in="SourceGraphic"></feComposite>
    </filter>
    <filter id="drop-shadow-13">
      <feOffset dx="-5.67" dy="7"></feOffset>
      <feGaussianBlur result="blur-13" stdDeviation="5"></feGaussianBlur>
      <feFlood flood-color="#000" flood-opacity=".1"></feFlood>
      <feComposite in2="blur-13" operator="in"></feComposite>
      <feComposite in="SourceGraphic"></feComposite>
    </filter>
    <filter id="drop-shadow-14">
      <feOffset dx="-5.67" dy="7"></feOffset>
      <feGaussianBlur result="blur-14" stdDeviation="5"></feGaussianBlur>
      <feFlood flood-color="#000" flood-opacity=".1"></feFlood>
      <feComposite in2="blur-14" operator="in"></feComposite>
      <feComposite in="SourceGraphic"></feComposite>
    </filter>
    <filter id="drop-shadow-15">
      <feOffset dx="-5.67" dy="7"></feOffset>
      <feGaussianBlur result="blur-15" stdDeviation="5"></feGaussianBlur>
      <feFlood flood-color="#000" flood-opacity=".1"></feFlood>
      <feComposite in2="blur-15" operator="in"></feComposite>
      <feComposite in="SourceGraphic"></feComposite>
    </filter>
    <filter id="drop-shadow-16">
      <feOffset dx="-5.67" dy="7"></feOffset>
      <feGaussianBlur result="blur-16" stdDeviation="5"></feGaussianBlur>
      <feFlood flood-color="#000" flood-opacity=".1"></feFlood>
      <feComposite in2="blur-16" operator="in"></feComposite>
      <feComposite in="SourceGraphic"></feComposite>
    </filter>
    <filter id="drop-shadow-17">
      <feOffset dx="-5.67" dy="7"></feOffset>
      <feGaussianBlur result="blur-17" stdDeviation="5"></feGaussianBlur>
      <feFlood flood-color="#000" flood-opacity=".1"></feFlood>
      <feComposite in2="blur-17" operator="in"></feComposite>
      <feComposite in="SourceGraphic"></feComposite>
    </filter>
    <filter id="drop-shadow-18">
      <feOffset dx="-5.67" dy="7"></feOffset>
      <feGaussianBlur result="blur-18" stdDeviation="5"></feGaussianBlur>
      <feFlood flood-color="#000" flood-opacity=".1"></feFlood>
      <feComposite in2="blur-18" operator="in"></feComposite>
      <feComposite in="SourceGraphic"></feComposite>
    </filter>
    <filter id="drop-shadow-19">
      <feOffset dx="-5.67" dy="7"></feOffset>
      <feGaussianBlur result="blur-19" stdDeviation="5"></feGaussianBlur>
      <feFlood flood-color="#000" flood-opacity=".1"></feFlood>
      <feComposite in2="blur-19" operator="in"></feComposite>
      <feComposite in="SourceGraphic"></feComposite>
    </filter>
  </defs>
  <g id="Ebene_1-2">
    <g id="Ebene_1-2" class="cls-20">
      <polygon class="cls-1" points="66.74 260.13 52.08 298.33 49.47 305.95 46.85 298.33 32.28 260.13 28.23 260.13 47.31 309.47 51.71 309.47 70.69 260.13 66.74 260.13"></polygon>
      <rect class="cls-1" x="122.04" y="260.13" width="3.74" height="49.32"></rect>
      <polygon class="cls-1" points="176.97 260.13 176.97 263.58 194.97 263.58 194.97 309.47 198.71 309.47 198.71 263.58 216.73 263.58 216.73 260.13 176.97 260.13"></polygon>
      <path class="cls-1" d="m274.64,268.89l1.79-5.09h0l1.79,5.23,8.59,21.53h-20.76l8.59-21.67Zm-.37-8.74l-19.76,49.32h3.96l6.14-15.45h23.62l6.21,15.47h3.93l-19.71-49.34h-4.4Z"></path>
      <polygon class="cls-1" points="349.44 260.13 349.44 309.47 384.34 309.47 384.34 306.03 353.18 306.03 353.18 286.14 376.87 286.14 376.87 282.63 353.18 282.63 353.18 263.58 383.15 263.58 383.15 260.13 349.44 260.13"></polygon>
      <path class="cls-1" d="m23.43,188.58h22.03l-7.38-17.29c-.45-.96-.86-1.87-1.22-2.71s-.71-1.62-1.07-2.57l-1.12-2.68c-.26-.78-.58-1.62-.97-2.52-.65,2.14-1.27,3.98-1.84,5.52s-1.17,3.25-1.75,4.87l-6.68,17.37Zm11.06-40.1c1.24-.28,2.51-.41,3.79-.39l23.12,53.01c.78,1.82,1.48,3.25,2.1,4.47.49.97,1.07,1.9,1.74,2.76.44.59.99,1.09,1.62,1.46.62.32,1.29.53,1.98.63.22.69.39,1.41.49,2.13.07.68.1,1.36.1,2.05h-2.14l-2.97-.19-3.25-.1h-5.44l-3.15.1-2.96.1h-2.1c0-.78,0-1.53.1-2.23.05-.68.25-1.35.58-1.95,1.07-.07,2.13-.27,3.15-.58.65-.18,1.2-.62,1.51-1.22.27-.7.3-1.46.1-2.18-.3-1.23-.72-2.44-1.25-3.59l-4.27-9.91c-4.21,0-8.65.03-13.31.1-4.46.06-8.61.16-12.43.29l-2.53,6.81c-1.49,3.82-1.95,6.44-1.36,7.86.58,1.42,2.21,2.24,4.87,2.47.49,1.33.73,2.75.68,4.18-1.06-.15-2.53-.15-4.31-.15h-9.5c-1.38,0-2.58.13-3.49.19,0-.7.05-1.4.15-2.1.08-.68.26-1.35.54-1.98.78-.17,1.53-.47,2.23-.88.73-.45,1.36-1.04,1.85-1.74.65-.95,1.2-1.98,1.62-3.05.54-1.26,1.2-2.88,1.98-4.87l20.18-51.5Z"></path>
      <path class="cls-1" d="m115.38,152.17c-1.09.14-2.18.33-3.25.58v27.2c.61.12,1.23.19,1.85.19.78,0,1.62.1,2.44.1,2.5.02,4.99-.26,7.42-.83,2.16-.48,4.2-1.37,6.03-2.62,1.68-1.16,3.06-2.71,4.03-4.52,1.02-2.01,1.52-4.24,1.46-6.5.16-3.67-1.15-7.25-3.64-9.96-2.43-2.56-6.55-3.83-12.38-3.83-1.33,0-2.66.06-3.98.19m-7.85-3.51c2.71,0,5.43,0,8.12-.1s5.38-.1,8.12-.1c3.22-.06,6.43.36,9.52,1.27,2.37.71,4.58,1.88,6.5,3.44,1.66,1.39,2.98,3.16,3.83,5.15.86,2.06,1.3,4.27,1.27,6.5.1,4.3-1.59,8.45-4.66,11.47-3.23,3.06-7.22,5.2-11.55,6.21.84.78,1.62,1.55,2.32,2.32.94,1.02,1.82,2.11,2.62,3.25.84,1.2,1.72,2.58,2.63,4.13.91,1.62,1.98,3.46,3.25,5.73,1.76,3.39,4.03,6.5,6.71,9.23,2.21,2.05,5.11,3.21,8.12,3.25v2.13c-.04.69-.16,1.38-.34,2.05-2.46,0-5.01.03-7.67.1-2.65.06-5.18.23-7.57.49-1.08-1.61-2.34-3.75-3.79-6.4s-2.96-5.53-4.57-8.64c-1.55-3.07-3.37-6-5.44-8.74-1.71-2.37-3.59-4.6-5.62-6.69-2.36.13-4.73.13-7.1,0v17.27c0,3.25.45,5.42,1.36,6.5,1.34,1.32,3.18,2,5.05,1.88.21.65.34,1.32.39,2,0,.75.1,1.48.1,2.18-2.11-.09-4.27-.13-6.47-.13h-14.23c-1.01,0-1.87,0-2.58.15,0-.71,0-1.43.1-2.13.06-.69.19-1.38.39-2.05,1.95.13,3.87-.55,5.3-1.88.94-1.08,1.41-3.25,1.41-6.5v-40.99c0-3.25-.47-5.44-1.41-6.66s-2.7-1.79-5.3-1.79c-.19-.64-.32-1.29-.39-1.95,0-.65-.1-1.36-.1-2.13.97.06,2.6.11,4.87.15,2.27.03,4.54.03,6.79,0"></path>
      <path class="cls-1" d="m197.15,182.18v18.73c-.04,1.63.09,3.27.39,4.87.18,1.04.67,2.01,1.41,2.76.77.7,1.73,1.15,2.76,1.32,1.48.25,2.97.37,4.47.34,4.79,0,8.3-1.2,10.54-3.59,2.38-2.8,3.57-6.41,3.33-10.07.11-2.56-.54-5.09-1.88-7.28-1.23-1.85-2.91-3.37-4.87-4.42-2.08-1.09-4.33-1.81-6.66-2.13-2.39-.35-4.81-.53-7.23-.54h-2.26Zm1.46-29.42c-.49.07-.98.17-1.46.29v24.76h3.01c2.59.07,5.18-.28,7.67-1.02,1.78-.54,3.41-1.49,4.76-2.76,1.12-1.08,1.94-2.44,2.39-3.93.42-1.47.64-2.99.63-4.52.07-2.18-.4-4.35-1.36-6.3-.84-1.6-2.03-2.98-3.49-4.03-1.4-.99-2.99-1.7-4.66-2.08-1.6-.37-3.23-.57-4.87-.58-.85,0-1.7.06-2.53.19m-7.75-4.09c2.32,0,4.66,0,6.99-.1s4.61-.1,6.9-.1c2.65,0,5.3.2,7.91.63,2.31.36,4.54,1.12,6.6,2.23,1.86,1.02,3.42,2.51,4.52,4.32,1.17,2.14,1.73,4.55,1.62,6.99.11,3.91-1.24,7.72-3.79,10.69-2.65,2.98-6.31,4.87-10.27,5.33,2.44.12,4.87.5,7.23,1.12,2.18.56,4.24,1.51,6.08,2.81,1.78,1.3,3.21,3.02,4.18,5,1.12,2.36,1.68,4.96,1.62,7.57.02,2.55-.43,5.08-1.32,7.47-.87,2.33-2.28,4.41-4.13,6.08-2.12,1.85-4.61,3.23-7.29,4.06-3.44,1.08-7.02,1.59-10.63,1.51h-14.07l-7.15.1c-2.23,0-3.96.05-5.2.15-.06-1.41.1-2.82.49-4.18,1.1-.03,2.2-.21,3.25-.54.84-.27,1.58-.8,2.1-1.51.57-.86.95-1.84,1.1-2.86.25-1.52.37-3.07.34-4.61v-39.84c0-3.25-.47-5.43-1.41-6.5-1.43-1.32-3.35-2-5.3-1.88-.22-.61-.35-1.25-.39-1.9,0-.75-.1-1.51-.1-2.29,1.3.13,2.87.21,4.71.24h5.39"></path>
      <path class="cls-1" d="m268.42,178.67c.01,4,.56,7.99,1.62,11.84.94,3.62,2.49,7.06,4.6,10.15,1.96,2.87,4.51,5.29,7.49,7.1,3.12,1.82,6.69,2.74,10.3,2.66,2.96.05,5.89-.66,8.5-2.08,2.5-1.41,4.67-3.34,6.35-5.67,1.82-2.55,3.17-5.42,3.98-8.45.93-3.39,1.39-6.89,1.36-10.4.03-4.15-.6-8.28-1.85-12.23-1.11-3.59-2.82-6.97-5.05-9.99-2.03-2.75-4.63-5.03-7.62-6.69-2.96-1.62-6.29-2.46-9.67-2.44-2.75-.03-5.47.59-7.93,1.82-2.49,1.29-4.65,3.12-6.35,5.35-1.87,2.48-3.29,5.27-4.18,8.25-1.05,3.48-1.55,7.09-1.51,10.72m-10.01,2.63c-.05-4.63.79-9.24,2.49-13.55,1.55-3.95,3.87-7.56,6.81-10.63,2.88-2.99,6.35-5.34,10.19-6.9,3.97-1.6,8.22-2.41,12.51-2.37,4.38-.04,8.74.78,12.8,2.42,3.82,1.55,7.28,3.89,10.15,6.86,2.91,3.05,5.19,6.64,6.71,10.58,1.66,4.36,2.48,8.99,2.42,13.65.04,4.56-.76,9.09-2.37,13.35-1.51,3.97-3.77,7.61-6.66,10.72-2.86,3.06-6.32,5.5-10.15,7.18-4.1,1.79-8.53,2.69-13,2.63-4.5.06-8.97-.82-13.11-2.58-3.85-1.64-7.31-4.07-10.15-7.13-2.85-3.11-5.06-6.75-6.5-10.72-1.55-4.31-2.32-8.87-2.27-13.45"></path>
      <path class="cls-1" d="m369.51,152.17c-1.09.14-2.18.33-3.25.58v27.2c.61.12,1.23.19,1.85.19.78,0,1.62.1,2.42.1,2.5.02,4.99-.26,7.42-.83,2.16-.48,4.2-1.37,6.03-2.62,1.68-1.16,3.06-2.71,4.03-4.52,1.02-2.01,1.52-4.24,1.46-6.5.16-3.67-1.15-7.25-3.64-9.96-2.43-2.56-6.55-3.83-12.38-3.83-1.33,0-2.66.06-3.98.19m-7.83-3.51c2.71,0,5.43,0,8.12-.1s5.38-.1,8.12-.1c3.22-.06,6.43.36,9.52,1.27,2.37.71,4.58,1.88,6.5,3.44,1.66,1.39,2.98,3.16,3.83,5.15.86,2.06,1.3,4.27,1.27,6.5.09,4.3-1.59,8.45-4.66,11.47-3.22,3.03-7.18,5.15-11.49,6.16.84.78,1.62,1.55,2.32,2.32.94,1.02,1.82,2.11,2.62,3.25.84,1.2,1.72,2.58,2.63,4.13.91,1.62,1.98,3.46,3.25,5.73,1.76,3.39,4.03,6.5,6.71,9.23,2.21,2.05,5.11,3.21,8.12,3.25v2.13c-.04.69-.16,1.38-.34,2.05-2.47,0-5.03.03-7.67.1s-5.17.23-7.57.49c-1.08-1.61-2.34-3.75-3.79-6.4-1.44-2.65-2.99-5.52-4.66-8.59-1.55-3.07-3.37-6-5.44-8.74-1.71-2.37-3.59-4.6-5.62-6.69-2.36.13-4.73.13-7.1,0v17.27c0,3.25.45,5.42,1.36,6.5,1.34,1.32,3.18,2,5.05,1.88.21.65.34,1.32.39,2,0,.75.1,1.48.1,2.18-2.07-.13-4.2-.21-6.4-.24h-11.16l-3.1.1c-1.01,0-1.87,0-2.58.15,0-.71,0-1.43.1-2.13.06-.69.19-1.38.39-2.05,1.95.13,3.87-.55,5.3-1.88.94-1.08,1.41-3.25,1.41-6.5v-40.97c0-3.25-.47-5.44-1.41-6.66s-2.7-1.79-5.3-1.79c-.19-.64-.32-1.29-.39-1.95,0-.65-.1-1.36-.1-2.13.97.06,2.6.11,4.87.15,2.27.03,4.54.03,6.81,0"></path>
    </g>
    <path class="cls-8" d="m48.26,24.31v15.74h-2.83l-.14-4.2c-.91,1.51-2.25,2.72-3.84,3.48-1.88.85-3.92,1.26-5.98,1.2-2.68.07-5.33-.61-7.65-1.95-2.22-1.32-3.99-3.26-5.1-5.59-1.21-2.68-1.8-5.6-1.7-8.53-.07-2.94.56-5.85,1.83-8.5,1.12-2.32,2.89-4.26,5.1-5.59,2.32-1.34,4.96-2.02,7.64-1.97,2.64-.1,5.27.5,7.6,1.75,2.11,1.28,3.79,3.15,4.85,5.38l-3.45,1.89c-.63-1.69-1.82-3.13-3.37-4.06-1.72-.99-3.67-1.48-5.65-1.42-1.97-.02-3.9.52-5.56,1.57-1.62,1.06-2.9,2.56-3.68,4.33-.93,2.1-1.38,4.39-1.32,6.69-.2,3.3.77,6.57,2.74,9.23,1.98,2.25,4.88,3.46,7.87,3.27,2.39.1,4.74-.63,6.64-2.08,1.74-1.49,2.67-3.72,2.5-6.01v-1.09h-9.92v-3.54h13.43Z"></path>
    <polygon class="cls-9" points="62.78 8.87 62.78 40.04 85.33 40.04 85.33 36.49 66.54 36.49 66.54 26.01 80.61 26.01 80.61 22.47 66.54 22.47 66.54 12.41 84.64 12.41 84.64 8.87 62.78 8.87"></polygon>
    <path class="cls-4" d="m120.61,15.01l-3.26,2.64c-.68-1.75-1.84-3.28-3.34-4.41-1.62-.95-3.49-1.4-5.37-1.29-1.99-.12-3.97.4-5.65,1.48-1.29.83-2.06,2.26-2.06,3.79-.03.9.25,1.79.8,2.5.72.79,1.64,1.39,2.66,1.73,1.67.6,3.4,1.04,5.16,1.31,3.13.33,6.13,1.41,8.75,3.15,1.72,1.4,2.68,3.54,2.57,5.76.05,1.7-.47,3.36-1.48,4.72-1.08,1.42-2.55,2.51-4.22,3.15-2.01.77-4.15,1.14-6.3,1.1-2.8.08-5.57-.55-8.06-1.84-2.12-1.13-3.87-2.83-5.07-4.91l3.26-2.64c.79,1.78,2.1,3.29,3.76,4.31,1.88,1.1,4.03,1.64,6.2,1.57,2.04.1,4.07-.37,5.86-1.35,1.37-.76,2.21-2.22,2.17-3.79.01-1.36-.71-2.63-1.89-3.31-2.09-1.09-4.36-1.8-6.71-2.08-3.15-.36-6.17-1.43-8.83-3.15-1.73-1.36-2.7-3.47-2.6-5.67,0-1.65.49-3.26,1.42-4.63.99-1.52,2.39-2.74,4.03-3.51,1.93-.87,4.02-1.3,6.14-1.26,5.57,0,9.59,2.2,12.04,6.61"></path>
    <path class="cls-2" d="m158.63,28.42c.25,3.32-.89,6.6-3.15,9.05-2.51,2.17-5.78,3.27-9.1,3.04-3.33.21-6.61-.92-9.1-3.15-2.25-2.45-3.39-5.71-3.15-9.02V8.87h3.78v18.61c-.21,2.57.52,5.13,2.06,7.19,1.7,1.66,4.04,2.5,6.41,2.3,2.37.2,4.71-.64,6.41-2.3,1.54-2.07,2.27-4.63,2.06-7.19V8.87h3.78v19.55Z"></path>
    <polygon class="cls-6" points="195.05 8.87 195.05 30.87 195.23 35.88 195.19 35.88 191.83 29.65 178.85 8.87 174.17 8.87 174.17 40.04 177.76 40.04 177.76 18.03 177.57 13.02 177.62 13.02 180.92 19.16 193.96 40.04 198.63 40.04 198.63 8.87 195.05 8.87"></polygon>
    <path class="cls-3" d="m233.28,33.31c2.11-2.45,3.18-5.62,2.99-8.85.2-3.23-.88-6.41-2.99-8.86-2.2-2.19-5.23-3.33-8.33-3.15h-6.66v24.09h6.66c3.1.18,6.13-.96,8.33-3.15m2.82-20.39c2.77,2.71,4.16,6.55,4.16,11.52s-1.39,8.82-4.16,11.52c-3.14,2.85-7.29,4.31-11.52,4.06h-10.06V8.87h10.06c4.23-.25,8.39,1.21,11.52,4.06"></path>
    <polygon class="cls-7" points="274.86 8.87 274.86 22.47 257.95 22.47 257.95 8.87 254.17 8.87 254.17 40.04 257.95 40.04 257.95 26.01 274.86 26.01 274.86 40.04 278.64 40.04 278.64 8.87 274.86 8.87"></polygon>
    <polygon class="cls-5" points="294.51 8.87 294.51 40.04 317.08 40.04 317.08 36.49 298.28 36.49 298.28 26.01 312.36 26.01 312.36 22.47 298.28 22.47 298.28 12.41 316.37 12.41 316.37 8.87 294.51 8.87"></polygon>
    <rect class="cls-15" x="330.31" y="8.87" width="3.78" height="31.17"></rect>
    <polygon class="cls-14" points="346.36 8.87 346.36 12.41 357.23 12.41 357.23 40.04 361 40.04 361 12.41 371.87 12.41 371.87 8.87 346.36 8.87"></polygon>
    <path class="cls-12" d="m404.78,15.01l-3.26,2.64c-.69-1.76-1.87-3.29-3.38-4.42-1.62-.94-3.48-1.39-5.35-1.29-1.99-.11-3.96.42-5.64,1.5-1.29.83-2.06,2.26-2.06,3.79-.03.9.25,1.79.8,2.5.72.79,1.64,1.39,2.66,1.73,1.68.6,3.41,1.04,5.18,1.31,3.13.33,6.14,1.41,8.77,3.15,1.72,1.4,2.68,3.54,2.57,5.76.04,1.7-.48,3.36-1.5,4.72-1.08,1.42-2.55,2.51-4.22,3.15-2.01.77-4.15,1.14-6.3,1.1-2.8.08-5.57-.55-8.06-1.84-2.12-1.13-3.88-2.83-5.08-4.91l3.31-2.79c.79,1.78,2.09,3.29,3.75,4.31,1.88,1.1,4.04,1.64,6.22,1.57,2.01.08,4.01-.39,5.78-1.37,1.37-.76,2.21-2.22,2.17-3.79.01-1.36-.71-2.63-1.89-3.31-2.09-1.09-4.36-1.8-6.71-2.08-3.15-.36-6.17-1.43-8.83-3.15-1.73-1.36-2.7-3.47-2.6-5.67,0-1.65.49-3.26,1.42-4.63,1.02-1.47,2.44-2.63,4.08-3.35,1.93-.87,4.03-1.29,6.14-1.24,5.57,0,9.59,2.2,12.04,6.61"></path>
    <polygon class="cls-13" points="108.62 85.28 108.62 88.82 84.11 88.82 84.11 85.47 103.52 61.19 84.58 61.19 84.58 57.65 108 57.65 108 61.01 88.59 85.28 108.62 85.28"></polygon>
    <polygon class="cls-16" points="144.56 85.28 144.56 88.82 121.98 88.82 121.98 57.65 143.85 57.65 143.85 61.19 125.76 61.19 125.76 71.25 139.84 71.25 139.84 74.8 125.76 74.8 125.76 85.28 144.56 85.28"></polygon>
    <polygon class="cls-11" points="182.25 88.82 177.57 88.82 164.54 67.95 161.23 61.81 161.18 61.81 161.37 66.81 161.37 88.82 157.78 88.82 157.78 57.65 162.46 57.65 175.45 78.43 178.8 84.67 178.85 84.67 178.66 79.66 178.66 57.65 182.25 57.65 182.25 88.82"></polygon>
    <polygon class="cls-10" points="219.98 61.19 209.12 61.19 209.12 88.82 205.34 88.82 205.34 61.19 194.48 61.19 194.48 57.65 219.98 57.65 219.98 61.19"></polygon>
    <path class="cls-17" d="m236.04,72.34h7.98c4.41,0,6.61-1.86,6.61-5.57s-2.2-5.57-6.61-5.57h-7.98v11.15Zm7.46,3.54h-7.46v12.94h-3.78v-31.17h11.81c2.76-.14,5.48.74,7.65,2.46,1.93,1.66,2.99,4.11,2.88,6.66.06,2.02-.59,3.99-1.84,5.57-1.3,1.57-3.07,2.67-5.05,3.15l8.78,13.37h-4.49l-8.5-12.97Z"></path>
    <path class="cls-18" d="m293.48,77.2c.25,3.32-.89,6.6-3.15,9.05-5.38,4.08-12.81,4.08-18.18,0-2.25-2.45-3.39-5.71-3.15-9.02v-19.58h3.78v18.61c-.21,2.57.52,5.13,2.06,7.19,3.72,3.05,9.08,3.05,12.8,0,1.54-2.07,2.26-4.63,2.05-7.19v-18.61h3.79v19.55Z"></path>
    <polygon class="cls-19" points="339.14 88.82 335.55 88.82 335.55 69.22 335.97 61.01 335.93 61.01 325.68 88.82 322.47 88.82 312.22 61.01 312.17 61.01 312.59 69.22 312.59 88.82 309.01 88.82 309.01 57.65 314.81 57.65 321.66 76.59 324.02 84.38 324.12 84.38 326.53 76.64 333.33 57.65 339.14 57.65 339.14 88.82"></polygon>
  </g>
</svg>
