<?xml version="1.0" encoding="UTF-8"?>
<!-- Generator: Adobe Illustrator 20.1.0, SVG Export Plug-In . SVG Version: 6.00 Build 0)  -->
<svg xmlns="http://www.w3.org/2000/svg" xmlns:xlink="http://www.w3.org/1999/xlink" version="1.1" id="Ebene_1" x="0px" y="0px" viewBox="0 0 283.5 283.5" style="enable-background:new 0 0 283.5 283.5;" xml:space="preserve">
<style type="text/css">
	.st0{fill:#9C8E72;}
</style>
<path class="st0" d="M258.4,93c-1.7,0.7-3,1.3-5,2.2c-16.7-37.3-44.8-61.4-84.1-71.1c-30.7-7.6-60.6-2.9-87.9,13.2  C28.2,68.8,6.8,133.7,31.6,189.5c25,56.4,89,87.2,149.9,66c53.3-18.6,82.1-70.6,80.3-111.1c-24.6,0-75,0-75,0s9,20.5,13.4,30.5  c-3.5,1.7-6.2,3.1-9.3,4.6c-3.8-7.9-11.6-24.3-11.6-24.3l-37.4,82L104.7,155l-11.5,24.7l-9.3-4.8l14.7-33.2l-14.7-33.5l9.7-4.6  l11.3,24.2L142,45.4l37.3,82.6l11.2-24l9.8,3.9l-13.4,30.6c0,0,54.4,0,80.6,0c2.9,50.3-29.9,108.2-92.5,124.8  c-66.1,17.5-134.3-19.6-153.9-86.6C3.2,115.3,33.8,46,99,23C162,0.8,230.4,28.7,258.4,93z M110.6,141.5  c10.5,23.2,31.4,69.8,31.4,69.8l30.3-67.6c0,0-20.7,0-30.5,0c0-1.9,0-3.1,0-5.3c9.9,0,30.1,0,30.1,0l-30-66.6  C142,71.8,120.8,118.9,110.6,141.5z"></path>
</svg>
