<?xml version="1.0" encoding="UTF-8"?>
<!-- Generator: Adobe Illustrator 27.1.1, SVG Export Plug-In . SVG Version: 6.00 Build 0)  -->
<svg xmlns="http://www.w3.org/2000/svg" xmlns:xlink="http://www.w3.org/1999/xlink" version="1.1" id="Ebene_1" x="0px" y="0px" viewBox="0 0 283.5 496.1" style="enable-background:new 0 0 283.5 496.1;" xml:space="preserve">
<style type="text/css">
	.st0{fill:#9B8E72;}
	.st1{fill:#9C8E72;}
</style>
<polygon class="st0" points="55.4,431.7 46.4,455.2 44.8,459.9 43.2,455.2 34.2,431.7 31.7,431.7 43.5,462.1 46.2,462.1 57.9,431.7   "></polygon>
<rect x="89.5" y="431.7" class="st0" width="2.3" height="30.4"></rect>
<polygon class="st0" points="123.3,431.7 123.3,433.8 134.4,433.8 134.4,462.1 136.7,462.1 136.7,433.8 147.7,433.8 147.7,431.7 "></polygon>
<path class="st0" d="M183.4,437.1l1.1-3.1l0,0l1.1,3.2l5.3,13.2h-12.8L183.4,437.1z M183.2,431.7L171,462.1h2.4l3.8-9.5h14.5  l3.8,9.5h2.4l-12.1-30.4H183.2z"></path>
<polygon class="st0" points="229.4,431.7 229.4,462.1 250.9,462.1 250.9,459.9 231.7,459.9 231.7,447.7 246.3,447.7 246.3,445.5   231.7,445.5 231.7,433.8 250.2,433.8 250.2,431.7 "></polygon>
<g>
	<g>
		<path class="st0" d="M37.2,44.8v10h-1.8l-0.1-2.7c-0.6,1-1.4,1.7-2.4,2.2c-1.1,0.5-2.3,0.8-3.8,0.8c-1.9,0-3.5-0.4-4.9-1.2    s-2.4-2-3.2-3.5c-0.8-1.5-1.1-3.3-1.1-5.4c0-2.1,0.4-3.9,1.2-5.4c0.8-1.5,1.8-2.7,3.2-3.6c1.4-0.8,3-1.2,4.8-1.2    c2,0,3.6,0.4,4.8,1.1c1.3,0.7,2.3,1.9,3.1,3.4l-2.2,1.2c-0.4-1.1-1.2-2-2.1-2.6c-1-0.6-2.2-0.9-3.6-0.9c-1.3,0-2.5,0.3-3.5,1    c-1,0.6-1.8,1.6-2.4,2.7c-0.6,1.2-0.8,2.6-0.8,4.2c0,2.5,0.6,4.5,1.7,5.9c1.2,1.4,2.8,2.1,5,2.1c1.7,0,3.1-0.4,4.2-1.3    c1.1-0.9,1.6-2.1,1.6-3.8v-0.7h-6.3v-2.2L37.2,44.8L37.2,44.8z"></path>
	</g>
</g>
<polygon class="st0" points="46.4,35 46.4,54.8 60.8,54.8 60.8,52.6 48.8,52.6 48.8,45.9 57.8,45.9 57.8,43.7 48.8,43.7 48.8,37.3   60.3,37.3 60.3,35 "></polygon>
<g>
	<g>
		<path class="st0" d="M83.2,38.9l-2.1,1.7c-0.6-1.3-1.3-2.3-2.1-2.8c-0.8-0.5-2-0.8-3.4-0.8c-1.5,0-2.7,0.3-3.6,0.9    c-0.9,0.6-1.3,1.4-1.3,2.4c0,0.6,0.2,1.2,0.5,1.6c0.3,0.4,0.9,0.8,1.7,1.1c0.8,0.3,1.9,0.6,3.3,0.8c2.6,0.4,4.5,1.1,5.6,2    s1.6,2.1,1.6,3.7c0,1.1-0.3,2.1-0.9,3s-1.5,1.5-2.7,2s-2.5,0.7-4,0.7c-2,0-3.7-0.4-5.1-1.2s-2.5-1.8-3.2-3.1l2.1-1.7    c0.5,1.2,1.3,2.1,2.4,2.7c1,0.6,2.4,1,3.9,1c1.6,0,2.8-0.3,3.7-0.9c0.9-0.6,1.4-1.4,1.4-2.4c0-0.9-0.4-1.6-1.2-2.1    c-0.8-0.5-2.2-1-4.3-1.3c-2.6-0.5-4.5-1.1-5.6-2s-1.6-2.1-1.6-3.6c0-1.1,0.3-2,0.9-2.9s1.5-1.6,2.6-2.1s2.4-0.8,3.9-0.8    C79.1,34.7,81.6,36.1,83.2,38.9"></path>
	</g>
	<g>
		<path class="st0" d="M107.3,47.4c0,2.5-0.7,4.5-2,5.7C104,54.4,102,55,99.5,55s-4.4-0.6-5.8-2c-1.3-1.3-2-3.2-2-5.7V35h2.4v11.8    c0,2.1,0.4,3.6,1.3,4.6s2.2,1.5,4.1,1.5c1.8,0,3.2-0.5,4.1-1.5s1.3-2.5,1.3-4.6V35h2.4V47.4z"></path>
	</g>
</g>
<polygon class="st0" points="130.5,35 130.5,49 130.6,52.2 130.6,52.2 128.4,48.2 120.2,35 117.2,35 117.2,54.8 119.5,54.8   119.5,40.8 119.4,37.7 119.4,37.7 121.5,41.6 129.8,54.8 132.8,54.8 132.8,35 "></polygon>
<g>
	<g>
		<path class="st0" d="M154.8,50.6c1.3-1.4,1.9-3.2,1.9-5.6s-0.6-4.3-1.9-5.6c-1.3-1.4-3-2-5.3-2h-4.2v15.3h4.2    C151.7,52.6,153.5,51.9,154.8,50.6 M156.5,37.6c1.8,1.7,2.6,4.2,2.6,7.3s-0.9,5.6-2.6,7.3c-1.8,1.7-4.2,2.6-7.3,2.6h-6.4V35h6.4    C152.3,35,154.8,35.9,156.5,37.6"></path>
	</g>
</g>
<polygon class="st0" points="181.2,35 181.2,43.7 170.4,43.7 170.4,35 168,35 168,54.8 170.4,54.8 170.4,45.9 181.2,45.9   181.2,54.8 183.6,54.8 183.6,35 "></polygon>
<polygon class="st0" points="193.7,35 193.7,54.8 208,54.8 208,52.6 196.1,52.6 196.1,45.9 205,45.9 205,43.7 196.1,43.7   196.1,37.3 207.5,37.3 207.5,35 "></polygon>
<rect x="216.4" y="35" class="st0" width="2.4" height="19.8"></rect>
<polygon class="st0" points="226.6,35 226.6,37.3 233.5,37.3 233.5,54.8 235.9,54.8 235.9,37.3 242.8,37.3 242.8,35 "></polygon>
<g>
	<g>
		<path class="st0" d="M263.7,38.9l-2.1,1.7c-0.6-1.3-1.3-2.3-2.1-2.8c-0.8-0.5-2-0.8-3.4-0.8c-1.5,0-2.7,0.3-3.6,0.9    c-0.9,0.6-1.3,1.4-1.3,2.4c0,0.6,0.2,1.2,0.5,1.6c0.3,0.4,0.9,0.8,1.7,1.1s1.9,0.6,3.3,0.8c2.6,0.4,4.5,1.1,5.6,2s1.6,2.1,1.6,3.7    c0,1.1-0.3,2.1-0.9,3s-1.5,1.5-2.7,2s-2.5,0.7-4,0.7c-2,0-3.7-0.4-5.1-1.2c-1.4-0.8-2.5-1.8-3.2-3.1l2.1-1.7    c0.5,1.2,1.3,2.1,2.4,2.7s2.4,1,3.9,1c1.6,0,2.8-0.3,3.7-0.9c0.9-0.6,1.4-1.4,1.4-2.4c0-0.9-0.4-1.6-1.2-2.1s-2.2-1-4.3-1.3    c-2.6-0.5-4.5-1.1-5.6-2s-1.7-2.1-1.7-3.6c0-1.1,0.3-2,0.9-2.9c0.6-0.9,1.5-1.6,2.6-2.1s2.4-0.8,3.9-0.8    C259.6,34.7,262.1,36.1,263.7,38.9"></path>
	</g>
</g>
<polygon class="st0" points="75.6,83.6 75.6,85.8 60,85.8 60,83.7 72.3,68.3 60.3,68.3 60.3,66 75.2,66 75.2,68.1 62.9,83.6 "></polygon>
<polygon class="st0" points="98.4,83.6 98.4,85.8 84.1,85.8 84.1,66 98,66 98,68.3 86.5,68.3 86.5,74.7 95.4,74.7 95.4,76.9   86.5,76.9 86.5,83.6 "></polygon>
<polygon class="st0" points="122.3,85.8 119.4,85.8 111.1,72.6 109,68.7 109,68.7 109.1,71.8 109.1,85.8 106.8,85.8 106.8,66   109.8,66 118,79.2 120.2,83.2 120.2,83.2 120.1,80 120.1,66 122.3,66 "></polygon>
<polygon class="st0" points="146.3,68.3 139.4,68.3 139.4,85.8 137,85.8 137,68.3 130.1,68.3 130.1,66 146.3,66 "></polygon>
<g>
	<g>
		<path class="st0" d="M156.5,75.3h5.1c2.8,0,4.2-1.2,4.2-3.5c0-2.4-1.4-3.5-4.2-3.5h-5.1V75.3z M161.3,77.6h-4.7v8.2h-2.4V66h7.5    c2,0,3.6,0.5,4.9,1.6c1.2,1,1.8,2.5,1.8,4.2c0,1.4-0.4,2.6-1.2,3.5c-0.8,1-1.8,1.6-3.2,2l5.6,8.5h-2.9L161.3,77.6z"></path>
	</g>
	<g>
		<path class="st0" d="M193,78.4c0,2.5-0.7,4.5-2,5.7c-1.3,1.3-3.3,1.9-5.8,1.9s-4.4-0.6-5.8-2c-1.3-1.3-2-3.2-2-5.7V66h2.4v11.8    c0,2.1,0.4,3.6,1.3,4.6s2.2,1.5,4.1,1.5c1.8,0,3.2-0.5,4.1-1.5c0.9-1,1.3-2.5,1.3-4.6V66h2.4V78.4z"></path>
	</g>
</g>
<polygon class="st0" points="222,85.8 219.7,85.8 219.7,73.4 220,68.1 220,68.1 213.5,85.8 211.4,85.8 204.9,68.1 204.9,68.1   205.1,73.4 205.1,85.8 202.9,85.8 202.9,66 206.6,66 210.9,78 212.4,83 212.5,83 214,78.1 218.3,66 222,66 "></polygon>
<g>
	<g>
		<path class="st1" d="M28.8,387.7h13.6L37.8,377c-0.3-0.6-0.5-1.2-0.7-1.7s-0.4-1-0.7-1.6c-0.2-0.5-0.4-1.1-0.7-1.6    c-0.2-0.5-0.4-1-0.6-1.6c-0.4,1.3-0.8,2.4-1.1,3.4c-0.4,1-0.7,2-1.1,3L28.8,387.7z M35.6,363c0.7-0.2,1.5-0.2,2.3-0.2l14.2,32.6    c0.5,1.1,0.9,2,1.3,2.8c0.4,0.7,0.7,1.3,1.1,1.7c0.3,0.4,0.7,0.7,1,0.9c0.3,0.2,0.7,0.3,1.2,0.4c0.2,0.5,0.3,1,0.3,1.3    c0,0.4,0.1,0.8,0.1,1.3c-0.3,0-0.8,0-1.3,0c-0.6,0-1.2-0.1-1.8-0.1l-2-0.1h-1.7c-0.5,0-1,0-1.7,0s-1.3,0-1.9,0.1    c-0.6,0-1.2,0-1.8,0.1c-0.6,0-1,0-1.3,0c0-0.5,0-0.9,0.1-1.4c0-0.4,0.2-0.8,0.4-1.2c0.8-0.1,1.5-0.2,1.9-0.4    c0.5-0.2,0.8-0.4,0.9-0.7c0.2-0.3,0.2-0.8,0.1-1.3c-0.1-0.6-0.4-1.3-0.8-2.2l-2.6-6.1c-2.6,0-5.3,0-8.2,0.1    c-2.8,0-5.3,0.1-7.7,0.2l-1.6,4.1c-0.9,2.4-1.2,4-0.8,4.9c0.4,0.9,1.4,1.4,3,1.5c0.3,0.7,0.4,1.5,0.4,2.6    c-0.7-0.1-1.5-0.1-2.6-0.1s-2.1,0-3.1,0s-1.9,0-2.8,0.1c-0.9,0-1.6,0.1-2.1,0.1c0-0.4,0-0.8,0.1-1.3s0.2-0.9,0.3-1.2    c0.5-0.1,1-0.3,1.4-0.5s0.8-0.6,1.1-1.1c0.4-0.5,0.7-1.1,1-1.9s0.7-1.8,1.2-3L35.6,363z"></path>
	</g>
	<g>
		<path class="st1" d="M85.4,365.2c-0.6,0.1-1.3,0.2-2,0.4v16.7c0.4,0.1,0.8,0.1,1.1,0.1c0.5,0,1,0.1,1.5,0.1c1.6,0,3.2-0.2,4.6-0.5    s2.7-0.9,3.7-1.6c1.1-0.7,1.9-1.7,2.5-2.8c0.6-1.1,0.9-2.5,0.9-4c0-2.5-0.7-4.6-2.2-6.1c-1.5-1.6-4-2.4-7.6-2.4    C86.9,365.1,86.1,365.2,85.4,365.2 M80.5,363.1c1.7,0,3.3,0,5-0.1c1.7,0,3.3-0.1,5-0.1c2.3,0,4.2,0.3,5.9,0.8c1.6,0.5,3,1.2,4,2.1    c1.1,0.9,1.8,2,2.4,3.2c0.5,1.2,0.8,2.5,0.8,4c0,2.8-1,5.1-2.9,7.1c-1.8,1.8-4.1,3-7.1,3.8c0.5,0.5,1,1,1.4,1.4    c0.6,0.6,1.1,1.3,1.6,2s1.1,1.6,1.6,2.5c0.6,1,1.2,2.1,2,3.5c1.4,2.5,2.8,4.4,4.1,5.7c1.4,1.3,3,2,5,2c0,0.5,0,0.9,0,1.3    s-0.1,0.8-0.2,1.3c-1.5,0-3.1,0-4.7,0.1c-1.6,0-3.2,0.1-4.7,0.3c-0.6-1-1.4-2.3-2.3-3.9s-1.9-3.4-2.8-5.3c-0.9-1.8-2-3.6-3.3-5.4    c-1-1.4-2.2-2.8-3.5-4.1c-1.6,0.1-3.1,0.1-4.4,0v10.6c0,2,0.3,3.3,0.8,4c0.6,0.7,1.6,1.1,3.1,1.2c0.1,0.4,0.2,0.8,0.2,1.2    c0,0.5,0.1,0.9,0.1,1.3c-1.3-0.1-2.6-0.1-3.9-0.2c-1.4,0-2.4,0-3.2,0h-1.7c-0.6,0-1.3,0-1.9,0c-0.7,0-1.3,0-1.9,0.1    c-0.6,0-1.1,0-1.6,0.1c0-0.4,0-0.9,0.1-1.3c0-0.4,0.1-0.9,0.2-1.3c1.6-0.1,2.7-0.5,3.3-1.2c0.6-0.7,0.9-2,0.9-4v-25.2    c0-2-0.3-3.4-0.9-4.1s-1.7-1.1-3.3-1.1c-0.1-0.4-0.2-0.8-0.2-1.2c0-0.4-0.1-0.8-0.1-1.3c0.6,0,1.6,0.1,3,0.1    C77.7,363.1,79.1,363.1,80.5,363.1"></path>
	</g>
	<g>
		<path class="st1" d="M135.7,383.7v11.5c0,1.2,0.1,2.2,0.2,3c0.2,0.7,0.4,1.3,0.9,1.7c0.4,0.4,1,0.7,1.7,0.8    c0.7,0.1,1.6,0.2,2.8,0.2c2.9,0,5.1-0.7,6.5-2.2s2.1-3.5,2.1-6.2c0-1.8-0.4-3.3-1.2-4.5s-1.8-2.1-3-2.7c-1.2-0.7-2.6-1.1-4.1-1.3    c-1.5-0.2-3-0.3-4.5-0.3H135.7z M136.6,365.6c-0.3,0-0.6,0.1-0.9,0.2V381h1.9c1.9,0,3.5-0.2,4.7-0.6s2.2-1,2.9-1.7    s1.2-1.5,1.5-2.4s0.4-1.8,0.4-2.8c0-1.6-0.3-2.8-0.8-3.9c-0.6-1-1.3-1.9-2.2-2.5s-1.8-1-2.9-1.3c-1-0.2-2.1-0.4-3-0.4    C137.6,365.5,137.1,365.5,136.6,365.6 M131.9,363.1c1.4,0,2.9,0,4.3-0.1c1.4,0,2.8-0.1,4.2-0.1c1.7,0,3.3,0.1,4.9,0.4    c1.5,0.3,2.9,0.7,4.1,1.4c1.2,0.7,2.1,1.5,2.8,2.7c0.7,1.1,1,2.5,1,4.3c0,2.6-0.8,4.8-2.3,6.6c-1.6,1.8-3.7,2.9-6.3,3.3    c1.6,0.1,3,0.3,4.5,0.7c1.4,0.4,2.7,1,3.7,1.7c1.1,0.8,1.9,1.8,2.6,3.1s1,2.8,1,4.7c0,1.6-0.3,3.2-0.8,4.6s-1.4,2.7-2.5,3.7    c-1.2,1.1-2.6,1.9-4.5,2.5c-1.8,0.6-4,0.9-6.5,0.9h-4c-1.6,0-3.1,0-4.7,0c-1.6,0-3,0-4.4,0.1c-1.4,0-2.4,0-3.2,0.1    c0-1.2,0.1-2,0.3-2.6c0.8,0,1.5-0.1,2-0.3c0.5-0.2,1-0.5,1.3-0.9s0.5-1,0.7-1.8c0.1-0.7,0.2-1.7,0.2-2.8v-24.6c0-2-0.3-3.3-0.9-4    c-0.6-0.7-1.7-1.1-3.3-1.2c-0.1-0.3-0.2-0.7-0.2-1.2s-0.1-0.9-0.1-1.4c0.8,0.1,1.8,0.1,2.9,0.2    C129.7,363.1,130.8,363.1,131.9,363.1"></path>
	</g>
	<g>
		<path class="st1" d="M179.6,381.6c0,2.5,0.3,4.9,1,7.3c0.6,2.4,1.6,4.4,2.8,6.2c1.3,1.8,2.8,3.3,4.6,4.4s3.9,1.6,6.3,1.6    c2,0,3.7-0.4,5.2-1.3s2.8-2,3.9-3.5c1.1-1.5,1.9-3.2,2.5-5.2s0.8-4.1,0.8-6.4c0-2.7-0.4-5.2-1.1-7.5c-0.8-2.3-1.8-4.4-3.1-6.2    c-1.3-1.8-2.9-3.1-4.7-4.1s-3.8-1.5-5.9-1.5c-1.8,0-3.4,0.4-4.9,1.2c-1.5,0.8-2.8,1.9-3.9,3.3c-1.1,1.4-2,3.1-2.6,5.1    C179.9,376.9,179.6,379.1,179.6,381.6 M173.4,383.2c0-3,0.5-5.8,1.5-8.3s2.4-4.7,4.2-6.5s3.9-3.2,6.3-4.2c2.4-1,5-1.5,7.7-1.5    c2.9,0,5.5,0.5,7.9,1.5s4.5,2.4,6.2,4.2c1.8,1.8,3.1,4,4.1,6.5s1.5,5.3,1.5,8.4c0,2.9-0.5,5.7-1.5,8.2s-2.3,4.7-4.1,6.6    s-3.8,3.3-6.2,4.4s-5.1,1.6-8,1.6s-5.6-0.5-8.1-1.6c-2.4-1.1-4.5-2.5-6.2-4.4s-3.1-4.1-4-6.6C173.9,388.9,173.4,386.2,173.4,383.2    "></path>
	</g>
	<g>
		<path class="st1" d="M241.8,365.2c-0.6,0.1-1.3,0.2-2,0.4v16.7c0.4,0.1,0.8,0.1,1.1,0.1c0.5,0,1,0.1,1.5,0.1    c1.6,0,3.2-0.2,4.6-0.5c1.4-0.3,2.6-0.9,3.7-1.6s1.9-1.7,2.5-2.8c0.6-1.1,0.9-2.5,0.9-4c0-2.5-0.7-4.6-2.2-6.1    c-1.5-1.6-4-2.4-7.6-2.4C243.3,365.1,242.5,365.2,241.8,365.2 M236.9,363.1c1.7,0,3.3,0,5-0.1c1.7,0,3.3-0.1,5-0.1    c2.3,0,4.2,0.3,5.9,0.8c1.6,0.5,3,1.2,4,2.1c1.1,0.9,1.8,2,2.4,3.2c0.5,1.2,0.8,2.5,0.8,4c0,2.8-1,5.1-2.9,7.1    c-1.8,1.8-4.1,3-7.1,3.8c0.5,0.5,1,1,1.4,1.4c0.6,0.6,1.1,1.3,1.6,2s1.1,1.6,1.6,2.5c0.6,1,1.2,2.1,2,3.5c1.4,2.5,2.8,4.4,4.1,5.7    c1.4,1.3,3,2,5,2c0,0.5,0,0.9,0,1.3s-0.1,0.8-0.2,1.3c-1.5,0-3.1,0-4.7,0.1c-1.6,0-3.2,0.1-4.7,0.3c-0.6-1-1.4-2.3-2.3-3.9    c-0.9-1.6-1.9-3.4-2.8-5.3c-0.9-1.8-2-3.6-3.3-5.4c-1-1.4-2.2-2.8-3.5-4.1c-1.6,0.1-3.1,0.1-4.4,0v10.6c0,2,0.3,3.3,0.8,4    c0.6,0.7,1.6,1.1,3.1,1.2c0.1,0.4,0.2,0.8,0.2,1.2c0,0.5,0.1,0.9,0.1,1.3c-1.3-0.1-2.6-0.1-3.9-0.2c-1.4,0-2.4,0-3.2,0h-1.7    c-0.6,0-1.3,0-1.9,0c-0.7,0-1.3,0-1.9,0.1c-0.6,0-1.1,0-1.6,0.1c0-0.4,0-0.9,0.1-1.3c0-0.4,0.1-0.9,0.2-1.3    c1.6-0.1,2.7-0.5,3.3-1.2s0.9-2,0.9-4v-25.2c0-2-0.3-3.4-0.9-4.1c-0.6-0.7-1.7-1.1-3.3-1.1c-0.1-0.4-0.2-0.8-0.2-1.2    c0-0.4-0.1-0.8-0.1-1.3c0.6,0,1.6,0.1,3,0.1C234.1,363.1,235.5,363.1,236.9,363.1"></path>
	</g>
	<g>
		<path class="st1" d="M64,190.9c-1.8,0.7-4,0.9-5.3,2.2c-2.8,2.6-6.5,0.5-9.4,2.2c-0.5,0.3-1.6-0.3-2.5-0.5c0-0.2,0-0.5,0.1-0.7    c1.3-0.2,2.6-0.4,4.1-0.6c-0.5-0.7-0.8-1.2-1.2-1.8c1.8,1.5,3.8,2.4,6.2,1.7c-0.9-0.4-1.7-0.8-2.6-1.2c0-0.2,0.1-0.4,0.1-0.6    c0.6,0,1.2,0,1.8,0.1c2.5,0.7,4.8,0.1,7.1-1.4c-1.9-1-3.7-1.9-5.6-2.9c-3.1,1.1-6.6,1.7-10.1,1.4c-0.7-0.1-1.4-0.5-2.1-1.1h9.5    c0-0.2,0-0.3,0-0.5c-0.9-0.4-1.9-0.8-3-1.3c2-2.1,3.8,0.3,5.2,0.1c1-2.8-0.2-4.7-2-6.4c0.1-0.1,0.2-0.2,0.3-0.3    c1,1.2,2.2,2.4,2.9,3.7c0.4,0.8,0.4,1.7,1.7,1.7c1.5,0,2.8-0.1,3.6-1.7c0.1-0.3,0.2-0.7,0.3-1.1c1,1.4,0.6,3.1-0.8,3.5    c-1.3,0.4-2.5,0.8-4.4,1.4c1.9,1,3.4,1.6,4.8,2.4C63.2,189.7,63.6,190.4,64,190.9L64,190.9z"></path>
	</g>
	<g>
		<path class="st1" d="M201.2,137.1c-0.5-0.3-0.9-0.6-1.6-1.1c1.5-1.3,3.1-2.6,4.8-4.1c0.2,0.4,0.4,0.8,0.6,1.4    c1.2-0.8,2.3-1.6,3.5-2.2c0.8-0.4,1.6-0.8,2.5-0.9c1.8-0.1,2.3,1,1.3,3c-0.2-0.8-0.4-1.3-0.5-2c-2.5-0.6-3.9,1.5-5.1,2.2    c-0.2,1.9-0.4,3.3-0.6,4.9c0.3-0.1,0.7-0.3,1.2-0.4c0.9-0.2,1.9-0.4,2.8-0.6c0.1,1.1,0.3,2.2,0.1,3.2c-0.1,0.7-0.9,1.2-1.4,1.8    l-0.1,0.1c-0.9,0.4-1.8,0.6-2.2-1.1c-0.7,0.8-1.2,1.4-1.7,1.9c-0.3,0.2-0.7,0.3-1,0.4c-0.1-0.4-0.2-0.9-0.1-1.2    c0.2-0.9,1.6-1.7,0-2.9h1.9c0-0.2,0-0.3,0.1-0.5c-0.4-0.1-0.8-0.3-1.1-0.2c-2.4,0.8-2.4,0.8-2.7-1.6c1.7,0.5,3,0.4,3.1-2.3    C203.5,135.8,202.4,136.4,201.2,137.1L201.2,137.1z"></path>
	</g>
	<g>
		<path class="st1" d="M79.5,119.8c0.8,0.3,1.4,0.5,1.6,0.5c1.1-0.8,1.9-1.9,2.8-2.1c1.8-0.4,2.8,0.8,2.8,2.6c0,0.9,0.6,1.7,0.5,2.5    c-0.1,0.6-0.8,1.3-1.3,1.5c-1.2,0.4-2.4,0.4-3.8,0.6c0.6,1.3,1,2.2,1.4,3.1c-0.1,0.2-0.3,0.3-0.4,0.5c-0.6-0.4-1.5-0.6-1.7-1.1    c-0.8-2.4-1.4-4.8-2.1-7.2C79.1,120.5,79.3,120.2,79.5,119.8"></path>
	</g>
	<g>
		<path class="st1" d="M221.3,178.4c-0.2-0.8-0.5-1.6-0.8-2.4c1.7-1.1,4.5-1.2,5.4,0.2c0.5,0.8,0.2,2.2,0.3,3.4    c0.8,0.4,2.2,0.9,3.4,1.7c1.1,0.7,0.9,1.8-0.2,2.2c-1.2,0.4-2.6,0.3-3.9,0.2c-0.2,0-0.4-0.7-0.7-1.1c0.4-0.1,0.8-0.4,1.2-0.4    c0.6,0.1,1.1,0.4,1.8,0.6c-0.5-1.5-0.5-1.5-2.1-1.2c-1.8,0.3-2.6-0.3-2.1-1.8c-0.8-0.3-1.5-0.7-2.3-1    C221.4,178.6,221.4,178.5,221.3,178.4"></path>
	</g>
	<g>
		<path class="st1" d="M208.4,246.5c-0.4,1.6-0.7,3.2-1.2,4.7c-0.1,0.5-0.9,1-1.3,1c-0.4,0-1.2-0.8-1.2-1.2c0.3-2.2,0.8-4.4,1.3-6.6    c0-0.2,0.8-0.4,1.1-0.3c0.4,0.1,0.8,0.5,0.9,0.9c0.2,0.5,0.1,1,0.1,1.6C208.3,246.5,208.3,246.5,208.4,246.5"></path>
	</g>
	<g>
		<path class="st1" d="M208.9,142.3c0.8-0.3,1.6-0.6,2.3-1c1-0.6,1.9-1,2.7,0.1c0.2,0.2,0.3,0.4,0.3,0.7c0.1,1.5-2.7,4.9-4.3,5.2    c-0.4-1.6-0.8-3.3-1.1-4.9C208.8,142.4,208.8,142.4,208.9,142.3"></path>
	</g>
	<g>
		<path class="st1" d="M53.1,237.1c0.1-0.9,0-2.2,0.3-2.3c1.1-0.4,2.3-0.5,3.5-0.5c0.2,0,0.8,1.2,0.6,1.7c-0.3,0.9-0.9,1.7-1.6,2.4    c-0.4,0.4-1.2,0.5-1.9,0.6c-0.5,0.1-1.1,0.1-1.6-0.1c-0.2-0.1-0.5-0.9-0.4-1C52.2,237.5,52.8,237.3,53.1,237.1"></path>
	</g>
	<g>
		<path class="st1" d="M229.9,210c1.7-2.6,4.1-2.8,5.6-0.5c0.8,1.1,0.5,2.2-0.5,2.7c-0.6,0.3-1.8,0.2-2.4-0.1    C231.6,211.6,230.8,210.7,229.9,210"></path>
	</g>
	<g>
		<path class="st1" d="M236.8,227c1.7-2.3,3.7-2.5,5.3-0.6c0.8,1,1.1,2-0.1,3c-1.1,0.9-2,0.8-3-0.3    C238.4,228.3,237.5,227.7,236.8,227"></path>
	</g>
	<g>
		<path class="st1" d="M193.7,254c-0.3-1.3-0.7-2.7-1-4c-0.1-0.2,0.2-0.8,0.2-0.8c0.4,0,1,0,1.1,0.3c1,2,1.9,4,2.7,6.1    c0.1,0.3-0.2,1.1-0.5,1.3c-0.3,0.2-1.2,0.3-1.4,0c-0.7-0.7-1.3-1.6-1.9-2.5C193.2,254.2,193.4,254.1,193.7,254"></path>
	</g>
	<g>
		<path class="st1" d="M215.3,246.7c0.4-0.4,0.8-1,1.4-1.2c1.1-0.3,2.3-0.5,3.4-0.6c1.3-0.1,2.1,0.9,1.9,2c-0.1,0.5-1.3,1.3-2,1.2    c-1.5-0.1-2.9-0.6-4.4-0.9C215.5,247.1,215.4,246.9,215.3,246.7"></path>
	</g>
	<g>
		<path class="st1" d="M223.2,159.8c0,0-0.3,0.3-0.7,0.5c-0.2,0.1-0.7,0.1-0.8-0.1c-0.2-0.2-0.2-0.6-0.1-0.8c0.3-1.2,2.7-3,3.9-2.8    c0.5,0.1,1.4,1.1,1.3,1.2c-0.8,1.1-1.6,2.1-2.5,3.1C223.9,160.5,223.6,160.2,223.2,159.8"></path>
	</g>
	<g>
		<path class="st1" d="M198,246.1c-0.1,0.2-0.2,0.9-0.6,1.1c-0.4,0.2-1.2,0-1.5-0.3s-0.5-1.1-0.4-1.5c0.5-1.6,0.3-2.8-1.3-3.7    c-0.3-0.2-0.3-1-0.4-1.5c0.5,0,1.1-0.1,1.4,0.1C196.7,241.7,197.8,243.5,198,246.1"></path>
	</g>
	<g>
		<path class="st1" d="M220.5,251c2.1-0.1,4.4,2.7,3.7,4.9c-0.1,0.3-1.2,0.7-1.3,0.6c-0.8-0.9-1.5-1.7-2-2.8    C220.6,253,220.7,252,220.5,251"></path>
	</g>
	<g>
		<path class="st1" d="M216.4,240.7c-0.3,0.3-0.7,1-1.3,1.2c-1.1,0.3-2.1-1.5-2.1-3.6c0-0.5,0.4-1.3,0.7-1.4    C214.8,236.6,216.4,238.7,216.4,240.7"></path>
	</g>
	<g>
		<path class="st1" d="M218.3,252c0.7,0.8,1.7,1.4,2.1,2.3c0.3,0.8,0.1,1.9-0.2,2.7c-0.3,0.9-1.1,0.7-1.7,0.1    c-1.4-1.4-0.8-3.1-0.8-4.7C217.9,252.3,218.1,252.1,218.3,252"></path>
	</g>
	<g>
		<path class="st1" d="M52.4,169.1c1.4,1,2.7,2.1,4.2,3.2c0.4-1.1,0.6-1.8,0.8-2.4c0.4,3.1,1.6,5.7,3.9,7.8    c-0.2,0.1-0.4,0.3-0.6,0.5c-0.8-1-1.8-1.8-2.4-2.9c-0.7-1.3-1.5-2.3-3-2.9c-1.3-0.5-2.3-1.8-3.4-2.7    C52.1,169.4,52.2,169.2,52.4,169.1"></path>
	</g>
	<g>
		<path class="st1" d="M61.7,162.3c0.6,0.7,0.9,1.2,1.3,1.7c0.1-0.5,0.2-1.1,0.4-2.1c0.6,0.6,1.4,1.1,1.4,1.6    c0.2,1.6-1.2,2.1-2.3,2.2c-0.8,0.1-2.1-0.3-2.3-0.8C59.7,163.5,60.7,162.7,61.7,162.3"></path>
	</g>
	<g>
		<path class="st1" d="M232.1,194.2c-1-1-1.8-1.8-2.6-2.6c0.5-0.5,1.3-1.4,1.4-1.3c0.9,0.7,1.8,1.6,2.6,2.5    C233.2,193.1,232.8,193.4,232.1,194.2"></path>
	</g>
	<g>
		<path class="st1" d="M106.3,252.6c1.7,0.8,2.2,2.2,2.2,3.8c0,0.3-0.3,0.8-0.5,0.8c-0.3,0.1-0.9-0.1-1.1-0.3    C106,255.6,105.8,254.2,106.3,252.6"></path>
	</g>
	<g>
		<path class="st1" d="M58.5,239.7c0.2-1.1,0.3-1.8,0.5-2.4c0.5,0.2,1.5,0.4,1.5,0.6c0,0.9-0.1,2-0.5,2.8c-0.1,0.3-1.4,0-2.1-0.1    c0-0.2,0-0.4,0-0.6C58.2,239.8,58.6,239.6,58.5,239.7"></path>
	</g>
	<g>
		<path class="st1" d="M217.5,141.7c-0.8,0.1-1.6,0.5-2.3,0.3c-0.3-0.1-0.9-1.2-0.7-1.5c0.6-0.9,1.4-1.7,2.1-2.5    c0.2,0.2,0.4,0.3,0.6,0.5c-0.3,0.3-0.5,0.7-0.8,1s-0.8,0.5-1.2,0.8l0.3,0.5c0.6,0.1,1.3,0.3,1.9,0.4    C217.5,141.4,217.5,141.6,217.5,141.7"></path>
	</g>
	<g>
		<path class="st1" d="M57.9,165.1c-2.4-0.9-4.5-3.8-3.7-5.1C55.4,161.7,56.5,163.2,57.9,165.1"></path>
	</g>
	<g>
		<path class="st1" d="M54.5,179.7c-0.3,0.8-0.6,1.6-1.1,2.6c-0.2-0.8-0.6-1.8-0.8-2.7c0-0.3,0.5-1,0.6-0.9c0.5,0.2,1,0.5,1.5,0.8    C54.6,179.5,54.6,179.6,54.5,179.7"></path>
	</g>
	<g>
		<path class="st1" d="M221.5,178.7c-0.4,0.4-0.7,0.9-1.5,1.8c-0.2-1.2-0.2-1.7-0.3-2.3c0.5,0.1,1.1,0.1,1.6,0.2    C221.4,178.5,221.4,178.6,221.5,178.7"></path>
	</g>
	<g>
		<path class="st1" d="M221.7,174.2c-0.4,0.4-0.8,0.9-0.8,0.9c-0.5-0.3-0.9-0.7-1.4-1.1c0.2-0.2,0.5-0.7,0.7-0.7    C220.6,173.5,221.1,173.9,221.7,174.2"></path>
	</g>
	<g>
		<path class="st1" d="M149.1,239.9c0.4-1.3,0.5-2.8,0.8-4.1c0.1-0.4,0.3-0.9,0.5-1.3c0.4,3.9-0.8,7.5-2.1,11.1"></path>
	</g>
	<g>
		<path class="st1" d="M26.7,327.7c0,0,21,1.5,32.4-1.6c14.6-4,18.6-4.3,18.6-4.3s6.5-1.6,8.5-5.6c2-4.1,3.4-5.5,9.3-6.8    c3.3-0.8,6.3-2.4,8.6-3c1.8-0.4,3,0.5,5.4-1.6c4.2-4.7,5-5.4,5-5.4s-2,4.6-5.2,14.7c-1.9,10.2-9.4,13.7-9.4,13.7    s-0.7-12.4-6.3-4.3c-6.7,9.8-16.5,7.1-16.5,7.1s2.2-4.1-3.6-4.1c-5.8,0-5.5,2.7-17.7,2.7C43.7,329.1,26.7,327.7,26.7,327.7"></path>
	</g>
	<g>
		<path class="st1" d="M120.8,301.2c1.3,2.6,3.2,5.2,2.3,8.1c-1,3-3.1,4-1,5.7s6.1,1.9,10.2,3.2c4,1.4,8,3.5,5.7,6.4    c-4,4.6-5.4,8.1-5.4,11.1s1.4,9,1.4,9s0.1-7.3,4-13.5c4-6.2,6.3-8.1,2.8-11.4c-3.5-3.2-10.1-2.7-12-6.5c-1.9-3.8,1.9-6.6-2-11.1    c-3.7-4.3-5.4-10.5-5.4-12.6c0-2.2-2.4,6.2-2.4,6.2S119.5,298.7,120.8,301.2"></path>
	</g>
	<g>
		<path class="st1" d="M118,297.2c0,0-3.7,4.3-4.7,13.4c-1.1,9.1-3,12.8-5.9,15.5c-3,2.7-9.1,8.6-9.1,8.6s14.7-5.6,16.3-11    c1.6-5.4,5.7-3.7,3.4-8.7c-1.2-2.5,2.6-5.2,2.6-7.6C120.5,304.9,118,297.2,118,297.2"></path>
	</g>
	<g>
		<path class="st1" d="M122.5,278.6c0,0-0.7,13.2,2.5,18c3.2,4.9,9.1,12.3,16.8,14.6c5.3,1.6,10.9,3.2,11.1,9.4    c0.3,6.2,23.8,13.5,23.8,13.5s-9.1-5.9-13.5-12.7c-2.9-4.5-4.2-8.8-7.3-12.2c-4.7-5.1-6.5,0.9-12.1-5.3    c-5.7-6.2-6.9-1.5-10.7-10.7s-5.3-8.5-7-11.4C124.6,279,122.5,278.6,122.5,278.6"></path>
	</g>
	<g>
		<path class="st1" d="M122.5,264.3c0,0-2.7,8.1,5.7,16.7s1.4,10.1,10.5,15.9c9.2,5.8,10.8,4.3,14.6,8.1c3.8,3.8,11.2,9,11.2,9    s-3.1-9.5-9.1-14.7c-5.9-5.1-3.9-9.4-9.4-12.4c-5.6-3-8.6,0.3-10.8-4s-0.1-3.5-4.6-8.9C126,268.6,122.5,264.3,122.5,264.3"></path>
	</g>
	<g>
		<path class="st1" d="M110.6,236.8c0,0,4,12.4,6.2,15.9c2.2,3.5,2.5,7,8.1,12.4c5.6,5.4,10,11.1,10.3,13.5s0.5,1.9,5.2,4.6    s9.3,1.3,9.9,5c0.5,3.6,7.4,10.6,7.4,10.6s1.2-7.1-1-8.8c-2.2-1.8-4.1-8.6-8.6-9.2c-4.6-0.5-8.9-2.2-10.3-6.7    c-1.3-4.6,1.5-7-3.7-9.7s-6-6.7-7.6-9.2c-1.6-2.4-4.5-9.7-4.5-9.7s-7.4-6.2-8.2-8.6c-0.8-2.4-1.6-4.9-1.6-4.9L110.6,236.8z"></path>
	</g>
	<g>
		<path class="st1" d="M117.9,227.6c0,0,3.2,5.9,4.6,9.2c1.4,3.2,1.7,5.7,1.7,5.7s-0.6,1.4-0.6,3.8c0,2.4,6.1,9,6.1,9    s-3.1-7.1-3.1-10.6s-0.8-2.9,0-5.8c0.8-2.8,4-5,4-6.9v-7.8h-1.3c0,0,0.5,5.4-0.3,7.8c-0.8,2.4-2.3,2.7-3.5,5.1    c-1.2,2.4-1.1-0.8-3-4.3s-2.7-5.1-2.7-5.1L117.9,227.6L117.9,227.6z"></path>
	</g>
	<g>
		<path class="st1" d="M132.2,224.1c0,0,0.4,6.5,0.4,11.9c0,6.5,1.6,8,1.6,9.4c0,3.2,1.8,3,1.8,5.4c0,1.2-0.5,4.4,0,7.8s0,3,0,3    s-1.8-4.4-1.8-7.6c0-3.2-4-6.7-4-11.8s-0.4-4.1,0-7.8c0.4-3.8-0.2-10.3-0.2-10.3L132.2,224.1L132.2,224.1z"></path>
	</g>
	<g>
		<path class="st1" d="M137.9,219.8c0,0,2,5.2,1.1,7.9s0.3,11.9,0.3,11.9s2.3-10.8,2.6-11.9c0.3-1.1,2.5-7,2.5-7s-2.5,2.2-3.9,2.2    C139,222.7,137.9,219.8,137.9,219.8"></path>
	</g>
	<g>
		<path class="st1" d="M160.5,269.8c0.2-1.5,0.3-2.6,0.3-3.1c0-2.4-0.3-4.3-6.2-10.5c-5.9-6.2-9.4-4.9-8.4-13.5    c1.1-8.6,1.3-10.5,2.4-14c1.1-3.5,2.2-8.9,2.2-8.9s-8.9,22.7-10.4,28.3c-1.5,5.7-2.2,8.6-1.2,12.4c1,3.8,1.7,2.5,0.4,8.5    c-1.3,6.2,4.3,9.6,5.6,9.6s5.6,1.1,7.4,2.7c1.9,1.6,5,6.9,5,6.9s0.2-1.2,0.5-3.1c0,0-2.8-4.3-5-6.5s-3.5-4.9-4.6-7.6    c-0.4-1-4.7-3.1-5.7-6.7c-1.8-6.4,0-14.1,0-14.1s0.2,6.4,2.1,8.3c2.3,2.3,1.4,7.4,6.6,13.4c3.7,4.3,2.1,0.5,5.4,6.3    c1.2,2.1,1.5,3.7,1.5,4.9c0.4-2.6,0.9-5.8,1.3-8.7c-0.3-0.5-0.6-1-0.7-1.7c-0.4-1.9-4.6-3.9-6.3-7c-1.7-3.2-1.7-2.2-4.3-6.6    c-2-3.5-2-6.8-2-6.8l3.1,4.6c0,0,3,2.7,3.6,5.8c0.6,3.1,3.5,3.5,6,5.6C159.8,268.7,160.2,269.3,160.5,269.8"></path>
	</g>
	<g>
		<path class="st1" d="M160.9,261.3c0,0,2.2-7.7,5.4-12.4s7.6-8.1,8.6-9.4c1.1-1.4,1.4-6.2,3.5-7.6c2.2-1.3,7-4.3,7-4.3    s-7.2,2.9-9.7,6.2c-2.6,3.2,0.8,3.5-2.6,5.7c-3.4,2.2-7.8,4-10.9,7.3c-3.1,3.2-3.1,5-3.1,7.2s1.8,3.6,1.8,4.9V261.3z"></path>
	</g>
	<g>
		<path class="st1" d="M155.7,254c0,0,0.3-8.8,5.1-12.9c4.9-4.1,7.6-7,10-10.3c2.4-3.2,4-12.1,4-12.1s-4.9,10-9.4,13.2    c-4.6,3.2-13.5,3.7-13.7,11.1C151.5,250,155.7,254,155.7,254"></path>
	</g>
	<g>
		<path class="st1" d="M147.4,231.9l3.2,7.6c0,0,3.8-4.5,10.3-7.6s10.8-6.5,12.4-12.1c1.6-5.7,3.5-11.6,3.5-11.6s-5.4,13.5-8.9,15.9    s-9.7,3.2-11.9,5.5s-4.3,4.5-4.3,4.5L147.4,231.9z"></path>
	</g>
	<g>
		<path class="st1" d="M159.1,299.4c0,0,3.7,3.8,5.6,5.4c1.9,1.6,7.6,4.5,7.6,7.3s0.8,6.3,2.6,6.3c1.9,0,15.1,3.4,15.1,3.4    s-8.6,0.5-14.3-1.1c-8.7-2.3-6.4-4.4-9.7-10.1c-3.2-5.7-3.4-4.2-5.2-6.9C159.1,301,159.1,299.4,159.1,299.4"></path>
	</g>
	<g>
		<path class="st1" d="M192.7,321.8c0,0,3.9-0.7,8.9,0s11.1,3.5,16.2,4c5.1,0.5,10.8,0.5,16.2,3.5s7.3,5.4,12.1,6.7    c4.9,1.4,10.9,2.4,10.9,2.4s-8.2,0.5-13.3-1.9s-9.7-6.2-15.9-7.6s-11.5,2.8-19.4,0.7c-7.8-2.2-3.7-5.6-10.3-6.1    C195.3,323.4,192.7,321.8,192.7,321.8"></path>
	</g>
	<g>
		<path class="st1" d="M168.6,321.9c0,0,8.4,6.4,14.3,8c5.9,1.6,16.7,4.4,16.7,2.7c0-1.6-0.6-7.4-7.9-6.7    C179.4,327.1,168.6,321.9,168.6,321.9"></path>
	</g>
	<g>
		<path class="st1" d="M88.2,264.8c0,0-2.6-0.8-2.7-1.3c-0.3-1.3-0.2-2.7-2.2-2.5c-0.3,0-0.6-1.2-1-1.7c-0.4-0.6-0.9-1.2-1.5-1.6    c-1.1-0.6-1.9-1.1-1-2.5c0.2-0.4,0-1-0.1-1.5c-1.5-0.1-1.7,0.6-1.8,1.7c-0.1,1.9-0.4,3.9-0.9,5.8c-0.2,0.6-1.3,0.9-1.9,1.3    c-0.1-0.8-0.5-1.6-0.3-2.3c0.2-1.2,0.9-2.3,1.1-3.6c0.2-1.1,0.2-2.2,0.3-3.4c-0.2-0.1-0.4-0.2-0.6-0.3c-0.4,0.5-1,0.9-1.2,1.5    c-0.5,1.4-0.7,3-1.3,4.3c-0.3,0.7-1.1,1.2-1.7,1.7c-0.5-0.7-1-1.3-1.5-2c-0.1-0.2-0.1-0.4-0.4-0.2c-0.7-0.4-1.4-0.7-2.1-1.1    c-0.8-0.5-1.4-1.3-2.2-1.7c-1.5-0.6-1.2-1.3-0.4-2.2c0.7-0.9,1.5-1.7,2.2-2.6c-0.1-0.2-0.2-0.3-0.2-0.5c-1.2,0.2-2.4,0.3-3.7,0.5    c0,0.2,0,0.4,0,0.6h2.4c-1,2-3.8,2.5-5,1c-0.2-0.3-0.1-1.1,0.2-1.4c1.7-1.7,3.7-2.4,6-1.7c1.8,0.6,3.1,0,4.3-1.4    c-1.1-1.2-1.5-2.9-3.8-3.1c-1-0.1-2.1-1.8-2.6-3s0.7-1.3,1.6-1c1.2,0.5,2.3,1.2,3.8,2.1c0.2-1.2,0.5-2.4,0.5-3.5    c0.1-1.9,0.4-2.1,2.3-1.3c0.3-0.5,0.5-0.9,0.9-1.5c-1.9-0.9-3.1-2.9-5.6-2.5c-0.8,0.1-2.2-0.2-1.8-1.8c0-0.1-0.7-0.5-1.3-0.9    c0,0.9,0.2,1.6,0,2.3c-0.2,0.6-1,1.7-1.2,1.6c-0.8-0.3-1.7-0.8-2.2-1.5c-0.3-0.5-0.3-1.4-0.1-2.1c0.2-0.6,0.8-1,1.3-1.5    c-0.2-0.1-0.5-0.3-0.7-0.4c-0.5,1-1,1.9-1.4,3s-0.6,1.7-1.9,0.5c-1-0.9-2.7-1.4-4.1-1.4c-1.9,0-1.5-1-1.5-2.2    c0-0.8-0.1-1.7-0.3-2.5c-0.1-0.3-0.8-0.5-1.3-0.7c0,1.2,0,2,0,2.8c0,0.2-0.1,0.4-0.1,0.4c1.8,1,0.5,2.4,0.6,3.7    c0.1,1.9-0.4,2.7-2.3,3.1c-0.4,0.1-0.7,0.5-1.2,0.7c-0.3,0.2-0.8,0.4-1,0.2c-0.4-0.2-0.7-0.7-0.9-1.1c0-0.1,0.5-0.4,0.8-0.7    c0.2-0.2,0.5-0.6,0.5-0.8c-0.4-1.3-0.8-2.6-1.4-4.2c-0.9,0.4-1.6,0.9-2.4,1c-0.9,0.1-2,0.1-2.6-0.4c-0.9-0.8-0.7-1.8,0.3-2.7    c2.1-1.9,3.1-1.6,5.7,1.8c1.3-3.1,2.6-6,6.1-6.6c-0.4-1.3-0.5-2.5-1.2-3.1c-0.4-0.3-1.8,0.5-2.8,0.9c0.9,2.1-0.2,2.6-2,2.8    c-0.8,0.1-1.5,0.7-2.3,1c-0.4,0.1-0.9-0.1-1.4-0.2c0.2-0.4,0.3-1,0.6-1.3c0.8-0.7,1.7-1.2,2.7-1.9c-1.3-1-0.4-3.5-3-3.3    c0,0.4-0.1,0.7-0.1,1.1c-1.5-0.1-3.2-1.9-2.8-3.2c0.1-0.3,1.2-0.5,1.7-0.4c0.6,0.1,1.2,0.6,1.8,0.9c0.6,0.3,1.1,0.4,2.1,0.8    c-0.5-1.4-0.9-2.4-1.2-3.5c-0.1-0.5,0.1-1.5,0.4-1.6c0.5-0.2,1.3,0,1.8,0.3s1.1,0.9,1.3,1.6c0.6,1.9,1.7,2.3,3.5,1.4    c-0.5-2.2,1.8-2,2.9-2.8c0.3-0.2,1.5,0.7,2.1,1.3c0.2,0.2-0.5,1.2-1.2,1.7c0.1,0.4,0.2,0.9,0.4,1.3c0.2,0.3,0.4,0.7,0.8,0.8    c0.1,0.1,0.5-0.4,0.8-0.6c0.2-0.3,0.4-0.7,0.7-0.9c0.8-0.5,1.6-0.8,2.8-1.4c-0.4-0.2-1-0.8-1.5-0.8c-1.2,0.1-1.9-0.2-2.5-1.3    c-0.7-1.3-2.6-1.8-4-1.2c-2.2,1-3,0.5-3.5-1.9c-0.1-0.5-0.6-1-1.1-1.4c-1.8-1.4-2.3-2.8-1.8-4.9c0.3-1.2,0.9-1.9,2.2-1    c0.7,0.5,1.4,1,2.2,1.5c-0.3,0.2-0.5,0.3-0.5,0.3c-1-0.3-2.2-0.7-2.3,1c0,1.4,0.8,2.3,2.3,2.5c0.9,0.1,1.8,0.2,3.2,0.4    c-1.1,0.9-1.7,1.5-2.4,2c0.1,0.1,0.1,0.2,0.2,0.3c1-0.5,2-1,2.7-1.5c0.2-1.7,0.5-3.5,0.7-5.3c0.1,0,0.2,0.1,0.3,0.1    c-0.3-0.8-0.6-1.7-1-2.5c0.1-0.2,0.1-0.3,0.2-0.5c2.5,1.7,3.3-0.1,4.4-1.5c2-2.5,4.7-3.9,8.1-4.7c-0.6-0.7-1.1-1.2-1.4-1.5    c-0.7,0.1-1.6,0.4-1.6,0.3c-0.3-1-0.5-2-0.8-2.9l0,0c0.3-2.3,1.6-3.6,3.8-4.2c0.3-0.1,0.5-0.9,0.7-1.3c-0.2-0.1-0.4-0.2-0.7-0.2    c-0.1,0.3-0.2,0.6-0.3,0.9c-0.3,1.1-0.8,1-1.6,0.3c-1.4-1.1-1-2.7-1.4-4.2c-0.1-0.6-0.3-1.2-0.3-1.5c-1.5,0.1-2.8,0.2-4.1,0.2    c0-0.3-0.1-0.6-0.2-0.8c1.7-0.4,3.4-0.7,4.8-1c1.2-4.5-3-6.4-4.3-9.8c2.9,0.9,3.3,4.6,5.7,5.5c-0.1-2.1-0.1-4.2-0.3-6.3    c0-0.4-0.8-0.8-1.5-1.5c0.8-0.4,1.7-0.8,2.4-1.4c0.8-0.6,2.4-0.3,2.3-2.2c-0.1-1.8-0.9-2.4-2.4-2.6c-0.7-0.1-1.4-0.2-2-0.4    c-1.4-0.6-2.6-0.7-3.7,0.5c-0.3,0.3-1,0.3-1.5,0.5c-0.1-0.3-0.3-0.7-0.2-0.8c0.4-0.3,0.9-0.5,1.4-0.7c0.2-0.1,0.4-0.2,0.7-0.3    c-0.6-0.5-1.1-1-1.6-1.4c1.9,0,3.2-0.7,4-2.3c0.3-0.6,0.2-1.3,0.4-1.9c0.2-0.9,0.3-2.1,0.9-2.5c0.4-0.4,1.6,0.1,2.5,0.3    c0.3,0.1,0.6,0.4,1.1,0.7c-0.2-1.1-0.3-2-0.6-2.8c-0.2-0.4-0.7-0.9-1.2-1c-2.1-0.5-2.3-2.2-2.8-3.8c-0.1-0.3,0.5-0.8,0.9-1.6    c0.2,1.3,0.2,2,0.3,2.7h0.5c0.2-1,1.7-1.8,0-3.1c-0.3-0.2-0.3-1.5-0.1-1.6c1-0.6,2.1-0.9,3.2-1.3c0.1,0.2,0.1,0.3,0.2,0.5    c-0.9,0.4-1.9,0.8-2.8,1.2c0.1,0.3,0.1,0.5,0.2,0.8c1-0.1,2-0.2,3-0.2c0.7,0,1.3,0.2,2,0.3c-0.4,0.6-0.6,1.5-1.1,1.8    c-1.4,0.8-2.8,1.5-3.2,3.4c0.7,0.1,1.4,0.2,2.2,0.3c0,0.4,0,0.8,0,1.2c-0.1,1.1,0.4,1.4,1.4,1.2c2.1-0.3,2.5,0.3,1.7,2.2    c-0.6,1.3-1.4,2.6-2.4,4.5c-0.8-1.2-1.6-2.4-2.3-3.7c-1.7,1.5-0.4,1.8,0,2.4c0.5,0.6,1.1,1.3,1.4,1.7c1.1-0.2,2.1-0.4,3-0.6    c0-0.1-0.1-0.1-0.1-0.2c1.7-0.8,3.4-1.6,5.5-2.5c-1.6-1.5-3.2-2.9-4.7-4.3c0.1-0.1,0.2-0.3,0.3-0.4c0.5,0.1,0.9,0.2,1.5,0.4    c0.8-1.1,2.1-2,0.6-3.5c0.7-0.9,1.4-1.8,2.1-2.6c-0.1-0.1-0.1-0.2-0.2-0.4c-0.5,0.1-1.1,0.3-1.6,0.4c-0.7,0.1-1.4,0.2-2.1,0.3    c0.3-0.7,0.6-1.4,1.1-2.4c-0.6-1.4-2.3-0.9-3.6-1.1c-1.3-0.2-3.3-2-3.5-3.3c0-0.4,0.1-1,0.4-1.2s0.9,0,1.2,0.2    c0.8,0.5,1.5,1.2,2.3,1.7s1.6,0.9,2.3,1c2.4-0.7,4.8-1.5,7.1-2.2c-1.2-2.3-3.1-4.2-3-7c0-0.5,0.4-1.3,0.7-1.3    c0.5-0.1,1.2,0.2,1.6,0.6c0.5,0.5,0.8,1.2,1.2,1.9c0.8-0.6,1.5-1.1,1.7,0.4c0,0.2,0.3,0.5,0.5,0.6c1,0.2,1.9,0.4,3.1,0.6    c-0.3-0.6-0.6-1.1-0.7-1.6c-0.1-0.7,0-1.4,0-2.1c0.6,0.1,1.3,0.2,1.9,0.4c0.5,0.2,0.9,0.6,1.4,1c0.2-1,0.3-1.7,0.5-2.5    c0.2,0,0.3,0,0.5,0c0.6,2.3,1.1,4.5,1.5,6.2c0.1-1.8,0.4-4.1,0.3-6.5c0-0.6-1.2-1.2-1.9-1.8c-0.3,0.2-0.4,0.3-0.4,0.4    c-0.3,0.5-0.6,1-0.8,1.5c-0.3-0.6-0.7-1.1-0.8-1.7c-0.2-2.3,0.4-2.8,2.4-2.4c-0.5-2.4-1.2-4.9-1.5-7.4c-0.1-0.9-0.8-2.3,0.7-2.8    c1.1-0.3,3,1.2,3.3,2.6c0.2,1.3,0.3,2.5,0.5,4c1.1-1.6,2-2.9,2.9-4.3c0.3,0.1,0.5,0.1,0.8,0.2c0.2,1.5,0.4,3,0.5,4    c0.7-0.6,1.6-2.2,2.3-2.1c1,0.1,1.9,1.5,2.6,2.1c0.2-0.3,0.9-1.6,1.1-1.5c1.4,0.5,2.7,1.2,4,1.9c0.4,0.2,0.5,0.9,0.8,1.3    c3.8-0.5,3.8-0.5,4.2,4.8c0.3-0.6,0.6-1.2,1-1.7c1-1.3,2-1.2,3.2-0.2c0.4,0.3,1,0.3,1.6,0.4c0.5,0.2,1,0.3,1.4,0.6    c0.6,0.5,1.2,1.1,1.9,1.8c0.2-0.4,0.3-0.5,0.2-0.6c-1.7-1.8-2-4.3-0.5-6.5c0.2-0.3,1.2-0.3,1.8-0.1c0.4,0.1,0.6,0.8,1.2,1.5    c0.4-1.3,0.8-2.4,1.1-3.4c0.3-1,0.3-1.9,1.7-2.1c1.3-0.1,2.4,0.1,3,1.4c0.2,0.4,0.5,0.8,0.7,1.3c0.3-0.3,0.5-0.5,0.8-0.6    c0.7-0.3,1.5-0.6,2.2-1c0.1,0.8,0.3,1.5,0.3,2.3c-0.3,2.6-0.6,5.3-0.8,8c0.8-2.3,3.3-3.5,3.5-6.2c0.2-1.6,1-3.2,1.7-4.6    c0.2-0.4,1.1-0.8,1.5-0.7c0.5,0.1,1.1,0.7,1.2,1.1c0.2,1,0.3,2.1,0.1,3.2c-0.1,0.4-0.9,0.7-1.4,1.1c-0.3-0.5-0.6-0.9-0.8-1.4    c-0.1-0.3-0.1-0.7-0.3-1.1c-0.7,2.9-1.4,5.8-2.1,8.7c0.1,0.1,0.2,0.1,0.3,0.2c1-1.3,1.9-2.6,3-4.1c0.1,0.5,0.2,0.8,0.3,1.6    c1-1.7,1.7-2.9,2.4-4.1c0.1-0.2,0.3-0.6,0.5-0.6c2.1-0.2,1.9-2.2,2.7-3.4c0.7-1.1,1.6-2,2.4-3c0.1,0.1,0.3,0.2,0.4,0.3    c-0.7,1.7-1.3,3.3-2,5c2.9-0.7,2.6-3.2,3.4-5.3c0.7,1.1,1.3,1.9,2,2.8c-0.5,0.7-1.2,1.4-1.7,2.2c-0.6,0.9-0.9,1.8-0.3,2.9    c0.3,0.7,0.2,1.7,0,2.6c-0.4,1.5-1,3-1.6,4.7c1-0.1,1.8-0.1,2.5-0.3c0.9-0.3,1.6-0.9,1.1-2.1c-0.3-0.7-0.5-1.7-0.4-2.4    c0.3-1.9,0.6-3.8,1.2-5.7c0.2-0.7,0.9-1.5,1.5-1.9s1.6-0.5,2.3-0.3c0.3,0.1,0.6,1.2,0.5,1.9c-0.2,2,1.2,3.5,3.1,3.5    c0.6,0,1.4,0.4,1.6,0.9c0.3,0.6,0.1,1.4-0.1,2c-0.2,0.7-0.8,1.2-0.9,2c0.8-0.7,1.7-1.3,2.5-2c0.1-0.1,0.3,0,0.7-0.1    c-0.7,1.2-1.3,2.3-2,3.4c0.2,0.1,0.4,0.3,0.6,0.4c0.8-1.2,1.6-2.3,2.2-3.5c0.6-1.3,1.1-2.7,1.9-4c-0.1,1.5-0.2,3.1-0.3,4.6    c1.7-1.8,1.5-3.6,0.5-5.5c-0.3-0.5-0.2-1.2-0.2-1.8c0.5,0.3,1.4,0.6,1.5,1.1c0.4,1.7,0.5,3.5,0.7,5.3c0,0.4-0.1,0.8-0.2,1    c0.7-0.6,1.4-1.3,2.2-1.8c0.4-0.3,1.1-0.7,1.4-0.6c0.5,0.2,1,1,0.9,1.4c-0.1,1.3-0.5,2.5-0.9,3.7c-0.3,1-1.3,2-0.3,3.1    c0.4,0.4,0.8,0.7,1.2,1c0.4-0.6,1-1.1,1.1-1.7c0.5-2.4,0.8-4.9,1.2-7.3c0.3-1.6,1.5-2,2.7-0.9c1.4,1.2,3.6,1.7,4,4    c0,0.1,1.1,0,1.6,0c0.2-0.3,0.3-0.6,0.5-0.9c-0.8-0.7-1.6-1.3-2.7-2.3c4.2,1.8,6,5.1,7.5,8.8c0.7-0.4,1.3-0.7,2-1.1    c0.3,0.6,0.6,1.1,0.7,1.3c-1.3,1.1-2.5,2.2-4.1,3.6c0.7,0.1,1.4,0.3,1.5,0.1c1-1.9,2.5-1.5,3.7-0.6c1.4,1,2.6,1.2,4.3,0.9    c1.1-0.2,2.3,0.3,3.5,0.5l0,0c-0.9,0.1-1.7,0.1-2.6,0.2c-1.1,0.1-2.1,0.4-3.1,0.5c0,0.2,0.1,0.4,0.1,0.6h1.4    c-0.1,1.9-0.3,3.8-0.4,5.7c1-1,1-3.1,3.3-3.7c-0.7,1.3-1.2,2.2-1.7,3.1c0.7,0.7,1.3,1.4,2.1,2.3c0.2-0.5,0.3-1,0.6-1.8    c1.4,0.5,2.8,1,4.4,1.7c-0.5,1-1.1,2.1-1.7,3.4c2.3-0.1,4.4-1.9,6.6,0.2c-0.2,0.5-0.4,1.2-0.7,2.2h2.4c-0.1-0.6-0.1-1.3-0.2-1.9    c0-0.3-0.3-0.6-0.4-0.9c0-0.3,0.1-0.6,0.1-1c0.3,0.1,0.7,0.2,0.9,0.4c0.3,0.3,0.4,0.7,0.6,1.1c0.5,0.9,1,1.5,2.1,0.5    c0.4-0.3,0.9-0.7,1.4-0.7c2.2,0.2,2.9-1.5,3.8-2.9c0.3-0.5,0.7-0.9,1.1-1.4c0.2,0.1,0.3,0.2,0.5,0.3c-0.5,0.9-0.9,1.8-1.5,2.7    c-1.1,1.8-0.6,3.7,1.3,4.5c2.2,0.9,2.5,2.3,1.1,4.1c-0.8,1-1.7,1.9-3.3,1.3c0.9-1,1.6-2,2.4-2.9c-0.2-0.2-0.3-0.3-0.5-0.5    c-1,0.9-1.9,1.9-2.9,2.8c-0.4,0.4-0.7,0.8-1.1,1.1c-0.3,0.2-0.8,0.2-1.2,0.4c0-0.4-0.1-0.8,0-1.1s0.3-0.6,0.1-1.3    c-0.9,0.6-1.7,1.2-2.6,1.8c-0.1,0,0.2,0.8,0.5,1c1.7,0.9,3.5,1.7,5.3,2.6c-0.5,0.8-0.8,1.3-1.2,1.9c0.6,0.1,1,0.1,1.4,0.3    c0.8,0.4,1.5,0.9,2.3,1.3c-0.4,0.7-0.8,1.5-1.4,2.1c-0.5,0.6-1.2,1-1.6,1.6c1.8,0.2,3.3-0.1,4.5-1.5c0.6-0.8,1.6-1.3,2.5-1.8    c0.3-0.1,0.7,0.1,1.1,0.2c-0.1,0.4,0,0.9-0.3,1.1c-0.9,0.8-1.9,1.4-2.9,2.4c0.5-0.1,1.1-0.2,1.6-0.4c1.2-0.3,2.4-0.8,3.6-1    c0.4-0.1,0.8,0.3,1.2,0.4c-0.2,0.4-0.2,1-0.5,1.2c-0.6,0.4-1.3,0.7-2.2,1.2c1.3,0,2.3-0.1,3.3,0c0.4,0,0.7,0.4,1.1,0.7    c-0.3,0.3-0.5,0.9-0.9,0.9c-2.7,0.2-5.4,0.4-8.1,0.5c-0.8,0-1.6,0-2.4-0.1c-1.1-0.1-2.2-0.3-3.4-0.5c-0.7-0.1-1.4-0.2-2.2-0.3    c0,0.3-0.1,0.5-0.1,0.8c1.1,0.2,2.1,0.4,3.3,0.5c-0.9,1,0.5,3.6-2.8,3.4c0.4,0.4,0.7,1,1.2,1.3c1.4,0.9,2.6,1.7,2.3,3.8    c-0.1,0.6,1.7,1.6,2.7,2.2c1.2,0.6,2.7,0.8,3.7,1.6c1.4,1,1.1,1.9-0.5,2.6c-0.4,0.2-0.6,0.8-0.7,1.3c2.1-1.3,4.1-2.6,6.3-3.8    c0.5-0.3,1.4,0,2.1,0c-0.3,0.6-0.4,1.6-0.9,1.8c-2,1.1-4.1,1.9-6.2,2.9c-0.5,0.2-1,0.5-1.3,0.7c0.8,0.3,1.6,0.5,2.2,0.9    c0.9,0.7,1.8,1.6,2.6,2.5c0.3,0.4,0.6,1.4,0.3,1.8c-0.2,0.4-1.1,0.8-1.7,0.8c-1.7-0.1-2.8-1.1-3.4-2.6c-0.2-0.4,0.2-1,0.3-1.6    c-2.7-0.5-5,1.4-7.5,2.3c0,0.2,0.1,0.5,0.1,0.7c0.9-0.1,1.8-0.2,2.9-0.4c0,0.3-0.1,0.8-0.2,1c1.1,0.7,2.3,1.3,3.2,2.1    c1,0.9,1.5,2.1,0.2,3.2c0.6,1.7,1.7,1.6,3.2,1c-0.3,0.3-0.5,0.9-0.8,1c-1.3,0.3-1.3,1.1-1.4,2.2c-0.1,0.9-0.7,1.9-1.1,2.8    c-0.3,0.6-0.6,1.1-0.6,1.9c0.4-0.3,1-0.6,1.3-0.9c2.1-2.3,4-4.7,6.1-7c0.4-0.4,1.1-0.6,1.7-0.9c0.1,0.7,0.5,1.5,0.3,1.9    c-0.7,1.3-1.7,2.6-2.7,3.7c-0.8,0.9-1.8,1.7-2.6,2.7c1.4-0.1,3-1.1,3.2,1.4c-0.2,0.1-0.6,0.3-0.9,0.6c-0.7,0.8-1.6,1.5-0.3,2.7    c0.6,0.5,0.8,1.4,1.2,2.4c1-0.5,2-1.1,3.1-1.5c0.5-0.2,1.2,0.1,1.8,0.1c-0.2,0.7-0.3,1.3-0.5,2c-0.1,0.2-0.3,0.3-0.5,0.4    c-2.4,0.6-1.9,2.5-2,4.3c2.4,0,4.2-0.9,5.7-2.6c0.5-0.5,1.4-0.6,2.1-0.9c0,0.7,0.2,1.7-0.1,2.1c-1.1,1.4-2.4,2.7-3.7,4    c-0.6,0.6-1.4,1-2.4,1.7c1.4,0.5,2.5,0.9,3.5,1.3l-0.1,0.5H232c1.1,1.1,1.9,1.8,2.5,2.7c0.5,0.7,0.8,1.6,0.9,2.4    c0.1,0.5-0.4,1-0.6,1.5c-0.5-0.4-1.1-0.7-1.4-1.2c-0.3-0.3-0.3-0.8-0.9-1.3c0,0.6,0,1.2,0,1.8c0,0.5,0,1,0,1.5    c-0.5,0-1.1,0-1.6-0.2c-0.7-0.2-1.3-0.6-2-1c-1.1,2.4-1.4,2.4-3.6,0.5c-1.7,1.4-2.7,1.3-3.8-0.6c-0.5-0.9-0.9-1.9-1.2-2.9    c-0.8-2.9-0.8-2.9-3.7-2.1c0.1,1.3,0,2.7,0.4,3.9c0.3,1,1.1,1.9,1.7,2.9c0.2,0.3,0.5,0.5,0.5,0.8c0.2,1,0.3,2,0.4,3    c0,0-1,0.3-1.2,0.2c-0.8-0.8-1.5-1.8-2.1-2.7c-0.4-0.6-0.4-1.5-0.8-2c-1.5-1.6-3.2-3-5.5-5.1c0.3-0.2,1-0.7,1.5-1.1    c-0.7-0.1-1.8-0.3-3-0.5c-1.1-0.2-2.2-0.5-3.6-0.4c2.7,2,5.4,3.9,8.1,5.9c0.5,0.4,0.8,0.9,1.3,1.3c-0.2,0.2-0.3,0.4-0.5,0.6    c-2.1-1.2-4.3-2.4-6.4-3.6c-0.1,0.1-0.3,0.3-0.4,0.4c0.5,0.5,1.1,0.9,1.6,1.4c0.1,0.1,0.4,0.1,0.4,0.2c0.5,0.7,1,1.5,1.5,2.3    c-0.7,0.2-1.4,0.3-2.5,0.6c-0.6,1-0.7,2.3,0.5,3.5c3,2.9,6,5.7,8.9,8.6c0.3,0.3,0.7,0.4,1,0.7c0.2,0.2,0.2,0.6,0.3,1    c-0.4,0-0.8,0.2-1.1,0.1c-1-0.6-2-1.3-3-2c-0.8-0.5-1.5-1.1-2.3-1.6c-0.2,0.1-0.3,0.3-0.5,0.4c0.5,0.5,0.9,1,1.4,1.5    c0.2,0.2,0.6,0.1,0.7,0.3c0.4,0.8,0.7,1.6,1,2.4c-0.7,0.1-1.3,0.2-2.4,0.3c-0.1,0.1-0.2,0.8-0.6,1.3c-0.3,0.4-0.9,0.8-1.3,0.8    c-0.4,0-1-0.8-0.9-1.1c0.1-2.5,0.4-5,0.7-7.9c-1.6-1.9-3.6-4.3-5.7-6.9c-0.2,1.3-0.3,2.4-0.7,3.3c-0.3,0.6-1.2,1-1.8,1.5    c-0.4-0.8-1.2-1.6-1.2-2.3c0-1.1,0.6-2.2,1-3.5c-1.9,0.3-2.2-0.9-2.5-2.2c-0.1-0.5-0.4-1.3-0.6-1.4c-0.6-0.1-1.5,0-1.8,0.4    c-1.6,1.8-3.3,3.6-4.5,5.6c-0.5,0.9,0,2.5,0.1,3.8c0.1,0.9,0.6,1.8,0.6,2.7c0,0.6-0.8,1.1-1.2,1.7c-0.5-0.6-1-1.2-1.4-1.9    c-0.2-0.4-0.2-0.9-0.2-1.4c-0.4,0.1-1,0-1.2,0.3c-0.3,0.4-0.7,1.2-0.5,1.6c0.6,1.4,1.3,2.8,2.2,4.1c1.1,1.5,1.7,3.9,0.7,5.3    c-0.3,0.4-1.6,0.8-1.7,0.7c-0.5-0.9-0.9-1.9-1.2-2.9c0-0.1,0.8-0.4,1.6-0.8c-0.5-0.5-1.1-1.1-2-2.1c-0.3,1.4-0.4,2.4-0.7,3.2    c-0.2,0.5-0.7,0.9-1.1,1.4c-0.4-0.4-0.9-0.8-1.1-1.3c-0.3-1-0.3-2.1-0.6-3c-0.3-0.8-0.9-1.6-1.5-2.4c-0.1,0.2-0.3,0.6-0.6,1    c-1.8,2.3-2,0.7-3.9,0.7s-5.3,2.2-5.3,2.2s0-1.8,0.3-4.8s2.3-2.5,0.3-6.6s-1.5-5.8-1.3-9.4c0.3-3.6-2.8-4.3-4.6-2.3    s-5.3,4.1-5.8,6.1s-3.3,9.4-8.1,9.9s-8.9,4.8-11.7,0.5s-1.8,1.3-6.1,0.5s1.5-6.1-3.6-6.1c-5.1,0-4.6,0.8-5.8,2    c-0.2,0.2-0.4,0.5-0.7,0.9c-1.3,2.1-3.1,6.2-4.6,6.2c0,0-3.6,3.5-4.2,0.8c0-9.4-5.1-0.2-5.7,0.2c-0.6,0.5-0.9,1.2-1.4,1.8    c-0.3,0.4-0.6,0.7-0.9,1.1c-0.3-0.3-0.6-0.6-0.9-0.9c-0.4-0.4-0.9-1.2-1.1-1.1c-1.1,0.5-2.8,0-3.2,1.7c-0.2,0.9-0.1,1.8-0.4,2.6    c-0.3,0.7-0.9,1.2-1.4,1.9c-0.5-0.6-1.3-1.1-1.4-1.8c-0.2-0.9,0.2-2,0.2-2.9c0-0.5-0.3-0.9-0.5-1.4c-0.5,0.2-1.1,0.3-1.4,0.6    c-1,0.9-1.9,2-2.9,3c-0.3-0.2-0.5-0.3-0.8-0.5c0.3-1,0.7-1.9,1-2.9c0.2-0.8,0.5-1.8,0.2-2.5c-0.3-0.6-1.2-1-1.9-1.5    c-0.3,0.6-0.6,1.3-0.7,1.9c-0.1,0.4,0.2,0.9,0.1,1.2c-0.2,0.9-0.6,1.7-0.9,2.6c-0.6-0.7-1.5-1.3-1.8-2.2c-0.4-1.2-0.4-2.6-0.7-4.2    c-0.6,0.8-1.1,1.4-1.4,1.8c0.6,0.9,1,1.6,1.4,2.3c-0.9,0.5-1.8,0.9-2.9,1.5c0.8,1,1.8,2.3,2.6,3.6c0.5,0.7,0.7,1.6,0.9,2.4    c0.1,0.3-0.2,0.8-0.5,1c-0.2,0.1-0.7-0.1-0.9-0.4c-1-1.1-2-2.3-3.1-3.5c-0.8,0.9-1.1,1.8-0.1,3.4c1,1.5,0.3-0.2,0.3,1.8    L88.2,264.8z M99.9,254.9l-5.6,3l3.4,1.1 M140.8,200.3c-1.3,0.2-2.7,0.5-3.6-1c-0.1-0.2-1,0-1.5,0c0.2,0.4,0.4,0.9,0.6,1.2    c0.5,0.6,1.1,1,1.8,1.7C139,201.6,139.9,201,140.8,200.3c0.7-0.1,1.2-0.1,0.7,0.8c-0.7,1.4-1.4,2.9-2.1,4.4c0,0,0.3,0.1,0.4,0    c0.9-1,1.9-2,2.6-3.1c0.3-0.6,0.2-1.4,0.3-2.2C142,200.3,141.4,200.3,140.8,200.3 M137.1,216.4c1,0.7,2,1.3,2.9,2    c0.1-0.3,0.3-0.5,0.4-0.8c-0.5-0.3-1-0.6-1.5-0.8C138.3,216.6,137.7,216.5,137.1,216.4c0.5-1.8,1.4-3.4,3.4-4    c-0.6-0.5-1.2-1-1.9-1.7C138,212.7,135.6,214,137.1,216.4 M78.5,184.6c-0.2-0.7-0.4-1.4-0.6-2.1h-1.7c-0.1,0.1-0.1,0.2-0.2,0.3    C76.9,183.4,77.7,184,78.5,184.6c0.5,0,1,0.1,1.5,0.2c0.8,2.1,5.1,3.5,6.9,1.8c-2.6,0.3-3.9-1.1-4.6-3    C80.9,183.9,79.7,184.3,78.5,184.6 M63.1,218.6c0.9,0.3,1.7,0.7,2.5,1c0.7-0.3,1.5-1,2.2-0.8c0.5,0.1,1,1.1,1.2,1.9    c0.3,1.2,0.4,2.4,0.5,3.7c0.6-0.4,0.8-0.8,0.8-1.2c0-0.5-0.2-0.9-0.3-1.4c0.5,0.2,1,0.4,1.6,0.6c0.2,0.1,0.4,0.2,0.7,0.3    c0.5-1.8-0.3-3.2-1.7-3.5c-0.8-0.2-1.6-1-2-1.7c-0.2-0.4,0.6-1.3,0.9-1.9c0.2-0.4,0.3-0.8,0.4-1.2c-2.2,0.4-4,0.8-5.8,1.1    C65.5,217.8,65.5,217.8,63.1,218.6c-0.4,0.1-0.9,0.2-1.4,0.2c-1.3,0.2-2.7,0.3-2.2,2.4c0.1,0.3-0.6,1-1.1,1.3    c-0.7,0.4-1.5,0.7-2.2,1c0.4,1.9,0.4,2,1.4,2.2c0.3,0,0.8-0.6,1-0.5c0.7,0.3,1.2,0.7,1.9,1.1c-0.2,0.1-0.4,0.2-0.7,0.2    c0.7-2.4,1.4-4.7,2.1-7.1c0.2,0,0.3,0,0.5,0c0.3,0.8,0.7,1.5,1,2.3c0.2,0,0.4,0,0.6-0.1c-0.1-0.5-0.1-1.1-0.2-1.6    C63.6,219.6,63.3,219.1,63.1,218.6 M144.8,218.4c-0.1,0-0.2-0.1-0.3-0.1c-0.1,0.9-0.4,1.8-0.4,2.7c-0.1,3.1-1.8,5-4.8,5.4    c-0.2,0-0.5,0.2-0.7,0.3c-2.5,2-5.4,2.8-8.6,2.9c-1,0-2,0.2-3.1,0.4c5.1,0.8,5.1,0.8,4.6,3.9c1-0.1,1.9-0.3,2.8-0.3    c1.7-0.1,3.4-0.6,5-0.3c1.7,0.3,2.1-0.2,2.1-1.4c-1.6,0-3.2,0.1-4.7-0.1c-0.6-0.1-1.2-0.8-1.7-1.2c0.5-0.5,0.9-1.4,1.4-1.5    c3.1-0.8,6.2-1,9.4-0.4c0.6,0.1,1.5-0.6,2.1-1.2c0.2-0.2,0-0.9,0-1.4c-0.1,0-0.3,0-0.4,0c-0.3,0.5-0.5,1-0.9,1.7    c-0.2-0.6-0.4-1-0.4-1c-0.7,0.3-1.4,0.7-2,1c-0.2-0.7-0.7-1.4-0.6-2c0.1-0.8,0.7-1.5,1.1-2.3c0.1-0.3,0.4-0.5,0.4-0.8    C145.1,221.4,144.9,219.9,144.8,218.4 M77.6,190.1c0.8-1.4,0.2-2.1-1.1-2.5c-0.7-0.2-1.3-0.5-1.9-0.7c-1.3-0.3-2.7-1.1-3.7,0.7    c-0.1,0.1-0.9,0.1-1.2-0.1c-1.5-0.9-2.4,0.2-3.3,1c-0.5,0.4-1,1.5-0.8,1.9c0.5,0.9,1.3,1.9,2.2,2.2c1.2,0.4,2.6,0.1,4,0.1    c-0.4-3.1-0.4-3.1,0.7-3.6c0.5,3.7,0.5,3.7,2.3,3.2c0.1-1.4,0.2-2.8,0.3-4.3C76,188.7,76.8,189.4,77.6,190.1 M110.6,221.7    c0.1,1.2,0.1,1.7,0.2,2.2c-0.6,0-1.2,0.1-1.7-0.1c-1.1-0.3-2.1-0.8-3.1-1.3c-0.2,0.1-0.3,0.3-0.4,0.4c0.3,0.8,0.6,1.7,1,2.4    c0.1,0.2,0.8,0.3,1.1,0.2c1.2-0.3,2.4-0.6,3.7-1c-0.1,0.7-0.2,1.1-0.2,1.4c0,1,1,2,1.9,1.6c2.3-1.1,4.5-2.2,6.7-3.3    c-1-3.4-1.6-4-3.4-3.2c-0.5,0.2-0.7,1.2-1.1,1.8C114,222.6,112.4,222.2,110.6,221.7 M216.2,228.2c0.1-0.2,0.1-0.4,0.2-0.7    c-0.3-0.3-0.5-0.7-0.8-0.8c-1.4-0.5-1.3-1.4-0.8-2.5c0.2-0.4,0.3-0.8,0.5-1.1c0.3-0.3,0.7-0.8,1-0.8s0.8,0.5,0.9,0.9    c0.3,1,0.3,2.2,0.7,3.2c0.2,0.5,0.7,0.9,1.3,1.6c-0.1-2.6-0.2-4.6-0.3-6.4c-0.8-0.4-1.5-0.8-2.3-1.2c-0.8,1.2-1.6,2.5-2.5,3.7    c-0.5,0.6-1.2,1.1-1.8,1.7c0-0.8-0.1-1.6-0.1-2.4c0-0.1-0.1-0.2-0.2-0.4c-0.9,0.5-2.7-0.4-2.3,2c-0.4-0.3-0.5-0.4-0.7-0.5    c-1-0.2-1.9-0.4-2.9-0.4c-0.1,0-0.4,0.8-0.4,1.2c0,1.1,0.5,2.1,1.8,2.2C210.4,227.8,213.3,228,216.2,228.2 M131.2,238.5    c-2.2-0.2-2-2-1.9-3.1s0.9-2.2,1.4-3.5c-3.4-0.6-6.6-1.1-9.9-1.6c0.4,0.8,1,1.5,1.6,1.6c0.7,0.1,1.5-0.4,2.2-0.6    c0.1,0.2,0.2,0.3,0.3,0.5c-1.1,1.1-2.4,2.1-3.2,3.5c-0.8,1.3,0.2,3.3,1.4,3.7c-0.2-1-0.3-2.1-0.5-3.3c1.4,0.2,2.8,0.3,4.2,0.7    c0.8,0.2,1.5,1,1.9,1.7c0.1,0.3-0.8,1.1-1.2,1.7c0,0.1,0.1,0.2,0.1,0.4C128.8,239.6,130,239.1,131.2,238.5 M129.6,128.3    c0.5-2.1,1-4.5,1.6-6.8c-1.8,0.8-2,0.7-2.1-1.6c0-0.3,0-0.7-0.2-0.9c-0.3-0.5-0.8-0.9-1.2-1.3c-0.3,0.4-0.8,0.8-0.9,1.3    c-0.5,1.8-1.1,3.5-1.1,5.3c0,1,0.7,2.3,1.5,3.1C127.8,128,129,128.1,129.6,128.3 M115.7,228.4c6.4,1.5,11.9,1,16.8-2.9    c-1.3,0.3-2.5,0.9-3.8,1.3c-0.6,0.2-1.4-0.2-2-0.3c-1.3-0.2-2.8-0.9-4-0.6C120.4,226.4,118.3,227.4,115.7,228.4 M104.8,125.9    c-0.8-0.5-1.5-0.9-2.3-1.3c-0.2-0.1-0.8,0.2-0.8,0.4c-0.1,1.1-0.1,2.2-0.1,3.3c0,0.5,0.1,1.1,0.1,1.6c-0.5,0-1.1,0.1-1.6,0.1    c-0.7,0-1.4,0-2.3,0c2.4,2.9,0.5,4.4-2.1,6c1.8-0.2,3.4-2,3.8,0.9c0.1-0.8-0.2-1.8,0.1-2.4c0.3-0.5,1.3-0.7,2-1.1    c0.2,0.2,0.3,0.3,0.5,0.5C102.9,131.3,102.1,128.3,104.8,125.9 M220.4,189.5c-0.7-1.9-2.8-3.6-5.6-4.4c-0.9,1.3-2,2.7-2.7,4.2    s-1,3.3-1.5,5.2c0.5-0.6,0.7-0.9,1-1.3c2,1.1,2.4,0.9,2.6-1c-0.5,0.4-1,0.8-1.7,1.3c0.5-1.6,0.8-2.9,1.3-4.1    c0.1-0.3,0.7-0.5,1-0.6c0.8-0.2,1.5-0.4,2.3-0.6c0.5-0.1,1-0.2,1.4,0c0.2,0.1,0.1,0.8,0.1,1.2c0,0.3-0.1,0.5-0.1,0.5    C219.2,189.8,219.8,189.7,220.4,189.5 M200,232.8c0.2-0.6,0.2-1.3,0.5-1.8c0.3-0.6,0.9-1,1.4-1.5c0.3,0.5,0.8,1,1,1.6    c0.5,1.6-0.3,3.7,2,4.6c0.3-1.5,0.6-3,0.9-4.5c-0.2,0.2-0.4,0.4-0.5,0.6c-1.2-1.6-2.4-3.1-3.8-4.9c-1.7,1.9-3.2,3.7-5,5.7    C198,232.7,199,232.7,200,232.8 M61.7,199.1c-2.1,1.4-2.7,3.6-3,6c1.4-0.2,1.4-0.2,1.6,1.1c0,0.1,0.2,0.3,0.3,0.3    c1.1,0.3,2.1,0.5,2.8,0.6C64.5,203.9,62.6,201.6,61.7,199.1 M179.6,126.2c-1.4,2.3-3.5,3.9-3.2,6.7c0,0.4,0,0.7,0,1.1    c0.4-0.1,0.7-0.2,1.1-0.3c0.9-0.3,1.9-0.9,2.7-0.7c1.5,0.3,1.6-0.4,1.3-1.4C181,129.9,180.3,128.1,179.6,126.2 M137.5,145.3    c1-0.9-0.1-3.9,3-3c0.3-0.8,0.5-1.6,0.8-2.4c-0.5,0.3-0.9,0.6-1.3,0.9c-0.2-0.4-0.6-0.8-0.7-1.3c-0.5-2-0.9-4-1.4-6    c-0.1-0.3-0.5-0.4-0.8-0.6c0.2,0.3,0.5,0.6,0.7,0.8c-0.5,0.5-1.1,1-1.6,1.4c0.4,0.4,1.1,1.5,1.7,2.7c1,2-1.1,2.2-1.6,2.6    C136.6,142.4,137.1,143.9,137.5,145.3 M68.1,223c-0.7-0.1-1.2-0.3-1.7-0.3c-1.3,0.1-2.7,0.2-3.3,1.7c-0.4,0.9-0.9,1.9-1.4,3.1    c0.5,0.2,1.3,0.5,1.9,0.7c0.5-0.8,0.9-1.5,1.3-2.2c0.4,0.5,0.8,1,1.2,1.6c0.5-0.2,1.1-0.4,1.4-0.5C67.8,225.5,68,224.3,68.1,223     M106.2,215.4h-0.5c-0.2-1.1-0.4-2.2-0.6-3.3c-0.1-0.6-0.3-1.1-0.5-1.7c-1,0.4-2,0.7-3,1.2c-0.3,0.1-0.5,0.9-0.3,1.2    c0.8,1.3,0.8,3.2,2.6,3.8c0.4,0.1,1,0.4,1.2,0.2C105.7,216.5,105.9,215.9,106.2,215.4 M189,235.5c1.2,1.2,2.4,1.4,3.3,0.4    c1.8-2,3.4-4.1,5.1-6.3c-0.8-0.4-1.4-0.7-2.1-1C194.5,232,191.5,233.4,189,235.5 M187.7,139.5c-1.8,1.9-3.4,3.6-5.1,5.4    c1.5,0.1,2.5,0.2,3.5,0.2c1.1,0,2.1-0.2,2.4-1.6c0.2-1.1,0.4-2.2,0.6-3.4C188.7,139.9,188.2,139.7,187.7,139.5 M192.4,141    c-0.3,0.3-0.7,0.4-0.9,0.7c-1.2,2.1-2.4,4.2-3.5,6.4c-0.1,0.1,0.4,0.7,0.6,0.7c1.2,0.1,3-1.6,3.4-2.6c0.5-1.4,1.3-2.6,2-3.9    c0.2-0.5,0.7-0.8,0.9-1.2c0.1-0.2-0.1-0.6-0.2-0.9c-0.2,0.2-0.5,0.4-0.7,0.6c-0.3,0.5-0.4,1-0.6,1.5c-0.2,0-0.3-0.1-0.5-0.1    C192.7,141.9,192.6,141.5,192.4,141 M190.7,160.5c0.2,0,0.4,0.1,0.6,0.1c0.2-1,0.5-2,0.5-3c0-0.6-0.6-1.3-0.9-1.9    c-0.6,0.6-1.3,1.1-1.9,1.7c-0.2,0.2,0.2,0.8,0.3,1.2c-2.1,0-3.5,2-3.1,4.1c2.1-0.4,2.9-2.2,4-4.1    C190.4,159.6,190.5,160.1,190.7,160.5 M135,148.5c-1-1.7-1.9-3.1-2.9-4.9c1.1,0.1,1.8,0.2,2.9,0.2c-0.5-1.4-0.9-2.6-1.3-3.8    c-0.5,0.8-1,1.5-1.4,2.1c-0.3-0.1-0.5-0.2-0.8-0.3c0.2,1.3,0.3,2.5,0.5,3.9c-0.7,0.5-1.7,1-2.9,1.7c1.3,0,2.7-0.3,2.8,0    C132.6,149.2,133.7,148.5,135,148.5 M158,169.6c-0.4-2.8-0.8-5.2-1.2-7.8c-0.4,0.4-1,0.9-1.4,1.5s-0.6,1.6-1.1,1.8    c-1.4,0.6-1,1.4-0.8,1.9C155,167.9,156.2,168.6,158,169.6 M121.1,232c-1-0.5-2.2-1.7-3.1-1.5c-1,0.2-1.7,1.7-2.4,2.4    c0.9,1.1,1.4,1.9,2.1,2.8C120,236.1,120.3,234.1,121.1,232 M201.9,155.7c0.7-0.9,1.4-1.7,1.8-2.6c0.2-0.5,0.2-1.6-0.1-1.9    c-1.7-1.7-2.5-1.4-4,1c0.6,0.3,1.2,0.6,1.8,0.8c-0.9,0.6-1.9,1.2-2.8,1.8c0,0.2,0.1,0.4,0.1,0.6    C199.8,155.6,200.8,155.7,201.9,155.7 M69.2,183.4c0.2-0.6,0.3-1.7,0.9-2.2c0.8-0.7,1.9-1,2.9-1.5c-0.1-0.3-0.3-0.5-0.4-0.8    c-1,0.5-2.1,1-2.9,1.5c-0.7-0.3-1.5-0.9-2.3-0.8c-1.6,0.2-2.2,1.6-1.6,3.5c0.1,0.5,0.8,0.8,1.2,1.2c0.3-0.4,0.6-0.8,0.8-1.2    c0.1-0.2,0.3-0.5,0.6-1C68.7,182.7,69,183.2,69.2,183.4 M82.4,208.1c0.5-0.6,0.8-1,1.1-1.2c1.4-1,1-1.8-0.4-2.2    c-1.3-0.4-2.6-0.7-3.8-1.1c-1.6-0.5-3,0.2-3.5,1.6c-0.3,1.1,0.1,1.9,1.1,2.2c0.5,0.1,1.1-0.4,1.4-0.5c-0.4-1-0.6-1.6-0.8-2.1    c0.6-0.2,1.2-0.6,1.8-0.6c1.3,0,2.3,0.6,2.5,2.1C82,206.7,82.2,207.2,82.4,208.1 M78.8,187.5c-0.9-4.3-4.2-3.2-6.8-3.6    c0.5-0.2,1-0.3,1.7-0.6c-0.6-0.5-1-0.9-1.5-1.1c-0.5-0.2-1.1,0-1.6-0.1c0.1,0.5,0.2,1,0.3,1.6c0.1,0.5,0.3,1,0.4,1.4    c0.1,0.3,0.4,0.6,0.6,0.9c0.1-0.3,0.2-0.6,0.3-1C74.3,185.8,76.4,186.6,78.8,187.5 M114.9,204.4c-1,4.5-1.9,4.6,4.1,5    c1.8,0.1,2-0.9,2-2.1c0-0.3-0.3-0.6-0.5-0.8c-0.2,0.2-0.5,0.3-0.7,0.5c-0.5,0.6-0.9,1.3-1.4,1.8c-0.2,0.2-0.8,0-1.2,0    c0.1-0.4,0.2-0.7,0.3-1.1c0-0.5,0.1-1.1-0.1-1.4C116.7,205.5,115.8,205,114.9,204.4 M147.8,150c0.8,0.9,1.4,1.5,2,2.1    c0.5,0.5,0.9,1.2,1.4,1.5c0.3,0.1,1-0.4,1.4-0.7c0.7-0.6,1.4-1.3,2.3-2.1c-0.4-0.1-0.9-0.2-1.3-0.4c-0.5-0.2-1-0.5-1.2-0.9    s0-1,0-1.6c-0.1,0-0.2,0-0.4,0c-0.4,0.9-0.8,1.8-1.1,2.4C149.8,150.1,148.9,150.1,147.8,150 M116.6,229.9c0-0.2-0.1-0.4-0.1-0.6    c-1.6,0.2-3.3,0.1-4.8,0.6c-2.2,0.7-2.2,0.9-2.7-1.3c-1.1,1.1-0.8,1.9,0.5,2.4c1.5,0.6,2.9,1.1,4.4,1.5c0.3,0.1,0.9-0.2,1.1-0.5    C115.7,231.4,116.1,230.6,116.6,229.9 M95.7,166.3c0.7-0.4,1.5-0.8,2.2-1.2c0.3,0.8,0.5,1.7,0.8,2.6c1.5-1.3,3-2.5,4.5-3.8    c-1.4-0.1-2.6,0.3-3.8,0.2c-1.1-0.1-2.2-0.8-3.5-1.4c-0.1,0.4-0.2,1-0.2,1.6C95.7,165,95.7,165.7,95.7,166.3 M147.6,186.3    c3.2-0.2,4.2-1.6,3.7-4.2c-0.8-0.3-1.7-0.4-1.8-0.7c-0.2-0.7,0.1-1.5,0.2-2.7C147.3,181.1,148.8,184,147.6,186.3 M88,209.4    c0.5,0.3,0.9,0.8,1.4,0.8c0.9,0.2,1.9,0.2,2.8,0.1c0.6,0,1.1-0.4,1.6-0.5c0.6-0.2,1.2-0.2,1.4-0.3c-0.9-0.3-2.4-0.5-2.6-1    c-0.5-1.7-1.9-1.6-2.8-1.5C88.9,207.3,87.8,208,88,209.4 M126.3,241.2c0.1-0.1,0.1-0.3,0.2-0.5c-3-0.3-6.1-0.6-6.1-4.7    c-1,0.3-1.7,0.5-2.3,0.7c2.3,2.8,4.4,5.5,6.4,8c-0.3-0.7-0.8-1.6-1.2-2.6c-0.1-0.3,0-0.7,0-1c0.3,0.1,0.7,0.2,1,0.4    c0.2,0.1,0.4,0.3,0.6,0.5C125.5,241.8,125.9,241.5,126.3,241.2 M126.6,130.3c-0.2,0-0.3,0.1-0.5,0.1c0.2,1.6,0.3,3.3,0.5,4.9    c1-0.3,1.8-0.6,2.4-0.8c0.3-1.2,0.5-2.4,0.9-3.9c0.8,0.8,1.2,1.3,1.7,1.8c0.5-0.8,0.9-1.5,1.4-2.2c-1.6-0.2-3.8,0.9-4.3,2.2    C127.8,131.7,127.2,131,126.6,130.3 M125,144.7c-0.2,0-0.4,0-0.6,0c-0.1,0.5-0.3,1-0.3,1.5c0.2,1.8,0.5,3.7,0.7,5.5    c0.1,0.9,2,2.3,2.8,2.1C126.8,150.7,125.9,147.7,125,144.7 M181.1,169.4c0.5-0.3,0.7-0.5,1.1-0.7c0.3,0.9,0.6,1.6,0.8,2.3    s0.3,1.4,0.6,2.3c2.2-2.1,2.2-2.8-0.2-6c-0.6-0.9-1.3-1.6-2.2-0.7v2.8H181.1z M184.4,213.8c0.9,0.4,1.5,0.7,2.6,1.2    c0.1,0,0.7,0.1,1.3,0.2c0.5,0.1,1.1,0.1,1.6,0.2c0.1-0.2,0.1-0.4,0.2-0.6c-1.3-1.3-2.5-2.6-3.9-3.8c-0.2-0.2-1.5,0.5-1.8,1    C184.1,212.6,184.4,213.4,184.4,213.8 M192.5,230.1c3.4-2.3,3.6-3.2,1.6-5.4C190.3,227.2,190.3,227.2,192.5,230.1 M140.9,183.6    c0.8,1.9,1.5,3.7,2.3,5.5c0.2,0,0.4,0,0.5,0c-0.7-1.7,3.5-0.4,1.5-2.8C144.2,184.9,143.6,182.7,140.9,183.6 M87,139.8    c-0.6,0.2-1.2,0.4-1.8,0.5c-1.8,0.2-3.3,1.7-3,3.3c0.1,0.6,0.4,1.3,0.6,2.1c0.5-0.5,0.8-0.8,1.2-1.1c-1.2-2.7-1.1-2.8,2.8-2.8    c0.3-0.8,0.6-1.7,0.9-2.4c-1.5-0.7-2.9-1.4-4.3-2.1c-0.1,0.2-0.2,0.4-0.3,0.6C84.3,138.4,85.5,139.1,87,139.8 M112.2,171.6    c-0.9-2.4,2-5-0.5-6.9c-1,0.5-1.8,1-3,1.6c2.8,1.1,1.5,3.4,1.9,5.2C111,171.5,111.5,171.6,112.2,171.6 M196.3,219.9    c0.2,0.1,0.4,0.2,0.6,0.3c1.4-1.5,4.5-0.7,5-4.2c-1.7,0.2-3.4,0.1-4.7,0.8C196.5,217.1,196.6,218.8,196.3,219.9 M183.3,130.7    c0.2-0.1,0.3-0.2,0.5-0.3c0.9,0.5,1.8,1.1,2.7,1.6c0.5,0.2,1,0.3,1.5,0.5c0-0.5,0.2-1.1,0-1.5c-0.2-0.7-0.6-1.4-1.1-1.9    c-0.5-0.6-1.2-1.1-1.8-1.6c-0.6,0.7-1.2,1.4-1.7,2.2C183.3,129.9,183.3,130.3,183.3,130.7 M145,150.6c-1.6,1.5,0.1,5.1-3.6,5.3    c0.2,0.6,0.4,1.1,0.5,1.5c1.5-2,2.8,1,4,0.3C145.6,155.2,145.3,152.9,145,150.6 M220,151.7c-0.6,0.6-0.9,1.1-1.3,1.4    c-0.9,0.5-1.8,1-2.8,1.3c-0.3,0.1-0.8-0.3-1.1-0.5c0.3-0.3,0.6-0.6,0.9-0.9c0.6-0.4,1.4-0.7,1.9-1.2c0.3-0.2,0.2-0.8,0.3-1.2    c-0.4,0-0.9-0.1-1.3,0.1c-2.5,1.2-2.8,2.2-1.8,5C217,155.4,219.9,153.4,220,151.7 M156.7,178.4c-0.1,0.7-0.1,1.4-0.2,2.2    c-0.5-0.2-1-0.4-2.1-0.8c0.6,1.7,1,3,1.5,4.5C159,181.9,159,181.9,156.7,178.4 M192.5,165.9c-0.2,0.1-0.4,0.2-0.5,0.3    c1.8,2.3-0.5,4-0.9,5.9c2.8,1.4,0,2.1-0.4,3.2c0.6,0.1,1.1,0.2,1.7,0.3c0.2-2.5-0.5-5.2,2.7-6.4C194,168,193.3,167,192.5,165.9     M220.8,205.2c-1.6,0-3-0.1-4.4,0c-0.4,0-1.1,0.5-1.1,0.7c0.1,0.9,0.4,1.9,0.6,2.8c0.5-0.2,1-0.4,1.5-0.6c1-0.6,2-1.2,3-1.9    C220.6,206,220.6,205.6,220.8,205.2 M67.3,197.6c-1,1.2-1.5,2.7-0.7,4.5c0.3,0.7,0.8,1.3,1.3,1.9c0.1,0.1,1-0.2,1-0.3    c0.1-0.8,0.2-1.6-0.1-2.4C68.4,200,67.8,198.9,67.3,197.6 M176,245.9c0.1,0.1,0.2,0.2,0.3,0.4c1.3-0.2,2.8-0.2,3.9-0.8    c1.1-0.6,2.3-1.8,0.6-3.8C179.1,243.1,177.5,244.5,176,245.9 M94.8,223.3h-3.5c0,0.9,0.1,1.7,0,2.5c-0.2,0.7-0.7,1.3-1.1,1.9    c0.8,0,1.5,0,2.3,0c0.1,0,0.2-0.1,0.2-0.1c-0.4-2.1-0.1-2.8,1.4-3.3c0.2,0.7,0.4,1.3,0.6,2c0.2,0,0.3-0.1,0.5-0.1    C95,225.3,94.9,224.3,94.8,223.3 M79.2,249.7c2.6-0.5,3.7-1.9,3.5-4.6C79.6,245.9,78.2,247.6,79.2,249.7 M87.4,214.9    c1.5-0.6,3.9,0.3,3.6-2.9c-1.5,0.6-3.4,0.8-4.3,1.8c-0.7,0.8-0.1,2.6-0.1,4.3c0.8-0.9,1.3-1.5,1.8-2.1    C88.3,215.9,87.9,215.5,87.4,214.9 M156.8,241.2c-0.1-0.1-0.2-0.2-0.3-0.2c-0.6,0.2-1.1,0.5-1.7,0.7c-0.1-0.5-0.2-0.8-0.3-1.5     M105.3,204.6c-0.4,0-0.6-0.1-0.7,0c-0.6,0.4-1.1,0.8-1.7,1.2c0.5,0.3,0.9,0.6,1.4,0.7c0.9,0.2,1.8,0.2,2.6,0.2    c0.4,0,1-0.1,1.3-0.4c0.2-0.2,0.3-1,0.1-1.2c-0.3-0.4-0.9-0.8-1.4-0.8C106.4,204.2,105.7,204.5,105.3,204.6 M107.7,151.3    c0.8,1,1.4,1.8,2,2.5c0.7,0.8,1.3,1.7,2.1,2.6c0.4-0.7,0.7-1.2,1-1.8c0.5,0.2,0.9,0.4,1.6,0.6c-0.5-0.7-0.8-1.1-1.1-1.5    c-1.4,0.5-1.3,0.4-2.2-0.7C110.5,152.1,110,150.7,107.7,151.3 M144.7,169.4c-0.1,0.9-0.4,1.8-0.3,2.7c0.1,0.5,0.9,1.4,1.2,1.3    c0.8-0.1,2-0.6,2.2-1.2C148.3,171.1,146.3,169.2,144.7,169.4 M156,194.1c0,0.2,0.1,0.4,0.1,0.6c1.3,0.6,2.6,1.1,4.2,1.8    c0.2-1.4,0.5-3.1,0.8-4.4c-0.6,0.3-1.3,0.7-2,1C158,193.5,157,193.8,156,194.1 M97.7,189.7c-0.9,0.6-1.8,1.1-2.4,1.8    c-0.3,0.4-0.3,1.3-0.2,1.9c0.1,0.3,0.7,0.5,1.1,0.7c0.1-0.9,0.3-1.7,0.4-2.6c0.2,0,0.4,0,0.6,0c0.1,1.1,0.3,2.1,0.4,3    c0.5-1.1,1-2.3,1.5-3.6C98.7,190.6,98.1,190.1,97.7,189.7 M189.6,224.1c0.8,0.4,1.3,0.6,1.8,0.8c1.4-0.9,2.2-2.1,1.6-3.6    c-0.1-0.4-1.6-0.8-1.6-0.7C190.7,221.7,190.2,222.9,189.6,224.1 M159.2,238.6c2.1-1.6,2.3-3.5,2.3-5.7c0.8,0.2,1.4,0.5,2,0.7    c0.1-0.2,0.3-0.4,0.4-0.6c-0.8-0.6-1.6-1.3-2.6-2.1c-0.4,1.3-0.8,2.4-1.1,3.6C159.8,235.7,159.6,237,159.2,238.6 M222.7,218.6    c1,3.2,2.3,3.1,5.2,0c-2.1-2.9-2.1-2.9-2.8-2.2c0.4,0.5,0.9,1,1.2,1.6c0.2,0.4,0.1,0.9,0.2,1.4c-0.5,0.1-1,0.2-1.4,0.1    C224.4,219.3,223.7,218.9,222.7,218.6 M112.1,145.2c1.5-3,1.5-3-1.8-5.6c-0.5,0.6-1,1.3-1.6,2.1    C110.6,142,111.9,142.9,112.1,145.2 M207.5,161.1c0.7-0.4,1-0.6,1.4-0.9c0.8-0.5,1.5-1.2,2.3-1.5c1.6-0.5,2.1-1.3,1.8-3    C210.3,156.3,208.8,158.2,207.5,161.1 M57.1,207.9c-0.1,1.7,1.2,2.7,3.6,2.2c0.2-1,0.3-2.2,1.9-1.3c0.5,0.3,1.3-0.2,2-0.3    c0-0.2-0.1-0.4-0.1-0.6L57.1,207.9L57.1,207.9z M109.7,199.8c0.9,0.5,1.4,0.8,1.9,1.1c0.1-0.1,0.3-0.3,0.4-0.4    c-0.7-0.8-1.3-1.7-2.1-2.2c-0.3-0.2-1.6,0.8-1.8,1.4c-0.4,1.5,0.6,2.5,1.9,3.3c0.1-0.5,0.2-1,0.2-1.4    C110.1,201.2,109.9,200.7,109.7,199.8 M170,196c0.8-1.7,0.8-1.7-2.3-3.6c-0.7,1.2-2.1,2.2-1,3.2C168.1,195.9,168.9,195.9,170,196     M123.8,217.8c-0.8,0.6-1.9,1.1-2.6,1.9c-0.5,0.7-0.6,1.9-0.7,2.8c0,0.2,0.8,0.5,1.2,0.8c0.3-0.6,0.8-1.1,1-1.7    C123.1,220.5,123.4,219.2,123.8,217.8 M214.1,166c-0.3,0-1.1,0.1-1.8,0.1c-0.7,0.1-1.5,0.1-2.2,0.3c-0.3,0.1-0.7,0.4-0.9,0.7    c-0.1,0.1,0.2,0.6,0.4,0.7c0.3,0.1,0.7,0,1-0.1c0.4-0.2,0.8-0.5,0.7-0.5c1.2,0.7,2,1.3,2.8,1.7c0.2,0.1,0.7,0,0.7-0.1    c0.1-0.3,0-0.6-0.1-0.9C214.8,167.3,214.5,166.8,214.1,166 M174,155.1c2.4-2.2,3-3.8,2.4-5.9c-0.2-0.5-0.7-0.9-1-1.4    c-0.2,0.1-0.3,0.2-0.5,0.3c0.1,1.7,0.2,3.3,0.4,5.1c-0.4-0.2-0.9-0.4-1.3-0.7L174,155.1L174,155.1z M174.9,164.4    c0.3,0,0.6,0,0.9,0c0-1-0.1-2.1,0-3.1c0.1-0.9,0.4-1.9,0.6-2.8c0.1-0.4,0.2-0.8,0.2-1.2c-0.6,0-1.3-0.1-1.9,0.1    c-0.2,0-0.5,0.8-0.4,1c1.2,1.4,0.7,2.9,0.2,4.4C174.5,163.3,174.8,163.9,174.9,164.4 M76.4,193c0.6,2,1,3.6,1.6,5.2    c0.1,0.3,0.9,0.8,1.1,0.7c0.4-0.3,0.9-0.9,0.9-1.3c-0.1-0.7-0.6-1.4-1.1-2C78.2,194.8,77.4,194.1,76.4,193 M211.2,202    c0,0.2,0,0.4,0,0.6c2.1,1.5,5.8,1.6,7.2-0.2C215.8,202.3,213.5,202.2,211.2,202 M150.5,211.4c1,0,1.8,0,2.6,0c0.7,0,1.3-0.1,2-0.2    c-0.3-0.5-0.5-1.1-1-1.5c-0.4-0.3-1.3-0.7-1.5-0.6C151.7,209.7,150.4,210,150.5,211.4 M67.2,170c-0.2,0.1-0.4,0.1-0.6,0.2    c0.5,1.1,0.9,2.2,1.4,3.2c0.2,0.4,0.9,0.6,1.1,1.1c0.6,1.4,1.1,1.6,2.6,0.3c-0.8-0.7-1.7-1.4-2.4-2.2    C68.5,171.8,67.9,170.9,67.2,170 M100.3,156c-1.5,1.2-1.2,3,0.5,4.8c0.7-0.4,1.3-0.8,2.1-1.3c-0.8-0.9-1.4-1.7-2-2.6    C100.6,156.6,100.5,156.2,100.3,156 M147.7,194.3c0.2,0.9,0.4,1.7,0.6,2.6c0.1,0.3,0.3,0.7,0.5,0.8c0.8,0.2,1.7,0.2,2.6,0.3    C151,195.2,150.4,194.6,147.7,194.3 M202,187.8c1.3,0.6,2.4,1.5,3.8,0.2c0.2-0.2,0.9,0.1,1.3,0.2c0.4,0.1,0.8,0.2,1.3,0.2    c0.1,0,0.3-0.7,0.2-0.7c-0.4-0.2-0.8-0.5-1.2-0.5c-1.6-0.2-3.2-0.3-4.9-0.5C202.4,186.9,202.2,187.3,202,187.8 M135.9,187.6    c0.4-0.7,0.8-1.4,0.9-1.3c1,0.4,2,0.9,2.8,1.2c-0.3-1,0.1-3.2-2.4-2.9c-0.8,0.1-1.6,0.9-2.4,1.4    C135.1,186.5,135.5,187,135.9,187.6 M82.8,148.5c-0.4-0.1-0.7-0.2-1.1-0.2c-0.5,1-1,2.1-1.6,3.1c1,0.2,2,0.5,3,0.7    C83,150.9,82.9,149.7,82.8,148.5 M123.3,142.2c-1.2-1.7-2.2-3-3.2-4.5c-0.5,1.2-1,2.5-1.5,3.9c0.1,0.1,0.2,0.2,0.4,0.3    c1.2-1.3,2.2-1,3.2,0.1C122.5,142.1,123,142.1,123.3,142.2 M92.2,137.8c0.2-0.1,0.4-0.3,0.5-0.4c-1.3-1.7-2.6-3.4-3.9-5.1    c-0.1-0.2-0.6-0.1-0.9-0.2C87.9,135.3,90.8,136,92.2,137.8 M156.8,128.4c1.6-1.9,3-3.5,4.3-5.1c0.1-0.1-0.1-0.3-0.1-0.7    c-0.5,0.4-0.9,0.8-1.3,1.2c-0.6,0.5-1.1,1.1-1.8,1.3C156.2,125.6,156.1,126.5,156.8,128.4 M75.4,239.8c-1.6,1-1.7,5.2,0,6.7V239.8     M134.3,190.2c0.1-0.1,0.1-0.2,0.2-0.3c-0.4-0.8-0.9-1.7-1.3-2.5c-0.3-0.5-0.6-1.1-1-1.6c-0.1-0.1-1.1,0.3-1.1,0.4    c0,0.7,0,1.7,0.5,2.1C132.3,189.1,133.4,189.6,134.3,190.2 M97.3,232.3c-0.1-1.5-0.2-2.9-0.3-4.2c-0.2-0.1-0.4-0.2-0.6-0.3    c-0.4,0.7-0.8,1.4-1.4,2.5c-0.2-0.9-0.2-1.2-0.3-1.7C93.9,230.2,95.2,232.1,97.3,232.3 M98.3,174.1c-0.8,0.9-1.8,1.7-2.3,2.7    c-0.2,0.4,0.6,1.4,1.6,0.8C98.8,176.8,100.1,176.2,98.3,174.1 M228.1,233.3c0.8-0.8-2.3-3.3,1.4-2.6c-0.1-0.4-0.2-0.8-0.3-1.1    c-0.1-1.2-1-1.4-1.7-1c-0.5,0.3-1.1,1.3-1,1.9C226.7,231.5,227.5,232.4,228.1,233.3 M163.7,207.5c-0.2,0.1-0.3,0.1-0.5,0.2    c0,1.5-0.2,3,0.1,4.5c0.1,0.8,0.9,1.4,1.4,2.1c0.1-0.1,0.3-0.2,0.4-0.3C164.7,211.7,164.2,209.6,163.7,207.5 M123.6,193.9    c1-1.1,1.7-1.8,2.5-2.6c-0.8-0.3-1.6-0.8-2.4-0.8c-0.4,0-1,0.9-1.2,1.4C122.4,192.3,123,192.8,123.6,193.9 M119.3,131    c-0.6,0.7-1.2,1.4-1.8,2c0.2,0,0.4-0.1,0.6-0.1c0.5,0.6,0.9,1.3,1.4,1.9c0.3,0.4,0.8,0.5,1.3,0.8c0-0.5,0.3-1.1,0.1-1.5    C120.6,133.1,120,132.2,119.3,131 M154.1,141.2c1.3-0.2,2.3-0.4,3.4-0.6c-1-1.5-1.8-2.6-2.7-3.9    C154.6,138,154.4,139.3,154.1,141.2 M156.8,156.9c-0.2,0-0.5-0.1-0.7-0.1c-0.5,1.2-1.1,2.3-1.6,3.5c0.1,0.1,0.3,0.3,0.4,0.5    c0.8-0.2,2.3-0.3,2.3-0.5C157.3,159.2,157,158,156.8,156.9 M154.6,222.8c1.4-0.6,2.3-1.1,3.2-1.3c0.7-0.1,1.4,0.4,2.1,0.6    c0.2,0.1,0.4,0.5,0.6,0.7l0.4-0.3c-0.2-0.3-0.3-0.7-0.6-1c-0.5-0.5-1.1-0.9-1.7-1.4c-0.9,0.6-1.9,1.4-2.8-0.6    C155.5,220.7,155.1,221.5,154.6,222.8 M174.2,146.6c2.5,0.6,3.5-0.6,3-3.9C176.3,143.9,175.4,145.1,174.2,146.6 M91,155.6    c0,0.2,0,0.5-0.1,0.7c1.5,0.1,2.7,0.5,2.5,2.3c0,0.4,0.5,0.8,0.8,1.2c0.5-0.4,1-0.8,1.3-1.3c0.1-0.2-0.4-0.8-0.7-1    c-0.8-0.6-1.6-1.2-2.4-1.7C92.1,155.6,91.5,155.7,91,155.6 M76.7,217.9c-1-0.1-1.9-0.2-2.7-0.1c-0.7,0-1.5,0.2-2.3,0.3    c1.5,3,3.5,0.3,5.1,1.1L76.7,217.9L76.7,217.9z M155.2,125.4c0.8-1.2,1.4-2,1.8-2.9c0.1-0.2-0.6-1-0.9-1c-0.8,0-1.5,0.3-2,0.5    C154.5,123.2,154.7,124,155.2,125.4 M187.4,184c0.1-0.2,0.2-0.4,0.3-0.6c-0.9-0.7-0.4-2.8-2.4-2.2c-0.9,0.3-2.1,0.5-1.9,1.7    c0.8,0.1,1.5,0.1,2.1,0.2C186.1,183.3,186.7,183.7,187.4,184 M74.9,200.4c-2.3-1.7-4.1-3.1-5.9-4.4c0.3,0.8,0.7,1.4,1.2,1.9    c1,1,2,2,3,2.9C73.4,201,74,200.7,74.9,200.4 M114,236.5c-1.7,1.3-0.9,3.9,1.5,4.5c-0.8-1.1-1.7-2.1-2.7-3.5    c1.9-0.1,2.3,1.8,3.4,2.5c0.1-0.1,0.3-0.3,0.4-0.4C115.8,238.6,114.9,237.6,114,236.5 M150.8,169c1.1-2.1,0.9-2.5-1.3-2.9    c-0.4,0.9-0.9,1.8-1.4,2.8C149.4,168.9,150.1,168.9,150.8,169 M222.2,192.3c-1.2-1.5-1.9-0.2-2.7,0.1c-0.4,0.2-0.9,0.7-1.3,0.6    c-1.6-0.4-2-0.1-2.1,1.7C218.1,193.9,220,193.1,222.2,192.3 M86.7,158.9c-0.9,0.1-1.4,0.1-1.9,0.1v-2c-1.6,3.1-1.5,3.7,0.2,4.9    C85.5,161,86,160.1,86.7,158.9 M118.4,158.1c0.2,0.7,0.2,1.2,0.3,1.2c1.3,0.5,2.3,0.9,3.6,1.4c0-0.7,0.2-1.8,0-1.9    C121.1,158.5,119.8,158.3,118.4,158.1 M149.3,176.7c0.9,0.4,1.6,0.9,2.4,1.2c0.3,0.1,0.9-0.1,1.1-0.3c0.1-0.2,0-0.8-0.2-1    c-1.3-2.1-1.3-2.1-2.9-0.3C149.5,176.3,149.4,176.5,149.3,176.7 M127.7,189.2c0.2-0.1,0.4-0.2,0.6-0.3c-0.4-0.4-0.7-1.2-1.1-1.3    c-1.5-0.2-3.1-0.4-3.8,2.3c1.4-0.6,2.5-1,3.7-1.5C127.1,188.5,127.4,188.8,127.7,189.2 M138,235.6c-0.3-0.4-0.7-1.2-1.3-1.3    c-0.7-0.2-1.6,0.1-2.8,0.3c0.9,1.1,1.4,1.8,1.9,2.5C136.6,236.6,137.1,236.2,138,235.6 M78.2,159.8c-0.6-0.1-1.2-0.2-1.7-0.3    c0-0.1,0.1-0.4,0.1-0.4c-0.9,0.2-1.7,0.4-2.6,0.7C73.8,161.5,74.8,161.8,78.2,159.8 M186.3,203.9c-0.4,1.1-0.5,2.3-1.1,2.7    c-1.7,1-0.7,2.1-0.7,3.2C185.7,209.5,186.9,206,186.3,203.9 M212.2,207.9c0.6-1.1,1.3-1.8,1.2-2c-0.5-0.6-1.2-1.1-1.9-1.4    c-0.1-0.1-1.1,0.9-1,1.1C210.8,206.3,211.3,206.9,212.2,207.9 M213.6,220.7c-0.7-0.2-1.4-0.4-2.1-0.4c-0.7,0-1.4,0-2,0.2    c-0.2,0.1-0.5,0.8-0.4,1.1C209.7,222.4,213,221.9,213.6,220.7 M178.6,137.1c0.8-1,1.4-1.8,1.8-2.6c0,0-0.9-0.8-1-0.8    c-0.8,0.5-1.5,1.1-2.2,1.7C177.5,135.9,177.8,136.2,178.6,137.1 M78.5,179.4c-1.7-0.9-3-1.7-4.4-2.4c-0.1,0.2-0.3,0.3-0.4,0.5    c1.2,1,2.3,2.1,3.6,3.2C77.6,180.4,78,180,78.5,179.4 M106.9,234.4c-0.6-2.8,1.7-0.3,2.1-1.3c-1.4-2.1-3-1.5-4.7-0.6    c0.4,0.3,0.8,0.6,1.2,0.9C105.9,233.7,106.3,234,106.9,234.4 M78.8,245.3c1.7-1,1.2-3.4-0.6-5.2C76.7,242.1,79.4,243.3,78.8,245.3     M160.9,212.7c-0.5-0.9-0.8-1.5-1.2-2.2c-0.9,0.5-1.8,1.1-2.7,1.6c0.1,0.2,0.2,0.4,0.3,0.6L160.9,212.7L160.9,212.7z M87.6,230.4    c-0.1-0.8-0.1-2.5-0.4-2.5c-1.6-0.2-2.3,1-2.8,2.1C85.3,230,86.2,230.2,87.6,230.4 M82.8,132.4c-0.6,1-1.1,1.9-1.8,3    c0.8,0.4,1.7,0.8,2.9,1.4C83.5,135,83.1,133.6,82.8,132.4 M127.8,238c-1.5-0.6-2.6-1.1-4.2-1.7C124.4,239.2,125.5,239.6,127.8,238     M102,238c0.2,0,0.5,0,0.7,0.1v-3c0.9,0.5,1.6,0.9,2.8,1.5c-0.9-1.2-1.5-2-2.1-2.6c-0.1-0.1-1,0.1-1.1,0.3    C102.1,235.5,102,236.8,102,238 M119.6,218.6c-0.3-0.1-0.4-0.2-0.5-0.2c-0.7-0.2-1.3-0.4-2-0.5c-0.4,0-0.8,0.2-1.2,0.3    c0.2,0.5,0.2,1.1,0.5,1.3C117.2,220.3,118.9,219.8,119.6,218.6 M162.7,196.1c-1,1.1-3.5,1.8-1.4,3.9    C164.1,199.5,161.8,197.2,162.7,196.1 M205.7,157.6c-0.6-1.2-1-1.9-1.5-2.9c-0.6,1.1-1.1,2.1-1.8,3.5    C203.8,158,204.8,157.8,205.7,157.6 M97.3,180.8c-0.1,0.1-0.2,0.2-0.3,0.2c0.9,0.8,1.7,1.6,2.7,2.3c0.3,0.3,0.8,0.4,1.2,0.5    c0.1,0,0.4-0.4,0.4-0.5c-0.2-0.5-0.4-1.1-0.9-1.4C99.5,181.4,98.4,181.2,97.3,180.8 M156.9,203.3c0.3-1.2,0.6-2.2,1-3.6    c-1.1,0.9-2,1.5-2.8,2.2c-0.2,0.2-0.3,0.6-0.3,0.9c0,0.2,0.4,0.4,0.7,0.4C156,203.4,156.4,203.3,156.9,203.3 M103.3,181.9    c0,0.2-0.1,0.4-0.1,0.5c0.9,0.9,1.7,1.8,2.6,2.7c0.1-0.1,0.2-0.2,0.3-0.2c-0.2-0.4-0.4-0.9-0.6-1.5c0.8-0.1,1.4-0.2,2.1-0.3    c0-0.1,0-0.2,0-0.3C106.1,182.6,104.7,182.2,103.3,181.9 M96.9,207.3c0.5-1.3,0.7-2.1,1-2.9c-0.1-0.2-0.3-0.3-0.4-0.5    c-0.9,0.6-1.8,1.2-2.7,1.7C95.4,206.2,96,206.7,96.9,207.3 M195.5,219.3c-0.2-0.9-0.3-1.7-0.6-3c-1.2,0.8-2,1.5-2.9,2.1    c0.1,0.1,0.2,0.3,0.3,0.4C193.3,219,194.3,219.2,195.5,219.3 M139.5,221.2c-2.8,1.2-1.9,3.4-2.4,5.1c0.2,0.1,0.4,0.2,0.6,0.2    C138.2,224.9,138.7,223.3,139.5,221.2 M81.1,190.9c0.9-1,1.2-1.8,1.8-2.1c0.6-0.2,1.5,0,2.2,0.1c-0.7-0.6-1.5-1-2.3-1    c-0.6,0-1.6,0.1-1.9,0.5C80.7,189,81,189.9,81.1,190.9 M76.6,201.5c-0.1-0.2-0.3-0.4-0.4-0.6c-0.7,0.4-1.7,0.7-1.9,1.2    c-0.2,0.7,0.2,1.7,0.3,2.6H75C75.5,203.6,76.1,202.5,76.6,201.5 M171.5,162.6c-2.5,1.6-2.8,2.2-2,3.3c2.8-2.5,3-3.4,1.3-5.1    C171,161.4,171.2,162,171.5,162.6 M169.1,155.9c0.2,0,0.5,0,0.7,0v-5.4c-0.2,0-0.4-0.1-0.6-0.1c-0.1,0.7-0.3,1.4-0.4,2.1    c0,0.6,0.3,1.2,0.3,1.8C169.3,154.9,169.1,155.4,169.1,155.9 M197,215.6c2.2-0.2,4-0.3,5.8-0.4C200.5,213.8,199.4,213.9,197,215.6     M88.4,198.8c0,0.3,0,0.5,0,0.8c1.3-0.1,2.7-0.3,4.4-0.5C91,196.5,89.7,198.8,88.4,198.8 M106.3,200.4c0.6-1.1,1.4-2.4,2.4-4    c-0.2-0.1-0.7-0.6-1.2-0.6c-0.4,0-0.8,0.8-0.9,1.3C106.4,198.4,106.3,199.6,106.3,200.4 M125.7,176.2c0.2,1.2,0.8,2.1,1.9,1.5    c0.7-0.3,1.1-1.2,1.9-2.3C127.8,175.8,126.8,176,125.7,176.2 M132.2,176.9c0.1-0.6,0.1-1.2,0.2-1.7c0.1,0,0.3-0.1,0.5-0.1    c0.2,0.5,0.4,1,0.6,1.4c0.9-2.5-1.5-2.1-2.8-3.1c-0.3,1-0.5,1.8-0.8,2.6c0.1,0,0.1,0,0.2,0.1c0.3-0.5,0.6-1,1.1-1.8    C131.6,175.4,131.9,176.2,132.2,176.9 M188.7,231.2c-0.1,1.1-0.1,2-0.2,3c2-0.9,1.7-2.6,1.9-4.2    C189.7,230.4,189.1,230.9,188.7,231.2 M221.7,228.9c0.9,1.5,1.7,2.8,2.5,4.1c0.2-0.1,0.3-0.2,0.5-0.2c-0.4-1.3-0.8-2.6-1.2-4    C223,228.8,222.4,228.9,221.7,228.9 M133.7,226.1c-1.1,0.8-2.1,1.5-3.1,2.2l0.2,0.4c1.3-0.3,2.7-0.6,4.2-0.9    C134.4,227.1,134.1,226.7,133.7,226.1 M153.6,133.6c1,0.3,1.7,0.4,2.4,0.6c0.3-0.8,0.7-1.5,1-2.3    C155,130.8,154.8,132.8,153.6,133.6 M72,210.2c-0.1-0.6-0.2-1.7-0.3-2.3c-1-0.5-1.7-0.9-2.5-1.3c-0.4,0.3,0,1.6,0.7,2.1    C70.7,209.2,71.4,209.8,72,210.2 M83.2,228.2c0.1,0,0.3-0.1,0.4-0.1c-0.4-0.9-0.6-1.9-1.1-2.8c-0.1-0.3-0.9-0.2-1.4-0.3    c0,0.4-0.2,1,0,1.3C81.8,227,82.5,227.6,83.2,228.2 M145.3,127.5c0.4,0,0.7,0.1,1.1,0.1c0.1-1.7,0.2-3.5,0.3-5.2    c-0.2,0-0.4-0.1-0.7-0.1C145.8,124,145.6,125.7,145.3,127.5 M175.7,238.5c0.2,0.1,0.4,0.3,0.7,0.4c1.1-1.8,2.2-3.7,3.3-5.5    c-0.2-0.1-0.4-0.2-0.6-0.3C178,234.9,176.8,236.7,175.7,238.5 M204.8,173.6c0.2,0.1,0.3,0.2,0.5,0.3c0.5-0.4,1.4-0.9,1.4-1.3    c-0.1-0.8-0.6-1.6-1-2.5c-0.2,0.1-0.4,0.1-0.6,0.2C205,171.4,204.9,172.5,204.8,173.6 M123.2,139.7c1.3-1.5,1.5-4.7,0.4-5.5    C123.5,136.1,123.4,137.9,123.2,139.7 M162.2,228.4c-0.1,0.2-0.1,0.4-0.2,0.6c0.8-0.1,1.7-0.2,2.8-0.3c-1-1.5-1.7-2.4-2.2-3.1    C162.5,226.5,162.3,227.4,162.2,228.4 M82.2,197.8c0-0.8,0.1-1.5,0-2.2s-0.4-1.3-0.7-1.9l-0.5,0.2C81,195.4,79.7,197.4,82.2,197.8     M127.7,137.6c0.1,1.6,0.3,3.3,0.4,4.9C128.2,140.9,130.1,139.2,127.7,137.6 M206.4,219.2c0.2-0.1,0.3-0.3,0.5-0.4    c-0.5-0.7-0.8-1.5-1.5-1.9c-0.6-0.3-1.5-0.1-2.2-0.1c0,0.2,0,0.3,0,0.5C204.2,218,205.3,218.6,206.4,219.2 M82.3,169.8    c-1.2,0.2-2.2,0.4-3.8,0.6c0.8,0.6,1.1,1.2,1.5,1.2C81,171.7,82.1,171.7,82.3,169.8 M148.5,200.4c-0.1,0.1-0.1,0.3-0.2,0.4    c0.8,0.6,1.6,1.2,2.3,1.8c0.4-0.5,0.8-1.1,1.3-1.8C150.6,200.7,149.6,200.5,148.5,200.4 M70.4,195.5c0.6-0.8,1.1-1.3,1.6-1.9h-4.3    C68.8,194.4,69.5,194.9,70.4,195.5 M90,183.9c0.2-1.6-0.1-1.9-3-2.6c0.5,0.9,0.9,1.7,1.3,2.5C88.8,183.8,89.4,183.9,90,183.9     M198.4,173c-1.1,1-1,1.9-0.2,2.7c0.2,0.2,1.1-0.1,1.4-0.4C200.9,173.7,198.4,174.1,198.4,173 M121.5,169.4c-0.1,0-0.1,0-0.2,0.1    c0.6,1.9,1.1,3.9,1.7,5.8c0.2,0,0.3,0,0.5,0c0.1-0.4,0.5-0.9,0.4-1.2C123.1,172.5,122.3,171,121.5,169.4 M75.3,140.9    c0.8,0.4,1.4,0.9,1.7,0.8c0.9-0.5,1.7-1.3,2.5-2c-0.1-0.2-0.2-0.3-0.3-0.5C78,139.7,76.8,140.2,75.3,140.9 M71.7,252.8    c0.1-0.1,0.3-0.2,0.4-0.3c0-0.9,0.1-1.9,0.1-2.8c-0.2-0.1-0.4-0.2-0.6-0.3c-0.4,0.7-1.1,1.3-1.2,2    C70.3,251.8,71.2,252.4,71.7,252.8 M206.6,163.3c0.2-0.1,0.4-0.2,0.7-0.3c-0.1-0.5,0-1.3-0.2-1.5c-0.6-0.4-1.4-0.5-2.2-0.7    c-0.1,0.3-0.3,0.5-0.4,0.8C205.1,162.2,205.8,162.7,206.6,163.3 M177.3,198.1c-0.1,0.3-0.3,0.6-0.4,0.9c1,0.5,1.9,1.1,3,1.7    c0.3-0.5,0.6-0.8,0.8-1.3C179.4,199,178.4,198.5,177.3,198.1 M144.4,135.4c-1.1-0.3-2.2-0.5-3.4-0.8v1.1c0.9,0.3,1.7,0.6,2.5,0.9    C143.7,136.4,144.1,135.9,144.4,135.4 M156,227.9c0.1-0.1,0.2-0.3,0.4-0.4c-0.6-0.7-1.2-1.5-1.7-2.2c-0.3,0.8-0.6,1.5-0.9,2.5    C154.7,227.8,155.4,227.9,156,227.9 M166.2,160.6c0.2,1.3,0.4,2.9,0.6,4.5c0.4-1.2,0.9-2.3,1.2-3.3    C167.3,161.3,166.7,160.9,166.2,160.6 M85.5,245c0.8,0.8,1.4,1.5,2.2,2.4c-0.3-1.5-0.5-2.8-0.8-4.5c-0.4,0.5-0.6,0.7-0.7,0.9    C86,244.1,85.7,244.5,85.5,245 M105.1,167.1c0.2,1.8,1.1,2.3,2.7,1.3C107.6,166.7,106.4,166.9,105.1,167.1 M109.9,132.4    c-1,2.4-1,2.7,0.1,3.6c0.4-0.8,0.9-1.5,1.2-2.1C110.7,133.4,110.3,133,109.9,132.4 M136.7,196.2c-0.4-0.5-0.8-1-1.3-1.4    c-0.2-0.2-0.7-0.4-0.9-0.4c-0.3,0.1-0.6,0.5-0.5,0.8C134.2,197.5,135.8,196,136.7,196.2 M136.3,161.8c-1.9,0.6-2.3,1.3-1.5,2.4    c0.6-0.2,1.2-0.3,1.9-0.5C136.6,163.1,136.5,162.5,136.3,161.8 M155.6,231.3c0.8,0.7,1.4,1.2,2,1.7c-0.2,0.7-0.4,1.2-0.6,1.8    c0.1,0,0.2,0.1,0.3,0.1c0.7-0.9,1.3-1.8,2-2.6C157.9,231.9,156.9,231.6,155.6,231.3 M84.6,151.1c0-0.8-0.1-1.5-0.1-2.1    c-0.2,0-0.4,0-0.6,0c0.1,0.8,0.1,1.7,0.4,2.3s1,1,1.9,1.7v-2C85.7,151,85.3,151.1,84.6,151.1 M210.5,165.7    c0.9-0.5,2.5,0.2,2.3-1.6c-0.8-0.3-1.5-0.5-2.3-0.8V165.7z M107.4,150.6c-0.4-1-0.7-1.9-1-2.7c-0.2,0.5-0.6,1-0.7,1.5    C105.5,150.3,105.7,151.1,107.4,150.6 M76.2,196.6c-0.6-3.8-0.7-4-2.5-2.8C74.4,194.6,75.1,195.4,76.2,196.6 M63.1,197.8    c1,0.5,1.6,0.8,2.3,1.1c0.4-0.8,0.8-1.5,1.4-2.8C65.3,196.8,64.3,197.3,63.1,197.8 M84.2,176c0.6,1.3,0.9,2.1,1.2,2.8    c0.2,0,0.3,0.1,0.5,0.1c0.3-0.7,0.5-1.4,0.8-2.1C86,176.6,85.3,176.4,84.2,176 M83.9,194.2c0.6-0.8,0.9-1.3,1.4-1.8    c-0.8-0.5-1.6-0.9-2.3-1.4c-0.1,0.1-0.3,0.2-0.5,0.3C82.9,192.1,83.3,193,83.9,194.2 M202.7,225.9c0.9,0.3,1.5,0.5,2.1,0.7v-3.2    C203.9,224.4,203.4,225,202.7,225.9 M149.1,210c-1.5,2.4-1.4,2.7,0.7,3.1C149.5,212,149.3,211,149.1,210 M166.1,180.1    c1.7,0.8,2.6,0.4,2.5-1.7C167.7,179,166.9,179.6,166.1,180.1 M63.9,210c-0.1,0.3-0.1,0.6-0.2,0.9c1.3,0.2,2.5,0.5,3.8,0.7    c0-0.2,0.1-0.4,0.1-0.6C66.3,210.7,65.1,210.4,63.9,210 M208.6,152.1c-0.1,0.2-0.3,0.7-0.5,1.4c1.6-0.1,3-0.1,4.8-0.2    C211.3,152.7,210.1,152.4,208.6,152.1 M162.5,141.9c-0.1-0.1-0.1-0.1-0.2-0.2c-0.6,1.2-1.3,2.3-1.9,3.5c-0.2,0.3-0.3,0.6-0.3,0.9    c0,0.1,0.4,0.3,0.5,0.3c0.3-0.3,0.7-0.5,0.8-0.9C161.8,144.3,162.2,143.1,162.5,141.9 M188.8,139.3c0.2-0.1,0.5-0.1,0.7-0.2    c0.1-0.6,0.4-1.3,0.1-1.7c-0.2-0.4-1-0.4-1.6-0.6c-0.1,0.1-0.3,0.3-0.4,0.4C188,137.9,188.4,138.6,188.8,139.3 M231.8,186.7    c-0.1-0.2-0.2-0.4-0.3-0.6c-1.4,0.8-2.7,1.6-4.1,2.4l0.3,0.5C229,188.2,230.4,187.4,231.8,186.7 M202.1,174.9    c0.7-1.6,1.9-3.3,0.6-5.5C202.5,171.4,202.3,173.2,202.1,174.9 M168.2,128.3c-0.2-0.2-0.3-0.3-0.5-0.5c-0.5,0.4-1.2,0.8-1.4,1.4    c-0.2,0.4,0.4,1,0.6,1.5c0.2-0.1,0.3-0.1,0.5-0.2C167.6,129.9,167.9,129.1,168.2,128.3 M85.6,253.8c-0.7-0.7-1.3-1.2-2.1-1.9    c-0.3,0.9-0.6,1.5-0.8,2.2C83.8,253.9,84.6,253.8,85.6,253.8 M91,119.3c0.2,0,0.5-0.1,0.7-0.1c-0.1-1.2-0.3-2.4-0.4-3.7    c-0.3,0-0.6,0.1-0.9,0.1C90.6,116.9,90.8,118.1,91,119.3 M87.9,224.5c0.1,0.2,0.2,0.4,0.3,0.7c0.7-0.1,1.4-0.1,2.2-0.2    c-0.4-0.5-0.7-1-1.1-1.5C88.8,223.8,88.3,224.2,87.9,224.5 M163.3,149.9c0.5-0.9,1-1.8,1.6-2.7    C163.3,146.9,162.9,147.5,163.3,149.9 M70.3,168.3c-0.9-0.5-1.7-0.9-2.4-1.3c0.1,0.4,0,0.9,0.2,1.3    C68.5,169.3,69.1,169.5,70.3,168.3 M225.7,222.4c0.6,0.7,1,1.2,1.6,1.9c0.3-1.3,0.5-2.1,0.8-3.2c-0.6,0.2-0.8,0.3-1.1,0.5    C226.7,221.8,226.3,222,225.7,222.4 M125.9,217.3c0.9,2.2,1.7,2.8,2.8,2C127.7,218.6,126.8,217.9,125.9,217.3 M149.1,161    c0.2,0.1,0.3,0.2,0.4,0.3c0.7-0.4,1.4-0.8,2.3-1.4c-0.2-0.3-0.5-0.7-0.8-1.1C150.4,159.5,149.7,160.2,149.1,161 M71.9,139.9    c0.1-0.2,0.2-0.3,0.3-0.5c-1.1-0.9-2.3-1.7-3.4-2.6c-0.2,0.2-0.3,0.4-0.5,0.7C69.5,138.3,70.7,139.1,71.9,139.9 M87,163.8    c-0.1,0.2-0.1,0.3-0.2,0.5c0.4,0.3,1,1,1.3,0.9c0.6-0.2,1-0.8,1.5-1.3c-0.1-0.2-0.2-0.3-0.3-0.5C88.5,163.6,87.7,163.7,87,163.8     M113.9,181.7c0.7,0.1,1.4,0.3,2.1,0.2s1.3-0.5,2.1-0.9c-1.4-0.1-2.5-0.2-3.7-0.2C114.4,180.9,114.1,181.4,113.9,181.7     M140.4,153.5c0.5-1.3,1-2.3,1.6-3.8c-1.1,0.9-1.7,1.4-2.4,2C139.7,152.1,140,152.7,140.4,153.5 M162.5,202.1    c2.6-1.1,2.9-1.7,1.7-3C163.7,200,163.2,200.9,162.5,202.1 M134,191.8c-0.1,0.2-0.1,0.5-0.2,0.7c1.4,0.5,2.9,1.1,4.3,1.6    c0.1-0.2,0.1-0.3,0.2-0.5C136.8,192.9,135.4,192.3,134,191.8 M215.4,182.5c-0.1,0.2-0.2,0.4-0.3,0.6c1.5,0.7,2.9,1.3,4.4,2    c0.1-0.2,0.2-0.4,0.3-0.6C218.3,183.9,216.9,183.2,215.4,182.5 M135.2,155.8c-0.1-0.2-0.3-0.4-0.4-0.6c-0.6,0.3-1.2,0.5-1.7,0.8    c0.3,0.5,0.5,0.9,0.8,1.4C134.3,156.9,134.8,156.3,135.2,155.8 M113.8,213.7c0.8-0.1,1.4-0.1,1.8-0.3c0.2-0.1,0.3-0.9,0.2-1.1    c-0.4-0.3-0.9-0.4-1.5-0.6C114.1,212.4,114,212.8,113.8,213.7 M145,205.5c-0.6-0.9-1-1.5-1.4-2.3c-0.3,0.9-0.6,1.7-1,2.8    C143.6,205.8,144.3,205.7,145,205.5 M100,142.8c-0.2-0.3-0.4-0.6-0.6-0.9c-0.6,0.5-1.2,0.9-1.7,1.5c0,0,0.3,0.5,0.5,0.8    C98.7,143.7,99.4,143.2,100,142.8 M81.3,178.5c-1.4-0.4-2.9-0.9-4.5-1.4C78.6,178.9,80.7,179.3,81.3,178.5 M126,181.6    c-0.1,0.1-0.2,0.2-0.2,0.2c0.9,0.3,1.7,0.6,2.6,0.8c0.1,0,0.4-0.5,0.6-0.7c-0.3-0.2-0.7-0.6-1-0.6    C127.3,181.3,126.7,181.5,126,181.6 M111.1,220.9c0.1,0.1,0.3,0.2,0.4,0.2c0.2-0.4,0.5-0.7,0.5-1.1c0-0.3-0.3-1-0.5-1    c-0.8,0-1.6,0.2-2.4,0.3C111.7,219.8,111.7,219.8,111.1,220.9 M119.8,189c-0.2-0.2-0.3-0.5-0.5-0.7c-0.7,0.4-1.3,0.8-2,1.2    c0.4,0.2,0.8,0.6,1,0.5C118.9,189.9,119.3,189.4,119.8,189 M73.4,239.1c0.2,0.2,0.4,0.3,0.6,0.5c0.7-0.9,1.4-1.8,2.1-2.6    c-0.2-0.1-0.3-0.2-0.5-0.4C74.9,237.4,74.1,238.2,73.4,239.1 M162.4,151.9c1,0.9,1.8,1.7,3,2.7c-0.5-1-0.9-1.6-1-2.2    C164.1,151.3,163.6,151.3,162.4,151.9 M208.1,205.9c-2.1-0.1-1.1,1.6-1.7,2.3c0.3,0.2,0.5,0.5,0.6,0.6    C207.5,207.7,207.8,206.9,208.1,205.9 M143.5,169c-0.2,0-0.3-0.1-0.5-0.1c-0.3,0.7-0.6,1.4-1,2.2c0.6,0.1,1,0.2,1.6,0.3    C143.5,170.6,143.5,169.8,143.5,169 M144.7,165.7c0.3-1.2,0.5-2.1,0.7-3.1C143.7,162.9,143.4,163.8,144.7,165.7 M145.8,208.8    c-0.3,0-0.6,0.1-0.9,0.1c-0.7,1.1,0.7,1.9,0.7,2.9c0.2,0,0.4,0,0.6-0.1C146.1,210.7,145.9,209.8,145.8,208.8 M183.2,153.1    c-0.2,1.2-0.3,2.1-0.4,3.1C184.5,155.5,184.5,155.1,183.2,153.1 M143.2,130.8c-0.1-0.1-0.2-0.3-0.3-0.4c-0.5,1.1-2.6,0.3-2.4,2.7    C141.5,132.2,142.3,131.5,143.2,130.8 M193.6,158.9c0.6-0.8,1.3-1.3,1.3-1.7c0-0.5-0.7-1-1.3-1.8V158.9z M74,230.4    c0-0.3,0-0.6-0.1-0.9c-0.6,0.1-1.3,0-1.8,0.2c-0.2,0.1-0.2,0.7-0.2,1C72.6,230.7,73.3,230.6,74,230.4 M157.3,237.5    c0.3,0.1,0.5,0.2,0.8,0.2c0.3-0.9,0.7-1.8,1-2.6c-0.2-0.1-0.4-0.2-0.7-0.3C158,235.8,157.7,236.6,157.3,237.5 M98.3,236.2    c-0.2,1.4-0.3,2.3-0.5,3.4C99.3,239,99.4,238.6,98.3,236.2 M113.9,169.7c-0.3,0.2-0.5,0.3-0.8,0.5c0.5,0.7,0.9,1.3,1.4,2    c0.2-0.1,0.6-0.4,0.6-0.4C114.7,171.1,114.3,170.4,113.9,169.7 M76.7,210.2c0.8,1.7,1.9,1.5,3,1.2c0.4-0.1,0.6-0.8,0.9-1.2    C78.5,211.5,78.5,211.5,76.7,210.2 M112.8,198.1c0.4,2.1,0.4,2.1,2.7,1.8C114.5,199.2,113.7,198.6,112.8,198.1 M75.9,251.2    c-0.7-0.5-1.2-0.8-2.1-1.4c0.1,1,0.1,1.6,0.2,2.5C74.8,251.9,75.2,251.6,75.9,251.2 M202.9,179.1c0.1,0.1,0.2,0.2,0.4,0.3    c0.5-0.5,0.9-1.1,1.6-1.9h-2V179.1z M199.8,201.2c-1.2,0.4-1.8,0.6-2.5,0.8c0,0.2,0.1,0.4,0.1,0.6c0.6,0,1.2,0.1,1.8,0    C199.4,202.7,199.5,202.1,199.8,201.2 M143.1,175.7c0.4,1.1,0.6,1.8,0.9,2.5c0.6-0.7,0.7-1.4,0.7-2    C144.7,176,143.9,175.9,143.1,175.7 M168.7,204c0,0.2,0.1,0.3,0.2,0.5c0.5,0.1,0.9,0.3,1.7,0.5c-0.1-0.8-0.2-1.3-0.2-1.8    C169.8,203.5,169.2,203.8,168.7,204 M121.1,167.7c0.3,0.2,0.5,0.4,0.8,0.5c0.3-0.4,0.7-0.8,0.8-1.3c0.1-0.2-0.4-0.5-0.7-0.8    C121.8,166.7,121.5,167.2,121.1,167.7 M173.2,210c-0.4-0.1-1-0.4-1.3-0.3c-0.5,0.3-0.8,1-1.2,1.5c0.1,0.1,0.2,0.1,0.3,0.2    C171.5,211.1,172.2,210.7,173.2,210 M123.3,156.6l0.7,0.1c0.2-1.2,0.5-2.3,0.7-3.5c-0.2,0-0.3-0.1-0.5-0.1    C123.9,154.3,123.6,155.4,123.3,156.6 M171.5,133.6c0-0.1,0.1-0.3,0.1-0.4c-0.6-0.2-1.2-0.5-1.8-0.7c-0.1,0.5-0.3,1-0.4,1.7    C170.4,134,170.9,133.8,171.5,133.6 M192.8,180.7c-0.6,0.8-1.1,1.5-1.8,2.3C193.7,182.3,193.9,182,192.8,180.7 M196.1,146.4    c-0.2-0.1-0.4-0.2-0.7-0.3c-0.4,0.9-0.9,1.7-1.3,2.6c0.2,0.1,0.4,0.2,0.7,0.3C195.2,148.2,195.6,147.3,196.1,146.4 M190.1,190.6    c-0.1,0.3-0.1,0.6-0.2,0.9c0.7,0.1,1.4,0.3,2.1,0.4c0-0.3,0.1-0.8,0-0.8C191.4,190.9,190.8,190.7,190.1,190.6 M111.5,147.5    c-0.3,0-0.5,0-0.8,0c0.1,0.9,0.2,1.8,0.3,2.7c0.2,0,0.3,0,0.5,0V147.5z M108,220c-0.1-0.3-0.2-0.5-0.3-0.8c-0.7,0.3-1.3,0.5-2,0.8    c0.1,0.3,0.2,0.5,0.3,0.8C106.7,220.5,107.3,220.2,108,220 M110.5,187c0.2-0.7,0.5-1.3,0.4-1.4c-0.5-0.5-1.1-0.8-1.6-1.2    c-0.1,0.1-0.2,0.3-0.3,0.4C109.4,185.4,109.8,186,110.5,187 M132,193.6c0.2-0.1,0.4-0.2,0.6-0.3c-0.4-0.8-0.9-1.7-1.3-2.5    c-0.2,0.1-0.4,0.2-0.6,0.3C131.2,191.9,131.6,192.7,132,193.6 M143.8,128.5c0-0.2-0.1-0.4-0.1-0.6c-0.7,0.1-1.4,0.2-2.1,0.3    c0.1,0.3,0.2,0.6,0.2,0.9C142.5,128.9,143.2,128.7,143.8,128.5 M129.4,191.1c-0.1,0-0.2,0-0.4,0c-0.1,1-0.2,1.9-0.4,2.9    c0.2,0,0.5,0,0.7,0L129.4,191.1L129.4,191.1z M209.5,192.5c-2.4-0.5-2.4-0.5-2.4,1.4C207.9,193.4,208.5,193.1,209.5,192.5     M164.2,230c0.4,0.4,0.7,0.7,1.2,1.1c0.3-0.9,0.5-1.7,0.9-2.9C165.3,229,164.8,229.5,164.2,230 M119.5,211c0-0.2,0.1-0.5,0.1-0.7    c-1.3-0.1-2.5-0.2-3.8-0.4c0,0.1,0,0.3-0.1,0.4C117,210.6,118.2,210.8,119.5,211 M116.3,227c0.1,0.1,0.1,0.2,0.2,0.3    c1.4-0.7,2.8-1.3,4.1-2c-0.1-0.1-0.1-0.3-0.2-0.4C119.1,225.6,117.7,226.3,116.3,227 M145.3,144.1c0.3,0,0.5-0.1,0.8-0.1    c-0.1-0.8-0.3-1.7-0.4-2.5c-0.2,0-0.5,0.1-0.7,0.1C145,142.4,145.1,143.2,145.3,144.1 M98.2,198.2c-0.1,0.2-0.2,0.4-0.3,0.6    c0.9,0.6,1.8,1.2,2.8,1.8c0.1-0.1,0.2-0.3,0.3-0.4C100,199.5,99.1,198.8,98.2,198.2 M96.5,138.8c-0.3,0-0.6,0.1-0.8,0.1    c0,0.5-0.1,1-0.1,1.5c0.4,0,0.8,0,1.2,0C96.7,139.9,96.6,139.3,96.5,138.8 M114.1,147.4c0.2,0.8,0.5,1.6,0.7,2.4    C115,148.9,115.9,147.8,114.1,147.4 M171,225.9c-0.3,0.1-0.6,0.2-0.9,0.2c0.2,0.8,0.4,1.5,0.6,2.3c0.2,0,0.5-0.1,0.7-0.1    C171.2,227.5,171.1,226.7,171,225.9 M187.4,156.3c0.2,0.1,0.4,0.3,0.6,0.4c0.4-0.4,0.7-0.9,1.1-1.3c-0.3-0.2-0.6-0.4-0.9-0.6    C187.9,155.3,187.6,155.8,187.4,156.3 M181.3,163.5c-0.2,0.1-0.5,0.1-0.7,0.2c0.1,0.6,0.2,1.1,0.3,1.7c0.3-0.1,0.6-0.2,1-0.3    C181.7,164.5,181.5,164,181.3,163.5 M134.6,223.2c0.2,0.2,0.4,0.4,0.5,0.5c0.7-0.7,1.3-1.5,2-2.2c-0.1-0.1-0.2-0.3-0.4-0.4    C136,221.8,135.3,222.5,134.6,223.2 M95.4,135.2c1.3-1.2,1.3-1.2-0.4-2.9C95.1,133.2,95.2,134.1,95.4,135.2 M151.9,212.8h-0.8    c0,0.6-0.1,1.2-0.1,1.8c0.3,0,0.6,0,0.9,0C152,214,152,213.4,151.9,212.8 M145.8,176.9c-0.3,0.9-0.6,1.7-1,2.5    C146.3,179.2,146.6,178.3,145.8,176.9 M201.6,169.3c-0.3-0.1-0.5-0.1-0.8-0.2c-0.2,0.6-0.4,1.2-0.6,1.7c0,0,0.5,0.2,0.8,0.3    C201.2,170.6,201.4,169.9,201.6,169.3 M115,191.7c-0.1,0.1-0.2,0.2-0.3,0.3c0.4,0.4,0.7,1,1.2,1.2c0.3,0.1,0.9-0.2,1.3-0.4    C116.3,192.4,115.6,192,115,191.7 M167.3,221c0.3,0.1,0.5,0.1,0.8,0.2c0.2-0.6,0.4-1.3,0.6-1.9c-0.3,0.1-0.9,0-1,0.2    C167.5,219.9,167.4,220.5,167.3,221 M143.5,142.1c0.5-0.8,0.9-1.5,1.5-2.6C143,139.9,143.1,140.8,143.5,142.1 M174.8,224.5    c0.2,0,0.4,0,0.5,0c0-1-0.1-2.1-0.1-3.1c-0.1,0-0.3,0-0.4,0V224.5z M189.6,220.8c-0.2,0-0.4-0.1-0.6-0.1c-0.2,1.3-0.4,2.6-0.6,3.8    c0.1,0,0.2,0,0.2,0C188.9,223.3,189.3,222.1,189.6,220.8 M161.3,186.3c-0.2-0.2-0.3-0.4-0.5-0.6c-0.5,0.4-1,0.8-1.5,1.2    c0,0,0.3,0.4,0.5,0.7C160.3,187.2,160.8,186.7,161.3,186.3 M74,228.7c0.2-0.2,0.4-0.4,0.6-0.6c-0.6-0.5-1.2-0.9-1.8-1.4    c-0.2,0.2-0.3,0.4-0.5,0.5C72.9,227.7,73.4,228.2,74,228.7 M138.9,236.2c0.2,0.1,0.3,0.1,0.5,0.2c0.3-0.5,0.7-1,1.2-1.7    c-0.6-0.1-1.3-0.3-1.3-0.2C139.1,235,139,235.6,138.9,236.2 M176.7,197.2c1.5-0.8,1.8-1.7,0.9-2.7    C177.3,195.4,177,196.2,176.7,197.2 M100.1,238.7c0.3,0,0.5-0.1,0.8-0.1c-0.3-1.1-0.6-2.2-0.9-3.3c-0.1,0-0.1,0-0.2,0    C99.9,236.4,100,237.5,100.1,238.7 M155.5,199.1c0-0.1,0-0.3,0-0.4c-1.5,0.2-2.9,0.3-4.4,0.5c0,0.1,0,0.2,0,0.4    C152.6,199.4,154.1,199.2,155.5,199.1 M59.9,212.9c1-0.4,2-0.9,3-1.3C62,211,61.6,211.2,59.9,212.9 M89.5,242.5    c-0.1-0.9-0.2-2.1-0.3-3.2C88.2,240.3,88.2,240.3,89.5,242.5 M188.3,177.4c0-0.2-0.1-0.5-0.1-0.7c-0.7,0.1-1.4,0.2-2.2,0.3    c0,0.3,0.1,0.5,0.1,0.8C186.8,177.6,187.6,177.5,188.3,177.4 M104.7,241.4c0.1-0.2,0.3-0.4,0.4-0.7c-0.4-0.3-0.8-0.6-1.2-0.9    c-0.1,0-0.4,0.6-0.6,0.9C103.7,241,104.2,241.2,104.7,241.4 M134.9,210.8c0,0.2,0,0.4,0,0.5c0.4,0,1,0.3,1.3,0.1    c0.3-0.3,0.3-0.9,0.6-1.8C135.9,210.2,135.4,210.5,134.9,210.8 M108.9,245.8c-0.2,0-0.4,0-0.6,0c-0.1,0.5-0.3,1-0.3,1.5    c0,0.1,0.7,0.2,1.4,0.4C109.1,246.8,109,246.3,108.9,245.8 M109.2,212.4c0,0.2,0.1,0.4,0.1,0.5c0.9-0.1,1.7-0.2,2.6-0.4    c0-0.2-0.1-0.4-0.1-0.6C110.9,212.1,110,212.2,109.2,212.4 M101.2,192.2c-0.2-0.1-0.3-0.2-0.5-0.4c-0.5,0.6-0.9,1.2-1.4,1.7    l0.7,0.5C100.4,193.5,100.8,192.8,101.2,192.2 M79.9,158.2c-0.2,0.2-0.3,0.5-0.5,0.7c0.5,0.4,1,0.9,1.5,1.3    c0.2-0.2,0.3-0.4,0.5-0.6C80.9,159.1,80.4,158.6,79.9,158.2 M92.9,192.6c0.3,0,0.6,0,0.9-0.1c-0.1-0.5-0.1-1-0.2-1.5    c-0.3,0.1-0.9,0.1-0.9,0.2C92.7,191.7,92.8,192.2,92.9,192.6 M183.9,133.6v1.9c0.7-0.3,1.1-0.5,1.9-0.7    C185,134.3,184.5,134,183.9,133.6 M94.6,150.8c-0.9,0.4-1.6,0.7-2.3,1C93,152.7,94.1,152.3,94.6,150.8 M79.6,188.6    c-0.2,0-0.3,0-0.5,0v2.1c0.2,0,0.3,0,0.5,0V188.6z M133.7,167.7c-0.1,0.1-0.3,0.2-0.4,0.3c0.5,0.7,1,1.4,1.5,2.1    c0.2-0.1,0.3-0.3,0.5-0.4C134.8,169.1,134.3,168.4,133.7,167.7 M182.4,183.3c-0.2-0.1-0.4-0.1-0.6-0.2c-0.2,0.7-0.4,1.5-0.6,2.2    c0.2,0.1,0.5,0.1,0.7,0.2C182,184.7,182.2,184,182.4,183.3 M180,152.6c-0.1,0.1-0.3,0.1-0.4,0.2c0.1,0.5,0.1,1.1,0.4,1.3    c0.2,0.2,0.8-0.1,1.7-0.2C180.8,153.3,180.4,153,180,152.6 M88.7,189.8c0,0.1,0,0.3-0.1,0.4c0.5,0.1,1.1,0.2,1.6,0.3v-1.4    C89.6,189.4,89.2,189.6,88.7,189.8 M124.5,177.1c-0.2,0.1-0.4,0.3-0.6,0.4c0.4,0.7,0.9,1.4,1.3,2l0.6-0.3    C125.3,178.5,124.9,177.8,124.5,177.1 M165.7,135.1c0.2,0,0.3,0,0.5,0v-2.3c-0.2,0-0.4,0-0.6,0L165.7,135.1z M74.2,214    c0.1,0.1,0.3,0.3,0.4,0.4c0.7-0.7,1.3-1.5,2-2.2c-0.1-0.1-0.3-0.2-0.4-0.4C75.5,212.6,74.9,213.3,74.2,214 M95.6,146.2    c0.4,0.3,0.8,0.7,0.9,0.7c0.5-0.4,0.9-0.9,1.3-1.3c-0.1-0.1-0.2-0.2-0.3-0.3C97,145.6,96.4,145.9,95.6,146.2 M77.3,174.6    c0.2,0,0.5,0,0.7,0c-0.1-0.7-0.2-1.4-0.2-2.1c-0.2,0-0.3,0-0.5,0V174.6z M94.4,162c-1.4-0.4-1.8,0.1-1.8,1.5    C93.2,163.1,93.8,162.6,94.4,162 M91.5,153.8c-0.1-0.1-0.2-0.3-0.3-0.4c-0.9,0.6-1.7,1.2-2.6,1.8c0.1,0.2,0.3,0.3,0.4,0.5    C89.8,155.1,90.6,154.5,91.5,153.8 M115.8,244.1c-0.2,0.9-0.4,1.5-0.6,2.2c0,0.1,0.4,0.3,0.6,0.4c0.1-0.4,0.1-0.8,0.2-1.4    c0.4,0.5,0.6,0.7,0.8,0.9 M119.3,243.7c0,0.6,0.3,0.9,0.6,1.3 M115.5,236.2c-0.3-0.2-0.6-0.4-1.2-0.7 M177.1,253.7    c2-2.3,3.8-4.9,5.8-7.5c-0.2-0.2-0.6-0.5-1.2-1c-2.1,2.9,1,3.9-2.9,5c-3.9,1.2-7.8,0.9-8,0.8c0.5-1.2,3.6-1.6,4.1-2.8    c-0.1-0.1,3.2,1,3.2,1 M138.2,238.7c-0.7,1.1-1.2,2.3-1.5,3.5c-0.2,0.9-0.9,1.7,0.2,2.8 M141.1,239.5c-0.2-0.1-0.5-0.2-0.7-0.2    c-0.4,0.8-1,1.5-1,2.3 M146.1,236.1c-0.2,0-0.4-0.1-0.6-0.1c-0.4,0.6-0.8,1.2-1.1,1.9c-0.2,0-0.3-0.1-0.5-0.1    c0.1-0.9,0.3-1.8,0.5-2.7 M153.4,240c-0.6,0-0.9,0.1-1.3,0.1c2.3-4.2,2.3-4.2,1.7-4.4c-0.3,0.2-0.6,0.5-0.8,0.7    c-0.1-0.8,0-1.9-0.4-2.3c-1.1-1.1-1.6-2.3-1.4-3.8c0-0.2-0.2-0.5-0.5-1c-0.7,2.5-1.3,4.7-1.9,7c-0.3,1.2-0.5,2.4-0.8,3.5    c-0.4,1.3-1,1.5-2.1,0.5c0.4,1,0.7,1.9,1.1,2.9c0.2,0,0.4-0.1,0.6-0.1"></path>
	</g>
</g>
</svg>
