<?xml version="1.0" encoding="UTF-8"?>
<!-- Generator: Adobe Illustrator 27.3.1, SVG Export Plug-In . SVG Version: 6.00 Build 0)  -->
<svg xmlns="http://www.w3.org/2000/svg" xmlns:xlink="http://www.w3.org/1999/xlink" version="1.1" id="Ebene_1" x="0px" y="0px" viewBox="0 0 448 512" style="enable-background:new 0 0 448 512;" xml:space="preserve">
<style type="text/css">
	.st0{fill:#FFFFFF;}
</style>
<path class="st0" d="M128,0c13.3,0,24,10.7,24,24v40h144V24c0-13.3,10.7-24,24-24s24,10.7,24,24v40h40c35.3,0,64,28.7,64,64v16v48  v256c0,35.3-28.7,64-64,64H64c-35.3,0-64-28.7-64-64V192v-48v-16c0-35.3,28.7-64,64-64h40V24C104,10.7,114.7,0,128,0z M400,192H48  v256c0,8.8,7.2,16,16,16h320c8.8,0,16-7.2,16-16V192z M329,297L217,409c-9.4,9.4-24.6,9.4-33.9,0l-64-64c-9.4-9.4-9.4-24.6,0-33.9  s24.6-9.4,33.9,0l47,47l95-95c9.4-9.4,24.6-9.4,33.9,0s9.4,24.6,0,33.9H329z"></path>
</svg>
