<?xml version="1.0" encoding="UTF-8"?>
<!-- Generator: Adobe Illustrator 27.3.1, SVG Export Plug-In . SVG Version: 6.00 Build 0)  -->
<svg xmlns="http://www.w3.org/2000/svg" xmlns:xlink="http://www.w3.org/1999/xlink" version="1.1" id="Ebene_1" x="0px" y="0px" viewBox="0 0 448 512" style="enable-background:new 0 0 448 512;" xml:space="preserve">
<style type="text/css">
	.st0{fill:#FFFFFF;}
</style>
<path class="st0" d="M152,24c0-13.3-10.7-24-24-24s-24,10.7-24,24v40H64C28.7,64,0,92.7,0,128v16v48v256c0,35.3,28.7,64,64,64h320  c35.3,0,64-28.7,64-64V192v-48v-16c0-35.3-28.7-64-64-64h-40V24c0-13.3-10.7-24-24-24s-24,10.7-24,24v40H152V24z M48,192h80v56H48  V192z M48,296h80v64H48V296z M176,296h96v64h-96V296z M320,296h80v64h-80V296z M400,248h-80v-56h80V248z M400,408v40  c0,8.8-7.2,16-16,16h-64v-56H400z M272,408v56h-96v-56H272z M128,408v56H64c-8.8,0-16-7.2-16-16v-40H128z M272,248h-96v-56h96V248z"></path>
</svg>
