<?xml version="1.0" encoding="UTF-8"?>
<svg width="386px" height="448px" viewBox="0 0 386 448" version="1.1" xmlns="http://www.w3.org/2000/svg" xmlns:xlink="http://www.w3.org/1999/xlink">
    <!-- Generator: Sketch 52.6 (67491) - http://www.bohemiancoding.com/sketch -->
    <title>arrow-up-solid</title>
    <desc>Created with Sketch.</desc>
    <g id="Page-1" stroke="none" stroke-width="1" fill="none" fill-rule="evenodd">
        <g id="arrow-up-solid" fill="#dbdac9">
            <path d="M215.6,9.4 C203.1,-3.1 182.8,-3.1 170.3,9.4 L10.3,169.4 C-2.2,181.9 -2.2,202.2 10.3,214.7 C22.8,227.2 43.1,227.2 55.6,214.7 L161,109.2 L161,416 C161,433.7 175.3,448 193,448 C210.7,448 225,433.7 225,416 L225,109.2 L330.4,214.6 C342.9,227.1 363.2,227.1 375.7,214.6 C388.2,202.1 388.2,181.8 375.7,169.3 L215.7,9.3 L215.6,9.4 Z" id="Path"></path>
        </g>
    </g>
</svg>