<svg xmlns="http://www.w3.org/2000/svg" xmlns:xlink="http://www.w3.org/1999/xlink" viewBox="0 0 247.74 427.33"><defs><style>.cls-1{fill:none;}.cls-2{fill:#fff;}.cls-3{clip-path:url(#clip-path);}</style><clipPath id="clip-path" transform="translate(0 0)"><rect class="cls-1" width="247.75" height="427.33"/></clipPath></defs><title>Element 1</title><g id="Ebene_2" data-name="Ebene 2"><g id="Ebene_1-2" data-name="Ebene 1"><polygon class="cls-2" points="37.42 396.97 28.4 420.48 26.79 425.17 25.18 420.48 16.21 396.97 13.72 396.97 25.46 427.33 28.17 427.33 39.85 396.97 37.42 396.97"/><rect class="cls-2" x="71.46" y="396.97" width="2.3" height="30.36"/><polygon class="cls-2" points="105.27 396.97 105.27 399.09 116.35 399.09 116.35 427.33 118.65 427.33 118.65 399.09 129.74 399.09 129.74 396.97 105.27 396.97"/><path class="cls-2" d="M165.39,402.35l1.1-3.13h0l1.1,3.22,5.29,13.25H160.1Zm-.23-5.38L153,427.33h2.44l3.77-9.52h14.54l3.82,9.52H180L167.87,397Z" transform="translate(0 0)"/><polygon class="cls-2" points="211.43 396.97 211.43 427.33 232.91 427.33 232.91 425.22 213.73 425.22 213.73 412.98 228.31 412.98 228.31 410.82 213.73 410.82 213.73 399.09 232.18 399.09 232.18 396.97 211.43 396.97"/><g class="cls-3"><path class="cls-2" d="M19.23,10.11v10h-1.8l-.09-2.67a5.68,5.68,0,0,1-2.44,2.21,8.62,8.62,0,0,1-3.8.76,9.26,9.26,0,0,1-4.86-1.24A8.28,8.28,0,0,1,3,15.62,12.17,12.17,0,0,1,1.92,10.2,11.92,11.92,0,0,1,3.08,4.8,8.4,8.4,0,0,1,6.32,1.25,9.28,9.28,0,0,1,11.17,0,9.52,9.52,0,0,1,16,1.11a8,8,0,0,1,3.08,3.42l-2.19,1.2a5.1,5.1,0,0,0-2.14-2.58,6.8,6.8,0,0,0-3.59-.9,6.45,6.45,0,0,0-3.53,1A6.37,6.37,0,0,0,5.29,6a9.88,9.88,0,0,0-.84,4.25,8.9,8.9,0,0,0,1.74,5.86,6.15,6.15,0,0,0,5,2.08,6.5,6.5,0,0,0,4.22-1.32A4.58,4.58,0,0,0,17,13.05v-.69h-6.3V10.11Z" transform="translate(0 0)"/></g><polygon class="cls-2" points="28.45 0.3 28.45 20.1 42.78 20.1 42.78 17.85 30.84 17.85 30.84 11.19 39.78 11.19 39.78 8.94 30.84 8.94 30.84 2.55 42.34 2.55 42.34 0.3 28.45 0.3"/><g class="cls-3"><path class="cls-2" d="M65.19,4.2,63.12,5.88A6.46,6.46,0,0,0,61,3.08a6.1,6.1,0,0,0-3.41-.82A6,6,0,0,0,54,3.2a2.87,2.87,0,0,0-1.31,2.41,2.45,2.45,0,0,0,.51,1.59,4,4,0,0,0,1.69,1.1,17.4,17.4,0,0,0,3.28.83,12.38,12.38,0,0,1,5.56,2,4.44,4.44,0,0,1,1.63,3.66,4.83,4.83,0,0,1-.94,3,6.08,6.08,0,0,1-2.68,2,10.67,10.67,0,0,1-4,.7,10.42,10.42,0,0,1-5.12-1.17,8.15,8.15,0,0,1-3.22-3.12l2.07-1.68a6.15,6.15,0,0,0,2.39,2.74,7.37,7.37,0,0,0,3.94,1,7,7,0,0,0,3.72-.86,2.69,2.69,0,0,0,1.38-2.41,2.4,2.4,0,0,0-1.2-2.1,12.4,12.4,0,0,0-4.26-1.32,13.07,13.07,0,0,1-5.61-2,4.31,4.31,0,0,1-1.65-3.6,5.19,5.19,0,0,1,.9-2.94A6.19,6.19,0,0,1,53.64.8,9,9,0,0,1,57.54,0q5.31,0,7.65,4.2" transform="translate(0 0)"/><path class="cls-2" d="M89.34,12.72a7.65,7.65,0,0,1-2,5.75,8,8,0,0,1-5.78,1.93,7.93,7.93,0,0,1-5.78-2,7.66,7.66,0,0,1-2-5.73V.3h2.4V12.12a6.72,6.72,0,0,0,1.31,4.57,5.2,5.2,0,0,0,4.07,1.46,5.2,5.2,0,0,0,4.07-1.46,6.72,6.72,0,0,0,1.31-4.57V.3h2.4Z" transform="translate(0 0)"/></g><polygon class="cls-2" points="112.47 0.3 112.47 14.28 112.59 17.46 112.56 17.46 110.43 13.5 102.18 0.3 99.21 0.3 99.21 20.1 101.49 20.1 101.49 6.12 101.37 2.94 101.4 2.94 103.5 6.84 111.78 20.1 114.75 20.1 114.75 0.3 112.47 0.3"/><g class="cls-3"><path class="cls-2" d="M136.76,15.83a7.89,7.89,0,0,0,1.9-5.62,7.89,7.89,0,0,0-1.9-5.63,6.92,6.92,0,0,0-5.29-2h-4.23v15.3h4.23a6.92,6.92,0,0,0,5.29-2m1.79-12.95q2.64,2.58,2.64,7.32t-2.64,7.32a10,10,0,0,1-7.32,2.58h-6.39V.3h6.39a10,10,0,0,1,7.32,2.58" transform="translate(0 0)"/></g><polygon class="cls-2" points="163.17 0.3 163.17 8.94 152.43 8.94 152.43 0.3 150.03 0.3 150.03 20.1 152.43 20.1 152.43 11.19 163.17 11.19 163.17 20.1 165.57 20.1 165.57 0.3 163.17 0.3"/><polygon class="cls-2" points="175.65 0.3 175.65 20.1 189.99 20.1 189.99 17.85 178.05 17.85 178.05 11.19 186.99 11.19 186.99 8.94 178.05 8.94 178.05 2.55 189.54 2.55 189.54 0.3 175.65 0.3"/><rect class="cls-2" x="198.39" y="0.3" width="2.4" height="19.8"/><polygon class="cls-2" points="208.59 0.3 208.59 2.55 215.49 2.55 215.49 20.1 217.89 20.1 217.89 2.55 224.79 2.55 224.79 0.3 208.59 0.3"/><g class="cls-3"><path class="cls-2" d="M245.7,4.2l-2.07,1.68a6.46,6.46,0,0,0-2.15-2.81,6.1,6.1,0,0,0-3.4-.82,6,6,0,0,0-3.58.95,2.87,2.87,0,0,0-1.31,2.41,2.45,2.45,0,0,0,.51,1.59,4,4,0,0,0,1.69,1.1,17.4,17.4,0,0,0,3.29.83,12.39,12.39,0,0,1,5.57,2,4.44,4.44,0,0,1,1.63,3.66,4.83,4.83,0,0,1-.95,3,6.08,6.08,0,0,1-2.68,2,10.67,10.67,0,0,1-4,.7,10.42,10.42,0,0,1-5.12-1.17,8.15,8.15,0,0,1-3.23-3.12L232,14.43a6.15,6.15,0,0,0,2.38,2.74,7.37,7.37,0,0,0,3.95,1A7,7,0,0,0,242,17.3a2.69,2.69,0,0,0,1.38-2.41,2.4,2.4,0,0,0-1.2-2.1,12.39,12.39,0,0,0-4.26-1.32,13.07,13.07,0,0,1-5.61-2,4.31,4.31,0,0,1-1.65-3.6,5.19,5.19,0,0,1,.9-2.94A6.19,6.19,0,0,1,234.15.8a9,9,0,0,1,3.9-.79q5.31,0,7.65,4.2" transform="translate(0 0)"/></g><polygon class="cls-2" points="57.57 48.84 57.57 51.09 42 51.09 42 48.96 54.33 33.54 42.3 33.54 42.3 31.29 57.18 31.29 57.18 33.42 44.85 48.84 57.57 48.84"/><polygon class="cls-2" points="80.4 48.84 80.4 51.09 66.06 51.09 66.06 31.29 79.95 31.29 79.95 33.54 68.46 33.54 68.46 39.93 77.4 39.93 77.4 42.18 68.46 42.18 68.46 48.84 80.4 48.84"/><polygon class="cls-2" points="104.34 51.09 101.37 51.09 93.09 37.83 90.99 33.93 90.96 33.93 91.08 37.11 91.08 51.09 88.8 51.09 88.8 31.29 91.77 31.29 100.02 44.49 102.15 48.45 102.18 48.45 102.06 45.27 102.06 31.29 104.34 31.29 104.34 51.09"/><polygon class="cls-2" points="128.31 33.54 121.41 33.54 121.41 51.09 119.01 51.09 119.01 33.54 112.11 33.54 112.11 31.29 128.31 31.29 128.31 33.54"/><g class="cls-3"><path class="cls-2" d="M138.51,40.62h5.07q4.2,0,4.2-3.54t-4.2-3.54h-5.07Zm4.74,2.25h-4.74v8.22h-2.4V31.29h7.5a7.24,7.24,0,0,1,4.86,1.56,5.27,5.27,0,0,1,1.83,4.23,5.43,5.43,0,0,1-1.17,3.54,6,6,0,0,1-3.21,2l5.58,8.49h-2.85Z" transform="translate(0 0)"/><path class="cls-2" d="M175,43.71a7.65,7.65,0,0,1-2,5.75,9.56,9.56,0,0,1-11.55,0,7.66,7.66,0,0,1-2-5.73V31.29h2.4V43.11a6.72,6.72,0,0,0,1.31,4.57,6.41,6.41,0,0,0,8.13,0,6.72,6.72,0,0,0,1.3-4.57V31.29H175Z" transform="translate(0 0)"/></g><polygon class="cls-2" points="204 51.09 201.72 51.09 201.72 38.64 201.99 33.42 201.96 33.42 195.45 51.09 193.41 51.09 186.9 33.42 186.87 33.42 187.14 38.64 187.14 51.09 184.86 51.09 184.86 31.29 188.55 31.29 192.9 43.32 194.4 48.27 194.46 48.27 195.99 43.35 200.31 31.29 204 31.29 204 51.09"/><path class="cls-2" d="M10.76,352.93H24.33l-4.54-10.64c-.28-.59-.53-1.15-.75-1.67s-.44-1-.66-1.58l-.69-1.65c-.16-.48-.36-1-.6-1.55-.4,1.32-.78,2.45-1.13,3.4s-.72,2-1.08,3Zm6.81-24.69A10.19,10.19,0,0,1,19.9,328l14.22,32.63c.48,1.12.91,2,1.29,2.75a10.69,10.69,0,0,0,1.07,1.7,3.41,3.41,0,0,0,1,.9,3.91,3.91,0,0,0,1.22.39,7.79,7.79,0,0,1,.3,1.31,11.87,11.87,0,0,1,.06,1.26l-1.32,0-1.85-.09-2-.06H32.28c-.48,0-1,0-1.71,0l-1.94.06-1.82.06-1.29,0c0-.48,0-.94.06-1.37a2.93,2.93,0,0,1,.36-1.2,8.6,8.6,0,0,0,1.94-.36,1.51,1.51,0,0,0,.93-.75,2.12,2.12,0,0,0,.06-1.34,12.53,12.53,0,0,0-.77-2.21l-2.63-6.1q-3.89,0-8.19.06-4.12.06-7.65.18L8.07,360q-1.38,3.53-.84,4.87t3,1.52a6.8,6.8,0,0,1,.42,2.57c-.68-.08-1.54-.13-2.6-.15s-2.08,0-3.08,0-1.93,0-2.81.06S.56,368.91,0,369a10,10,0,0,1,.09-1.29,4.27,4.27,0,0,1,.33-1.22,4.72,4.72,0,0,0,1.37-.54,4,4,0,0,0,1.13-1.07,9.59,9.59,0,0,0,1-1.88q.5-1.16,1.22-3Z" transform="translate(0 0)"/><path class="cls-2" d="M67.36,330.52a19.05,19.05,0,0,0-2,.36v16.74a6,6,0,0,0,1.14.12c.48,0,1,.06,1.5.06a19.44,19.44,0,0,0,4.57-.51,10.72,10.72,0,0,0,3.71-1.61,7.92,7.92,0,0,0,2.48-2.78,8.36,8.36,0,0,0,.9-4,8.53,8.53,0,0,0-2.24-6.13q-2.24-2.36-7.62-2.36a22.9,22.9,0,0,0-2.45.12m-4.84-2.15c1.67,0,3.34,0,5-.06s3.31-.06,5-.06a19.49,19.49,0,0,1,5.86.78,11.54,11.54,0,0,1,4,2.12,8.53,8.53,0,0,1,2.36,3.17,10,10,0,0,1,.78,4,9.59,9.59,0,0,1-2.87,7.06,15.46,15.46,0,0,1-7.11,3.82q.78.72,1.43,1.43a18.87,18.87,0,0,1,1.61,2q.78,1.11,1.62,2.54c.56,1,1.22,2.13,2,3.53a23.59,23.59,0,0,0,4.13,5.68,7.49,7.49,0,0,0,5,2c0,.48,0,.92,0,1.31a6.2,6.2,0,0,1-.21,1.26q-2.27,0-4.72.06t-4.66.3q-1-1.49-2.33-3.94T76.57,360a35.44,35.44,0,0,0-3.35-5.38,36.8,36.8,0,0,0-3.46-4.12,39.1,39.1,0,0,1-4.37,0v10.64q0,3,.84,4a4.08,4.08,0,0,0,3.11,1.16,5.39,5.39,0,0,1,.24,1.23c0,.46.06.91.06,1.34q-1.91-.12-3.94-.15l-3.17,0H60.78c-.64,0-1.28,0-1.94,0l-1.91.06c-.62,0-1.15,0-1.59.09,0-.44,0-.88.06-1.31a6.25,6.25,0,0,1,.24-1.26,4.37,4.37,0,0,0,3.26-1.16q.87-1,.87-4V336c0-2-.29-3.35-.87-4.1s-1.66-1.1-3.26-1.1a6.21,6.21,0,0,1-.24-1.2c0-.4-.06-.84-.06-1.31q.9.06,3,.09t4.18,0" transform="translate(0 0)"/><path class="cls-2" d="M117.69,349v11.53a14.6,14.6,0,0,0,.24,3,3.22,3.22,0,0,0,.87,1.7,3.33,3.33,0,0,0,1.7.81,14.59,14.59,0,0,0,2.75.21q4.42,0,6.49-2.21a8.68,8.68,0,0,0,2.06-6.16,7.9,7.9,0,0,0-1.16-4.48,8.29,8.29,0,0,0-3-2.72,12.44,12.44,0,0,0-4.1-1.31,30.63,30.63,0,0,0-4.45-.33Zm.9-18.11a9,9,0,0,0-.9.18V346.3h1.85a15,15,0,0,0,4.72-.63,7.44,7.44,0,0,0,2.93-1.7,5.59,5.59,0,0,0,1.47-2.42,10,10,0,0,0,.39-2.78,8.15,8.15,0,0,0-.84-3.88,7.14,7.14,0,0,0-2.15-2.48,8.14,8.14,0,0,0-2.87-1.28,13.64,13.64,0,0,0-3-.36,9.13,9.13,0,0,0-1.56.12m-4.72-2.51c1.43,0,2.87,0,4.3-.06s2.85-.06,4.25-.06a29.26,29.26,0,0,1,4.87.39,12.7,12.7,0,0,1,4.06,1.38,7.44,7.44,0,0,1,2.78,2.66,8.19,8.19,0,0,1,1,4.3,9.71,9.71,0,0,1-2.33,6.58,10,10,0,0,1-6.34,3.28,21.5,21.5,0,0,1,4.45.69,11.37,11.37,0,0,1,3.74,1.73,8.3,8.3,0,0,1,2.57,3.08,10.35,10.35,0,0,1,1,4.66,13,13,0,0,1-.81,4.6,9.55,9.55,0,0,1-2.54,3.74,12.41,12.41,0,0,1-4.45,2.51,20.43,20.43,0,0,1-6.54.93h-4c-1.55,0-3.11,0-4.66,0l-4.4.06q-2.06,0-3.2.09a8.13,8.13,0,0,1,.3-2.57,7.43,7.43,0,0,0,2-.33,2.55,2.55,0,0,0,1.29-.93,4.4,4.4,0,0,0,.68-1.76,15.88,15.88,0,0,0,.21-2.84V336c0-2-.29-3.34-.87-4a4.41,4.41,0,0,0-3.26-1.16,4.34,4.34,0,0,1-.24-1.17c0-.46-.06-.93-.06-1.41q1.2.12,2.9.15c1.13,0,2.24,0,3.32,0" transform="translate(0 0)"/><path class="cls-2" d="M161.56,346.83a27.7,27.7,0,0,0,1,7.29,20.07,20.07,0,0,0,2.83,6.25,15,15,0,0,0,4.63,4.36,12.12,12.12,0,0,0,6.34,1.64,10.54,10.54,0,0,0,5.23-1.28,12.15,12.15,0,0,0,3.91-3.49,16.07,16.07,0,0,0,2.45-5.2,23.69,23.69,0,0,0,.84-6.4,24.41,24.41,0,0,0-1.14-7.53,20.7,20.7,0,0,0-3.11-6.15,14.67,14.67,0,0,0-4.69-4.12,12.17,12.17,0,0,0-5.95-1.5,10.61,10.61,0,0,0-4.9,1.16,11.7,11.7,0,0,0-3.91,3.29,16,16,0,0,0-2.57,5.08,22,22,0,0,0-.93,6.6m-6.16,1.62a22.16,22.16,0,0,1,1.53-8.34,20,20,0,0,1,4.19-6.54,18.33,18.33,0,0,1,6.27-4.25,20.08,20.08,0,0,1,7.74-1.49,20.54,20.54,0,0,1,7.92,1.49,18.28,18.28,0,0,1,6.25,4.22,19.64,19.64,0,0,1,4.13,6.51,24.13,24.13,0,0,1,0,16.62,20.24,20.24,0,0,1-4.1,6.6,19.06,19.06,0,0,1-6.25,4.42,19.31,19.31,0,0,1-8,1.62,20,20,0,0,1-8.07-1.59,18.37,18.37,0,0,1-6.25-4.39,19.62,19.62,0,0,1-4-6.6,23.71,23.71,0,0,1-1.4-8.28" transform="translate(0 0)"/><path class="cls-2" d="M223.78,330.52a19,19,0,0,0-2,.36v16.74a6,6,0,0,0,1.14.12c.48,0,1,.06,1.49.06a19.44,19.44,0,0,0,4.57-.51,10.72,10.72,0,0,0,3.71-1.61,7.91,7.91,0,0,0,2.48-2.78,8.36,8.36,0,0,0,.9-4,8.53,8.53,0,0,0-2.24-6.13q-2.24-2.36-7.62-2.36a22.9,22.9,0,0,0-2.45.12m-4.84-2.15c1.67,0,3.34,0,5-.06s3.31-.06,5-.06a19.49,19.49,0,0,1,5.86.78,11.54,11.54,0,0,1,4,2.12,8.53,8.53,0,0,1,2.36,3.17,10,10,0,0,1,.78,4,9.6,9.6,0,0,1-2.87,7.06,15.45,15.45,0,0,1-7.11,3.82q.78.72,1.43,1.43a18.87,18.87,0,0,1,1.61,2q.78,1.11,1.62,2.54c.56,1,1.22,2.13,2,3.53a23.62,23.62,0,0,0,4.13,5.68,7.49,7.49,0,0,0,5,2c0,.48,0,.92,0,1.31a6.13,6.13,0,0,1-.21,1.26q-2.28,0-4.72.06t-4.66.3q-1-1.49-2.33-3.94T233,360a35.44,35.44,0,0,0-3.35-5.38,36.8,36.8,0,0,0-3.46-4.12,39.1,39.1,0,0,1-4.37,0v10.64q0,3,.84,4a4.08,4.08,0,0,0,3.11,1.16,5.5,5.5,0,0,1,.24,1.23c0,.46.06.91.06,1.34q-1.91-.12-3.94-.15l-3.17,0H217.2c-.64,0-1.28,0-1.94,0l-1.91.06c-.62,0-1.15,0-1.59.09,0-.44,0-.88.06-1.31a6.25,6.25,0,0,1,.24-1.26,4.37,4.37,0,0,0,3.26-1.16q.87-1,.87-4V336c0-2-.29-3.35-.87-4.1s-1.66-1.1-3.26-1.1a6.21,6.21,0,0,1-.24-1.2c0-.4-.06-.84-.06-1.31q.9.06,3,.09t4.19,0" transform="translate(0 0)"/><path class="cls-2" d="M46,156.15c-1.8.69-4,.95-5.31,2.17-2.81,2.64-6.51.51-9.41,2.23-.54.32-1.63-.28-2.47-.46l.05-.72L33,158.8,31.8,157c1.84,1.54,3.79,2.44,6.23,1.72l-2.56-1.2.15-.61a9.33,9.33,0,0,1,1.76.15,8.35,8.35,0,0,0,7.14-1.37l-5.62-2.94a24.67,24.67,0,0,1-10.15,1.44,3.43,3.43,0,0,1-2.07-1.14h9.54c0-.16,0-.33,0-.49l-3-1.27c2-2.08,3.75.33,5.22.09,1-2.82-.16-4.75-2-6.44l.26-.26a26.14,26.14,0,0,1,2.91,3.73c.45.82.37,1.74,1.7,1.72,1.49,0,2.85-.14,3.55-1.7a6.71,6.71,0,0,0,.28-1.1c1,1.4.6,3.07-.83,3.52l-4.39,1.38c1.94,1,3.39,1.62,4.75,2.42A6.51,6.51,0,0,1,46,156.17Z" transform="translate(0 0)"/><path class="cls-2" d="M183.24,102.33l-1.58-1.06,4.8-4.05.63,1.37c1.22-.78,2.31-1.58,3.49-2.22a6.37,6.37,0,0,1,2.48-.87c1.77-.12,2.33,1,1.29,3l-.52-2c-2.5-.57-3.88,1.45-5.11,2.15-.24,1.9-.42,3.29-.63,4.91a11.12,11.12,0,0,1,1.24-.42c.93-.22,1.87-.38,2.81-.57a13.48,13.48,0,0,1,.13,3.2c-.13.67-.9,1.23-1.38,1.84l-.13.13c-.94.37-1.82.57-2.16-1.14-.7.77-1.17,1.36-1.71,1.85a3.33,3.33,0,0,1-1,.44,3.4,3.4,0,0,1-.14-1.22c.24-.9,1.64-1.73,0-2.87h1.87c0-.16,0-.32.06-.48-.38-.07-.8-.29-1.12-.18-2.44.83-2.43.85-2.74-1.61,1.67.52,3,.42,3.08-2.29l-3.63,2.1Z" transform="translate(0 0)"/><path class="cls-2" d="M61.49,85l1.56.52c1.09-.84,1.87-1.87,2.84-2.1,1.79-.41,2.78.79,2.77,2.64,0,.85.56,1.73.46,2.54a2.27,2.27,0,0,1-1.34,1.5,24,24,0,0,1-3.81.6l1.4,3.13-.4.49c-.59-.37-1.54-.63-1.72-1.15-.82-2.36-1.44-4.79-2.09-7.21-.07-.24.18-.57.33-1" transform="translate(0 0)"/><path class="cls-2" d="M203.3,143.64c-.24-.79-.49-1.58-.75-2.43,1.66-1.08,4.53-1.23,5.42.16.53.82.23,2.17.31,3.38a30.48,30.48,0,0,1,3.4,1.72c1.09.7.91,1.82-.19,2.17a11.87,11.87,0,0,1-3.91.25c-.24,0-.45-.74-.68-1.14a3.31,3.31,0,0,1,1.21-.37A9.6,9.6,0,0,1,210,148c-.51-1.5-.51-1.51-2.1-1.25-1.81.29-2.56-.34-2.1-1.78l-2.29-1-.17-.32" transform="translate(0 0)"/><path class="cls-2" d="M190.41,211.82c-.37,1.57-.66,3.16-1.16,4.69a1.74,1.74,0,0,1-1.33,1c-.45,0-1.22-.82-1.17-1.19.33-2.23.82-4.44,1.35-6.64,0-.2.76-.41,1.07-.32a1.61,1.61,0,0,1,.94.85,5.34,5.34,0,0,1,.12,1.55l.19.05" transform="translate(0 0)"/><path class="cls-2" d="M190.87,107.62a18.36,18.36,0,0,0,2.26-1c1-.6,1.88-1,2.75.1a1.36,1.36,0,0,1,.31.68c.1,1.46-2.75,4.89-4.3,5.23l-1.15-4.88.13-.13" transform="translate(0 0)"/><path class="cls-2" d="M35.08,202.41c.09-.87,0-2.15.3-2.29a8.94,8.94,0,0,1,3.47-.5c.24,0,.77,1.21.61,1.67a6.36,6.36,0,0,1-1.61,2.39,3.65,3.65,0,0,1-1.88.59,3.38,3.38,0,0,1-1.64-.11,1.14,1.14,0,0,1-.35-1,3.31,3.31,0,0,1,1.11-.71" transform="translate(0 0)"/><path class="cls-2" d="M211.91,175.28c1.7-2.64,4.07-2.84,5.64-.54a1.72,1.72,0,0,1-.49,2.71,3.11,3.11,0,0,1-2.45-.12,16.09,16.09,0,0,1-2.71-2" transform="translate(0 0)"/><path class="cls-2" d="M218.78,192.28c1.7-2.33,3.67-2.53,5.3-.57.85,1,1.06,2-.09,3s-2,.76-3-.32a26.54,26.54,0,0,0-2.26-2.1" transform="translate(0 0)"/><path class="cls-2" d="M175.73,219.26c-.35-1.35-.72-2.68-1-4-.05-.24.15-.78.25-.78.37,0,1,0,1.07.26,1,2,1.92,4,2.75,6.1a1.27,1.27,0,0,1-1.95,1.3,21.55,21.55,0,0,1-1.92-2.47l.83-.38" transform="translate(0 0)"/><path class="cls-2" d="M197.34,212c.45-.41.84-1,1.37-1.18a15.49,15.49,0,0,1,3.39-.56,1.65,1.65,0,0,1,1.88,2c-.1.54-1.32,1.27-2,1.24a26.2,26.2,0,0,1-4.4-.91l-.24-.55" transform="translate(0 0)"/><path class="cls-2" d="M205.17,125.08a2.3,2.3,0,0,1-.66.47.91.91,0,0,1-.83-.09,1,1,0,0,1-.14-.83c.31-1.17,2.73-3,3.86-2.79a3,3,0,0,1,1.34,1.17c-.75,1.08-1.63,2.08-2.47,3.1l-1.1-1" transform="translate(0 0)"/><path class="cls-2" d="M180,211.35c-.08.16-.2.89-.57,1.06a1.73,1.73,0,0,1-1.53-.32,1.71,1.71,0,0,1-.4-1.47c.53-1.62.32-2.82-1.29-3.69-.33-.18-.31-1-.45-1.52.46,0,1.08-.11,1.35.14a8.23,8.23,0,0,1,2.9,5.81" transform="translate(0 0)"/><path class="cls-2" d="M202.55,216.22c2.07-.09,4.36,2.71,3.66,4.94a1.82,1.82,0,0,1-1.28.62,11.68,11.68,0,0,1-2-2.76,10.1,10.1,0,0,1-.4-2.79" transform="translate(0 0)"/><path class="cls-2" d="M198.41,206c-.27.26-.72,1-1.32,1.18-1.1.3-2.12-1.46-2.1-3.62,0-.49.37-1.32.71-1.4,1.1-.26,2.67,1.8,2.71,3.84" transform="translate(0 0)"/><path class="cls-2" d="M200.27,217.26a9.5,9.5,0,0,1,2.06,2.3,4.12,4.12,0,0,1-.16,2.7c-.33.93-1.11.74-1.74.13-1.45-1.39-.8-3.08-.79-4.67l.63-.46" transform="translate(0 0)"/><path class="cls-2" d="M34.41,134.34l4.22,3.2.83-2.42a12.43,12.43,0,0,0,3.91,7.78l-.63.45a19.42,19.42,0,0,1-2.41-2.93,5.57,5.57,0,0,0-3-2.86c-1.28-.5-2.26-1.76-3.38-2.68l.49-.54" transform="translate(0 0)"/><path class="cls-2" d="M43.71,127.61,45,129.27c.11-.54.22-1.08.43-2.13.58.62,1.39,1.09,1.45,1.64.18,1.55-1.16,2.06-2.32,2.19-.76.08-2.07-.3-2.31-.84-.61-1.38.39-2.17,1.42-2.52" transform="translate(0 0)"/><path class="cls-2" d="M214.11,159.44l-2.57-2.57a13.7,13.7,0,0,1,1.36-1.31c.93.75,1.76,1.62,2.62,2.45l-1.41,1.42" transform="translate(0 0)"/><path class="cls-2" d="M88.34,217.84a3.85,3.85,0,0,1,2.2,3.83c0,.29-.3.78-.52.82a1.26,1.26,0,0,1-1.05-.34,4.21,4.21,0,0,1-.64-4.31" transform="translate(0 0)"/><path class="cls-2" d="M40.5,204.95c.22-1.1.35-1.76.48-2.41.51.21,1.46.41,1.47.63a5.92,5.92,0,0,1-.49,2.77c-.14.27-1.36,0-2.09-.06,0-.2,0-.4,0-.6l.63-.34" transform="translate(0 0)"/><path class="cls-2" d="M199.52,107a6.63,6.63,0,0,1-2.27.34c-.35-.07-.9-1.21-.72-1.5a17.84,17.84,0,0,1,2.14-2.5l.55.49a7,7,0,0,1-.77,1,10,10,0,0,1-1.16.78l.26.54,1.91.38c0,.17,0,.34.07.51" transform="translate(0 0)"/><path class="cls-2" d="M39.9,130.37c-2.43-.95-4.46-3.79-3.73-5.08l3.73,5.08" transform="translate(0 0)"/><path class="cls-2" d="M36.47,145l-1.05,2.57a27,27,0,0,1-.75-2.73c0-.29.5-1,.56-.94a10.94,10.94,0,0,1,1.51.84l-.26.26" transform="translate(0 0)"/><path class="cls-2" d="M203.47,144,202,145.75c-.15-1.15-.23-1.74-.31-2.32l1.62.22.17.32" transform="translate(0 0)"/><path class="cls-2" d="M203.69,139.52a7.54,7.54,0,0,1-.85.9,15.63,15.63,0,0,1-1.37-1.11c.23-.23.53-.7.67-.65a8.88,8.88,0,0,1,1.55.86" transform="translate(0 0)"/><path class="cls-2" d="M131.05,205.18c.39-1.35.53-2.76.81-4.14a3.15,3.15,0,0,1,.55-1.27c.35,3.91-.84,7.52-2.14,11.08" transform="translate(0 0)"/><path class="cls-2" d="M8.69,293s21,1.54,32.39-1.62c14.58-4,18.59-4.32,18.59-4.32s6.51-1.57,8.54-5.62,3.38-5.45,9.31-6.8c3.33-.75,6.3-2.4,8.64-3,1.84-.44,3,.46,5.4-1.62,4.25-4.74,5-5.4,5-5.4s-2,4.62-5.19,14.65C89.41,289.51,82,293,82,293s-.74-12.37-6.26-4.33c-6.69,9.75-16.54,7.06-16.54,7.06s2.15-4.05-3.65-4.05-5.53,2.7-17.68,2.7S8.69,293,8.69,293" transform="translate(0 0)"/><path class="cls-2" d="M102.8,266.51c1.28,2.56,3.24,5.16,2.26,8.14s-3.07,4-1,5.71,6.1,1.9,10.15,3.24,8,3.54,5.67,6.44c-4,4.58-5.4,8.09-5.4,11.06a58.15,58.15,0,0,0,1.35,9,28.78,28.78,0,0,1,4-13.54c4-6.21,6.34-8.12,2.83-11.36s-10.12-2.68-12-6.46,1.85-6.64-2-11.07-5.38-10.48-5.38-12.63-2.35,6.16-2.35,6.16a22.56,22.56,0,0,0,1.79,5.35" transform="translate(0 0)"/><path class="cls-2" d="M100,262.5s-3.67,4.33-4.75,13.4-3,12.76-5.95,15.46-9.07,8.56-9.07,8.56,14.72-5.57,16.34-11,5.71-3.75,3.38-8.71c-1.2-2.55,2.56-5.24,2.56-7.55,0-2.5-2.51-10.14-2.51-10.14" transform="translate(0 0)"/><path class="cls-2" d="M104.52,243.88s-.69,13.16,2.55,18,9.14,12.3,16.81,14.65c5.27,1.61,10.88,3.24,11.15,9.44s23.75,13.5,23.75,13.5-9.12-5.93-13.47-12.71c-2.9-4.52-4.24-8.82-7.32-12.15-4.75-5.12-6.46.91-12.13-5.29s-6.93-1.5-10.71-10.68-5.34-8.47-7-11.44-3.66-3.33-3.66-3.33" transform="translate(0 0)"/><path class="cls-2" d="M104.49,229.58s-2.67,8.1,5.7,16.74,1.35,10.08,10.53,15.92,10.8,4.32,14.58,8.1a107.48,107.48,0,0,0,11.23,9s-3.13-9.55-9.07-14.65-3.9-9.45-9.44-12.42-8.64.27-10.8-4-.07-3.51-4.62-8.91-8.1-9.72-8.1-9.72" transform="translate(0 0)"/><path class="cls-2" d="M92.64,202s4,12.42,6.21,15.92,2.46,7,8.1,12.42,10,11.06,10.26,13.5.5,1.89,5.24,4.59,9.33,1.35,9.87,5S139.76,264,139.76,264s1.2-7.06-1-8.81-4.05-8.64-8.64-9.18-8.9-2.16-10.26-6.75,1.5-7-3.7-9.72-6-6.75-7.64-9.18-4.48-9.72-4.48-9.72-7.39-6.21-8.2-8.64l-1.62-4.86Z" transform="translate(0 0)"/><path class="cls-2" d="M99.93,192.89s3.17,5.91,4.55,9.15a22.22,22.22,0,0,1,1.65,5.67,10.79,10.79,0,0,0-.56,3.78c0,2.43,6.1,9,6.1,9s-3.12-7.09-3.12-10.6-.81-2.95,0-5.79,4-5,4-6.9v-7.82h-1.32s.54,5.4-.27,7.82-2.28,2.7-3.51,5.13-1.15-.81-3-4.32-2.67-5.11-2.67-5.11Z" transform="translate(0 0)"/><path class="cls-2" d="M114.24,189.36s.4,6.51.4,11.88c0,6.48,1.57,8,1.57,9.45,0,3.24,1.81,3,1.81,5.4a41.47,41.47,0,0,0,0,7.83c.47,3.41,0,3,0,3s-1.81-4.38-1.81-7.62-4-6.68-4-11.81-.36-4.05,0-7.83a77.16,77.16,0,0,0-.16-10.26Z" transform="translate(0 0)"/><path class="cls-2" d="M119.91,185s2,5.18,1.08,7.85.27,11.85.27,11.85,2.33-10.75,2.62-11.85,2.51-7,2.51-7-2.51,2.16-3.93,2.16-2.55-3-2.55-3" transform="translate(0 0)"/><path class="cls-2" d="M142.54,235.07c.19-1.46.31-2.59.31-3.06,0-2.43-.27-4.32-6.21-10.53s-9.44-4.86-8.37-13.5,1.31-10.53,2.43-14,2.16-8.91,2.16-8.91-8.94,22.67-10.41,28.34-2.18,8.64-1.2,12.41,1.7,2.48.42,8.5,4.28,9.58,5.64,9.58,5.56,1.08,7.44,2.7,5,6.88,5,6.88.2-1.23.5-3.1a51.39,51.39,0,0,0-5-6.48,22.42,22.42,0,0,1-4.59-7.56c-.41-1-4.71-3.13-5.7-6.75-1.76-6.42,0-14.13,0-14.13s.25,6.4,2.14,8.28c2.29,2.29,1.42,7.44,6.58,13.41,3.74,4.32,2.05.48,5.38,6.32a10,10,0,0,1,1.49,4.88c.41-2.59.9-5.76,1.32-8.65a5.48,5.48,0,0,1-.75-1.72c-.36-1.85-4.59-3.87-6.31-7s-1.71-2.18-4.29-6.6a14.94,14.94,0,0,1-2-6.83l3.11,4.6s3,2.68,3.59,5.76,3.5,3.5,6,5.6a6.56,6.56,0,0,1,1.39,1.62" transform="translate(0 0)"/><path class="cls-2" d="M142.85,226.61s2.16-7.7,5.4-12.42,7.56-8.1,8.64-9.45,1.35-6.21,3.51-7.56,7-4.3,7-4.3-7.15,2.95-9.72,6.19.81,3.51-2.56,5.67-7.8,4-10.93,7.29-3.14,5-3.14,7.22,1.79,3.57,1.79,4.93Z" transform="translate(0 0)"/><path class="cls-2" d="M137.72,219.25s.27-8.84,5.13-12.89a58.21,58.21,0,0,0,10-10.26c2.43-3.21,4-12.15,4-12.15s-4.85,10-9.45,13.23-13.5,3.67-13.72,11.07a15.24,15.24,0,0,0,4,11" transform="translate(0 0)"/><path class="cls-2" d="M129.35,197.19l3.21,7.56a34,34,0,0,1,10.28-7.56c6.48-3.1,10.8-6.48,12.42-12.15s3.51-11.61,3.51-11.61-5.4,13.5-8.91,15.92-9.72,3.24-11.88,5.53-4.27,4.45-4.27,4.45Z" transform="translate(0 0)"/><path class="cls-2" d="M141.07,264.67s3.68,3.78,5.56,5.4,7.61,4.45,7.61,7.29.76,6.29,2.65,6.29S172,287.08,172,287.08s-8.57.46-14.27-1.08c-8.67-2.34-6.43-4.42-9.67-10.09s-3.39-4.22-5.17-6.91-1.79-4.32-1.79-4.32" transform="translate(0 0)"/><path class="cls-2" d="M174.7,287.07a32.93,32.93,0,0,1,8.91,0c5,.67,11.07,3.51,16.2,4s10.79.54,16.2,3.51,7.29,5.4,12.15,6.75,10.91,2.43,10.91,2.43-8.21.54-13.34-1.89-9.71-6.2-15.92-7.56-11.55,2.83-19.38.67-3.67-5.63-10.33-6.15a13.67,13.67,0,0,1-5.38-1.81" transform="translate(0 0)"/><path class="cls-2" d="M150.58,287.14s8.41,6.38,14.35,8,16.73,4.37,16.73,2.73-.6-7.39-7.85-6.71c-12.38,1.17-23.23-4-23.23-4" transform="translate(0 0)"/><path class="cls-2" d="M70.21,230.1s-2.6-.77-2.71-1.27c-.3-1.25-.21-2.69-2.23-2.49-.28,0-.62-1.18-1-1.74A5,5,0,0,0,62.78,223c-1.1-.6-1.85-1.11-1-2.5.22-.38,0-1-.06-1.53-1.49-.07-1.72.58-1.79,1.74a29.82,29.82,0,0,1-.86,5.8c-.15.57-1.26.9-1.94,1.34a7.09,7.09,0,0,1-.32-2.26c.23-1.21.85-2.34,1.12-3.55a26.5,26.5,0,0,0,.35-3.36l-.58-.33a6,6,0,0,0-1.19,1.5c-.5,1.42-.71,3-1.3,4.34-.29.69-1.15,1.15-1.75,1.72-.49-.66-1-1.32-1.48-2-.11-.15-.08-.4-.42-.18a23.53,23.53,0,0,1-2.08-1.14A13.85,13.85,0,0,0,47.25,221c-1.5-.59-1.2-1.33-.45-2.24S48.28,217,49,216.17l-.23-.52-3.67.52c0,.19,0,.38,0,.57h2.41c-1,2-3.8,2.48-5,1a1.49,1.49,0,0,1,.17-1.42,5.57,5.57,0,0,1,6-1.67,3.62,3.62,0,0,0,4.29-1.38c-1.09-1.22-1.54-2.88-3.76-3.07-1-.08-2.12-1.79-2.62-3s.73-1.35,1.56-1c1.19.51,2.28,1.24,3.79,2.08.2-1.24.48-2.36.55-3.49.12-1.87.43-2.1,2.31-1.26l.86-1.46c-1.89-.95-3.12-2.87-5.58-2.52-.77.11-2.22-.18-1.77-1.84,0-.14-.71-.48-1.32-.88a8.18,8.18,0,0,1,0,2.26c-.21.63-1,1.68-1.16,1.61a4.8,4.8,0,0,1-2.2-1.49,2.64,2.64,0,0,1-.08-2.06c.19-.59.83-1,1.27-1.54l-.68-.44c-.48,1-1,1.94-1.42,3s-.61,1.72-1.95.53a6.66,6.66,0,0,0-4.08-1.38c-1.89,0-1.51-1-1.5-2.15a8,8,0,0,0-.31-2.5c-.1-.32-.79-.46-1.33-.74,0,1.22,0,2,0,2.81,0,.15-.11.42-.07.44,1.82,1,.53,2.44.59,3.7.1,1.95-.4,2.66-2.32,3.09-.41.09-.75.52-1.16.71s-.82.38-1,.25a3,3,0,0,1-.91-1.13c0-.06.54-.4.77-.66s.54-.59.49-.79c-.37-1.31-.84-2.6-1.37-4.18a9.69,9.69,0,0,1-2.44,1,3.87,3.87,0,0,1-2.6-.43c-.94-.77-.68-1.78.3-2.66,2.07-1.86,3.11-1.62,5.7,1.8,1.27-3.08,2.62-6,6.11-6.62-.43-1.26-.53-2.55-1.22-3.14-.38-.33-1.76.52-2.81.88.87,2.07-.19,2.62-2,2.82-.79.09-1.49.75-2.29,1-.42.12-.95-.15-1.43-.24.19-.43.28-1,.6-1.25.79-.67,1.7-1.2,2.7-1.88-1.27-1-.37-3.51-3-3.34,0,.36-.07.74-.1,1.12-1.49-.07-3.22-1.94-2.84-3.22.09-.3,1.15-.5,1.72-.42a8,8,0,0,1,1.84.87c.56.25,1.15.45,2.09.81a31.21,31.21,0,0,1-1.17-3.48c-.11-.52.07-1.48.38-1.61a2.26,2.26,0,0,1,1.8.28,3.15,3.15,0,0,1,1.27,1.55c.59,1.87,1.71,2.28,3.52,1.4-.52-2.19,1.75-2,2.86-2.79.27-.19,1.55.7,2.06,1.33.19.23-.52,1.18-1.24,1.67a7.91,7.91,0,0,0,.42,1.31,1.82,1.82,0,0,0,.75.85c.14.06.54-.37.78-.63s.37-.7.66-.87c.79-.47,1.64-.84,2.79-1.41-.36-.2-1-.81-1.48-.76a2.2,2.2,0,0,1-2.52-1.33,3.17,3.17,0,0,0-4-1.19c-2.21,1-3,.52-3.5-1.94a2.83,2.83,0,0,0-1.07-1.39,4.24,4.24,0,0,1-1.77-4.94c.32-1.25.91-1.93,2.21-1,.68.5,1.38,1,2.18,1.54-.35.17-.45.28-.53.26-1-.27-2.22-.69-2.26,1a2.28,2.28,0,0,0,2.29,2.48c.9.09,1.8.21,3.22.37l-2.41,2,.19.29,2.74-1.46.72-5.28.3.14-1-2.53.18-.51c2.48,1.68,3.25-.12,4.39-1.54a14.29,14.29,0,0,1,8.05-4.73l-1.42-1.52c-.68.15-1.58.39-1.59.35-.31-1-.53-2-.77-2.95l0,0A4.61,4.61,0,0,1,49.8,152c.31-.08.45-.87.67-1.34l-.65-.25c-.1.3-.21.6-.3.91-.33,1.07-.77,1-1.56.33-1.38-1.13-1-2.74-1.37-4.16-.14-.6-.26-1.2-.31-1.46l-4.15.24c0-.28-.1-.56-.15-.83l4.8-1c1.24-4.53-3-6.44-4.33-9.8,2.93.89,3.32,4.55,5.71,5.54-.08-2.09-.08-4.22-.28-6.33,0-.45-.79-.83-1.52-1.54a17.51,17.51,0,0,0,2.43-1.4c.82-.65,2.4-.34,2.32-2.23s-.87-2.39-2.42-2.57a6.92,6.92,0,0,1-2-.44c-1.37-.59-2.56-.68-3.69.52-.32.34-1,.34-1.5.49-.07-.28-.29-.75-.2-.81a8.63,8.63,0,0,1,1.37-.75c.17-.09.36-.15.67-.28l-1.6-1.41a3.89,3.89,0,0,0,4-2.3,12.07,12.07,0,0,0,.41-1.95c.23-.89.28-2.06.87-2.54s1.63.14,2.46.34a4.85,4.85,0,0,1,1.12.69,18.52,18.52,0,0,0-.6-2.84,1.85,1.85,0,0,0-1.16-1c-2.07-.45-2.34-2.2-2.76-3.78-.09-.33.45-.82.93-1.61.15,1.27.23,2,.32,2.73h.48c.19-1,1.7-1.85,0-3.12a1.75,1.75,0,0,1-.07-1.61,22.48,22.48,0,0,1,3.17-1.34l.2.51-2.8,1.21.16.75c1-.07,2-.18,3-.18a14.41,14.41,0,0,1,2,.29c-.37.61-.59,1.48-1.12,1.78-1.41.77-2.79,1.46-3.23,3.42l2.24.26c0,.44,0,.85,0,1.25-.07,1.08.39,1.35,1.43,1.18,2.07-.34,2.54.25,1.7,2.19-.58,1.35-1.38,2.6-2.4,4.49l-2.32-3.65c-1.71,1.52-.42,1.83,0,2.36s1.06,1.27,1.43,1.72l3-.64-.14-.18,5.53-2.5L55,115.12l.3-.42,1.52.37c.75-1.05,2.06-2,.56-3.5L59.4,109l-.18-.37c-.54.14-1.07.33-1.61.42-.7.12-1.41.17-2.12.26l1.09-2.37c-.56-1.37-2.26-.88-3.58-1.12s-3.35-2-3.47-3.33a1.56,1.56,0,0,1,.36-1.24,1.48,1.48,0,0,1,1.25.19c.8.5,1.48,1.17,2.27,1.69a4.89,4.89,0,0,0,2.3,1l7.1-2.18c-1.18-2.32-3.09-4.23-3-7,0-.47.39-1.26.68-1.3a2.24,2.24,0,0,1,1.63.55A8.78,8.78,0,0,1,63.34,96c.75-.59,1.49-1.1,1.69.39a.8.8,0,0,0,.49.56c1,.23,1.94.38,3.11.59a7.24,7.24,0,0,1-.75-1.63,11.1,11.1,0,0,1,0-2.06,12.3,12.3,0,0,1,1.91.45,7.94,7.94,0,0,1,1.44,1c.18-1,.32-1.75.46-2.52h.5L73.72,99A58.44,58.44,0,0,0,74,92.47c0-.63-1.25-1.2-1.9-1.78-.27.24-.37.29-.42.38l-.85,1.51a5.5,5.5,0,0,1-.8-1.68c-.2-2.26.45-2.77,2.37-2.36-.51-2.37-1.15-4.85-1.52-7.37-.13-.9-.81-2.32.75-2.79,1.12-.34,3,1.19,3.3,2.62.24,1.25.3,2.54.45,4l2.94-4.29.78.21c.18,1.48.36,3,.49,4,.66-.63,1.59-2.16,2.32-2.08,1,.12,1.86,1.46,2.63,2.15.19-.29.87-1.61,1.08-1.54a20.87,20.87,0,0,1,4,1.94c.38.23.52.88.77,1.33,3.79-.46,3.79-.46,4.23,4.82a12.38,12.38,0,0,1,1-1.73c1-1.26,2-1.23,3.17-.18.36.32,1,.27,1.55.44a4.69,4.69,0,0,1,1.43.61,23.47,23.47,0,0,1,1.88,1.81c.15-.4.25-.55.22-.58a5,5,0,0,1-.51-6.48c.2-.3,1.22-.26,1.75-.07s.63.78,1.16,1.51c.42-1.32.79-2.36,1.08-3.43s.35-1.95,1.7-2.07a2.69,2.69,0,0,1,3,1.4c.21.4.46.79.74,1.27a5,5,0,0,1,.79-.61c.73-.35,1.49-.65,2.24-1a10.19,10.19,0,0,1,.27,2.29c-.27,2.64-.64,5.28-.79,8,.78-2.31,3.27-3.51,3.55-6.24a15,15,0,0,1,1.71-4.64,1.51,1.51,0,0,1,2.75.45,8.63,8.63,0,0,1,.14,3.16c-.07.43-.91.73-1.4,1.09a12.15,12.15,0,0,1-.82-1.41c-.13-.31-.07-.69-.28-1.06l-2.09,8.7.3.2,3-4.11.34,1.62,2.43-4.15c.13-.22.29-.58.47-.6,2.07-.24,1.91-2.17,2.69-3.4a34.35,34.35,0,0,1,2.42-3l.39.31q-1,2.49-2,5c2.93-.7,2.58-3.19,3.38-5.28l2,2.83c-.52.67-1.16,1.43-1.72,2.25a2.68,2.68,0,0,0-.33,2.91,4.2,4.2,0,0,1,0,2.55c-.39,1.53-1,3-1.56,4.74a11.85,11.85,0,0,0,2.5-.35c.9-.35,1.61-.88,1.05-2.13a4.65,4.65,0,0,1-.38-2.45A39.9,39.9,0,0,1,135,84a3.7,3.7,0,0,1,1.53-1.91,3.08,3.08,0,0,1,2.25-.31c.34.11.56,1.23.5,1.86a3.07,3.07,0,0,0,3.13,3.5,2.12,2.12,0,0,1,1.63.9,3.08,3.08,0,0,1-.12,2,13.72,13.72,0,0,0-.9,2c.84-.65,1.68-1.32,2.53-2,.1-.08.28,0,.68-.11l-2,3.39.63.39a36.81,36.81,0,0,0,2.22-3.48c.65-1.29,1.07-2.7,1.89-4q-.13,2.28-.26,4.57c1.7-1.81,1.53-3.62.46-5.5a5,5,0,0,1-.23-1.77c.51.35,1.38.62,1.46,1.05a49.87,49.87,0,0,1,.7,5.32,3.26,3.26,0,0,1-.15,1c.7-.58,1.43-1.25,2.23-1.83.42-.3,1.13-.73,1.43-.57a1.89,1.89,0,0,1,.95,1.44,19.37,19.37,0,0,1-.93,3.71c-.34,1-1.31,2-.28,3.15a10.35,10.35,0,0,0,1.22,1c.39-.57,1-1.08,1.14-1.7.49-2.41.78-4.85,1.23-7.27.29-1.6,1.48-2,2.69-.89,1.39,1.24,3.62,1.67,4,4a8.57,8.57,0,0,0,1.64,0l.51-.87-2.7-2.28c4.18,1.8,6,5.11,7.46,8.8l2-1.1.73,1.28-4.06,3.57c.75.07,1.43.26,1.51.12,1-1.87,2.47-1.47,3.7-.57a4.76,4.76,0,0,0,4.27.85c1.09-.24,2.34.31,3.52.5l0,0c-.85.07-1.7.12-2.55.24-1.05.15-2.1.35-3.15.53l.09.58H179c-.13,1.94-.25,3.84-.38,5.72,1-1,1-3.07,3.34-3.67l-1.67,3.12,2.13,2.26.58-1.78,4.43,1.65-1.72,3.39c2.32-.06,4.42-1.87,6.58.21l-.67,2.18h2.41c-.06-.65-.1-1.3-.21-1.95,0-.3-.32-.56-.37-.86a3.62,3.62,0,0,1,.11-1,2.63,2.63,0,0,1,.86.44,6.42,6.42,0,0,1,.57,1.11c.5.91,1,1.53,2.07.52a2.12,2.12,0,0,1,1.37-.69c2.21.21,2.88-1.48,3.81-2.89.33-.49.74-.93,1.11-1.39l.52.33c-.49.91-.95,1.85-1.49,2.72a2.88,2.88,0,0,0,1.3,4.47c2.17.92,2.55,2.26,1.05,4.13-.77,1-1.69,1.88-3.29,1.27l2.44-2.92-.5-.49c-1,.94-1.93,1.88-2.89,2.82a8.93,8.93,0,0,1-1.1,1.12,4,4,0,0,1-1.18.35,5.09,5.09,0,0,1,0-1.13,2.35,2.35,0,0,0,.14-1.29c-.86.59-1.74,1.16-2.56,1.8a1.54,1.54,0,0,0,.49,1c1.74.89,3.52,1.7,5.34,2.55l-1.19,1.95a5.92,5.92,0,0,1,1.35.26c.79.39,1.53.86,2.29,1.3a17,17,0,0,1-1.38,2.12c-.49.57-1.17,1-1.65,1.6,1.81.18,3.33-.07,4.54-1.51a9,9,0,0,1,2.53-1.78c.25-.14.74.14,1.12.22-.08.38,0,.91-.28,1.1a24.63,24.63,0,0,0-2.85,2.4c.53-.13,1.06-.23,1.58-.38,1.2-.35,2.37-.77,3.59-1,.35-.08.8.27,1.2.42-.18.42-.24,1-.55,1.21a15.69,15.69,0,0,1-2.22,1.24c1.32,0,2.33-.07,3.33,0,.38,0,.73.44,1.09.67-.28.32-.55.9-.86.93-2.7.22-5.41.36-8.12.48a15.25,15.25,0,0,1-2.41-.11c-1.12-.13-2.24-.34-3.36-.5-.72-.1-1.45-.17-2.17-.25,0,.26-.08.52-.12.78l3.28.55c-.86,1,.47,3.63-2.79,3.42a7.55,7.55,0,0,0,1.19,1.29c1.36.93,2.62,1.7,2.34,3.83-.08.61,1.67,1.6,2.72,2.17s2.66.79,3.71,1.56c1.38,1,1.09,1.86-.46,2.62a1.53,1.53,0,0,0-.67,1.32c2.08-1.28,4.12-2.63,6.26-3.8.54-.3,1.39,0,2.09,0-.31.63-.45,1.58-.95,1.85-2,1.07-4.11,1.92-6.17,2.87-.53.24-1,.53-1.34.69a9.34,9.34,0,0,1,2.24.93,14.22,14.22,0,0,1,2.56,2.54,2,2,0,0,1,.33,1.79,2.14,2.14,0,0,1-1.7.77,3.62,3.62,0,0,1-3.39-2.61c-.15-.43.21-1,.34-1.62-2.65-.49-5,1.42-7.55,2.33,0,.23.07.46.12.69l2.86-.36-.17,1a23.66,23.66,0,0,1,3.15,2.14c1,.91,1.52,2.08.16,3.17.65,1.73,1.71,1.59,3.17,1-.26.34-.47.93-.79,1-1.29.27-1.34,1.08-1.44,2.18a9.08,9.08,0,0,1-1.08,2.76,4.54,4.54,0,0,0-.65,1.92,7.07,7.07,0,0,0,1.32-.95c2.05-2.31,4-4.69,6.1-7a5.77,5.77,0,0,1,1.67-.9c.11.65.54,1.48.29,1.92a23.13,23.13,0,0,1-2.69,3.72c-.8.92-1.79,1.66-2.64,2.73,1.38-.15,3-1.1,3.18,1.38a3.66,3.66,0,0,0-.9.58c-.71.8-1.64,1.54-.34,2.72a8.27,8.27,0,0,1,1.21,2.38,27.37,27.37,0,0,1,3.06-1.46,4.91,4.91,0,0,1,1.84.12c-.17.66-.32,1.33-.53,2a.78.78,0,0,1-.49.38c-2.35.64-1.91,2.53-2,4.29a7,7,0,0,0,5.67-2.62c.46-.51,1.37-.62,2.07-.92,0,.72.25,1.66-.11,2.12a38,38,0,0,1-3.67,4,21.58,21.58,0,0,1-2.42,1.73l3.52,1.28-.08.53h-4.41a27.3,27.3,0,0,1,2.49,2.7,5.88,5.88,0,0,1,.94,2.39c.07.47-.41,1-.65,1.54a9.12,9.12,0,0,1-1.45-1.18c-.27-.32-.31-.85-.89-1.27,0,.58,0,1.17,0,1.75s0,1,0,1.48a6.71,6.71,0,0,1-1.59-.17,16.06,16.06,0,0,1-2-1c-1.06,2.37-1.35,2.4-3.61.47-1.66,1.38-2.68,1.27-3.85-.59a11.5,11.5,0,0,1-1.21-2.87c-.84-2.86-.81-2.87-3.73-2.11a20.62,20.62,0,0,0,.38,3.89,13,13,0,0,0,1.66,2.89c.16.26.47.49.52.77a24.6,24.6,0,0,1,.38,3s-1,.35-1.2.17a18,18,0,0,1-2.11-2.72c-.38-.61-.36-1.54-.82-2-1.51-1.57-3.17-3-5.47-5.13l1.53-1.13c-.67-.12-1.84-.31-3-.54a12.46,12.46,0,0,0-3.59-.41c2.71,2,5.44,3.92,8.13,5.91a10.15,10.15,0,0,1,1.25,1.31l-.49.61-6.4-3.64-.38.45c.53.46,1.05.93,1.6,1.37.11.09.36.06.43.16.52.75,1,1.52,1.52,2.28l-2.5.59a2.58,2.58,0,0,0,.53,3.5q4.46,4.3,8.94,8.58c.3.29.75.43,1,.74a2.74,2.74,0,0,1,.34,1c-.37,0-.82.21-1.08.05-1-.61-2-1.32-3-2-.76-.53-1.51-1.09-2.27-1.64l-.46.4c.45.51.87,1,1.35,1.5.17.17.61.14.7.31.38.77.69,1.58,1,2.38l-2.43.31a4.58,4.58,0,0,1-.62,1.28,1.9,1.9,0,0,1-1.32.79,1.49,1.49,0,0,1-.93-1.14c.14-2.52.41-5,.67-7.89l-5.75-6.93a15.08,15.08,0,0,1-.7,3.29c-.3.63-1.15,1-1.75,1.47-.44-.78-1.24-1.55-1.24-2.32a13,13,0,0,1,1-3.45c-1.89.33-2.2-.94-2.54-2.23-.13-.49-.36-1.32-.63-1.36a2.38,2.38,0,0,0-1.85.44,34.55,34.55,0,0,0-4.47,5.64c-.54.95,0,2.54.11,3.82a16.89,16.89,0,0,1,.6,2.68c0,.58-.76,1.13-1.18,1.69a16.45,16.45,0,0,1-1.37-1.87,4,4,0,0,1-.22-1.36c-.42.08-1,0-1.23.26-.32.45-.67,1.21-.49,1.63a20.68,20.68,0,0,0,2.16,4.06c1.11,1.54,1.65,3.86.73,5.3a2.83,2.83,0,0,1-1.69.7,13.74,13.74,0,0,1-1.2-2.85,11.25,11.25,0,0,1,1.65-.83l-2-2.13a26.33,26.33,0,0,1-.73,3.21,5.45,5.45,0,0,1-1.08,1.35c-.37-.42-.92-.79-1.08-1.29-.32-1-.29-2.06-.65-3a14.51,14.51,0,0,0-1.49-2.42,7.8,7.8,0,0,1-.59,1c-1.8,2.28-2,.73-3.86.73s-5.28,2.21-5.28,2.21,0-1.77.25-4.82,2.29-2.54.26-6.6-1.52-5.84-1.27-9.39-2.79-4.32-4.57-2.29-5.33,4.06-5.84,6.1-3.3,9.39-8.12,9.89-8.88,4.82-11.67.51-1.78,1.27-6.09.51,1.52-6.09-3.55-6.09-4.57.76-5.84,2a5.39,5.39,0,0,0-.67.92c-1.28,2.09-3.07,6.25-4.56,6.25,0,0-3.62,3.51-4.15.77,0-9.38-5.09-.25-5.67.23a11.29,11.29,0,0,0-1.38,1.77c-.3.37-.63.71-.94,1.07-.32-.31-.64-.62-.94-.94s-.89-1.18-1.06-1.11c-1.12.47-2.81,0-3.19,1.74a18.74,18.74,0,0,1-.41,2.63A8.36,8.36,0,0,1,85,223.48c-.49-.59-1.28-1.12-1.41-1.78a16.77,16.77,0,0,1,.17-2.94,4.42,4.42,0,0,0-.5-1.39,4.74,4.74,0,0,0-1.42.65c-1,.95-1.92,2-2.86,3l-.76-.49c.33-1,.73-1.95,1-2.95a4.63,4.63,0,0,0,.17-2.51c-.26-.64-1.22-1-1.87-1.47a13.57,13.57,0,0,0-.72,1.92c-.09.38.23.86.14,1.23-.23.89-.6,1.75-.91,2.62-.63-.71-1.53-1.32-1.83-2.15a22.9,22.9,0,0,1-.69-4.22L72,214.83l1.39,2.29-2.89,1.46c.77,1,1.78,2.29,2.64,3.63a8.17,8.17,0,0,1,.93,2.42,1.24,1.24,0,0,1-.53,1c-.15.11-.7-.14-.91-.37-1-1.1-2-2.26-3.09-3.49-.83.93-1.11,1.84-.11,3.35s.25-.24.25,1.8Zm11.69-9.9-5.58,3,3.4,1.1m43.1-58.75c-1.34.23-2.67.54-3.58-1-.14-.23-1,0-1.54,0a5.78,5.78,0,0,0,.64,1.18c.49.55,1.07,1,1.8,1.71l2.66-1.88c.67-.09,1.24-.13.74.85-.74,1.44-1.43,2.9-2.15,4.36,0,0,.29.09.38,0a24.37,24.37,0,0,0,2.58-3.08c.35-.55.18-1.43.25-2.16l-1.79.06m-3.76,16,2.93,2,.44-.76a11.53,11.53,0,0,0-1.47-.76,18.9,18.9,0,0,0-1.92-.48,5.26,5.26,0,0,1,3.39-4.06l-1.94-1.68c-.52,2.07-2.86,3.36-1.43,5.72M60.5,149.87c-.19-.69-.37-1.39-.56-2.1H58.28l-.19.34,2.43,1.74,1.5.21c.79,2.14,5.15,3.5,6.87,1.81-2.58.35-3.86-1.05-4.63-3l-3.75,1m-15.43,34,2.46,1c.73-.3,1.54-1,2.23-.84.49.08,1,1.15,1.16,1.85a30.82,30.82,0,0,1,.52,3.68,1.39,1.39,0,0,0,.76-1.16,7.12,7.12,0,0,0-.27-1.42l1.57.63.66.3c.52-1.82-.3-3.15-1.68-3.53a3.68,3.68,0,0,1-2-1.7c-.2-.37.56-1.25.86-1.91.17-.39.29-.8.44-1.21l-5.83,1.13c1.57,2.45,1.56,2.47-.8,3.24-.46.07-.93.13-1.39.22-1.31.23-2.69.32-2.21,2.35.08.34-.65,1-1.13,1.32a16,16,0,0,1-2.23,1c.4,1.95.39,2,1.39,2.18.3,0,.76-.57,1-.48a12.09,12.09,0,0,1,1.86,1.13l-.66.25,2.14-7.09.5,0,1,2.29L46,187a11.24,11.24,0,0,0-.24-1.6,13.34,13.34,0,0,0-.66-1.56m81.71-.13-.3-.09a21.12,21.12,0,0,0-.42,2.7,5.11,5.11,0,0,1-4.81,5.39,1.46,1.46,0,0,0-.68.33A14.08,14.08,0,0,1,112,195c-1,0-2,.23-3.05.35,5.08.75,5.08.75,4.63,3.89,1-.12,1.88-.25,2.76-.33a20.93,20.93,0,0,1,5-.3c1.68.29,2.13-.16,2.11-1.44a43.18,43.18,0,0,1-4.69-.05c-.61-.07-1.16-.76-1.73-1.17.47-.52.86-1.35,1.43-1.51a21.05,21.05,0,0,1,9.44-.38c.64.12,1.54-.63,2.15-1.16.23-.2,0-.94,0-1.43l-.38,0-.9,1.73c-.24-.65-.38-1-.37-1l-2,1c-.21-.66-.67-1.36-.57-2a8.48,8.48,0,0,1,1.05-2.26c.13-.26.39-.52.38-.76-.11-1.48-.27-3-.42-4.43M59.63,155.35c.76-1.44.19-2.12-1.12-2.47-.65-.17-1.26-.53-1.92-.67-1.31-.26-2.74-1.13-3.74.66-.08.15-.88.07-1.22-.12-1.47-.86-2.42.25-3.34,1-.5.39-1,1.52-.81,1.91a4.5,4.5,0,0,0,2.21,2.17,14.39,14.39,0,0,0,4,.09c-.38-3.08-.38-3.08.73-3.57.46,3.73.46,3.73,2.28,3.2.11-1.41.21-2.8.33-4.35l2.62,2.18M92.57,187c.1,1.17.14,1.67.19,2.16a6.48,6.48,0,0,1-1.74-.07c-1.06-.34-2.06-.83-3.08-1.26l-.45.38a19.63,19.63,0,0,0,1,2.45c.12.22.76.32,1.12.24,1.19-.25,2.36-.61,3.74-1-.12.73-.21,1.08-.23,1.43,0,1,1,2,1.89,1.6,2.26-1.06,4.47-2.21,6.65-3.31-1-3.4-1.58-4-3.36-3.24-.5.22-.69,1.16-1.06,1.83L92.57,187m105.61,6.52.22-.67c-.28-.27-.52-.66-.85-.78-1.39-.5-1.35-1.37-.76-2.45a9.28,9.28,0,0,1,.51-1.14c.25-.34.67-.82,1-.79a1.42,1.42,0,0,1,.93.88c.3,1,.35,2.18.68,3.21.16.51.74.89,1.33,1.55-.12-2.6-.21-4.59-.29-6.41l-2.29-1.18c-.78,1.19-1.55,2.48-2.46,3.68a13.14,13.14,0,0,1-1.82,1.66c0-.79-.07-1.57-.11-2.35,0-.09-.09-.18-.18-.35-.87.52-2.71-.42-2.3,2-.36-.25-.52-.43-.69-.47a24.31,24.31,0,0,0-2.9-.44c-.12,0-.42.76-.41,1.17,0,1.14.5,2.07,1.79,2.19,2.87.27,5.74.5,8.61.74m-85,10.26c-2.25-.18-2-2-1.94-3.07s.86-2.18,1.44-3.48l-9.89-1.6c.42.79,1,1.48,1.63,1.57a6.15,6.15,0,0,0,2.24-.59l.27.47a23,23,0,0,0-3.23,3.46,2.84,2.84,0,0,0,1.37,3.75c-.15-1-.34-2.13-.51-3.27a25.77,25.77,0,0,1,4.16.69,3.6,3.6,0,0,1,1.88,1.73c.15.3-.77,1.12-1.21,1.7l.14.36,3.64-1.71M111.62,93.55l1.56-6.8c-1.78.8-2,.68-2.12-1.6a1.88,1.88,0,0,0-.16-.91A12.17,12.17,0,0,0,109.75,83a4.93,4.93,0,0,0-.89,1.31,23.9,23.9,0,0,0-1.13,5.32,4.89,4.89,0,0,0,1.5,3.06c.58.61,1.74.66,2.39.88M97.73,193.71c6.44,1.48,11.95,1,16.77-2.91-1.32.28-2.54.91-3.83,1.28a5.12,5.12,0,0,1-2-.29c-1.34-.23-2.77-.88-4-.61a53.73,53.73,0,0,0-6.9,2.53M86.78,91.12a25.39,25.39,0,0,0-2.29-1.27c-.19-.08-.81.23-.82.39-.08,1.11-.07,2.23-.06,3.34,0,.54.08,1.08.13,1.62-.53,0-1.07.08-1.6.1-.71,0-1.43,0-2.27,0,2.35,2.87.49,4.35-2.06,6,1.75-.18,3.45-2,3.85.85.13-.84-.18-1.78.14-2.38s1.28-.72,2-1.07l.48.52c.63-2.58-.15-5.61,2.55-8.08M202.4,154.8c-.7-1.87-2.75-3.59-5.6-4.43a31.88,31.88,0,0,0-2.73,4.21,36.21,36.21,0,0,0-1.48,5.23l1-1.27c2,1.07,2.42.93,2.61-1l-1.66,1.32c.48-1.63.8-2.92,1.26-4.15.11-.29.66-.48,1-.6a20.15,20.15,0,0,1,2.33-.6,2.58,2.58,0,0,1,1.43,0c.19.09.12.81.12,1.24a1.53,1.53,0,0,1-.09.49l1.78-.45M182,198.09a7.36,7.36,0,0,1,.5-1.82,8.8,8.8,0,0,1,1.36-1.46,6.94,6.94,0,0,1,1,1.62c.46,1.6-.3,3.69,2,4.56l.93-4.5-.55.58-3.79-4.88-5,5.67,3.55.24M43.73,164.39c-2.12,1.4-2.72,3.56-3,6,1.44-.16,1.43-.16,1.61,1.05a.53.53,0,0,0,.34.35c1.05.26,2.11.48,2.82.64.94-3.31-.89-5.53-1.81-8m117.86-73c-1.4,2.34-3.52,3.95-3.21,6.7a9.73,9.73,0,0,1,0,1.08c.36-.09.73-.16,1.09-.26.9-.26,1.89-.89,2.69-.71,1.52.35,1.6-.39,1.32-1.36-.51-1.76-1.19-3.47-1.89-5.46M119.5,110.58c1-.9-.13-3.92,3-3l.75-2.38-1.35.9a5.53,5.53,0,0,1-.72-1.26c-.51-2-.93-4-1.44-6-.07-.25-.54-.4-.83-.59l.69.83L118,100.53a11.34,11.34,0,0,1,1.7,2.67c1,2-1.06,2.18-1.63,2.65l1.45,4.74M50.14,188.27a7.42,7.42,0,0,0-1.69-.31c-1.31.09-2.66.16-3.28,1.67-.38.95-.85,1.86-1.4,3.06l1.86.74,1.29-2.16,1.2,1.61,1.42-.52.6-4.1m38.08-7.58h-.48c-.19-1.1-.37-2.21-.59-3.3-.12-.57-.32-1.13-.48-1.69a27.38,27.38,0,0,0-3,1.16,1.24,1.24,0,0,0-.29,1.19c.83,1.32.85,3.21,2.64,3.83.4.14,1,.37,1.24.2a4.75,4.75,0,0,0,.92-1.38M171,200.78c1.25,1.19,2.43,1.43,3.32.44,1.81-2,3.42-4.14,5.14-6.27l-2.09-1c-.89,3.39-3.91,4.79-6.37,6.86m-1.26-96-5.08,5.39c1.53.1,2.51.22,3.5.2s2.12-.24,2.36-1.56c.21-1.11.39-2.23.59-3.43l-1.38-.61m4.68,1.52c-.34.27-.72.44-.89.73-1.2,2.1-2.37,4.22-3.49,6.36-.06.11.4.72.63.73,1.17.06,3-1.6,3.36-2.61a31.27,31.27,0,0,1,2-3.88c.24-.45.69-.79.9-1.25.1-.21-.14-.57-.22-.87-.23.21-.54.38-.68.64a15.05,15.05,0,0,0-.64,1.54l-.46-.12-.46-1.27m-1.74,19.49.6.1a14.8,14.8,0,0,0,.48-3c0-.64-.57-1.26-.89-1.88A16.34,16.34,0,0,0,171,122.7c-.15.19.16.76.27,1.19a3.34,3.34,0,0,0-3.12,4.15c2.11-.35,2.87-2.19,4-4.06l.53,1.81M117,113.73l-2.95-4.88,2.94.24-1.35-3.79-1.41,2.14-.79-.25.49,3.89-2.86,1.72c1.32,0,2.7-.26,2.84,0,.71,1.61,1.82.95,3.09.88M140,134.91c-.42-2.79-.79-5.16-1.2-7.8a15.76,15.76,0,0,0-1.4,1.46c-.43.57-.59,1.56-1.12,1.8-1.38.61-1,1.43-.8,1.91l4.53,2.64m-36.84,62.41c-1-.53-2.18-1.69-3.07-1.5s-1.71,1.65-2.41,2.41l2.15,2.8c2.21.33,2.5-1.67,3.33-3.71M183.88,121a16.38,16.38,0,0,0,1.84-2.59,2.13,2.13,0,0,0-.13-1.91c-1.65-1.68-2.51-1.43-4,1l1.81.84-2.83,1.84.13.57,3.17.21M51.18,148.66c.24-.65.31-1.66.86-2.15A12.59,12.59,0,0,1,54.93,145l-.4-.79-2.92,1.47c-.7-.28-1.53-.95-2.27-.85-1.6.21-2.17,1.57-1.58,3.46.14.46.76.77,1.17,1.15.27-.41.55-.81.82-1.22.15-.23.28-.48.56-1l.86,1.41m13.24,24.68a9,9,0,0,1,1.08-1.24c1.43-1,1-1.76-.38-2.25s-2.56-.73-3.83-1.11a2.64,2.64,0,0,0-3.46,1.65A1.56,1.56,0,0,0,59,172.59c.47.11,1.09-.38,1.4-.5L59.6,170a5.84,5.84,0,0,1,1.81-.62,2.21,2.21,0,0,1,2.5,2.06,17.27,17.27,0,0,0,.51,1.95m-3.65-20.53c-.94-4.25-4.18-3.2-6.82-3.62l1.69-.6a6.84,6.84,0,0,0-1.49-1.11,5,5,0,0,0-1.59-.05c.1.52.18,1,.31,1.56a9,9,0,0,0,.45,1.42,6.26,6.26,0,0,0,.59.9l.32-1,6.55,2.52m36.18,16.81c-1,4.54-1.94,4.55,4.05,5,1.78.15,2-.87,2-2.12,0-.27-.33-.55-.51-.82a4.38,4.38,0,0,0-.66.54,16.2,16.2,0,0,1-1.41,1.75c-.21.18-.76,0-1.16,0a5.37,5.37,0,0,0,.26-1.06c0-.47.14-1.13-.12-1.39a24.56,24.56,0,0,0-2.49-1.92m32.87-54.35,2,2.1c.47.52.86,1.22,1.44,1.5.3.14,1-.39,1.43-.74.71-.58,1.35-1.25,2.29-2.13a7,7,0,0,1-1.29-.38,2.67,2.67,0,0,1-1.22-.89,3.86,3.86,0,0,1,0-1.57l-.37,0-1.06,2.4-3.12-.23M98.6,195.16c0-.22-.07-.43-.11-.65a24.57,24.57,0,0,0-4.81.62c-2.23.74-2.23.89-2.68-1.28-1.12,1.11-.8,1.9.53,2.4s2.94,1.1,4.45,1.54a1.39,1.39,0,0,0,1.13-.46,24.16,24.16,0,0,0,1.49-2.18M77.74,131.59,80,130.42l.81,2.59,4.47-3.81c-1.37-.14-2.59.32-3.76.21A14.49,14.49,0,0,1,78,128.05c-.07.44-.19,1-.23,1.65s0,1.24,0,1.89m51.9,20c3.15-.23,4.18-1.62,3.7-4.21-.79-.29-1.68-.38-1.76-.69a9.27,9.27,0,0,1,.15-2.65c-2.43,2.32-.89,5.23-2.1,7.55M70,174.72a4.85,4.85,0,0,0,1.44.84,11.13,11.13,0,0,0,2.77.13,8.82,8.82,0,0,0,1.62-.53c.57-.15,1.17-.24,1.42-.29-.92-.32-2.44-.46-2.58-1-.46-1.74-1.87-1.61-2.84-1.49A1.93,1.93,0,0,0,70,174.72m38.31,31.79.21-.46c-3-.27-6.05-.6-6.09-4.71l-2.31.74,6.42,8c-.31-.67-.77-1.6-1.16-2.56a2.91,2.91,0,0,1,0-1,8.68,8.68,0,0,1,1,.39,3,3,0,0,1,.56.49l1.37-.89m.21-111-.49.1c.15,1.64.31,3.28.45,4.93l2.43-.79c.27-1.2.53-2.37.87-3.89l1.71,1.79,1.36-2.18a4.43,4.43,0,0,0-4.33,2.24l-2-2.2M107,109.93h-.6a5.45,5.45,0,0,0-.26,1.48c.2,1.84.5,3.66.74,5.49.11.86,2,2.33,2.78,2.07l-2.67-9m56,24.73,1.09-.74c.3.85.59,1.57.81,2.3s.35,1.41.55,2.28c2.24-2.1,2.16-2.8-.23-6-.65-.87-1.25-1.6-2.23-.69Zm3.33,44.45,2.61,1.17c.11,0,.7.12,1.3.19s1.06.12,1.6.18l.2-.57a52.49,52.49,0,0,0-3.86-3.77c-.21-.18-1.46.46-1.79,1s-.07,1.39-.07,1.8m8.07,16.31c3.41-2.34,3.64-3.18,1.55-5.4-3.68,2.44-3.68,2.44-1.55,5.4M122.94,148.9l2.28,5.47.55,0c-.67-1.68,3.45-.4,1.5-2.83-1.08-1.33-1.69-3.51-4.32-2.6M69,105.05a10.61,10.61,0,0,1-1.8.48,3.17,3.17,0,0,0-3,3.33,15.48,15.48,0,0,0,.61,2.07l1.18-1.12c-1.19-2.66-1.09-2.75,2.83-2.83l.89-2.36-4.35-2.09-.26.57,3.93,2M94.15,136.9c-.86-2.45,2-5-.54-6.92l-3,1.58c2.82,1.07,1.5,3.39,1.9,5.21l1.67.14m84.13,48.23.6.33c1.45-1.46,4.49-.72,5-4.21-1.74.23-3.4.12-4.68.77-.65.34-.62,2-.89,3.11m-13-89.19.48-.33c.9.54,1.77,1.12,2.7,1.61a10.2,10.2,0,0,0,1.53.52,4.48,4.48,0,0,0,0-1.54,6.07,6.07,0,0,0-1.06-1.91,14.66,14.66,0,0,0-1.76-1.57c-.58.71-1.19,1.4-1.71,2.16a2.86,2.86,0,0,0-.2,1.06M127,115.84c-1.57,1.47.15,5.07-3.57,5.27l.48,1.51c1.53-2,2.83,1,4,.35-.32-2.47-.62-4.83-.91-7.13M202,117a8.09,8.09,0,0,1-1.29,1.37,15.13,15.13,0,0,1-2.75,1.34c-.28.1-.76-.34-1.14-.54a7.56,7.56,0,0,1,.93-.86,17.42,17.42,0,0,0,1.93-1.2c.26-.22.19-.81.27-1.23a3.76,3.76,0,0,0-1.3.11c-2.48,1.18-2.84,2.24-1.83,5,2.21-.37,5.07-2.38,5.19-4M138.7,143.63c-.07.7-.14,1.4-.22,2.2l-2.14-.83,1.46,4.49c3.15-2.28,3.15-2.28.89-5.86m35.78-12.47-.54.34c1.84,2.34-.54,4-.94,5.93,2.79,1.38,0,2.12-.37,3.2l1.66.31c.22-2.46-.53-5.17,2.67-6.39l-2.48-3.39m28.36,39.26c-1.64,0-3-.05-4.44,0-.41,0-1.14.47-1.12.67a20.84,20.84,0,0,0,.56,2.81,13.92,13.92,0,0,0,1.5-.65c1-.59,2-1.21,3-1.87.22-.15.27-.55.48-1M49.26,162.89a4,4,0,0,0-.71,4.46,6.55,6.55,0,0,0,1.35,1.87c.12.13,1-.15,1-.29a6.12,6.12,0,0,0-.08-2.36,38.14,38.14,0,0,0-1.57-3.68M158,211.15l.28.36c1.31-.24,2.81-.17,3.9-.81s2.33-1.81.57-3.76L158,211.15M76.81,188.58H73.3a11.35,11.35,0,0,1,0,2.55,7.79,7.79,0,0,1-1.09,1.94h2.26c.08,0,.16-.09.25-.14-.39-2.12-.15-2.75,1.39-3.35.2.68.39,1.34.59,2l.46-.11-.31-2.89M61.16,215c2.6-.5,3.66-1.9,3.54-4.58-3.1.72-4.48,2.45-3.54,4.58m8.23-34.84c1.54-.62,3.91.34,3.62-2.89-1.51.6-3.37.81-4.27,1.85-.68.79-.14,2.63-.14,4.28l1.82-2.1-1-1.14m69.43,26.26-.31-.23-1.75.74-.33-1.48M87.28,169.83c-.43,0-.63-.11-.74,0-.57.39-1.12.81-1.68,1.22a5.61,5.61,0,0,0,1.43.73,13.84,13.84,0,0,0,2.63.19,2,2,0,0,0,1.31-.37,1.27,1.27,0,0,0,.13-1.23,2.15,2.15,0,0,0-1.37-.79,5.77,5.77,0,0,0-1.71.28m2.43-53.3,2,2.52,2.12,2.64,1-1.82,1.63.63L95.44,119c-1.4.48-1.32.42-2.24-.7-.73-.9-1.23-2.29-3.49-1.76m37,18.15a10.66,10.66,0,0,0-.29,2.71c.07.51.86,1.36,1.2,1.31.8-.13,2-.55,2.2-1.16.47-1.18-1.59-3-3.11-2.85M138,159.38l.1.57,4.16,1.78.76-4.36a22.22,22.22,0,0,1-2,1c-1,.38-2,.67-3,1M79.7,155a11.92,11.92,0,0,0-2.38,1.78,2.65,2.65,0,0,0-.16,1.93c.06.3.71.47,1.08.69.13-.9.25-1.74.37-2.57l.63,0c.15,1.06.3,2.13.41,3l1.49-3.6L79.7,155m91.87,34.4,1.81.82c1.37-.88,2.18-2.05,1.63-3.64-.14-.4-1.57-.79-1.62-.71-.69,1.12-1.23,2.32-1.82,3.52M141.2,203.92c2.05-1.55,2.34-3.48,2.25-5.68l2,.66.41-.58-2.59-2.09c-.4,1.27-.79,2.4-1.11,3.56s-.6,2.47-1,4.13m63.52-20.09c1,3.19,2.3,3.1,5.24,0-2.1-2.85-2.1-2.85-2.8-2.25a11.45,11.45,0,0,1,1.2,1.62,4.27,4.27,0,0,1,.2,1.39,4.58,4.58,0,0,1-1.43.14,19.86,19.86,0,0,1-2.41-.88M94.12,110.46c1.46-3,1.46-3-1.8-5.64l-1.6,2.08a3.66,3.66,0,0,1,3.4,3.56m95.34,15.9,1.39-.85a11.52,11.52,0,0,1,2.35-1.45c1.56-.51,2.14-1.34,1.77-3-2.66.55-4.18,2.42-5.5,5.3M39.06,173.16c-.14,1.74,1.18,2.7,3.59,2.22.24-1,.26-2.21,1.93-1.31.47.25,1.31-.19,2-.31,0-.2-.06-.4-.09-.6Zm52.65-8.09,1.88,1.1.4-.42a9.57,9.57,0,0,0-2.13-2.15c-.28-.15-1.62.81-1.8,1.45-.43,1.55.62,2.55,1.91,3.33a7.53,7.53,0,0,0,.18-1.43,13.31,13.31,0,0,0-.45-1.89M152,161.31c.82-1.68.82-1.68-2.3-3.55-.7,1.16-2.11,2.17-1,3.25l3.32.3m-46.24,21.78a10.56,10.56,0,0,0-2.58,1.93,5.63,5.63,0,0,0-.66,2.84c0,.24.76.54,1.17.81a9.6,9.6,0,0,0,1-1.74c.41-1.19.67-2.43,1-3.84m90.36-51.79c-.35,0-1.07.06-1.79.13a15.38,15.38,0,0,0-2.17.27,1.68,1.68,0,0,0-.87.7c-.07.1.22.63.43.68a1.62,1.62,0,0,0,1-.15,3.37,3.37,0,0,0,.74-.51c1.19.73,2,1.27,2.82,1.72.18.1.72,0,.74-.14a1.67,1.67,0,0,0-.11-.93c-.21-.53-.48-1-.83-1.76m-40.14-11c2.36-2.21,3-3.84,2.4-5.9a5.39,5.39,0,0,0-1-1.39l-.47.26c.12,1.67.24,3.35.37,5.12l-1.3-.67Zm.89,9.36.88,0a28.55,28.55,0,0,1,0-3.08,24.31,24.31,0,0,1,.64-2.78c.09-.38.16-.77.24-1.16a8.67,8.67,0,0,0-1.86.07c-.21,0-.5.82-.38,1,1.16,1.45.75,2.9.23,4.43-.15.45.14,1.06.24,1.6m-98.5,28.54c.57,2,1,3.6,1.55,5.2.12.33.94.79,1.07.7.41-.31.94-.9.87-1.28a5.17,5.17,0,0,0-1.06-2c-.62-.8-1.38-1.5-2.43-2.62m134.77,9.05,0,.61c2.05,1.46,5.85,1.57,7.2-.15l-7.16-.45m-60.69,9.38c1,0,1.8,0,2.6,0s1.34-.15,2-.22a6,6,0,0,0-1-1.52c-.41-.35-1.28-.74-1.54-.55-.85.6-2.2,1-2.12,2.3M49.2,135.28l-.62.22c.46,1.06.86,2.16,1.39,3.18.23.43.9.65,1.09,1.08.62,1.43,1.12,1.58,2.58.3-.82-.74-1.69-1.41-2.42-2.2s-1.35-1.72-2-2.59m33.11-14.05c-1.46,1.21-1.18,3,.48,4.78l2.12-1.32c-.75-.95-1.41-1.74-2-2.56a9.55,9.55,0,0,1-.56-.9m47.37,38.31c.21.87.39,1.73.63,2.58.08.29.27.74.48.79.84.17,1.71.21,2.57.29-.33-2.71-1-3.31-3.68-3.66M184,153.09c1.29.61,2.42,1.51,3.76.17.19-.19.87.11,1.32.19a8.46,8.46,0,0,0,1.27.25,1.47,1.47,0,0,0,.22-.74,2.94,2.94,0,0,0-1.21-.5c-1.58-.19-3.18-.3-4.95-.46l-.41,1.1m-66.16-.26a7.22,7.22,0,0,1,.89-1.33c1,.37,2,.86,2.77,1.23-.29-1,.11-3.15-2.4-2.91-.83.08-1.58.92-2.36,1.42l1.1,1.59m-53.09-39-1.06-.24-1.57,3.08,3,.72-.34-3.57m40.5-6.37-3.2-4.48-1.45,3.86.38.27c1.16-1.31,2.18-1,3.22.08.25.25.78.21,1.06.28m-31.1-4.34.53-.41c-1.3-1.7-2.59-3.4-3.93-5.07-.14-.17-.56-.11-.89-.17,0,3.14,2.87,3.8,4.29,5.65m64.61-9.39c1.61-1.91,3-3.52,4.31-5.14.06-.07-.05-.29-.14-.67-.51.45-.91.82-1.34,1.16a6.21,6.21,0,0,1-1.83,1.34c-1.62.46-1.72,1.38-1,3.32M57.44,205.1c-1.57,1-1.68,5.19,0,6.73V205.1m58.87-49.61.19-.29c-.45-.84-.88-1.7-1.35-2.53a6.56,6.56,0,0,0-1-1.56c-.12-.12-1.09.29-1.08.42,0,.72,0,1.65.47,2.1a15.31,15.31,0,0,0,2.79,1.85m-37,42.07c-.09-1.5-.17-2.86-.25-4.21l-.57-.35-1.36,2.46-.3-1.65c-.9,1.68.43,3.54,2.49,3.75m1-58.23A12.9,12.9,0,0,0,77.94,142c-.22.45.62,1.36,1.64.79,1.24-.69,2.53-1.33.7-3.47m129.78,59.24c.79-.8-2.3-3.35,1.42-2.55a7.07,7.07,0,0,1-.27-1.12c-.09-1.24-1-1.43-1.74-1a2.27,2.27,0,0,0-1,1.88,11.61,11.61,0,0,0,1.58,2.79m-64.36-25.85-.46.2a28.93,28.93,0,0,0,.07,4.47c.12.75.93,1.39,1.43,2.08l.4-.33-1.44-6.42m-40.08-13.59,2.46-2.58a7.86,7.86,0,0,0-2.44-.79c-.42,0-1,.87-1.17,1.43-.09.38.51.91,1.15,1.94M101.33,96.3l-1.76,2,.61-.11a20.16,20.16,0,0,0,1.43,1.91,5.55,5.55,0,0,0,1.28.78c0-.52.29-1.1.11-1.53a31.75,31.75,0,0,0-1.68-3.08m34.79,10.17,3.38-.65L136.81,102l-.7,4.51m2.71,15.7-.73-.12-1.63,3.52.38.45c.82-.17,2.3-.26,2.33-.51a14.27,14.27,0,0,0-.34-3.34m-2.2,65.91a15.4,15.4,0,0,1,3.23-1.26,4.68,4.68,0,0,1,2.14.64c.24.1.36.48.57.69a1.43,1.43,0,0,0,.44-.3,3.29,3.29,0,0,0-.57-1c-.5-.49-1.08-.9-1.7-1.39-.86.58-1.87,1.38-2.8-.59l-1.3,3.21m19.61-76.26c2.46.63,3.46-.64,3-3.91l-3,3.91M73,120.91c0,.24,0,.48-.07.71,1.48.12,2.66.47,2.46,2.32,0,.38.54.83.83,1.24a7.31,7.31,0,0,0,1.3-1.34c.09-.16-.38-.78-.71-1a17.84,17.84,0,0,0-2.43-1.69,4,4,0,0,0-1.39-.22M58.74,183.15c-1-.05-1.89-.15-2.74-.12a23.25,23.25,0,0,0-2.34.33c1.51,3,3.48.3,5.08,1.09Zm78.48-92.46A26.81,26.81,0,0,0,139,87.83c.08-.15-.6-1-.92-1a8.19,8.19,0,0,0-2,.47l1.12,3.36m32.15,58.57.3-.57c-.89-.68-.38-2.83-2.43-2.24-.9.26-2.14.48-1.87,1.75a12.89,12.89,0,0,1,2.07.23,14.15,14.15,0,0,1,1.92.84M56.91,165.71,51,161.31a5.23,5.23,0,0,0,1.23,1.87c1,1,2,2,3,2.93.19.16.79-.17,1.68-.4M96,201.78c-1.72,1.33-.89,3.88,1.52,4.54l-2.71-3.48c1.91-.09,2.28,1.85,3.43,2.5l.43-.41L96,201.78m36.79-67.55c1.06-2.11.9-2.51-1.27-2.91l-1.35,2.76,2.62.15m71.39,23.34c-1.16-1.51-1.92-.18-2.74.13-.45.17-.93.68-1.3.59-1.59-.36-2-.15-2.11,1.7l6.15-2.42M68.69,124.15l-1.89.14v-2.06c-1.6,3.13-1.55,3.72.17,4.93l1.73-3m31.69-.81c.15.72.24,1.16.26,1.24l3.61,1.43c0-.73.15-1.83,0-1.89a31.55,31.55,0,0,0-3.85-.78m30.89,18.59a22,22,0,0,0,2.42,1.17,1.18,1.18,0,0,0,1.06-.31c.15-.19,0-.75-.18-1-1.33-2.14-1.35-2.13-2.95-.25l-.35.44M109.7,154.47l.55-.34c-.35-.44-.66-1.2-1.06-1.25-1.49-.2-3.14-.43-3.79,2.32l3.74-1.46.56.74M120,200.85c-.35-.37-.74-1.16-1.29-1.3a8.74,8.74,0,0,0-2.75.3l1.93,2.49,2.11-1.48M60.24,125.1l-1.73-.32c0-.15.06-.44.06-.45l-2.63.66c-.15,1.82.88,2,4.31.11m108.11,44.11c-.45,1.13-.54,2.34-1.14,2.67-1.67,1-.72,2.09-.7,3.25,1.21-.39,2.34-3.89,1.83-5.92m25.81,4c.65-1.06,1.28-1.82,1.16-2a5.41,5.41,0,0,0-1.85-1.38c-.15-.07-1.05.85-1,1.06a12.11,12.11,0,0,0,1.66,2.27M195.6,186a15.19,15.19,0,0,0-2.07-.44,5.52,5.52,0,0,0-2,.19,1.18,1.18,0,0,0-.4,1.06c.55.92,3.93.39,4.49-.81m-35-83.65c.79-1,1.36-1.77,1.84-2.55,0,0-.89-.85-1-.75a19,19,0,0,0-2.18,1.7l1.37,1.6M60.48,144.71,56,142.29l-.42.5L59.25,146l1.22-1.3m28.43,55c-.57-2.79,1.7-.31,2.09-1.3-1.39-2.08-3-1.52-4.7-.59.4.28.83.56,1.24.86l1.38,1M60.83,210.59c1.66-1,1.19-3.35-.6-5.17-1.49,2,1.15,3.17.6,5.17m82.1-32.6-1.18-2.15-2.68,1.59.3.56ZM69.62,195.65c-.1-.76-.11-2.51-.35-2.54-1.61-.21-2.33,1-2.84,2.08l3.19.45m-4.79-98-1.79,3,2.86,1.39c-.44-1.79-.77-3.19-1.07-4.43m44.93,105.58-4.23-1.72c.9,3,2,3.37,4.23,1.72m-25.8.06.72.07v-3l2.75,1.51a29.63,29.63,0,0,0-2.12-2.62c-.15-.15-1,.11-1.07.26-.16,1.24-.2,2.5-.28,3.75m17.59-19.45c-.26-.1-.4-.17-.55-.21a14.16,14.16,0,0,0-2-.45,4.2,4.2,0,0,0-1.23.29c.16.46.18,1.06.49,1.34.87.79,2.6.27,3.26-1m43.11-22.51c-1,1.13-3.46,1.84-1.36,3.95,2.77-.49.52-2.77,1.36-3.95m43.07-38.44L186.18,120l-1.85,3.52,3.39-.65M79.34,146.07l-.32.24c.89.76,1.75,1.56,2.67,2.28a3.18,3.18,0,0,0,1.23.48c.09,0,.43-.42.38-.52-.22-.49-.44-1.15-.85-1.35a24.63,24.63,0,0,0-3.1-1.13m59.56,22.51,1-3.64c-1.12.88-2,1.53-2.81,2.25a1.17,1.17,0,0,0-.29.94c0,.19.45.38.72.44a8.19,8.19,0,0,0,1.34,0M85.29,147.17c0,.18-.07.36-.1.54l2.56,2.73.26-.23-.61-1.48,2.09-.26,0-.3-4.25-1M78.92,172.6l1-2.87-.41-.45L76.74,171l2.18,1.59m98.62,12c-.18-.94-.33-1.71-.57-3l-2.91,2.07.26.43,3.21.48m-56.08,1.89c-2.75,1.2-1.89,3.42-2.43,5.05l.56.23,1.87-5.28M63.14,156.22c.87-1,1.23-1.83,1.81-2.05a5.62,5.62,0,0,1,2.22.11,3.76,3.76,0,0,0-2.29-1c-.65,0-1.62.12-1.88.54s0,1.34.15,2.4m-4.58,10.53-.43-.63c-.67.4-1.72.67-1.9,1.23-.25.74.18,1.7.33,2.57H57l1.51-3.16m94.9-38.92c-2.51,1.61-2.83,2.17-2,3.27,2.76-2.49,3-3.45,1.27-5.07l.72,1.79m-2.38-6.63.75,0v-5.37l-.59-.09a13.43,13.43,0,0,0-.36,2.14c0,.61.28,1.23.34,1.84a7.85,7.85,0,0,1-.14,1.46M179,180.85l5.82-.41c-2.28-1.39-3.46-1.26-5.82.41M70.42,164.1c0,.27,0,.53,0,.79l4.37-.45c-1.88-2.61-3.09-.36-4.42-.33m17.83,1.59,2.4-4c-.18-.11-.71-.65-1.16-.6s-.81.78-.9,1.27c-.22,1.21-.27,2.46-.35,3.29m19.45-24.25c.2,1.22.8,2.06,1.95,1.55.68-.3,1.07-1.25,1.88-2.26l-3.83.72m6.47.78.21-1.73.45-.08.62,1.43c.92-2.48-1.52-2.12-2.78-3.1l-.75,2.65.16.06,1.11-1.79,1,2.56m56.57,54.2c-.07,1.11-.13,2-.2,3,2-.94,1.75-2.56,1.92-4.24l-1.72,1.28m33-2.22,2.5,4.05.47-.24-1.2-4-1.77.2m-88-2.79-3.1,2.21.18.37,4.25-.88-1.33-1.69m19.89-92.52,2.4.65,1-2.26c-2-1.21-2.21.76-3.4,1.61M54,175.49c-.09-.64-.22-1.69-.31-2.28l-2.47-1.28c-.37.3,0,1.64.73,2.06s1.46,1.06,2,1.5m11.27,18,.4-.14a20.46,20.46,0,0,0-1.11-2.82c-.15-.26-.89-.18-1.36-.26,0,.44-.18,1,0,1.31a19.56,19.56,0,0,0,2,1.91M127.3,92.73l1.09.14c.11-1.73.22-3.46.34-5.19l-.66-.09-.77,5.14m30.37,111,.66.4,3.35-5.49-.57-.34-3.43,5.43m29.13-64.88.52.34c.49-.45,1.41-.92,1.38-1.33a8.3,8.3,0,0,0-1-2.45l-.56.18-.35,3.27m-81.57-33.95c1.3-1.47,1.46-4.67.4-5.52-.14,1.92-.27,3.72-.4,5.52m38.94,88.7-.22.63,2.82-.26-2.18-3.13-.42,2.77m-80-30.58a14.06,14.06,0,0,0,0-2.24,10.67,10.67,0,0,0-.68-1.9l-.55.24c.09,1.51-1.17,3.54,1.26,3.91m45.51-60.18c.13,1.64.26,3.28.39,4.92.17-1.66,2.07-3.35-.39-4.92m78.69,81.61.49-.39c-.47-.65-.81-1.53-1.45-1.89s-1.45-.07-2.2-.07c0,.17,0,.35,0,.52l3.17,1.83M64.29,135.09l-3.81.64c.78.65,1.12,1.18,1.48,1.18,1,0,2.15,0,2.34-1.82m66.24,30.57-.21.38,2.32,1.82L134,166.1l-3.44-.43m-78.18-4.89,1.56-1.88h-4.3l2.74,1.88M72,149.18c.17-1.59-.14-1.87-3-2.6l1.31,2.51,1.66.09m108.44-10.87c-1.1,1-1,1.9-.24,2.7.18.18,1.13-.06,1.38-.38,1.35-1.71-1.17-1.23-1.14-2.32m-76.9-3.61-.2.06,1.7,5.81h.5c.14-.42.5-.94.37-1.24-.72-1.58-1.57-3.1-2.37-4.64M57.25,106.2c.8.38,1.42.89,1.65.75a22.72,22.72,0,0,0,2.51-2l-.35-.52-3.82,1.73M53.68,218.08l.43-.31.13-2.79-.64-.29a6.25,6.25,0,0,0-1.2,2c-.06.38.82.9,1.28,1.36m134.89-89.52.65-.27c-.07-.52,0-1.32-.23-1.5a8.45,8.45,0,0,0-2.18-.71l-.4.8,2.16,1.68m-29.3,34.85-.41.86,3,1.66.85-1.25-3.41-1.27m-32.84-62.7L123,99.93v1.15l2.46.87,1-1.24M138,193.17l.37-.39-1.74-2.18-.93,2.46,2.31.11m10.22-67.3.62,4.52,1.24-3.26-1.86-1.26M67.52,210.22l2.22,2.4-.83-4.48a9.39,9.39,0,0,0-.72.86c-.24.4-.45.81-.67,1.21m19.6-77.84c.2,1.84,1.13,2.26,2.68,1.28-.2-1.72-1.4-1.45-2.68-1.28M91.89,97.7c-1,2.41-1,2.67.07,3.62l1.19-2.06L91.89,97.7m26.84,63.77a18.55,18.55,0,0,0-1.27-1.43c-.23-.21-.67-.44-.9-.36a1,1,0,0,0-.53.83c.14,2.29,1.73.76,2.7,1m-.38-34.37c-1.93.6-2.26,1.25-1.53,2.39l1.9-.54-.37-1.85m19.25,69.44,2,1.68c-.23.67-.43,1.24-.63,1.8l.26.12,2-2.62-3.61-1M66.64,116.42c0-.82-.07-1.47-.09-2.12l-.61,0a7.9,7.9,0,0,0,.41,2.33c.3.59,1,1,1.89,1.72v-2.13l-1.6.16M192.53,131c.92-.53,2.51.21,2.29-1.62l-2.29-.82ZM89.41,115.91l-1-2.73a6.93,6.93,0,0,0-.69,1.49c-.19.94,0,1.68,1.73,1.24m-31.26,46c-.56-3.84-.75-4-2.51-2.85l2.51,2.85m-13.06,1.24,2.34,1.08,1.37-2.77-3.71,1.7m21.12-21.84,1.21,2.79.48.1.8-2.08-2.49-.81m-.33,18.16,1.36-1.79L65,156.26l-.45.33,1.36,2.83m118.78,31.74,2.11.68v-3.2l-2.11,2.52m-53.6-15.93c-1.54,2.37-1.43,2.74.67,3.09-.23-1.08-.45-2.09-.67-3.09m17-29.84c1.65.82,2.62.42,2.48-1.66l-2.48,1.66M45.86,175.31l-.18.92,3.79.7.11-.6-3.72-1m144.78-58-.49,1.35,4.84-.25-4.35-1.11m-46.12-10.19-.18-.21c-.63,1.15-1.26,2.3-1.87,3.46a3,3,0,0,0-.31.94c0,.07.42.32.46.28a2.51,2.51,0,0,0,.79-.89c.42-1.18.75-2.39,1.11-3.58m26.28-2.59.73-.21c.06-.58.36-1.31.12-1.7s-1-.4-1.58-.58l-.44.44,1.17,2m43,47.36-.34-.59-4.11,2.41.31.54,4.14-2.37m-29.71-11.73c.71-1.63,1.91-3.29.6-5.51l-.6,5.51M150.18,93.62l-.5-.49c-.51.45-1.21.81-1.44,1.36-.16.36.36,1,.58,1.54l.5-.16.87-2.25M67.62,219l-2.06-1.94-.83,2.21,2.89-.26M73,84.61l.73-.11-.44-3.67-.89.13.6,3.65M69.86,189.82l.29.66,2.17-.21-1.08-1.53-1.39,1.09m75.48-74.64,1.59-2.69c-1.61-.27-2,.27-1.59,2.69m-93,18.39-2.41-1.32a5.57,5.57,0,0,0,.18,1.35c.41,1,1.05,1.2,2.23,0M207.7,187.65l1.64,1.92c.32-1.27.53-2.12.81-3.2-.56.24-.85.34-1.11.48s-.7.42-1.34.81m-99.8-5.13c.86,2.23,1.75,2.78,2.83,2l-2.83-2m23.19-56.3.45.27,2.3-1.35-.81-1.06-1.94,2.14m-77.18-21,.3-.5-3.44-2.56-.46.67,3.59,2.39M69,129.11l-.17.47c.44.3,1,1,1.28.85.58-.21,1-.83,1.51-1.28l-.32-.46-2.3.42m27,17.83a8,8,0,0,0,2.08.24,9.43,9.43,0,0,0,2.13-.88l-3.7-.22-.5.86m26.47-28.12L124,115l-2.42,2,.84,1.8m22.13,48.52c2.63-1.13,2.95-1.74,1.66-3l-1.66,3M116,157l-.22.69,4.28,1.58.17-.52L116,157m81.42-9.23-.27.64,4.36,2,.26-.57-4.34-2.06M117.23,121l-.42-.56-1.72.82.75,1.41,1.39-1.67m-21.4,58a5.48,5.48,0,0,0,1.77-.31,1.15,1.15,0,0,0,.18-1.1,5,5,0,0,0-1.48-.64l-.46,2M127,170.76l-1.43-2.28-1,2.83,2.45-.55M82,108.06l-.65-.85c-.57.48-1.16.94-1.69,1.46a4.46,4.46,0,0,0,.51.76L82,108.06M63.3,143.76l-4.5-1.36c1.76,1.74,3.85,2.21,4.5,1.36M108,146.88l-.24.25c.87.27,1.73.57,2.62.77.14,0,.39-.45.6-.69-.35-.2-.68-.56-1-.57a10.9,10.9,0,0,0-1.94.25m-14.9,39.29.4.25c.19-.35.53-.7.54-1.06s-.31-1-.49-1a18.81,18.81,0,0,0-2.44.32c2.58.4,2.58.4,2,1.47m8.7-31.87-.52-.7-2,1.24c.36.2.81.64,1,.54a6.69,6.69,0,0,0,1.44-1.08M55.35,204.35l.65.49,2.12-2.64-.46-.37-2.3,2.52m89-87.16,3,2.73a10.91,10.91,0,0,1-1-2.17c-.21-1.15-.75-1.2-2-.56m45.78,54c-2.14-.15-1.08,1.61-1.74,2.26l.64.59,1.1-2.85m-64.69-36.84-.46-.08-1,2.21,1.63.35c-.05-.95-.09-1.71-.14-2.48m1.21-3.32c.26-1.15.48-2.11.71-3.12-1.72.29-1.95,1.16-.71,3.12m1.15,43.07-.86.12c-.68,1.1.73,1.86.7,2.86l.55-.07q-.2-1.45-.39-2.9m37.36-55.7c-.16,1.22-.27,2.08-.4,3.08,1.71-.73,1.76-1.07.4-3.08m-40-22.32-.33-.39c-.53,1.09-2.62.31-2.41,2.69l2.74-2.3m50.41,28.1c.64-.81,1.29-1.28,1.27-1.71s-.65-1-1.27-1.76ZM56,195.71l-.07-.89a9.29,9.29,0,0,0-1.83.22c-.17.05-.16.67-.23,1l2.13-.36m83.27,7.1.82.25,1-2.64-.66-.26-1.16,2.65m-59-1.38-.5,3.39c1.54-.52,1.6-.93.5-3.39M95.93,135l-.82.52,1.38,2c.2-.14.58-.37.56-.41-.35-.71-.74-1.4-1.12-2.09M58.72,175.48c.78,1.74,1.95,1.47,3,1.22.36-.09.58-.76.86-1.16-2,1.26-2,1.26-3.82-.06m36.1-12.14c.39,2.05.39,2.05,2.66,1.75l-2.66-1.75M57.94,216.49l-2.07-1.4c.07,1,.12,1.6.19,2.46l1.88-1.07m126.93-72.14.35.33,1.64-1.89h-2Zm-3,22.15-2.5.8c0,.2.06.41.09.61a8.93,8.93,0,0,0,1.85,0c.18,0,.26-.63.57-1.46M125.1,141l.86,2.47a3.2,3.2,0,0,0,.73-2,7.62,7.62,0,0,0-1.59-.43m25.57,28.3c0,.17.1.34.15.5l1.75.55c-.1-.75-.18-1.26-.25-1.78l-1.65.73M103.15,133l.76.55a5.67,5.67,0,0,0,.82-1.3c.06-.17-.43-.52-.67-.79l-.91,1.54m52,42.34c-.4-.09-1-.45-1.31-.27a6.42,6.42,0,0,0-1.24,1.54l.32.19,2.23-1.46m-49.85-53.4.71.12.68-3.5-.45-.12-.94,3.5m48.2-23,.13-.41-1.79-.68c-.13.52-.25,1-.42,1.74l2.08-.65M174.82,146,173,148.24c2.63-.71,2.82-.95,1.77-2.27m3.24-34.25-.65-.31-1.29,2.6.66.32,1.28-2.6m-5.93,44.14-.17.86,2.14.39c0-.27.08-.76,0-.78-.64-.21-1.31-.33-2-.48M93.51,112.73h-.79c.1.9.2,1.79.3,2.69l.49,0ZM90,185.26l-.31-.78-2,.75.32.8,2-.78m2.52-33c.21-.69.53-1.26.4-1.39a10.42,10.42,0,0,0-1.63-1.17l-.27.39,1.5,2.17m21.48,6.6.64-.32-1.3-2.53-.59.3,1.25,2.55m11.85-65.07c0-.22-.08-.43-.11-.64l-2.1.33c.08.31.17.63.25.94l2-.63m-14.46,62.59H111l-.37,2.9.73,0Zm80.17,1.39c-2.37-.52-2.4-.49-2.35,1.38l2.35-1.38m-45.31,37.57,1.15,1.1c.27-.92.49-1.66.86-2.93l-2,1.83m-44.74-19,.08-.68-3.76-.35-.05.42,3.73.62m-3.16,16,.2.34,4.14-2-.21-.4-4.13,2.05m28.94-82.93.78-.08-.44-2.53-.7.1c.12.84.24,1.68.36,2.52m-47.09,54.1-.29.6,2.75,1.77.28-.44-2.74-1.93m-1.72-59.39-.83.1c0,.51-.06,1-.08,1.54l1.24,0c-.11-.56-.22-1.12-.33-1.67m17.67,8.66.68,2.45c.22-1,1.12-2.08-.68-2.45M153,191.18l-.9.23.57,2.26.68-.12q-.19-1.19-.36-2.37m16.37-69.59.58.38,1.1-1.33-.94-.63-.75,1.57m-6.06,7.14-.72.2c.12.55.23,1.1.34,1.65l1-.28-.59-1.58m-46.74,59.72.53.54,2-2.23-.37-.38-2.11,2.07m-39.19-88c1.29-1.21,1.29-1.21-.37-2.9.12.91.24,1.82.38,2.9m56.55,77.59h-.77c0,.6-.06,1.2-.09,1.8l.94,0c0-.61-.06-1.21-.08-1.82m-6.14-35.9-1,2.53c1.46-.24,1.79-1.15,1-2.53m55.77-7.59-.75-.18c-.2.58-.42,1.15-.57,1.74a7.9,7.9,0,0,0,.76.29l.57-1.86M97,157l-.33.3c.38.43.69,1,1.17,1.25.3.14.85-.23,1.34-.38L97,157m52.32,29.28.79.19.61-1.89c-.34.07-.87,0-1,.23a5.65,5.65,0,0,0-.42,1.47m-23.83-78.82,1.49-2.55c-2,.28-1.91,1.25-1.49,2.55m31.31,82.31h.53c0-1-.09-2.06-.14-3.08h-.39Zm14.76-3.65L171,186c-.18,1.28-.37,2.56-.56,3.84l.25,0,.92-3.79m-28.22-34.49-.49-.58c-.52.38-1,.75-1.54,1.17,0,0,.3.44.47.67l1.55-1.27M56,194l.61-.62L54.81,192l-.49.54L56,194m65,7.45.52.2,1.17-1.7a7.93,7.93,0,0,0-1.33-.19,11.16,11.16,0,0,0-.35,1.69m37.71-39c1.53-.76,1.79-1.65.95-2.66l-.95,2.66M82.09,203.93l.8-.11q-.46-1.68-.91-3.35l-.17,0c.09,1.14.19,2.28.28,3.42m55.43-39.57c0-.14,0-.27,0-.4l-4.39.51c0,.12,0,.24,0,.37l4.4-.47M41.86,178.19l3-1.29c-.83-.6-1.32-.45-3,1.29M71.54,207.8c-.09-.89-.21-2.1-.32-3.16-1,1-1,1,.32,3.16m98.73-65.17c0-.23-.09-.45-.14-.68l-2.16.31.14.76,2.16-.39M86.67,206.68l.42-.66a8,8,0,0,0-1.25-.85c-.07,0-.42.56-.64.86l1.47.65m30.25-30.62,0,.54c.43,0,1,.26,1.26.07s.32-.88.59-1.79l-1.89,1.19m-26,35-.59,0a5.25,5.25,0,0,0-.28,1.47c0,.14.71.22,1.37.41l-.5-1.85m.28-33.43c0,.18.06.36.08.53l2.61-.36-.08-.56-2.62.38m-8-20.16-.49-.35-1.38,1.75.66.47,1.2-1.87m-21.31-34-.51.69,1.54,1.27.46-.55-1.49-1.42m13,34.48.88-.07-.22-1.52a4.44,4.44,0,0,0-.89.2,9,9,0,0,0,.22,1.39m91-59v1.94l1.88-.75-1.88-1.2M76.61,116.08l-2.29,1c.73.86,1.76.45,2.29-1m-15,37.75h-.52v2.12h.52ZM115.73,133l-.38.31,1.51,2.09.51-.4-1.64-2m48.65,15.57-.64-.21q-.3,1.1-.6,2.2l.71.18.54-2.17M162,117.92l-.38.18c.11.46.09,1.06.37,1.35s.83-.07,1.69-.2L162,117.92M70.74,155.1l-.07.38,1.62.32v-1.41l-1.55.71m35.72-12.76-.58.41,1.28,2,.56-.35-1.26-2.09m41.22-42,.47,0V98l-.64,0Zm-91.47,79,.41.41,2-2.18-.42-.37-2,2.14m21.37-67.79c.42.31.84.71.89.66a14.56,14.56,0,0,0,1.32-1.3l-.26-.29-2,.93m-18.24,28.4h.74c-.08-.71-.15-1.41-.23-2.12l-.51,0Zm17.1-12.64c-1.36-.41-1.83.06-1.81,1.55l1.81-1.55m-3-8.16-.29-.38-2.56,1.79.4.52,2.44-1.93M97.77,209.4c-.23.86-.44,1.49-.56,2.15,0,.09.37.25.59.39l.2-1.41a10.78,10.78,0,0,1,.79.91m2.51-2.51a2.26,2.26,0,0,0,.58,1.3m-4.36-8.77c-.29-.21-.61-.37-1.17-.72m62.78,18.18c2-2.34,3.82-4.91,5.77-7.49l-1.18-1c-2.07,2.88,1,3.87-2.94,5a21.5,21.5,0,0,1-8,.77c.51-1.16,3.6-1.6,4.1-2.75-.08-.07,3.24,1,3.15,1m-39.85-10.49a12.12,12.12,0,0,0-1.48,3.49c-.21.89-.92,1.75.19,2.79m4.21-5.44-.71-.23c-.35.76-1,1.53-1,2.28m6.76-5.48-.58-.09-1.15,1.87-.5-.13c.15-.9.3-1.8.45-2.7m9.06,5-1.29.1c2.3-4.22,2.3-4.22,1.69-4.35l-.84.72c-.14-.84,0-1.87-.44-2.33a4.39,4.39,0,0,1-1.44-3.8c0-.22-.22-.47-.45-1-.68,2.52-1.29,4.74-1.87,7-.3,1.16-.51,2.35-.83,3.51s-1,1.47-2.09.49l1.11,2.87.64-.08" transform="translate(0 0)"/></g></g></svg>