<?xml version="1.0" encoding="UTF-8"?>
<svg width="230px" height="232px" viewBox="0 0 230 232" version="1.1" xmlns="http://www.w3.org/2000/svg" xmlns:xlink="http://www.w3.org/1999/xlink">
    <!-- Generator: Sketch 52.6 (67491) - http://www.bohemiancoding.com/sketch -->
    <title>Group</title>
    <desc>Created with Sketch.</desc>
    <g id="Page-1" stroke="none" stroke-width="1" fill="none" fill-rule="evenodd">
        <g id="Group" transform="translate(-1.000000, 0.000000)" fill="#FFFFFF">
            <path d="M38,78.15 C36.2,78.84 34,79.1 32.69,80.32 C29.88,82.96 26.18,80.83 23.28,82.55 C22.74,82.87 21.65,82.27 20.81,82.09 L20.86,81.37 L25,80.8 L23.8,79 C25.64,80.54 27.59,81.44 30.03,80.72 L27.47,79.52 L27.62,78.91 C28.2100902,78.9042279 28.7993972,78.9544529 29.38,79.06 C31.8443266,79.7178017 34.4741566,79.2131985 36.52,77.69 L30.9,74.75 C27.6548244,75.9354333 24.1968405,76.4260242 20.75,76.19 C19.946747,76.0671939 19.2131805,75.6632008 18.68,75.05 L28.22,75.05 C28.22,74.89 28.22,74.72 28.22,74.56 L25.22,73.29 C27.22,71.21 28.97,73.62 30.44,73.38 C31.44,70.56 30.28,68.63 28.44,66.94 L28.7,66.68 C29.7807475,67.8328211 30.7547353,69.081266 31.61,70.41 C32.06,71.23 31.98,72.15 33.31,72.13 C34.8,72.13 36.16,71.99 36.86,70.43 C36.9842345,70.0718999 37.0779029,69.7039169 37.14,69.33 C38.14,70.73 37.74,72.4 36.31,72.85 L31.92,74.23 C33.86,75.23 35.31,75.85 36.67,76.65 C37.189709,77.0843905 37.6384416,77.5972278 38,78.17 L38,78.15 Z" id="Path"></path>
            <path d="M175.24,24.33 L173.66,23.27 L178.46,19.22 L179.09,20.59 C180.31,19.81 181.4,19.01 182.58,18.37 C183.337204,17.9107632 184.181845,17.6144575 185.06,17.5 C186.83,17.38 187.39,18.5 186.35,20.5 L185.83,18.5 C183.33,17.93 181.95,19.95 180.72,20.65 C180.48,22.55 180.3,23.94 180.09,25.56 C180.494726,25.3957688 180.908777,25.2555258 181.33,25.14 C182.26,24.92 183.2,24.76 184.14,24.57 C184.310341,25.6277108 184.353983,26.7019573 184.27,27.77 C184.14,28.44 183.37,29 182.89,29.61 L182.76,29.74 C181.82,30.11 180.94,30.31 180.6,28.6 C179.9,29.37 179.43,29.96 178.89,30.45 C178.583163,30.65072 178.245284,30.7993871 177.89,30.89 C177.769672,30.4952015 177.722232,30.0817932 177.75,29.67 C177.99,28.77 179.39,27.94 177.75,26.8 L179.62,26.8 C179.62,26.64 179.62,26.48 179.68,26.32 C179.3,26.25 178.88,26.03 178.56,26.14 C176.12,26.97 176.13,26.99 175.82,24.53 C177.49,25.05 178.82,24.95 178.9,22.24 L175.27,24.34 L175.24,24.33 Z" id="Path"></path>
            <path d="M53.49,7 L55.05,7.52 C56.14,6.68 56.92,5.65 57.89,5.42 C59.68,5.01 60.67,6.21 60.66,8.06 C60.66,8.91 61.22,9.79 61.12,10.6 C60.9313131,11.2814013 60.4358962,11.8359724 59.78,12.1 C58.5281533,12.40189 57.25404,12.6025377 55.97,12.7 L57.37,15.83 L56.97,16.32 C56.38,15.95 55.43,15.69 55.25,15.17 C54.43,12.81 53.81,10.38 53.16,7.96 C53.09,7.72 53.34,7.39 53.49,6.96" id="Path"></path>
            <path d="M195.3,65.64 C195.06,64.85 194.81,64.06 194.55,63.21 C196.21,62.13 199.08,61.98 199.97,63.37 C200.5,64.19 200.2,65.54 200.28,66.75 C201.448095,67.251864 202.583647,67.8263195 203.68,68.47 C204.77,69.17 204.59,70.29 203.49,70.64 C202.209512,70.9393415 200.888184,71.0238255 199.58,70.89 C199.34,70.89 199.13,70.15 198.9,69.75 C199.275788,69.5500062 199.686627,69.424378 200.11,69.38 C200.759769,69.5206659 201.393168,69.7284476 202,70 C201.49,68.5 201.49,68.49 199.9,68.75 C198.09,69.04 197.34,68.41 197.8,66.97 L195.51,65.97 L195.34,65.65" id="Path"></path>
            <path d="M182.41,133.82 C182.04,135.39 181.75,136.98 181.25,138.51 C181.005115,139.047454 180.504318,139.423993 179.92,139.51 C179.47,139.51 178.7,138.69 178.75,138.32 C179.08,136.09 179.57,133.88 180.1,131.68 C180.1,131.48 180.86,131.27 181.17,131.36 C181.58636,131.502912 181.926046,131.810074 182.11,132.21 C182.225397,132.718047 182.265826,133.240246 182.23,133.76 L182.42,133.81" id="Path"></path>
            <path d="M182.87,29.62 C183.644938,29.3378039 184.399981,29.0037139 185.13,28.62 C186.13,28.02 187.01,27.62 187.88,28.72 C188.044805,28.9132712 188.152193,29.1488324 188.19,29.4 C188.29,30.86 185.44,34.29 183.89,34.63 L182.74,29.75 L182.87,29.62" id="Path"></path>
            <path d="M27.08,124.41 C27.17,123.54 27.08,122.26 27.38,122.12 C28.4923308,121.72595 29.6716699,121.556016 30.85,121.62 C31.09,121.62 31.62,122.83 31.46,123.29 C31.113263,124.199356 30.5624592,125.017009 29.85,125.68 C29.289271,126.045295 28.6389046,126.2494 27.97,126.27 C27.42261,126.368838 26.8592874,126.331054 26.33,126.16 C26.0561165,125.904419 25.9252771,125.530593 25.98,125.16 C26.2986786,124.851336 26.6761567,124.609886 27.09,124.45" id="Path"></path>
            <path d="M203.91,97.28 C205.61,94.64 207.98,94.44 209.55,96.74 C209.919161,97.1367779 210.079726,97.6843391 209.983298,98.2176442 C209.88687,98.7509493 209.544729,99.2076156 209.06,99.45 C208.261384,99.7473544 207.375735,99.7039757 206.61,99.33 C205.639186,98.7599764 204.730877,98.089638 203.9,97.33" id="Path"></path>
            <path d="M210.78,114.28 C212.48,111.95 214.45,111.75 216.08,113.71 C216.93,114.71 217.14,115.71 215.99,116.71 C214.84,117.71 213.99,117.47 212.99,116.39 C212.278023,115.646771 211.523415,114.945586 210.73,114.29" id="Path"></path>
            <path d="M167.73,141.26 C167.38,139.91 167.01,138.58 166.73,137.26 C166.68,137.02 166.88,136.48 166.98,136.48 C167.35,136.48 167.98,136.48 168.05,136.74 C169.05,138.74 169.97,140.74 170.8,142.84 C170.897835,143.342794 170.684047,143.855144 170.25785,144.139275 C169.831654,144.423406 169.276489,144.423692 168.85,144.14 C168.151004,143.364271 167.509313,142.538763 166.93,141.67 L167.76,141.29" id="Path"></path>
            <path d="M189.34,134 C189.79,133.59 190.18,133 190.71,132.82 C191.815737,132.508197 192.95273,132.320375 194.1,132.26 C194.643822,132.168889 195.197214,132.355451 195.574875,132.757218 C195.952535,133.158984 196.104544,133.722847 195.98,134.26 C195.88,134.8 194.66,135.53 193.98,135.5 C192.489981,135.32322 191.017903,135.018767 189.58,134.59 L189.34,134.04" id="Path"></path>
            <path d="M197.17,47.08 C196.979546,47.2744885 196.756079,47.433624 196.51,47.55 C196.235082,47.6561688 195.925771,47.6226291 195.68,47.46 C195.513497,47.2174035 195.462285,46.9137899 195.54,46.63 C195.85,45.46 198.27,43.63 199.4,43.84 C199.954682,44.0855556 200.421894,44.4934941 200.74,45.01 C199.99,46.09 199.11,47.09 198.27,48.11 L197.17,47.11" id="Path"></path>
            <path d="M172,133.35 C171.92,133.51 171.8,134.24 171.43,134.41 C170.898138,134.552948 170.329992,134.43412 169.9,134.09 C169.543703,133.689742 169.395639,133.145608 169.5,132.62 C170.03,131 169.82,129.8 168.21,128.93 C167.88,128.75 167.9,127.93 167.76,127.41 C168.22,127.41 168.84,127.3 169.11,127.55 C170.832125,129.007337 171.880508,131.107717 172.01,133.36" id="Path"></path>
            <path d="M194.55,138.22 C196.62,138.13 198.91,140.93 198.21,143.16 C197.885087,143.531724 197.423099,143.755499 196.93,143.78 C196.13196,142.962746 195.458121,142.032847 194.93,141.02 C194.66692,140.113267 194.532276,139.174124 194.53,138.23" id="Path"></path>
            <path d="M190.41,128 C190.14,128.26 189.69,129 189.09,129.18 C187.99,129.48 186.97,127.72 186.99,125.56 C186.99,125.07 187.36,124.24 187.7,124.16 C188.8,123.9 190.37,125.96 190.41,128" id="Path"></path>
            <path d="M192.27,139.26 C193.077495,139.909202 193.773351,140.686128 194.33,141.56 C194.582024,142.452361 194.525651,143.403649 194.17,144.26 C193.84,145.19 193.06,145 192.43,144.39 C190.98,143 191.63,141.31 191.64,139.72 L192.27,139.26" id="Path"></path>
            <path d="M26.41,56.34 L30.63,59.54 L31.46,57.12 C31.7826737,60.0999364 33.1712664,62.8629163 35.37,64.9 L34.74,65.35 C33.8429646,64.4543301 33.0357806,63.4729819 32.33,62.42 C31.7351446,61.1162422 30.6606773,60.0919166 29.33,59.56 C28.05,59.06 27.07,57.8 25.95,56.88 L26.44,56.34" id="Path"></path>
            <path d="M35.71,49.61 L37,51.27 C37.11,50.73 37.22,50.19 37.43,49.14 C38.01,49.76 38.82,50.23 38.88,50.78 C39.06,52.33 37.72,52.84 36.56,52.97 C35.8,53.05 34.49,52.67 34.25,52.13 C33.64,50.75 34.64,49.96 35.67,49.61" id="Path"></path>
            <path d="M206.11,81.44 L203.54,78.87 C203.962665,78.4025738 204.417077,77.9648677 204.9,77.56 C205.83,78.31 206.66,79.18 207.52,80.01 L206.11,81.43" id="Path"></path>
            <path d="M80.34,139.84 C81.8055568,140.527242 82.6847245,142.057793 82.54,143.67 C82.54,143.96 82.24,144.45 82.02,144.49 C81.6363404,144.544137 81.2491069,144.418747 80.97,144.15 C79.9719813,142.944041 79.7254677,141.283925 80.33,139.84" id="Path"></path>
            <path d="M32.5,126.95 C32.72,125.85 32.85,125.19 32.98,124.54 C33.49,124.75 34.44,124.95 34.45,125.17 C34.5115953,126.119291 34.3435173,127.069447 33.96,127.94 C33.82,128.21 32.6,127.94 31.87,127.88 C31.87,127.68 31.87,127.48 31.87,127.28 L32.5,126.94" id="Path"></path>
            <path d="M191.52,29 C190.788855,29.2444474 190.020679,29.3595046 189.25,29.34 C188.9,29.27 188.35,28.13 188.53,27.84 C189.164786,26.9425138 189.881166,26.1056209 190.67,25.34 L191.22,25.83 C190.993968,26.185839 190.736254,26.5205324 190.45,26.83 C190.082001,27.11674 189.694388,27.3773766 189.29,27.61 L189.55,28.15 L191.46,28.53 C191.46,28.7 191.46,28.87 191.53,29.04" id="Path"></path>
            <path d="M31.9,52.37 C29.47,51.42 27.44,48.58 28.17,47.29 L31.9,52.37" id="Path"></path>
            <path d="M28.47,67 L27.42,69.57 C27.1224291,68.6737424 26.872085,67.76249 26.67,66.84 C26.67,66.55 27.17,65.84 27.23,65.9 C27.754693,66.1397504 28.2596008,66.4206263 28.74,66.74 L28.48,67" id="Path"></path>
            <path d="M195.47,66 L194,67.75 C193.85,66.6 193.77,66.01 193.69,65.43 L195.31,65.65 L195.48,65.97" id="Path"></path>
            <path d="M195.69,61.52 C195.431815,61.8427915 195.147523,62.1438058 194.84,62.42 C194.36281,62.0760738 193.905416,61.7054843 193.47,61.31 C193.7,61.08 194,60.61 194.14,60.66 C194.684057,60.8942524 195.20331,61.1823541 195.69,61.52" id="Path"></path>
            <path d="M123.05,127.18 C123.44,125.83 123.58,124.42 123.86,123.04 C123.946919,122.581129 124.134786,122.147326 124.41,121.77 C124.76,125.68 123.57,129.29 122.27,132.85" id="Path"></path>
            <path d="M0.69,215 C0.69,215 21.69,216.54 33.08,213.38 C47.66,209.38 51.67,209.06 51.67,209.06 C51.67,209.06 58.18,207.49 60.21,203.44 C62.24,199.39 63.59,197.99 69.52,196.64 C72.85,195.89 75.82,194.24 78.16,193.64 C80,193.2 81.16,194.1 83.56,192.02 C87.81,187.28 88.56,186.62 88.56,186.62 C88.56,186.62 86.56,191.24 83.37,201.27 C81.41,211.51 74,215 74,215 C74,215 73.26,202.63 67.74,210.67 C61.05,220.42 51.2,217.73 51.2,217.73 C51.2,217.73 53.35,213.68 47.55,213.68 C41.75,213.68 42.02,216.38 29.87,216.38 C17.72,216.38 0.69,215 0.69,215" id="Path"></path>
            <path d="M94.8,188.51 C96.08,191.07 98.04,193.67 97.06,196.65 C96.08,199.63 93.99,200.65 96.06,202.36 C98.13,204.07 102.16,204.26 106.21,205.6 C110.26,206.94 114.21,209.14 111.88,212.04 C107.88,216.62 106.48,220.13 106.48,223.1 C106.694193,226.130661 107.145575,229.139874 107.83,232.1 C108.018437,227.324557 109.393133,222.67121 111.83,218.56 C115.83,212.35 118.17,210.44 114.66,207.2 C111.15,203.96 104.54,204.52 102.66,200.74 C100.78,196.96 104.51,194.1 100.66,189.67 C96.81,185.24 95.28,179.19 95.28,177.04 C95.28,174.89 92.93,183.2 92.93,183.2 C93.3004617,185.051206 93.9018291,186.848589 94.72,188.55" id="Path"></path>
            <path d="M92,184.5 C92,184.5 88.33,188.83 87.25,197.9 C86.17,206.97 84.25,210.66 81.3,213.36 C78.35,216.06 72.23,221.92 72.23,221.92 C72.23,221.92 86.95,216.35 88.57,210.92 C90.19,205.49 94.28,207.17 91.95,202.21 C90.75,199.66 94.51,196.97 94.51,194.66 C94.51,192.16 92,184.52 92,184.52" id="Path"></path>
            <path d="M96.52,165.88 C96.52,165.88 95.83,179.04 99.07,183.88 C102.31,188.72 108.21,196.18 115.88,198.53 C121.15,200.14 126.76,201.77 127.03,207.97 C127.3,214.17 150.78,221.47 150.78,221.47 C150.78,221.47 141.66,215.54 137.31,208.76 C134.41,204.24 133.07,199.94 129.99,196.61 C125.24,191.49 123.53,197.52 117.86,191.32 C112.19,185.12 110.93,189.82 107.15,180.64 C103.37,171.46 101.81,172.17 100.15,169.2 C98.49,166.23 96.49,165.87 96.49,165.87" id="Path"></path>
            <path d="M96.49,151.58 C96.49,151.58 93.82,159.68 102.19,168.32 C110.56,176.96 103.54,178.4 112.72,184.24 C121.9,190.08 123.52,188.56 127.3,192.34 C130.838056,195.587526 134.589797,198.594264 138.53,201.34 C138.53,201.34 135.4,191.79 129.46,186.69 C123.52,181.59 125.56,177.24 120.02,174.27 C114.48,171.3 111.38,174.54 109.22,170.27 C107.06,166 109.15,166.76 104.6,161.36 C100.05,155.96 96.5,151.64 96.5,151.64" id="Path"></path>
            <path d="M84.64,124 C84.64,124 88.64,136.42 90.85,139.92 C93.06,143.42 93.31,146.92 98.95,152.34 C104.59,157.76 108.95,163.4 109.21,165.84 C109.47,168.28 109.71,167.73 114.45,170.43 C119.19,173.13 123.78,171.78 124.32,175.43 C124.86,179.08 131.76,186 131.76,186 C131.76,186 132.96,178.94 130.76,177.19 C128.56,175.44 126.71,168.55 122.12,168.01 C117.53,167.47 113.22,165.85 111.86,161.26 C110.5,156.67 113.36,154.26 108.16,151.54 C102.96,148.82 102.16,144.79 100.52,142.36 C98.88,139.93 96.04,132.64 96.04,132.64 C96.04,132.64 88.65,126.43 87.84,124 L86.22,119.14 L84.64,124 Z" id="Path"></path>
            <path d="M91.93,114.89 C91.93,114.89 95.1,120.8 96.48,124.04 C97.2798128,125.848173 97.8347118,127.755008 98.13,129.71 C97.7199299,130.926648 97.5302899,132.206718 97.57,133.49 C97.57,135.92 103.67,142.49 103.67,142.49 C103.67,142.49 100.55,135.4 100.55,131.89 C100.55,128.38 99.74,128.94 100.55,126.1 C101.36,123.26 104.55,121.1 104.55,119.2 L104.55,111.38 L103.23,111.38 C103.23,111.38 103.77,116.78 102.96,119.2 C102.15,121.62 100.68,121.9 99.45,124.33 C98.22,126.76 98.3,123.52 96.45,120.01 C94.6,116.5 93.78,114.9 93.78,114.9 L91.93,114.89 Z" id="Path"></path>
            <path d="M106.24,111.36 C106.24,111.36 106.64,117.87 106.64,123.24 C106.64,129.72 108.21,131.24 108.21,132.69 C108.21,135.93 110.02,135.69 110.02,138.09 C109.77305,140.694159 109.77305,143.315841 110.02,145.92 C110.49,149.33 110.02,148.92 110.02,148.92 C110.02,148.92 108.21,144.54 108.21,141.3 C108.21,138.06 104.21,134.62 104.21,129.49 C104.21,124.36 103.85,125.44 104.21,121.66 C104.384385,118.240238 104.330933,114.812661 104.05,111.4 L106.24,111.36 Z" id="Path"></path>
            <path d="M111.91,107 C111.91,107 113.91,112.18 112.99,114.85 C112.07,117.52 113.26,126.7 113.26,126.7 C113.26,126.7 115.59,115.95 115.88,114.85 C116.17,113.75 118.39,107.85 118.39,107.85 C118.39,107.85 115.88,110.01 114.46,110.01 C113.04,110.01 111.91,107.01 111.91,107.01" id="Path"></path>
            <path d="M134.54,157.07 C134.73,155.61 134.85,154.48 134.85,154.01 C134.85,151.58 134.58,149.69 128.64,143.48 C122.7,137.27 119.2,138.62 120.27,129.98 C121.34,121.34 121.58,119.45 122.7,115.98 C123.82,112.51 124.86,107.07 124.86,107.07 C124.86,107.07 115.92,129.74 114.45,135.41 C112.98,141.08 112.27,144.05 113.25,147.82 C114.23,151.59 114.95,150.3 113.67,156.32 C112.39,162.34 117.95,165.9 119.31,165.9 C120.67,165.9 124.87,166.98 126.75,168.6 C128.63,170.22 131.75,175.48 131.75,175.48 C131.75,175.48 131.95,174.25 132.25,172.38 C130.758267,170.090501 129.086299,167.923631 127.25,165.9 C125.233199,163.709771 123.672843,161.139775 122.66,158.34 C122.25,157.34 117.95,155.21 116.96,151.59 C115.2,145.17 116.96,137.46 116.96,137.46 C116.96,137.46 117.21,143.86 119.1,145.74 C121.39,148.03 120.52,153.18 125.68,159.15 C129.42,163.47 127.73,159.63 131.06,165.47 C131.970288,166.940459 132.483666,168.621858 132.55,170.35 C132.96,167.76 133.45,164.59 133.87,161.7 C133.522972,161.17405 133.269253,160.592189 133.12,159.98 C132.76,158.13 128.53,156.11 126.81,152.98 C125.09,149.85 125.1,150.8 122.52,146.38 C121.312894,144.297676 120.626762,141.954533 120.52,139.55 L123.63,144.15 C123.63,144.15 126.63,146.83 127.22,149.91 C127.81,152.99 130.72,153.41 133.22,155.51 C133.768672,155.970489 134.23822,156.517733 134.61,157.13" id="Path"></path>
            <path d="M134.85,148.61 C134.85,148.61 137.01,140.91 140.25,136.19 C143.49,131.47 147.81,128.09 148.89,126.74 C149.97,125.39 150.24,120.53 152.4,119.18 C154.56,117.83 159.4,114.88 159.4,114.88 C159.4,114.88 152.25,117.83 149.68,121.07 C147.11,124.31 150.49,124.58 147.12,126.74 C143.75,128.9 139.32,130.74 136.19,134.03 C133.06,137.32 133.05,139.03 133.05,141.25 C133.05,143.47 134.84,144.82 134.84,146.18 L134.85,148.61 Z" id="Path"></path>
            <path d="M129.72,141.25 C129.72,141.25 129.99,132.41 134.85,128.36 C138.593102,125.364828 141.95187,121.918732 144.85,118.1 C147.28,114.89 148.85,105.95 148.85,105.95 C148.85,105.95 144,115.95 139.4,119.18 C134.8,122.41 125.9,122.85 125.68,130.25 C125.496005,134.302925 126.935643,138.26193 129.68,141.25" id="Path"></path>
            <path d="M121.35,119.19 L124.56,126.75 C127.478827,123.603789 130.966914,121.03862 134.84,119.19 C141.32,116.09 145.64,112.71 147.26,107.04 C148.88,101.37 150.77,95.43 150.77,95.43 C150.77,95.43 145.37,108.93 141.86,111.35 C138.35,113.77 132.14,114.59 129.98,116.88 C127.82,119.17 125.71,121.33 125.71,121.33 L121.35,119.19 Z" id="Path"></path>
            <path d="M133.07,186.67 C133.07,186.67 136.75,190.45 138.63,192.07 C140.51,193.69 146.24,196.52 146.24,199.36 C146.24,202.2 147,205.65 148.89,205.65 C150.78,205.65 164,209.08 164,209.08 C164,209.08 155.43,209.54 149.73,208 C141.06,205.66 143.3,203.58 140.06,197.91 C136.82,192.24 136.67,193.69 134.89,191 C133.11,188.31 133.1,186.68 133.1,186.68" id="Path"></path>
            <path d="M166.7,209.07 C169.656285,208.666342 172.653715,208.666342 175.61,209.07 C180.61,209.74 186.68,212.58 191.81,213.07 C196.94,213.56 202.6,213.61 208.01,216.58 C213.42,219.55 215.3,221.98 220.16,223.33 C225.02,224.68 231.07,225.76 231.07,225.76 C231.07,225.76 222.86,226.3 217.73,223.87 C212.6,221.44 208.02,217.67 201.81,216.31 C195.6,214.95 190.26,219.14 182.43,216.98 C174.6,214.82 178.76,211.35 172.1,210.83 C170.199777,210.609744 168.366936,209.993119 166.72,209.02" id="Path"></path>
            <path d="M142.58,209.14 C142.58,209.14 150.99,215.52 156.93,217.14 C162.87,218.76 173.66,221.51 173.66,219.87 C173.66,218.23 173.06,212.48 165.81,213.16 C153.43,214.33 142.58,209.16 142.58,209.16" id="Path"></path>
            <path d="M62.21,152.1 C62.21,152.1 59.61,151.33 59.5,150.83 C59.2,149.58 59.29,148.14 57.27,148.34 C56.99,148.34 56.65,147.16 56.27,146.6 C55.8974477,145.963279 55.3886179,145.416885 54.78,145 C53.68,144.4 52.93,143.89 53.78,142.5 C54,142.12 53.78,141.5 53.72,140.97 C52.23,140.9 52,141.55 51.93,142.71 C51.8345635,144.666891 51.5465047,146.609613 51.07,148.51 C50.92,149.08 49.81,149.41 49.13,149.85 C48.9019741,149.118894 48.7939073,148.355672 48.81,147.59 C49.04,146.38 49.66,145.25 49.93,144.04 C50.1180085,142.928584 50.2349127,141.806304 50.28,140.68 L49.7,140.35 C49.2255969,140.783077 48.8238155,141.289524 48.51,141.85 C48.01,143.27 47.8,144.85 47.21,146.19 C46.92,146.88 46.06,147.34 45.46,147.91 C44.97,147.25 44.46,146.59 43.98,145.91 C43.87,145.76 43.9,145.51 43.56,145.73 C42.8479426,145.385209 42.1537275,145.004726 41.48,144.59 C40.7910239,143.987625 40.0440393,143.455022 39.25,143 C37.75,142.41 38.05,141.67 38.8,140.76 C39.55,139.85 40.28,139 41,138.17 L40.77,137.65 L37.1,138.17 C37.1,138.36 37.1,138.55 37.1,138.74 L39.51,138.74 C38.51,140.74 35.71,141.22 34.51,139.74 C34.3209598,139.268627 34.3850329,138.733428 34.68,138.32 C36.152862,136.592732 38.5265537,135.932055 40.68,136.65 C42.2568916,137.244694 44.0355721,136.672531 44.97,135.27 C43.88,134.05 43.43,132.39 41.21,132.2 C40.21,132.12 39.09,130.41 38.59,129.2 C38.09,127.99 39.32,127.85 40.15,128.2 C41.34,128.71 42.43,129.44 43.94,130.28 C44.14,129.04 44.42,127.92 44.49,126.79 C44.61,124.92 44.92,124.69 46.8,125.53 L47.66,124.07 C45.77,123.12 44.54,121.2 42.08,121.55 C41.31,121.66 39.86,121.37 40.31,119.71 C40.31,119.57 39.6,119.23 38.99,118.83 C39.0945681,119.579705 39.0945681,120.340295 38.99,121.09 C38.78,121.72 37.99,122.77 37.83,122.7 C36.9710705,122.420244 36.2085176,121.903787 35.63,121.21 C35.3252493,120.562553 35.2963786,119.819131 35.55,119.15 C35.74,118.56 36.38,118.15 36.82,117.61 L36.14,117.17 C35.66,118.17 35.14,119.11 34.72,120.17 C34.3,121.23 34.11,121.89 32.77,120.7 C31.6003871,119.800798 30.165309,119.315404 28.69,119.32 C26.8,119.32 27.18,118.32 27.19,117.17 C27.219344,116.325525 27.1147138,115.481732 26.88,114.67 C26.78,114.35 26.09,114.21 25.55,113.93 C25.55,115.15 25.55,115.93 25.55,116.74 C25.55,116.89 25.44,117.16 25.48,117.18 C27.3,118.18 26.01,119.62 26.07,120.88 C26.17,122.83 25.67,123.54 23.75,123.97 C23.34,124.06 23,124.49 22.59,124.68 C22.18,124.87 21.77,125.06 21.59,124.93 C21.1987817,124.63346 20.8863109,124.245447 20.68,123.8 C20.68,123.74 21.22,123.4 21.45,123.14 C21.68,122.88 21.99,122.55 21.94,122.35 C21.57,121.04 21.1,119.75 20.57,118.17 C19.8060338,118.61296 18.9851009,118.949408 18.13,119.17 C17.2397166,119.33525 16.3196734,119.183089 15.53,118.74 C14.59,117.97 14.85,116.96 15.83,116.08 C17.9,114.22 18.94,114.46 21.53,117.88 C22.8,114.8 24.15,111.88 27.64,111.26 C27.21,110 27.11,108.71 26.42,108.12 C26.04,107.79 24.66,108.64 23.61,109 C24.48,111.07 23.42,111.62 21.61,111.82 C20.82,111.91 20.12,112.57 19.32,112.82 C18.9,112.94 18.37,112.67 17.89,112.58 C18.08,112.15 18.17,111.58 18.49,111.33 C19.28,110.66 20.19,110.13 21.19,109.45 C19.92,108.45 20.82,105.94 18.19,106.11 C18.19,106.47 18.12,106.85 18.09,107.23 C16.6,107.16 14.87,105.29 15.25,104.01 C15.34,103.71 16.4,103.51 16.97,103.59 C17.6178724,103.800479 18.2362086,104.092844 18.81,104.46 C19.37,104.71 19.96,104.91 20.9,105.27 C20.44205,104.133964 20.0513742,102.971954 19.73,101.79 C19.62,101.27 19.8,100.31 20.11,100.18 C20.7227116,100.016681 21.37585,100.11828 21.91,100.46 C22.4907654,100.824653 22.9366698,101.368867 23.18,102.01 C23.77,103.88 24.89,104.29 26.7,103.41 C26.18,101.22 28.45,101.41 29.56,100.62 C29.83,100.43 31.11,101.32 31.62,101.95 C31.81,102.18 31.1,103.13 30.38,103.62 C30.4816904,104.068035 30.6222218,104.506359 30.8,104.93 C30.9531392,105.28595 31.2158883,105.583732 31.55,105.78 C31.69,105.84 32.09,105.41 32.33,105.15 C32.57,104.89 32.7,104.45 32.99,104.28 C33.78,103.81 34.63,103.44 35.78,102.87 C35.42,102.67 34.78,102.06 34.3,102.11 C33.2475863,102.344023 32.1806415,101.780914 31.78,100.78 C30.9326296,99.437843 29.223222,98.9292943 27.78,99.59 C25.57,100.59 24.78,100.11 24.28,97.65 C24.0795554,97.0850336 23.7048843,96.5983114 23.21,96.26 C21.5494991,95.2200649 20.8177697,93.1778368 21.44,91.32 C21.76,90.07 22.35,89.39 23.65,90.32 C24.33,90.82 25.03,91.32 25.83,91.86 C25.48,92.03 25.38,92.14 25.3,92.12 C24.3,91.85 23.08,91.43 23.04,93.12 C22.9835963,93.7602737 23.2000656,94.3946123 23.6361114,94.8668366 C24.0721573,95.3390609 24.6872686,95.6052987 25.33,95.6 C26.23,95.69 27.13,95.81 28.55,95.97 L26.14,97.97 L26.33,98.26 L29.07,96.8 L29.79,91.52 L30.09,91.66 L29.09,89.13 L29.27,88.62 C31.75,90.3 32.52,88.5 33.66,87.08 C35.7380327,84.6464644 38.5727487,82.9808486 41.71,82.35 L40.29,80.83 C39.61,80.98 38.71,81.22 38.7,81.18 C38.39,80.18 38.17,79.18 37.93,78.23 C38.0797347,76.0917648 39.683479,74.338835 41.8,74 C42.11,73.92 42.25,73.13 42.47,72.66 L41.82,72.41 C41.72,72.71 41.61,73.01 41.52,73.32 C41.19,74.39 40.75,74.32 39.96,73.65 C38.58,72.52 38.96,70.91 38.59,69.49 C38.45,68.89 38.33,68.29 38.28,68.03 L34.13,68.27 C34.13,67.99 34.03,67.71 33.98,67.44 L38.78,66.44 C40.02,61.91 35.78,60 34.45,56.64 C37.38,57.53 37.77,61.19 40.16,62.18 C40.08,60.09 40.08,57.96 39.88,55.85 C39.88,55.4 39.09,55.02 38.36,54.31 C39.2061285,53.909054 40.0187341,53.4408862 40.79,52.91 C41.61,52.26 43.19,52.57 43.11,50.68 C43.03,48.79 42.24,48.29 40.69,48.11 C40.0052012,48.0633339 39.3311557,47.9150439 38.69,47.67 C37.32,47.08 36.13,46.99 35,48.19 C34.68,48.53 34,48.53 33.5,48.68 C33.43,48.4 33.21,47.93 33.3,47.87 C33.733059,47.5791052 34.191603,47.3280774 34.67,47.12 C34.84,47.03 35.03,46.97 35.34,46.84 L33.74,45.43 C35.4331801,45.6222097 37.0543588,44.6900319 37.74,43.13 C37.930179,42.4924114 38.0673129,41.8401894 38.15,41.18 C38.38,40.29 38.43,39.12 39.02,38.64 C39.61,38.16 40.65,38.78 41.48,38.98 C41.8829374,39.1580673 42.2597359,39.3902021 42.6,39.67 C42.474609,38.7090938 42.273993,37.7595113 42,36.83 C41.7759419,36.34475 41.3529666,35.9801162 40.84,35.83 C38.77,35.38 38.5,33.63 38.08,32.05 C37.99,31.72 38.53,31.23 39.01,30.44 C39.16,31.71 39.24,32.44 39.33,33.17 L39.81,33.17 C40,32.17 41.51,31.32 39.81,30.05 C39.526254,29.5566444 39.5001443,28.9561209 39.74,28.44 C40.7608727,27.9129853 41.8206442,27.4650062 42.91,27.1 L43.11,27.61 L40.31,28.82 L40.47,29.57 C41.47,29.5 42.47,29.39 43.47,29.39 C44.1426319,29.4397419 44.8109417,29.5366469 45.47,29.68 C45.1,30.29 44.88,31.16 44.35,31.46 C42.94,32.23 41.56,32.92 41.12,34.88 L43.36,35.14 C43.36,35.58 43.36,35.99 43.36,36.39 C43.29,37.47 43.75,37.74 44.79,37.57 C46.86,37.23 47.33,37.82 46.49,39.76 C45.91,41.11 45.11,42.36 44.09,44.25 L41.77,40.6 C40.06,42.12 41.35,42.43 41.77,42.96 C42.19,43.49 42.83,44.23 43.2,44.68 L46.2,44.04 L46.06,43.86 L51.59,41.36 L47,37.12 L47.3,36.7 L48.82,37.07 C49.57,36.02 50.88,35.07 49.38,33.57 L51.4,31 L51.22,30.63 C50.68,30.77 50.15,30.96 49.61,31.05 C48.91,31.17 48.2,31.22 47.49,31.31 L48.58,28.94 C48.02,27.57 46.32,28.06 45,27.82 C43.68,27.58 41.65,25.82 41.53,24.49 C41.4652841,24.0440723 41.5965474,23.5919432 41.89,23.25 C42.314114,23.1232123 42.7727139,23.1929195 43.14,23.44 C43.94,23.94 44.62,24.61 45.41,25.13 C46.0766964,25.6576127 46.8694363,26.0022822 47.71,26.13 L54.81,23.95 C53.63,21.63 51.72,19.72 51.81,16.95 C51.81,16.48 52.2,15.69 52.49,15.65 C53.084881,15.609073 53.6715288,15.8070216 54.12,16.2 C54.5996818,16.7471292 55.0094906,17.3517651 55.34,18 C56.09,17.41 56.83,16.9 57.03,18.39 C57.0912982,18.6458911 57.2745103,18.8552764 57.52,18.95 C58.52,19.18 59.46,19.33 60.63,19.54 C60.3133803,19.0298667 60.0614461,18.4823297 59.88,17.91 C59.8161445,17.2248179 59.8161445,16.5351821 59.88,15.85 C60.527635,15.9488939 61.1663336,16.0993727 61.79,16.3 C62.3054416,16.5791564 62.7883848,16.9145336 63.23,17.3 C63.41,16.3 63.55,15.55 63.69,14.78 L64.19,14.78 L65.72,21 C65.9350761,18.830261 66.0285556,16.6501857 66,14.47 C66,13.84 64.75,13.27 64.1,12.69 C63.83,12.93 63.73,12.98 63.68,13.07 L62.83,14.58 C62.469852,14.069501 62.1993145,13.5013721 62.03,12.9 C61.83,10.64 62.48,10.13 64.4,10.54 C63.89,8.17 63.25,5.69 62.88,3.17 C62.75,2.27 62.07,0.85 63.63,0.38 C64.75,0.04 66.63,1.57 66.93,3 C67.17,4.25 67.23,5.54 67.38,7 L70.32,2.71 L71.1,2.92 C71.28,4.4 71.46,5.92 71.59,6.92 C72.25,6.29 73.18,4.76 73.91,4.84 C74.91,4.96 75.77,6.3 76.54,6.99 C76.73,6.7 77.41,5.38 77.62,5.45 C79.0186018,5.9524071 80.3595409,6.60276257 81.62,7.39 C82,7.62 82.14,8.27 82.39,8.72 C86.18,8.26 86.18,8.26 86.62,13.54 C86.9061736,12.9373302 87.240596,12.3587794 87.62,11.81 C88.62,10.55 89.62,10.58 90.79,11.63 C91.15,11.95 91.79,11.9 92.34,12.07 C92.8472831,12.192363 93.3305885,12.3985282 93.77,12.68 C94.4297508,13.247999 95.0573874,13.8522663 95.65,14.49 C95.8,14.09 95.9,13.94 95.87,13.91 C94.1276628,12.1702157 93.911284,9.42093205 95.36,7.43 C95.56,7.13 96.58,7.17 97.11,7.36 C97.64,7.55 97.74,8.14 98.27,8.87 C98.69,7.55 99.06,6.51 99.35,5.44 C99.64,4.37 99.7,3.49 101.05,3.37 C102.252757,3.09319392 103.489577,3.67037649 104.05,4.77 C104.26,5.17 104.51,5.56 104.79,6.04 C105.032329,5.81082657 105.29698,5.60647535 105.58,5.43 C106.31,5.08 107.07,4.78 107.82,4.43 C107.996354,5.18065893 108.086934,5.94890966 108.09,6.72 C107.82,9.36 107.45,12 107.3,14.72 C108.08,12.41 110.57,11.21 110.85,8.48 C111.159373,6.84938123 111.737224,5.2814121 112.56,3.84 C112.882466,3.32330862 113.483778,3.05093092 114.084844,3.1492872 C114.68591,3.24764349 115.169042,3.6974755 115.31,4.29 C115.550953,5.32571234 115.598416,6.39703714 115.45,7.45 C115.38,7.88 114.54,8.18 114.05,8.54 C113.745392,8.08889844 113.471441,7.61783723 113.23,7.13 C113.1,6.82 113.16,6.44 112.95,6.07 L110.86,14.77 L111.16,14.97 L114.16,10.86 L114.5,12.48 L116.93,8.33 C117.06,8.11 117.22,7.75 117.4,7.73 C119.47,7.49 119.31,5.56 120.09,4.33 C120.839882,3.28549463 121.64782,2.28391827 122.51,1.33 L122.9,1.64 C122.233333,3.3 121.566667,4.96666667 120.9,6.64 C123.83,5.94 123.48,3.45 124.28,1.36 L126.28,4.19 C125.76,4.86 125.12,5.62 124.56,6.44 C123.882866,7.25881829 123.753415,8.4003476 124.23,9.35 C124.494271,10.179459 124.494271,11.070541 124.23,11.9 C123.84,13.43 123.23,14.9 122.67,16.64 C123.513418,16.612681 124.351506,16.4953487 125.17,16.29 C126.07,15.94 126.78,15.41 126.22,14.16 C125.87394,13.3927738 125.742604,12.5460071 125.84,11.71 C126.086991,9.78093985 126.474692,7.87251937 127,6 C127.27859,5.20821976 127.818117,4.53469271 128.53,4.09 C129.213123,3.70380975 130.017894,3.59293017 130.78,3.78 C131.12,3.89 131.34,5.01 131.28,5.64 C131.15281,6.53629001 131.427684,7.44302405 132.031144,8.11781959 C132.634604,8.79261513 133.505123,9.16667213 134.41,9.14 C135.063052,9.17257969 135.664532,9.50468503 136.04,10.04 C136.224017,10.7014091 136.181782,11.4053389 135.92,12.04 C135.567111,12.6815823 135.26615,13.3503852 135.02,14.04 C135.86,13.39 136.7,12.72 137.55,12.04 C137.65,11.96 137.83,12.04 138.23,11.93 L136.23,15.32 L136.86,15.71 C137.664509,14.5924369 138.405674,13.4306107 139.08,12.23 C139.73,10.94 140.15,9.53 140.97,8.23 C140.883333,9.75 140.796667,11.2733333 140.71,12.8 C142.41,10.99 142.24,9.18 141.17,7.3 C140.987794,6.72857028 140.909886,6.12901941 140.94,5.53 C141.45,5.88 142.32,6.15 142.4,6.58 C142.728636,8.33948628 142.962307,10.1153896 143.1,11.9 C143.102316,12.2391062 143.051707,12.5764973 142.95,12.9 C143.65,12.32 144.38,11.65 145.18,11.07 C145.6,10.77 146.31,10.34 146.61,10.5 C147.140039,10.7990538 147.493644,11.335044 147.56,11.94 C147.373154,13.2043194 147.061636,14.4470429 146.63,15.65 C146.29,16.65 145.32,17.65 146.35,18.8 C146.730636,19.1638836 147.138486,19.4981876 147.57,19.8 C147.96,19.23 148.57,18.72 148.71,18.1 C149.2,15.69 149.49,13.25 149.94,10.83 C150.23,9.23 151.42,8.83 152.63,9.94 C154.02,11.18 156.25,11.61 156.63,13.94 C157.17541,13.9924268 157.72459,13.9924268 158.27,13.94 L158.78,13.07 L156.08,10.79 C160.26,12.59 162.08,15.9 163.54,19.59 L165.54,18.49 L166.27,19.77 L162.21,23.34 C162.96,23.41 163.64,23.6 163.72,23.46 C164.72,21.59 166.19,21.99 167.42,22.89 C168.622764,23.8458055 170.212897,24.1623425 171.69,23.74 C172.78,23.5 174.03,24.05 175.21,24.24 C174.36,24.31 173.51,24.36 172.66,24.48 C171.61,24.63 170.56,24.83 169.51,25.01 L169.6,25.59 L171,25.59 C170.87,27.53 170.75,29.43 170.62,31.31 C171.62,30.31 171.62,28.24 173.96,27.64 L172.29,30.76 L174.42,33.02 L175,31.24 L179.43,32.89 L177.71,36.28 C180.03,36.22 182.13,34.41 184.29,36.49 L183.62,38.67 L186.03,38.67 C185.97,38.02 185.93,37.37 185.82,36.72 C185.82,36.42 185.5,36.16 185.45,35.86 C185.439944,35.5231716 185.476968,35.1865887 185.56,34.86 C185.871375,34.9523094 186.162959,35.1014922 186.42,35.3 C186.645591,35.6506142 186.836493,36.0223696 186.99,36.41 C187.49,37.32 187.99,37.94 189.06,36.93 C189.414531,36.5370581 189.903216,36.2909325 190.43,36.24 C192.64,36.45 193.31,34.76 194.24,33.35 C194.57,32.86 194.98,32.42 195.35,31.96 L195.87,32.29 C195.38,33.2 194.92,34.14 194.38,35.01 C193.817048,35.7382686 193.636125,36.6917564 193.893177,37.5756196 C194.150229,38.4594828 194.814285,39.1672274 195.68,39.48 C197.85,40.4 198.23,41.74 196.73,43.61 C195.96,44.61 195.04,45.49 193.44,44.88 L195.88,41.96 L195.38,41.47 C194.38,42.41 193.45,43.35 192.49,44.29 C192.156923,44.6949008 191.788834,45.0696819 191.39,45.41 C191.017079,45.5868454 190.619035,45.7049094 190.21,45.76 C190.16806,45.3845008 190.16806,45.0054992 190.21,44.63 C190.376809,44.2216607 190.425325,43.7746174 190.35,43.34 C189.49,43.93 188.61,44.5 187.79,45.14 C187.822877,45.5227854 187.997646,45.8794583 188.28,46.14 C190.02,47.03 191.8,47.84 193.62,48.69 L192.43,50.64 C192.88857,50.6739432 193.341625,50.7611981 193.78,50.9 C194.57,51.29 195.31,51.76 196.07,52.2 C195.663287,52.9399573 195.20201,53.6485852 194.69,54.32 C194.2,54.89 193.52,55.32 193.04,55.92 C194.85,56.1 196.37,55.85 197.58,54.41 C198.31428,53.6750945 199.170254,53.0728673 200.11,52.63 C200.36,52.49 200.85,52.77 201.23,52.85 C201.15,53.23 201.23,53.76 200.95,53.95 C199.940766,54.6768934 198.98804,55.4791884 198.1,56.35 C198.63,56.22 199.16,56.12 199.68,55.97 C200.88,55.62 202.05,55.2 203.27,54.97 C203.62,54.89 204.07,55.24 204.47,55.39 C204.29,55.81 204.23,56.39 203.92,56.6 C203.214768,57.0727162 202.47233,57.487411 201.7,57.84 C203.02,57.84 204.03,57.77 205.03,57.84 C205.41,57.84 205.76,58.28 206.12,58.51 C205.84,58.83 205.57,59.41 205.26,59.44 C202.56,59.66 199.85,59.8 197.14,59.92 C196.335022,59.9470332 195.529168,59.9102514 194.73,59.81 C193.61,59.68 192.49,59.47 191.37,59.31 C190.65,59.21 189.92,59.14 189.2,59.06 C189.2,59.32 189.12,59.58 189.08,59.84 L192.36,60.39 C191.5,61.39 192.83,64.02 189.57,63.81 C189.91517,64.2847986 190.314534,64.7177228 190.76,65.1 C192.12,66.03 193.38,66.8 193.1,68.93 C193.02,69.54 194.77,70.53 195.82,71.1 C196.87,71.67 198.48,71.89 199.53,72.66 C200.91,73.66 200.62,74.52 199.07,75.28 C198.63451,75.5754871 198.38145,76.0740531 198.4,76.6 C200.48,75.32 202.52,73.97 204.66,72.8 C205.2,72.5 206.05,72.8 206.75,72.8 C206.44,73.43 206.3,74.38 205.8,74.65 C203.8,75.72 201.69,76.57 199.63,77.52 C199.1,77.76 198.63,78.05 198.29,78.21 C199.073914,78.4213241 199.826928,78.7339594 200.53,79.14 C201.48767,79.8745921 202.347919,80.7281208 203.09,81.68 C203.480865,82.1891426 203.603612,82.8549483 203.42,83.47 C203.000993,83.9732518 202.374631,84.2569567 201.72,84.24 C200.141776,84.2022564 198.770008,83.1461162 198.33,81.63 C198.18,81.2 198.54,80.63 198.67,80.01 C196.02,79.52 193.67,81.43 191.12,82.34 C191.12,82.57 191.19,82.8 191.24,83.03 L194.1,82.67 L193.93,83.67 C195.035794,84.2975367 196.089206,85.0131875 197.08,85.81 C198.08,86.72 198.6,87.89 197.24,88.98 C197.89,90.71 198.95,90.57 200.41,89.98 C200.15,90.32 199.94,90.91 199.62,90.98 C198.33,91.25 198.28,92.06 198.18,93.16 C197.973591,94.1329408 197.608731,95.065359 197.1,95.92 C196.741401,96.5028336 196.519197,97.1591917 196.45,97.84 C196.925078,97.5751627 197.368008,97.2563876 197.77,96.89 C199.82,94.58 201.77,92.2 203.87,89.89 C204.373199,89.4999167 204.937491,89.1958073 205.54,88.99 C205.65,89.64 206.08,90.47 205.83,90.91 C205.05891,92.2361346 204.157806,93.4822705 203.14,94.63 C202.34,95.55 201.35,96.29 200.5,97.36 C201.88,97.21 203.5,96.26 203.68,98.74 C203.35319,98.8881696 203.049946,99.0835935 202.78,99.32 C202.07,100.12 201.14,100.86 202.44,102.04 C202.969578,102.76256 203.378236,103.566366 203.65,104.42 C204.638848,103.870564 205.660808,103.382962 206.71,102.96 C207.325408,102.883442 207.949749,102.924159 208.55,103.08 C208.38,103.74 208.23,104.41 208.02,105.08 C207.916196,105.268937 207.738827,105.406488 207.53,105.46 C205.18,106.1 205.62,107.99 205.53,109.75 C207.726468,109.815036 209.825999,108.844882 211.2,107.13 C211.66,106.62 212.57,106.51 213.27,106.21 C213.27,106.93 213.52,107.87 213.16,108.33 C212.03359,109.74912 210.807128,111.085864 209.49,112.33 C208.724087,112.961645 207.9155,113.539685 207.07,114.06 L210.59,115.34 L210.51,115.87 L206.1,115.87 C206.98967,116.713083 207.821552,117.615124 208.59,118.57 C209.075611,119.287671 209.3966,120.103802 209.53,120.96 C209.6,121.43 209.12,121.96 208.88,122.5 C208.357523,122.157374 207.871637,121.761964 207.43,121.32 C207.16,121 207.12,120.47 206.54,120.05 C206.54,120.63 206.54,121.22 206.54,121.8 C206.54,122.38 206.54,122.8 206.54,123.28 C206.005118,123.286914 205.471329,123.229842 204.95,123.11 C204.260909,122.823539 203.592623,122.489396 202.95,122.11 C201.89,124.48 201.6,124.51 199.34,122.58 C197.68,123.96 196.66,123.85 195.49,121.99 C194.958382,121.092632 194.551317,120.127112 194.28,119.12 C193.44,116.26 193.47,116.25 190.55,117.01 C190.553212,118.315774 190.68045,119.61829 190.93,120.9 C191.357045,121.930566 191.914962,122.90188 192.59,123.79 C192.75,124.05 193.06,124.28 193.11,124.56 C193.298068,125.551261 193.424974,126.553154 193.49,127.56 C193.49,127.56 192.49,127.91 192.29,127.73 C191.501384,126.892825 190.79482,125.981994 190.18,125.01 C189.8,124.4 189.82,123.47 189.36,123.01 C187.85,121.44 186.19,120.01 183.89,117.88 L185.42,116.75 C184.75,116.63 183.58,116.44 182.42,116.21 C181.249612,115.899624 180.040231,115.761505 178.83,115.8 C181.54,117.8 184.27,119.72 186.96,121.71 C187.414862,122.108555 187.833192,122.546966 188.21,123.02 L187.72,123.63 L181.32,119.99 L180.94,120.44 C181.47,120.9 181.99,121.37 182.54,121.81 C182.65,121.9 182.9,121.87 182.97,121.97 C183.49,122.72 183.97,123.49 184.49,124.25 L181.99,124.84 C181.212232,125.963003 181.444616,127.497617 182.52,128.34 C185.493333,131.206667 188.473333,134.066667 191.46,136.92 C191.76,137.21 192.21,137.35 192.46,137.66 C192.637116,137.968128 192.752594,138.307771 192.8,138.66 C192.43,138.66 191.98,138.87 191.72,138.71 C190.72,138.1 189.72,137.39 188.72,136.71 C187.96,136.18 187.21,135.62 186.45,135.07 L185.99,135.47 C186.44,135.98 186.86,136.47 187.34,136.97 C187.51,137.14 187.95,137.11 188.04,137.28 C188.42,138.05 188.73,138.86 189.04,139.66 L186.61,139.97 C186.471246,140.426348 186.262058,140.858221 185.99,141.25 C185.681047,141.687647 185.201696,141.974531 184.67,142.04 C184.180929,141.850216 183.827697,141.417222 183.74,140.9 C183.88,138.38 184.15,135.9 184.41,133.01 L178.66,126.08 C178.550087,127.199339 178.315293,128.302869 177.96,129.37 C177.66,130 176.81,130.37 176.21,130.84 C175.77,130.06 174.97,129.29 174.97,128.52 C175.142085,127.329267 175.47863,126.168186 175.97,125.07 C174.08,125.4 173.77,124.13 173.43,122.84 C173.3,122.35 173.07,121.52 172.8,121.48 C172.148984,121.363237 171.47874,121.522646 170.95,121.92 C169.267732,123.639272 167.769607,125.529524 166.48,127.56 C165.94,128.51 166.48,130.1 166.59,131.38 C166.862418,132.255565 167.063081,133.151861 167.19,134.06 C167.19,134.64 166.43,135.19 166.01,135.75 C165.509927,135.159659 165.052124,134.534775 164.64,133.88 C164.488563,133.442802 164.414125,132.982645 164.42,132.52 C164,132.6 163.42,132.52 163.19,132.78 C162.87,133.23 162.52,133.99 162.7,134.41 C163.266815,135.83943 163.991294,137.201182 164.86,138.47 C165.97,140.01 166.51,142.33 165.59,143.77 C165.119688,144.183981 164.52529,144.430182 163.9,144.47 C163.39403,143.568182 162.991481,142.612129 162.7,141.62 C163.226321,141.298576 163.77818,141.020974 164.35,140.79 L162.35,138.66 C162.17386,139.744179 161.93005,140.816274 161.62,141.87 C161.334122,142.374597 160.969536,142.830329 160.54,143.22 C160.17,142.8 159.62,142.43 159.46,141.93 C159.14,140.93 159.17,139.87 158.81,138.93 C158.393717,138.076521 157.894657,137.265968 157.32,136.51 C157.14845,136.857528 156.951237,137.191787 156.73,137.51 C154.93,139.79 154.73,138.24 152.87,138.24 C151.01,138.24 147.59,140.45 147.59,140.45 C147.59,140.45 147.59,138.68 147.84,135.63 C148.09,132.58 150.13,133.09 148.1,129.03 C146.07,124.97 146.58,123.19 146.83,119.64 C147.08,116.09 144.04,115.32 142.26,117.35 C140.48,119.38 136.93,121.41 136.42,123.45 C135.91,125.49 133.12,132.84 128.3,133.34 C123.48,133.84 119.42,138.16 116.63,133.85 C113.84,129.54 114.85,135.12 110.54,134.36 C106.23,133.6 112.06,128.27 106.99,128.27 C101.92,128.27 102.42,129.03 101.15,130.27 C100.894825,130.552163 100.67024,130.860548 100.48,131.19 C99.2,133.28 97.41,137.44 95.92,137.44 C95.92,137.44 92.3,140.95 91.77,138.21 C91.77,128.83 86.68,137.96 86.1,138.44 C85.5823518,138.982699 85.1200681,139.575628 84.72,140.21 C84.42,140.58 84.09,140.92 83.78,141.28 C83.46,140.97 83.14,140.66 82.84,140.34 C82.54,140.02 81.95,139.16 81.78,139.23 C80.66,139.7 78.97,139.23 78.59,140.97 C78.5158442,141.855277 78.378832,142.73416 78.18,143.6 C77.8719771,144.27633 77.4751469,144.908567 77,145.48 C76.51,144.89 75.72,144.36 75.59,143.7 C75.5603437,142.716911 75.6172296,141.733119 75.76,140.76 C75.6724861,140.271899 75.5034594,139.802005 75.26,139.37 C74.753984,139.506665 74.2741394,139.726312 73.84,140.02 C72.84,140.97 71.92,142.02 70.98,143.02 L70.22,142.53 C70.55,141.53 70.95,140.58 71.22,139.58 C71.5072422,138.77506 71.5660811,137.906321 71.39,137.07 C71.13,136.43 70.17,136.07 69.52,135.6 C69.2319191,136.220925 68.9912321,136.862757 68.8,137.52 C68.71,137.9 69.03,138.38 68.94,138.75 C68.71,139.64 68.34,140.5 68.03,141.37 C67.4,140.66 66.5,140.05 66.2,139.22 C65.838885,137.837933 65.6078781,136.425108 65.51,135 L64,136.83 L65.39,139.12 L62.5,140.58 C63.27,141.58 64.28,142.87 65.14,144.21 C65.5768277,144.962026 65.8907795,145.778976 66.07,146.63 C66.064626,147.02922 65.8673546,147.40143 65.54,147.63 C65.39,147.74 64.84,147.49 64.63,147.26 C63.63,146.16 62.63,145 61.54,143.77 C60.71,144.7 60.43,145.61 61.43,147.12 C62.43,148.63 61.68,146.88 61.68,148.92 L62.21,152.1 Z M73.9,142.2 L68.32,145.2 L71.72,146.3 L73.9,142.2 Z M114.82,87.55 C113.48,87.78 112.15,88.09 111.24,86.55 C111.1,86.32 110.24,86.55 109.7,86.55 C109.866779,86.9668554 110.081561,87.3628587 110.34,87.73 C110.83,88.28 111.41,88.73 112.14,89.44 L114.8,87.56 C115.47,87.47 116.04,87.43 115.54,88.41 C114.8,89.85 114.11,91.31 113.39,92.77 C113.39,92.77 113.68,92.86 113.77,92.77 C114.71331,91.8160971 115.576242,90.7859303 116.35,89.69 C116.7,89.14 116.53,88.26 116.6,87.53 L114.81,87.59 L114.82,87.55 Z M111.05,103.59 L113.98,105.59 L114.42,104.83 C113.948836,104.541785 113.457571,104.287797 112.95,104.07 C112.318822,103.876578 111.677944,103.716359 111.03,103.59 C111.347919,101.72563 112.64227,100.175464 114.42,99.53 L112.48,97.85 C111.96,99.92 109.62,101.21 111.05,103.57 L111.05,103.59 Z M52.5,71.87 C52.31,71.18 52.13,70.48 51.94,69.77 L50.28,69.77 L50.09,70.11 L52.52,71.85 L54.02,72.06 C54.81,74.2 59.17,75.56 60.89,73.87 C58.31,74.22 57.03,72.82 56.26,70.87 L52.51,71.87 L52.5,71.87 Z M37.08,105.87 L39.54,106.87 C40.27,106.57 41.08,105.87 41.77,106.03 C42.26,106.11 42.77,107.18 42.93,107.88 C43.1772042,109.095089 43.3508532,110.32399 43.45,111.56 C43.8919041,111.336347 44.1814211,110.894452 44.21,110.4 C44.1684035,109.918733 44.0779374,109.442949 43.94,108.98 L45.51,109.61 L46.17,109.91 C46.69,108.09 45.87,106.76 44.49,106.38 C43.6370306,106.078443 42.9250344,105.473246 42.49,104.68 C42.29,104.31 43.05,103.43 43.35,102.77 C43.52,102.38 43.64,101.97 43.79,101.56 L37.96,102.69 C39.53,105.14 39.52,105.16 37.16,105.93 C36.7,106 36.23,106.06 35.77,106.15 C34.46,106.38 33.08,106.47 33.56,108.5 C33.64,108.84 32.91,109.5 32.43,109.82 C31.7132489,110.2097 30.9677413,110.544008 30.2,110.82 C30.6,112.77 30.59,112.82 31.59,113 C31.89,113 32.35,112.43 32.59,112.52 C33.2427105,112.839983 33.8652321,113.218182 34.45,113.65 L33.79,113.9 L35.93,106.81 L36.43,106.81 L37.43,109.1 L38,109 C37.958538,108.461594 37.8783303,107.926876 37.76,107.4 C37.5732695,106.866544 37.3528252,106.345493 37.1,105.84 L37.08,105.87 Z M118.81,105.71 L118.51,105.62 C118.311865,106.50999 118.171572,107.411878 118.09,108.32 C118.249169,111.136305 116.096195,113.54889 113.28,113.71 C113.028296,113.758403 112.79377,113.872217 112.6,114.04 C110.139717,115.950871 107.115182,116.991874 104,117 C103,117 102,117.23 100.95,117.35 C106.03,118.1 106.03,118.1 105.58,121.24 C106.58,121.12 107.46,120.99 108.34,120.91 C109.988648,120.610207 111.667333,120.509486 113.34,120.61 C115.02,120.9 115.47,120.45 115.45,119.17 C113.886915,119.238314 112.321273,119.221623 110.76,119.12 C110.15,119.05 109.6,118.36 109.03,117.95 C109.5,117.43 109.89,116.6 110.46,116.44 C113.537228,115.599706 116.765187,115.469767 119.9,116.06 C120.54,116.18 121.44,115.43 122.05,114.9 C122.28,114.7 122.05,113.96 122.05,113.47 L121.67,113.47 L120.77,115.2 C120.53,114.55 120.39,114.2 120.4,114.2 L118.4,115.2 C118.19,114.54 117.73,113.84 117.83,113.2 C118.066796,112.39907 118.420615,111.637515 118.88,110.94 C119.01,110.68 119.27,110.42 119.26,110.18 C119.15,108.7 118.99,107.18 118.84,105.75 L118.81,105.71 Z M51.63,77.35 C52.39,75.91 51.82,75.23 50.51,74.88 C49.86,74.71 49.25,74.35 48.59,74.21 C47.28,73.95 45.85,73.08 44.85,74.87 C44.77,75.02 43.97,74.94 43.63,74.75 C42.16,73.89 41.21,75 40.29,75.75 C39.79,76.14 39.29,77.27 39.48,77.66 C39.9366899,78.6220489 40.7197708,79.3909565 41.69,79.83 C43.0126371,80.0461188 44.358981,80.0764115 45.69,79.92 C45.31,76.84 45.31,76.84 46.42,76.35 C46.88,80.08 46.88,80.08 48.7,79.55 C48.81,78.14 48.91,76.75 49.03,75.2 L51.65,77.38 L51.63,77.35 Z M84.57,109 C84.67,110.17 84.71,110.67 84.76,111.16 C84.1794923,111.215061 83.5942086,111.191515 83.02,111.09 C81.96,110.75 80.96,110.26 79.94,109.83 L79.49,110.21 C79.7678458,111.04823 80.1019381,111.866756 80.49,112.66 C80.61,112.88 81.25,112.98 81.61,112.9 C82.8,112.65 83.97,112.29 85.35,111.9 C85.23,112.63 85.14,112.98 85.12,113.33 C85.12,114.33 86.12,115.33 87.01,114.93 C89.27,113.87 91.48,112.72 93.66,111.62 C92.66,108.22 92.08,107.62 90.3,108.38 C89.8,108.6 89.61,109.54 89.24,110.21 L84.57,109 Z M190.18,115.52 L190.4,114.85 C190.12,114.58 189.88,114.19 189.55,114.07 C188.16,113.57 188.2,112.7 188.79,111.62 C188.934208,111.228979 189.104594,110.848117 189.3,110.48 C189.55,110.14 189.97,109.66 190.3,109.69 C190.732157,109.819003 191.077336,110.145624 191.23,110.57 C191.53,111.57 191.58,112.75 191.91,113.78 C192.07,114.29 192.65,114.67 193.24,115.33 C193.12,112.73 193.03,110.74 192.95,108.92 L190.66,107.74 C189.88,108.93 189.11,110.22 188.2,111.42 C187.646652,112.029103 187.037309,112.584878 186.38,113.08 C186.38,112.29 186.31,111.51 186.27,110.73 C186.27,110.64 186.18,110.55 186.09,110.38 C185.22,110.9 183.38,109.96 183.79,112.38 C183.43,112.13 183.27,111.95 183.1,111.91 C182.143071,111.705096 181.174642,111.558162 180.2,111.47 C180.08,111.47 179.78,112.23 179.79,112.64 C179.79,113.78 180.29,114.71 181.58,114.83 C184.45,115.1 187.32,115.33 190.19,115.57 L190.18,115.52 Z M105.19,125.83 C102.94,125.65 103.19,123.83 103.25,122.76 C103.31,121.69 104.11,120.58 104.69,119.28 L94.8,117.68 C95.22,118.47 95.8,119.16 96.43,119.25 C97.2072978,119.196994 97.9674454,118.996777 98.67,118.66 L98.94,119.13 C97.7472062,120.169182 96.6648092,121.328653 95.71,122.59 C95.0627873,124.004259 95.6735364,125.676018 97.08,126.34 C96.93,125.34 96.74,124.21 96.57,123.07 C97.9731877,123.185971 99.3645112,123.416743 100.73,123.76 C101.547098,124.087427 102.215916,124.702881 102.61,125.49 C102.76,125.79 101.84,126.61 101.4,127.19 L101.54,127.55 L105.18,125.84 L105.19,125.83 Z M103.62,15.55 L105.18,8.75 C103.4,9.55 103.18,9.43 103.06,7.15 C103.083197,6.83807972 103.028203,6.52530057 102.9,6.24 C102.545884,5.80049989 102.161623,5.38616641 101.75,5 C101.384675,5.38585084 101.084132,5.82822422 100.86,6.31 C100.282133,8.03455978 99.9030124,9.81944671 99.73,11.63 C99.8469041,12.7968653 100.379255,13.8828607 101.23,14.69 C101.81,15.3 102.97,15.35 103.62,15.57 L103.62,15.55 Z M89.73,115.71 C96.17,117.19 101.68,116.71 106.5,112.8 C105.18,113.08 103.96,113.71 102.67,114.08 C101.990687,114.11717 101.310778,114.018583 100.67,113.79 C99.33,113.56 97.9,112.91 96.67,113.18 C94.3149524,113.864863 92.009561,114.710173 89.77,115.71 L89.73,115.71 Z M78.78,13.12 C78.0390195,12.6575592 77.2746699,12.2336623 76.49,11.85 C76.3,11.77 75.68,12.08 75.67,12.24 C75.59,13.35 75.6,14.47 75.61,15.58 C75.61,16.12 75.69,16.66 75.74,17.2 C75.21,17.2 74.67,17.28 74.14,17.3 C73.43,17.3 72.71,17.3 71.87,17.3 C74.22,20.17 72.36,21.65 69.81,23.3 C71.56,23.12 73.26,21.3 73.66,24.15 C73.79,23.31 73.48,22.37 73.8,21.77 C74.12,21.17 75.08,21.05 75.8,20.7 L76.28,21.22 C76.91,18.64 76.13,15.61 78.83,13.14 L78.78,13.12 Z M194.4,76.8 C193.7,74.93 191.65,73.21 188.8,72.37 C187.780805,73.6994291 186.867978,75.1071214 186.07,76.58 C185.446335,78.2837926 184.951609,80.03205 184.59,81.81 L185.59,80.54 C187.59,81.61 188.01,81.47 188.2,79.54 L186.54,80.86 C187.02,79.23 187.34,77.94 187.8,76.71 C187.91,76.42 188.46,76.23 188.8,76.11 C189.564022,75.8637682 190.342075,75.6634111 191.13,75.51 C191.597145,75.3752618 192.092855,75.3752618 192.56,75.51 C192.75,75.6 192.68,76.32 192.68,76.75 C192.676972,76.9171535 192.646569,77.0826807 192.59,77.24 L194.37,76.79 L194.4,76.8 Z M174,120.09 C174.087865,119.464389 174.255913,118.852693 174.5,118.27 C174.896516,117.733347 175.352781,117.243533 175.86,116.81 C176.266169,117.301499 176.602668,117.846627 176.86,118.43 C177.32,120.03 176.56,122.12 178.86,122.99 L179.79,118.49 L179.24,119.07 L175.45,114.19 L170.45,119.86 L174,120.1 L174,120.09 Z M35.73,86.39 C33.61,87.79 33.01,89.95 32.73,92.39 C34.17,92.23 34.16,92.23 34.34,93.44 C34.3896946,93.6050027 34.5165067,93.7355445 34.68,93.79 C35.73,94.05 36.79,94.27 37.5,94.43 C38.44,91.12 36.61,88.9 35.69,86.43 L35.73,86.39 Z M153.55,13.43 C152.15,15.77 150.03,17.38 150.34,20.13 C150.359995,20.4897224 150.359995,20.8502776 150.34,21.21 C150.7,21.12 151.07,21.05 151.43,20.95 C152.33,20.69 153.32,20.06 154.12,20.24 C155.64,20.59 155.72,19.85 155.44,18.88 C154.93,17.12 154.25,15.41 153.55,13.42 L153.55,13.43 Z M111.5,32.58 C112.5,31.68 111.37,28.66 114.5,29.58 L115.25,27.2 L113.9,28.1 C113.605694,27.7134511 113.36361,27.2898042 113.18,26.84 C112.67,24.84 112.25,22.84 111.74,20.84 C111.67,20.59 111.2,20.44 110.91,20.25 L111.6,21.08 L110,22.53 C110.688701,23.3361495 111.260941,24.2349025 111.7,25.2 C112.7,27.2 110.64,27.38 110.07,27.85 L111.52,32.59 L111.5,32.58 Z M42.14,110.27 C41.5905718,110.101572 41.0234371,109.997541 40.45,109.96 C39.14,110.05 37.79,110.12 37.17,111.63 C36.79,112.58 36.32,113.49 35.77,114.69 L37.63,115.43 L38.92,113.27 L40.12,114.88 L41.54,114.36 L42.14,110.26 L42.14,110.27 Z M80.22,102.68 L79.74,102.68 C79.55,101.58 79.37,100.47 79.15,99.38 C79.03,98.81 78.83,98.25 78.67,97.69 C77.6481326,98.0175445 76.6464046,98.4048793 75.67,98.85 C75.3705012,99.1679103 75.2603422,99.6199422 75.38,100.04 C76.21,101.36 76.23,103.25 78.02,103.87 C78.42,104.01 79.02,104.24 79.26,104.07 C79.6452239,103.667513 79.9566368,103.200394 80.18,102.69 L80.22,102.68 Z M163,122.78 C164.25,123.97 165.43,124.21 166.32,123.22 C168.13,121.22 169.74,119.08 171.46,116.95 L169.37,115.95 C168.48,119.34 165.46,120.74 163,122.81 L163,122.78 Z M161.74,26.81 L156.66,32.2 C158.19,32.3 159.17,32.42 160.16,32.4 C161.15,32.38 162.28,32.16 162.52,30.84 C162.73,29.73 162.91,28.61 163.11,27.41 L161.73,26.8 L161.74,26.81 Z M166.41,28.32 C166.07,28.59 165.69,28.76 165.52,29.05 C164.32,31.15 163.15,33.27 162.03,35.41 C161.97,35.52 162.43,36.13 162.66,36.14 C163.83,36.2 165.66,34.54 166.02,33.53 C166.595471,32.1916572 167.263766,30.8951658 168.02,29.65 C168.26,29.2 168.71,28.86 168.92,28.4 C169.02,28.19 168.78,27.83 168.7,27.53 C168.47,27.74 168.16,27.91 168.02,28.17 C167.778368,28.6711099 167.564706,29.1852324 167.38,29.71 L166.92,29.59 L166.46,28.32 L166.41,28.32 Z M164.72,47.81 L165.32,47.91 C165.582489,46.9291137 165.743336,45.9238182 165.8,44.91 C165.8,44.27 165.23,43.65 164.91,43.03 C164.231013,43.5363228 163.592422,44.0946721 163,44.7 C162.85,44.89 163.16,45.46 163.27,45.89 C162.262775,45.9261372 161.325728,46.4151672 160.720073,47.2207659 C160.114418,48.0263646 159.904928,49.062377 160.15,50.04 C162.26,49.69 163.02,47.85 164.15,45.98 L164.68,47.79 L164.72,47.81 Z M109,35.73 L106.05,30.85 L108.99,31.09 L107.64,27.3 L106.23,29.44 L105.44,29.19 L105.93,33.08 L103.07,34.8 C104.39,34.8 105.77,34.54 105.91,34.8 C106.62,36.41 107.73,35.75 109,35.68 L109,35.73 Z M132,56.91 C131.58,54.12 131.21,51.75 130.8,49.11 C130.302551,49.5661857 129.834922,50.0538566 129.4,50.57 C128.97,51.14 128.81,52.13 128.28,52.37 C126.9,52.98 127.28,53.8 127.48,54.28 L132.01,56.92 L132,56.91 Z M95.17,119.33 C94.17,118.8 92.99,117.64 92.1,117.83 C91.21,118.02 90.39,119.48 89.69,120.24 L91.84,123.04 C94.05,123.37 94.34,121.37 95.17,119.33 Z M175.88,43 C176.575808,42.1983277 177.192039,41.3309153 177.72,40.41 C177.981341,39.7886309 177.933125,39.0802274 177.59,38.5 C175.94,36.82 175.08,37.07 173.59,39.5 L175.4,40.34 L172.57,42.18 L172.7,42.75 L175.87,42.96 L175.88,43 Z M43.18,70.66 C43.42,70.01 43.49,69 44.04,68.51 C44.9338054,67.8835196 45.9052843,67.3759303 46.93,67 L46.53,66.21 L43.61,67.68 C42.91,67.4 42.08,66.73 41.34,66.83 C39.74,67.04 39.17,68.4 39.76,70.29 C39.9,70.75 40.52,71.06 40.93,71.44 C41.2,71.03 41.48,70.63 41.75,70.22 C41.9,69.99 42.03,69.74 42.31,69.22 L43.17,70.63 L43.18,70.66 Z M56.41,95.31 C56.7314067,94.8645761 57.0929152,94.4495107 57.49,94.07 C58.92,93.07 58.49,92.31 57.11,91.82 C55.73,91.33 54.55,91.09 53.28,90.71 C52.603422,90.4495168 51.8494957,90.4787348 51.1951065,90.790799 C50.5407173,91.1028633 50.0434598,91.670308 49.82,92.36 C49.6006399,92.8082105 49.60894,93.3343138 49.8423301,93.7753814 C50.0757201,94.216449 50.5060309,94.5192462 51,94.59 C51.47,94.7 52.09,94.21 52.4,94.09 L51.6,92 C52.1651477,91.6952375 52.7766858,91.4857604 53.41,91.38 C54.0191859,91.2982749 54.6348881,91.4739392 55.1092403,91.8648054 C55.5835926,92.2556716 55.8737396,92.8264272 55.91,93.44 C56.0418918,94.0993745 56.2121817,94.7504832 56.42,95.39 L56.41,95.31 Z M52.77,74.86 C51.83,70.61 48.59,71.66 45.95,71.24 L47.64,70.64 C47.1961323,70.2039513 46.6948419,69.8305068 46.15,69.53 C45.6260645,69.4285882 45.0892721,69.411708 44.56,69.48 C44.66,70 44.74,70.48 44.87,71.04 C44.9805041,71.5249548 45.1310195,71.9999145 45.32,72.46 C45.4904679,72.7763796 45.6878638,73.0774919 45.91,73.36 L46.23,72.36 L52.78,74.88 L52.77,74.86 Z M88.96,91.69 C87.96,96.23 87.02,96.24 93.01,96.69 C94.79,96.84 95.01,95.82 95.01,94.57 C95.01,94.3 94.68,94.02 94.5,93.75 C94.2629595,93.9081042 94.0419121,94.0889611 93.84,94.29 C93.4110771,94.9052698 92.9399437,95.4900098 92.43,96.04 C92.22,96.22 91.67,96.04 91.27,96.04 C91.3924414,95.6964137 91.4795579,95.3412465 91.53,94.98 C91.53,94.51 91.67,93.85 91.41,93.59 C90.6218619,92.8974723 89.7901579,92.2561584 88.92,91.67 L88.96,91.69 Z M121.79,37.32 L123.79,39.42 C124.26,39.94 124.65,40.64 125.23,40.92 C125.53,41.06 126.23,40.53 126.66,40.18 C127.37,39.6 128.01,38.93 128.95,38.05 C128.508801,37.9650273 128.076808,37.8377736 127.66,37.67 C127.176162,37.4969144 126.752549,37.1878855 126.44,36.78 C126.332447,36.2621926 126.332447,35.7278074 126.44,35.21 L126.07,35.21 L125.01,37.61 L121.89,37.38 L121.79,37.32 Z M90.6,117.16 C90.6,116.94 90.53,116.73 90.49,116.51 C88.8701435,116.557535 87.2589634,116.765213 85.68,117.13 C83.45,117.87 83.45,118.02 83,115.85 C81.88,116.96 82.2,117.75 83.53,118.25 C84.86,118.75 86.47,119.35 87.98,119.79 C88.4074282,119.818998 88.824348,119.649278 89.11,119.33 C89.6460352,118.631038 90.1434446,117.903285 90.6,117.15 L90.6,117.16 Z M69.74,53.59 L72,52.42 L72.81,55.01 L77.28,51.2 C75.91,51.06 74.69,51.52 73.52,51.41 C72.2924004,51.112042 71.1090345,50.6548325 70,50.05 C69.93,50.49 69.81,51.05 69.77,51.7 C69.73,52.35 69.77,52.94 69.77,53.59 L69.74,53.59 Z M121.67,73.59 C124.82,73.36 125.85,71.97 125.37,69.38 C124.58,69.09 123.69,69 123.61,68.69 C123.532626,67.8040446 123.583144,66.911565 123.76,66.04 C121.33,68.36 122.87,71.27 121.66,73.59 L121.67,73.59 Z M62,96.72 C62.4279192,97.0810149 62.9151149,97.3652124 63.44,97.56 C64.3543036,97.7186383 65.2848577,97.7623105 66.21,97.69 C66.7658444,97.5660484 67.3083771,97.3885531 67.83,97.16 C68.4,97.01 69,96.92 69.25,96.87 C68.33,96.55 66.81,96.41 66.67,95.87 C66.21,94.13 64.8,94.26 63.83,94.38 C63.2560122,94.3965939 62.7192216,94.6679152 62.3654768,95.1202447 C62.0117319,95.5725741 61.877774,96.1589312 62,96.72 Z M100.31,128.51 L100.52,128.05 C97.52,127.78 94.47,127.45 94.43,123.34 L92.12,124.08 L98.54,132.08 C98.23,131.41 97.77,130.48 97.38,129.52 C97.3222972,129.189164 97.3222972,128.850836 97.38,128.52 C97.7210597,128.629246 98.0550314,128.759495 98.38,128.91 C98.5862782,129.049461 98.7743915,129.21406 98.94,129.4 L100.31,128.51 Z M100.52,17.51 L100.03,17.61 C100.18,19.25 100.34,20.89 100.48,22.54 L102.91,21.75 C103.18,20.55 103.44,19.38 103.78,17.86 L105.49,19.65 L106.85,17.47 C105.088658,17.2839517 103.385776,18.1648881 102.52,19.71 L100.52,17.51 Z M99,31.93 L98.4,31.93 C98.2454123,32.4089617 98.1579142,32.9070281 98.14,33.41 C98.34,35.25 98.64,37.07 98.88,38.9 C98.99,39.76 100.88,41.23 101.66,40.97 L98.99,31.97 L99,31.93 Z M154.99,56.7 L156.08,55.96 C156.38,56.81 156.67,57.53 156.89,58.26 C157.11,58.99 157.24,59.67 157.44,60.54 C159.68,58.44 159.6,57.74 157.21,54.54 C156.56,53.67 155.96,52.94 154.98,53.85 L154.99,56.7 Z M158.32,101.15 L160.93,102.32 C161.04,102.32 161.63,102.44 162.23,102.51 C162.83,102.58 163.29,102.63 163.83,102.69 L164.03,102.12 C162.808815,100.79799 161.520447,99.5396618 160.17,98.35 C159.96,98.17 158.71,98.81 158.38,99.35 C158.05,99.89 158.31,100.74 158.31,101.15 L158.32,101.15 Z M166.38,117.46 C169.79,115.12 170.02,114.28 167.93,112.06 C164.25,114.5 164.25,114.5 166.38,117.46 Z M114.94,70.9 L117.22,76.37 L117.77,76.37 C117.1,74.69 121.22,75.97 119.27,73.54 C118.19,72.21 117.58,70.03 114.95,70.94 L114.94,70.9 Z M61,27.05 C60.4152341,27.2624663 59.812913,27.4230853 59.2,27.53 C57.4521993,27.6215056 56.1092684,29.1121589 56.2,30.86 C56.354932,31.5633501 56.5587605,32.2550304 56.81,32.93 L57.99,31.81 C56.8,29.15 56.9,29.06 60.82,28.98 L61.71,26.62 L57.36,24.53 L57.1,25.1 L61.03,27.1 L61,27.05 Z M86.15,58.9 C85.29,56.45 88.15,53.9 85.61,51.98 L82.61,53.56 C85.43,54.63 84.11,56.95 84.51,58.77 L86.18,58.91 L86.15,58.9 Z M170.31,107.14 L170.91,107.47 C172.36,106.01 175.4,106.75 175.91,103.26 C174.17,103.49 172.51,103.38 171.23,104.03 C170.58,104.37 170.61,106.03 170.34,107.14 L170.31,107.14 Z M157.34,17.95 L157.82,17.62 C158.72,18.16 159.59,18.74 160.52,19.23 C161.015446,19.4435229 161.527051,19.6174018 162.05,19.75 C162.138891,19.2405148 162.138891,18.7194852 162.05,18.21 C161.815076,17.5144713 161.455928,16.8673277 160.99,16.3 C160.446451,15.730248 159.85788,15.2052161 159.23,14.73 C158.65,15.44 158.04,16.13 157.52,16.89 C157.3867,17.2274486 157.318827,17.5871792 157.32,17.95 L157.34,17.95 Z M119,37.84 C117.43,39.31 119.15,42.91 115.43,43.11 L115.91,44.62 C117.44,42.62 118.74,45.62 119.91,44.97 C119.59,42.5 119.29,40.14 119,37.84 Z M194,39 C193.624756,39.5052917 193.191828,39.9650679 192.71,40.37 C191.840959,40.908427 190.919584,41.3573878 189.96,41.71 C189.68,41.81 189.2,41.37 188.82,41.17 C189.105396,40.8578219 189.416488,40.5701457 189.75,40.31 C190.418768,39.9524363 191.063473,39.5515835 191.68,39.11 C191.94,38.89 191.87,38.3 191.95,37.88 C191.513567,37.8406331 191.073613,37.8778601 190.65,37.99 C188.17,39.17 187.81,40.23 188.82,42.99 C191.03,42.62 193.89,40.61 194.01,38.99 L194,39 Z M130.7,65.63 C130.63,66.33 130.56,67.03 130.48,67.83 L128.34,67 L129.8,71.49 C132.95,69.21 132.95,69.21 130.69,65.63 L130.7,65.63 Z M166.47,53.16 L165.93,53.5 C167.77,55.84 165.39,57.5 164.99,59.43 C167.78,60.81 164.99,61.55 164.62,62.63 L166.28,62.94 C166.5,60.48 165.75,57.77 168.95,56.55 L166.47,53.16 Z M194.83,92.42 C193.19,92.42 191.83,92.37 190.39,92.42 C189.98,92.42 189.25,92.89 189.27,93.09 C189.391979,94.0384049 189.579088,94.97729 189.83,95.9 C190.342302,95.712906 190.843166,95.4958652 191.33,95.25 C192.33,94.66 193.33,94.04 194.33,93.38 C194.55,93.23 194.6,92.83 194.81,92.38 L194.83,92.42 Z M41.26,84.89 C40.1264498,86.0881032 39.8445141,87.8591354 40.55,89.35 C40.8858499,90.0482771 41.3429345,90.6814239 41.9,91.22 C42.02,91.35 42.9,91.07 42.9,90.93 C43.0267899,90.1455991 42.9996175,89.3440142 42.82,88.57 C42.3614105,87.3167102 41.8373563,86.0883539 41.25,84.89 L41.26,84.89 Z M150,133.15 L150.28,133.51 C151.59,133.27 153.09,133.34 154.18,132.7 C155.27,132.06 156.51,130.89 154.75,128.94 L150,133.15 Z M68.81,110.58 L65.3,110.58 C65.3957877,111.427301 65.3957877,112.282699 65.3,113.13 C65.031376,113.825496 64.6642985,114.478826 64.21,115.07 L66.47,115.07 C66.55,115.07 66.63,114.98 66.72,114.93 C66.33,112.81 66.57,112.18 68.11,111.58 C68.31,112.26 68.5,112.92 68.7,113.58 L69.16,113.47 L68.85,110.58 L68.81,110.58 Z M53.16,137 C55.76,136.5 56.82,135.1 56.7,132.42 C53.6,133.14 52.22,134.87 53.16,137 Z M61.39,102.16 C62.93,101.54 65.3,102.5 65.01,99.27 C63.5,99.87 61.64,100.08 60.74,101.12 C60.06,101.91 60.6,103.75 60.6,105.4 L62.42,103.3 L61.42,102.16 L61.39,102.16 Z M130.85,128.42 L130.54,128.19 L128.79,128.93 L128.46,127.45 L130.85,128.42 Z M79.28,91.83 C78.85,91.83 78.65,91.72 78.54,91.83 C77.97,92.22 77.42,92.64 76.86,93.05 C77.2992007,93.3606373 77.7807983,93.6064878 78.29,93.78 C79.1586217,93.9268924 80.0392843,93.9905144 80.92,93.97 C81.386497,94.003635 81.850029,93.8727137 82.23,93.6 C82.4835432,93.2402265 82.5327318,92.774827 82.36,92.37 C82.0202838,91.9421776 81.5304482,91.6597176 80.99,91.58 C80.4091553,91.5867258 79.8326562,91.6811233 79.28,91.86 L79.28,91.83 Z M81.71,38.56 L83.71,41.08 L85.83,43.72 L86.83,41.9 L88.46,42.53 L87.44,41 C86.04,41.48 86.12,41.42 85.2,40.3 C84.47,39.4 83.97,38.01 81.71,38.54 L81.71,38.56 Z M118.71,56.69 C118.497777,57.5772038 118.400314,58.4879793 118.42,59.4 C118.49,59.91 119.28,60.76 119.62,60.71 C120.42,60.58 121.62,60.16 121.82,59.55 C122.29,58.37 120.23,56.55 118.71,56.7 L118.71,56.69 Z M130,81.38 L130.1,81.95 L134.26,83.73 L135.02,79.37 C134.370539,79.7366877 133.703027,80.0704435 133.02,80.37 C132.02,80.75 131.02,81.04 130.02,81.37 L130,81.38 Z M71.7,77 C70.8355159,77.4917221 70.0359695,78.0897022 69.32,78.78 C69.0250839,79.3801077 68.9679305,80.0695204 69.16,80.71 C69.22,81.01 69.87,81.18 70.24,81.4 C70.37,80.5 70.49,79.66 70.61,78.83 L71.24,78.83 C71.39,79.89 71.54,80.96 71.65,81.83 L73.14,78.23 L71.7,77 Z M163.57,111.4 L165.38,112.22 C166.75,111.34 167.56,110.17 167.01,108.58 C166.87,108.18 165.44,107.79 165.39,107.87 C164.7,108.99 164.16,110.19 163.57,111.39 L163.57,111.4 Z M133.2,125.92 C135.25,124.37 135.54,122.44 135.45,120.24 L137.45,120.9 L137.86,120.32 L135.27,118.23 C134.87,119.5 134.48,120.63 134.16,121.79 C133.84,122.95 133.56,124.26 133.16,125.92 L133.2,125.92 Z M196.68,105.83 C197.68,109.02 198.98,108.93 201.92,105.83 C199.82,102.98 199.82,102.98 199.12,103.58 C199.566854,104.083667 199.96841,104.625767 200.32,105.2 C200.462922,105.64912 200.530503,106.118804 200.52,106.59 C200.053668,106.711612 199.571064,106.75886 199.09,106.73 C198.268539,106.488917 197.463527,106.194971 196.68,105.85 L196.68,105.83 Z M86.12,32.46 C87.58,29.46 87.58,29.46 84.32,26.82 L82.72,28.9 C84.601296,29.0333986 86.073193,30.5745614 86.12,32.46 Z M181.46,48.36 L182.85,47.51 C183.572363,46.9341929 184.361363,46.4473632 185.2,46.06 C186.76,45.55 187.34,44.72 186.97,43.06 C184.31,43.61 182.79,45.48 181.47,48.36 L181.46,48.36 Z M31.06,95.16 C30.92,96.9 32.24,97.86 34.65,97.38 C34.89,96.38 34.91,95.17 36.58,96.07 C37.05,96.32 37.89,95.88 38.58,95.76 C38.58,95.56 38.52,95.36 38.49,95.16 L31.06,95.16 Z M83.71,87.07 L85.59,88.17 L85.99,87.75 C85.3985322,86.9248928 84.6795436,86.1991531 83.86,85.6 C83.58,85.45 82.24,86.41 82.06,87.05 C81.63,88.6 82.68,89.6 83.97,90.38 C84.0755853,89.9101852 84.1358613,89.4313256 84.15,88.95 C84.0462416,88.309879 83.895841,87.6781966 83.7,87.06 L83.71,87.07 Z M144,83.31 C144.82,81.63 144.82,81.63 141.7,79.76 C141,80.92 139.59,81.93 140.7,83.01 L144.02,83.31 L144,83.31 Z M97.78,105.09 C96.8263402,105.597575 95.9562143,106.248483 95.2,107.02 C94.7344327,107.892287 94.5067989,108.871802 94.54,109.86 C94.54,110.1 95.3,110.4 95.71,110.67 C96.1032091,110.12653 96.4383734,109.543345 96.71,108.93 C97.12,107.74 97.38,106.5 97.71,105.09 L97.78,105.09 Z M188.07,53.3 C187.72,53.3 187,53.36 186.28,53.43 C185.551177,53.468399 184.826011,53.558627 184.11,53.7 C183.74867,53.8273118 183.441704,54.0742955 183.24,54.4 C183.17,54.5 183.46,55.03 183.67,55.08 C184.0108,55.137977 184.361209,55.0854156 184.67,54.93 C184.93833,54.7938008 185.187209,54.622276 185.41,54.42 C186.6,55.15 187.41,55.69 188.23,56.14 C188.41,56.24 188.95,56.14 188.97,56 C189.022782,55.6858535 188.984614,55.3631642 188.86,55.07 C188.65,54.54 188.38,54.07 188.03,53.31 L188.07,53.3 Z M147.89,42.31 C150.25,40.1 150.89,38.47 150.29,36.41 C150.032864,35.8963405 149.695272,35.427087 149.29,35.02 L148.82,35.28 C148.94,36.95 149.06,38.63 149.19,40.4 L147.89,39.73 L147.89,42.31 Z M148.78,51.67 L149.66,51.67 C149.604581,50.6440812 149.604581,49.6159188 149.66,48.59 C149.818732,47.6516044 150.032433,46.7233399 150.3,45.81 C150.39,45.43 150.46,45.04 150.54,44.65 C149.919284,44.6065206 149.295692,44.6299892 148.68,44.72 C148.47,44.72 148.18,45.54 148.3,45.72 C149.46,47.17 149.05,48.62 148.53,50.15 C148.38,50.6 148.67,51.21 148.77,51.75 L148.78,51.67 Z M50.27,80.29 C50.84,82.29 51.27,83.89 51.82,85.49 C51.94,85.82 52.76,86.28 52.89,86.19 C53.3,85.88 53.83,85.29 53.76,84.91 C53.5587365,84.1732196 53.1967278,83.4901843 52.7,82.91 C52.08,82.11 51.32,81.41 50.27,80.29 Z M185.04,89.34 L185.04,89.95 C187.09,91.41 190.89,91.52 192.24,89.8 L185.08,89.35 L185.04,89.34 Z M124.39,98.73 C125.39,98.73 126.19,98.73 126.99,98.73 C127.79,98.73 128.33,98.58 128.99,98.51 C128.735873,97.9554451 128.398663,97.4428866 127.99,96.99 C127.58,96.64 126.71,96.25 126.45,96.44 C125.6,97.04 124.25,97.44 124.33,98.74 L124.39,98.73 Z M41.2,57.28 L40.58,57.5 C41.04,58.56 41.44,59.66 41.97,60.68 C42.2,61.11 42.87,61.33 43.06,61.76 C43.68,63.19 44.18,63.34 45.64,62.06 C44.82,61.32 43.95,60.65 43.22,59.86 C42.49,59.07 41.87,58.14 41.22,57.27 L41.2,57.28 Z M74.33,43.22 C72.87,44.43 73.15,46.22 74.81,48 L76.93,46.68 C76.18,45.73 75.52,44.94 74.93,44.12 C74.7268152,43.8305989 74.5398607,43.5301361 74.37,43.22 L74.33,43.22 Z M121.74,81.53 C121.95,82.4 122.13,83.26 122.37,84.11 C122.45,84.4 122.64,84.85 122.85,84.9 C123.69,85.07 124.56,85.11 125.42,85.19 C125.09,82.48 124.42,81.88 121.74,81.53 Z M176,75.09 C177.29,75.7 178.42,76.6 179.76,75.26 C179.95,75.07 180.63,75.37 181.08,75.45 C181.496328,75.5656434 181.920904,75.6492213 182.35,75.7 C182.487952,75.4773391 182.563905,75.2218617 182.57,74.96 C182.209375,74.7045044 181.795788,74.5336006 181.36,74.46 C179.78,74.27 178.18,74.16 176.41,74 L176,75.1 L176,75.09 Z M109.84,74.84 C110.086466,74.3650567 110.384966,73.918984 110.73,73.51 C111.73,73.88 112.73,74.37 113.5,74.74 C113.21,73.74 113.61,71.59 111.1,71.83 C110.27,71.91 109.52,72.75 108.74,73.25 L109.84,74.84 Z M56.75,35.84 L55.69,35.6 L54.12,38.68 L57.12,39.4 L56.78,35.83 L56.75,35.84 Z M97.28,29.46 L94.08,24.98 L92.63,28.84 L93.01,29.11 C94.17,27.8 95.19,28.11 96.23,29.19 C96.48,29.44 97.01,29.4 97.29,29.47 L97.28,29.46 Z M66.19,25.13 L66.72,24.72 C65.42,23.02 64.13,21.32 62.79,19.65 C62.65,19.48 62.23,19.54 61.9,19.48 C61.9,22.62 64.77,23.28 66.19,25.13 Z M130.8,15.74 C132.41,13.83 133.8,12.22 135.11,10.6 C135.17,10.53 135.06,10.31 134.97,9.93 C134.46,10.38 134.06,10.75 133.63,11.09 C133.107435,11.6452224 132.48709,12.0994641 131.8,12.43 C130.18,12.89 130.08,13.81 130.8,15.75 L130.8,15.74 Z M49.44,127.1 C47.87,128.1 47.76,132.29 49.44,133.83 L49.44,127.1 Z M108.31,77.49 L108.5,77.2 C108.05,76.36 107.62,75.5 107.15,74.67 C106.892158,74.105304 106.555466,73.5800653 106.15,73.11 C106.03,72.99 105.06,73.4 105.07,73.53 C105.07,74.25 105.07,75.18 105.54,75.63 C106.399583,76.3467936 107.335174,76.9671679 108.33,77.48 L108.31,77.49 Z M71.33,119.55 C71.24,118.05 71.16,116.69 71.08,115.34 L70.51,114.99 L69.15,117.45 L68.85,115.8 C67.95,117.48 69.28,119.34 71.34,119.55 L71.33,119.55 Z M72.34,61.32 C71.418749,62.0968485 70.6108951,62.9989521 69.94,64 C69.72,64.45 70.56,65.36 71.58,64.79 C72.82,64.1 74.11,63.46 72.28,61.32 L72.34,61.32 Z M202.06,120.56 C202.85,119.76 199.76,117.21 203.48,118.01 C203.359681,117.644633 203.269381,117.270057 203.21,116.89 C203.12,115.65 202.21,115.46 201.47,115.89 C200.845183,116.311749 200.470495,117.016164 200.47,117.77 C200.865095,118.768599 201.396831,119.70755 202.05,120.56 L202.06,120.56 Z M137.69,94.71 L137.23,94.91 C137.138001,96.3995751 137.161405,97.894036 137.3,99.38 C137.42,100.13 138.23,100.77 138.73,101.46 L139.13,101.13 L137.69,94.71 Z M97.61,81.12 L100.07,78.54 C99.3054045,78.1448532 98.4811002,77.8779678 97.63,77.75 C97.21,77.75 96.63,78.62 96.46,79.18 C96.37,79.56 96.97,80.09 97.61,81.12 Z M93.33,18.3 L91.57,20.3 L92.18,20.19 C92.6185398,20.8543406 93.0960426,21.4921239 93.61,22.1 C93.9994319,22.4166855 94.4300247,22.679078 94.89,22.88 C94.89,22.36 95.18,21.78 95,21.35 C94.4971949,20.2931542 93.9363389,19.2649182 93.32,18.27 L93.33,18.3 Z M128.11,28.44 L131.49,27.79 L128.81,24 L128.11,28.51 L128.11,28.44 Z M130.82,44.21 L130.09,44.09 L128.46,47.61 L128.84,48.06 C129.66,47.89 131.14,47.8 131.17,47.55 C131.188483,46.4271668 131.07436,45.3060767 130.83,44.21 L130.82,44.21 Z M128.63,110.12 C129.655805,109.579756 130.739337,109.157078 131.86,108.86 C132.614533,108.897483 133.348778,109.11707 134,109.5 C134.24,109.6 134.36,109.98 134.57,110.19 C134.734157,110.118433 134.883412,110.016669 135.01,109.89 C134.880239,109.525761 134.687287,109.187248 134.44,108.89 C133.94,108.4 133.36,107.99 132.74,107.5 C131.88,108.08 130.87,108.88 129.94,106.91 L128.64,110.12 L128.63,110.12 Z M148.25,33.86 C150.71,34.49 151.71,33.22 151.25,29.95 L148.25,33.86 Z M65,42.91 C65,43.15 65,43.39 64.93,43.62 C66.41,43.74 67.59,44.09 67.39,45.94 C67.39,46.32 67.93,46.77 68.22,47.18 C68.708826,46.7907335 69.1457217,46.3403949 69.52,45.84 C69.61,45.68 69.14,45.06 68.81,44.84 C68.0482114,44.2103282 67.2354146,43.6450498 66.38,43.15 C65.9333094,42.9950962 65.4626939,42.9206103 64.99,42.93 L65,42.91 Z M50.74,105.15 C49.74,105.1 48.85,105 48,105.03 C47.2149104,105.100263 46.4339018,105.210405 45.66,105.36 C47.17,108.36 49.14,105.66 50.74,106.45 L50.74,105.15 Z M129.22,12.69 C129.872699,11.7749223 130.467206,10.8197038 131,9.83 C131.08,9.68 130.4,8.83 130.08,8.83 C129.396248,8.9020966 128.724296,9.06000538 128.08,9.3 L129.2,12.66 L129.22,12.69 Z M161.35,71.23 L161.65,70.66 C160.76,69.98 161.27,67.83 159.22,68.42 C158.32,68.68 157.08,68.9 157.35,70.17 C158.045074,70.1907055 158.737334,70.2676232 159.42,70.4 C160.079884,70.6321558 160.721643,70.9129256 161.34,71.24 L161.35,71.23 Z M48.91,87.71 L43,83.31 C43.2702507,84.0147906 43.6898586,84.6527311 44.23,85.18 C45.23,86.18 46.23,87.18 47.23,88.11 C47.42,88.27 48.02,87.94 48.91,87.71 Z M88,123.78 C86.28,125.11 87.11,127.66 89.52,128.32 L86.81,124.84 C88.72,124.75 89.09,126.69 90.24,127.34 L90.67,126.93 L88,123.78 Z M124.79,56.23 C125.85,54.12 125.69,53.72 123.52,53.32 L122.17,56.08 L124.79,56.23 Z M196.18,79.57 C195.02,78.06 194.26,79.39 193.44,79.7 C192.99,79.87 192.51,80.38 192.14,80.29 C190.55,79.93 190.14,80.14 190.03,81.99 L196.18,79.57 Z M60.69,46.15 L58.8,46.29 L58.8,44.23 C57.2,47.36 57.25,47.95 58.97,49.16 L60.7,46.16 L60.69,46.15 Z M92.39,45.35 C92.54,46.07 92.63,46.51 92.65,46.59 L96.26,48.02 C96.26,47.29 96.41,46.19 96.26,46.13 C94.9941142,45.7902824 93.7082892,45.5297776 92.41,45.35 L92.39,45.35 Z M123.3,63.94 C124.082065,64.3789614 124.89024,64.7696905 125.72,65.11 C126.102868,65.1885962 126.499813,65.0725086 126.78,64.8 C126.93,64.61 126.78,64.05 126.6,63.8 C125.27,61.66 125.25,61.67 123.65,63.55 L123.3,63.99 L123.3,63.94 Z M101.7,76.47 L102.25,76.13 C101.9,75.69 101.59,74.93 101.19,74.88 C99.7,74.68 98.05,74.45 97.4,77.2 L101.14,75.74 L101.7,76.48 L101.7,76.47 Z M112,122.85 C111.65,122.48 111.26,121.69 110.71,121.55 C109.78322,121.503378 108.854928,121.604646 107.96,121.85 L109.89,124.34 L112,122.86 L112,122.85 Z M52.24,47.1 L50.51,46.78 C50.51,46.63 50.57,46.34 50.57,46.33 L47.94,46.99 C47.79,48.81 48.82,48.99 52.25,47.1 L52.24,47.1 Z M160.36,91.21 C159.91,92.34 159.82,93.55 159.22,93.88 C157.55,94.88 158.5,95.97 158.52,97.13 C159.73,96.74 160.86,93.24 160.35,91.21 L160.36,91.21 Z M186.16,95.21 C186.81,94.15 187.44,93.39 187.32,93.21 C186.809777,92.622283 186.178752,92.1515727 185.47,91.83 C185.32,91.76 184.42,92.68 184.47,92.89 C184.9333,93.7085651 185.490389,94.470367 186.13,95.16 L186.16,95.21 Z M187.6,108 C186.921068,107.805388 186.22939,107.658365 185.53,107.56 C184.857324,107.500462 184.179432,107.564862 183.53,107.75 C183.224669,108.012031 183.073896,108.411579 183.13,108.81 C183.68,109.73 187.06,109.2 187.62,108 L187.6,108 Z M152.62,24.35 C153.41,23.35 153.98,22.58 154.46,21.8 C154.46,21.8 153.57,20.95 153.46,21.05 C152.693018,21.56298 151.964423,22.1311502 151.28,22.75 L152.65,24.35 L152.62,24.35 Z M52.48,66.71 L48,64.29 L47.58,64.79 L51.25,68 L52.47,66.7 L52.48,66.71 Z M80.9,121.7 C80.33,118.91 82.6,121.39 82.99,120.4 C81.6,118.32 79.99,118.88 78.29,119.81 C78.69,120.09 79.12,120.37 79.53,120.67 L80.91,121.67 L80.9,121.7 Z M52.83,132.59 C54.49,131.59 54.02,129.24 52.23,127.42 C50.74,129.42 53.38,130.59 52.83,132.59 Z M134.93,99.99 L133.75,97.84 L131.07,99.43 L131.37,99.99 L134.93,99.99 Z M61.62,117.65 C61.52,116.89 61.51,115.14 61.27,115.11 C59.66,114.9 58.94,116.11 58.43,117.19 L61.62,117.64 L61.62,117.65 Z M56.83,19.64 L55.04,22.64 L57.9,24.03 C57.46,22.24 57.13,20.84 56.83,19.6 L56.83,19.64 Z M101.76,125.18 L97.53,123.46 C98.43,126.46 99.53,126.83 101.76,125.18 Z M75.96,125.24 L76.68,125.31 L76.68,122.31 L79.43,123.82 C78.7736148,122.907151 78.0658034,122.032403 77.31,121.2 C77.16,121.05 76.31,121.31 76.24,121.46 C76.08,122.7 76.04,123.96 75.96,125.21 L75.96,125.24 Z M93.55,105.76 C93.29,105.66 93.15,105.59 93,105.55 C92.3450813,105.351876 91.6766634,105.201482 91,105.1 C90.5777204,105.134079 90.1630274,105.231852 89.77,105.39 C89.93,105.85 89.95,106.45 90.26,106.73 C91.13,107.52 92.86,107 93.52,105.73 L93.55,105.76 Z M136.63,83.22 C135.63,84.35 133.17,85.06 135.27,87.17 C138.04,86.68 135.79,84.4 136.63,83.22 Z M179.7,44.78 L178.18,42 L176.33,45.52 L179.72,44.87 L179.7,44.78 Z M71.34,68.07 L71.02,68.31 C71.91,69.07 72.77,69.87 73.69,70.59 C74.0619027,70.8342916 74.4809335,70.9978158 74.92,71.07 C75.01,71.07 75.35,70.65 75.3,70.55 C75.08,70.06 74.86,69.4 74.45,69.2 C73.4430865,68.7544643 72.4074299,68.3769508 71.35,68.07 L71.34,68.07 Z M130.91,90.58 L131.91,86.94 C130.79,87.82 129.91,88.47 129.1,89.19 C128.869907,89.4454997 128.763849,89.7892761 128.81,90.13 C128.81,90.32 129.26,90.51 129.53,90.57 C129.975917,90.6066018 130.424083,90.6066018 130.87,90.57 L130.91,90.58 Z M77.29,69.17 C77.29,69.35 77.22,69.53 77.19,69.71 L79.75,72.44 L80.01,72.21 L79.4,70.73 L81.49,70.47 L81.49,70.17 L77.24,69.17 L77.29,69.17 Z M70.92,94.6 L71.92,91.73 L71.51,91.28 L68.74,93 L70.92,94.59 L70.92,94.6 Z M169.54,106.59 C169.36,105.65 169.21,104.88 168.97,103.59 L166.06,105.66 L166.32,106.09 L169.53,106.57 L169.54,106.59 Z M113.45,108.46 C110.7,109.66 111.56,111.88 111.02,113.51 L111.58,113.74 L113.45,108.46 Z M55.14,78.22 C56.01,77.22 56.37,76.39 56.95,76.17 C57.6899437,76.0585058 58.4447027,76.0959038 59.17,76.28 C58.5429904,75.6953489 57.7350141,75.3425208 56.88,75.28 C56.23,75.28 55.26,75.4 55,75.82 C54.74,76.24 55,77.16 55.15,78.22 L55.14,78.22 Z M50.57,88.75 L50.14,88.12 C49.47,88.52 48.42,88.79 48.24,89.35 C47.99,90.09 48.42,91.05 48.57,91.92 L49,91.92 L50.51,88.76 L50.57,88.75 Z M145.41,49.84 C142.9,51.45 142.58,52.01 143.41,53.11 C146.17,50.62 146.41,49.66 144.68,48.04 L145.4,49.83 L145.41,49.84 Z M143.02,43.2 L143.77,43.2 L143.77,37.83 L143.18,37.74 C143.002471,38.4424546 142.882078,39.1581236 142.82,39.88 C142.82,40.49 143.1,41.11 143.16,41.72 C143.159,42.2099693 143.112129,42.698769 143.02,43.18 L143.02,43.2 Z M171,102.85 L176.82,102.44 C174.54,101.05 173.36,101.18 171,102.85 Z M62.42,86.1 C62.42,86.37 62.42,86.63 62.42,86.89 L66.79,86.44 C64.91,83.83 63.7,86.08 62.37,86.11 L62.42,86.1 Z M80.2,87.7 L82.6,83.7 C82.42,83.59 81.89,83.05 81.44,83.1 C80.99,83.15 80.63,83.88 80.54,84.37 C80.32,85.58 80.27,86.83 80.19,87.66 L80.2,87.7 Z M99.64,63.41 C99.84,64.63 100.44,65.47 101.59,64.96 C102.27,64.66 102.66,63.71 103.47,62.7 L99.64,63.42 L99.64,63.41 Z M106.11,64.2 L106.32,62.47 L106.77,62.39 L107.39,63.82 C108.31,61.34 105.87,61.7 104.61,60.72 L103.86,63.37 L104.02,63.43 L105.13,61.64 L106.13,64.2 L106.11,64.2 Z M162.7,118.4 C162.63,119.51 162.57,120.4 162.5,121.4 C164.5,120.46 164.25,118.84 164.42,117.16 L162.7,118.44 L162.7,118.4 Z M195.7,116.22 L198.2,120.27 L198.67,120.03 L197.47,116.03 L195.7,116.23 L195.7,116.22 Z M107.7,113.44 L104.6,115.65 L104.78,116.02 L109.03,115.14 L107.7,113.45 L107.7,113.44 Z M127.59,20.93 L129.99,21.58 L130.99,19.32 C128.99,18.11 128.78,20.08 127.59,20.93 Z M46,97.49 C45.91,96.85 45.78,95.8 45.69,95.21 L43.22,93.93 C42.85,94.23 43.22,95.57 43.95,95.99 C44.68,96.41 45.41,97.05 45.95,97.49 L46,97.49 Z M57.22,115.49 L57.62,115.35 C57.3202222,114.383852 56.9492047,113.441267 56.51,112.53 C56.36,112.27 55.62,112.35 55.15,112.27 C55.15,112.71 54.97,113.27 55.15,113.58 C55.7707672,114.263057 56.4391039,114.901319 57.15,115.49 L57.22,115.49 Z M119.3,14.73 L120.39,14.87 C120.5,13.14 120.61,11.41 120.73,9.68 L120.07,9.59 L119.3,14.73 Z M149.67,125.73 L150.33,126.13 L153.68,120.64 L153.11,120.3 L149.68,125.73 L149.67,125.73 Z M178.81,60.85 L179.33,61.19 C179.82,60.74 180.74,60.27 180.71,59.86 C180.509835,58.9951096 180.172212,58.1679325 179.71,57.41 L179.15,57.59 L178.8,60.86 L178.81,60.85 Z M97.23,26.91 C98.53,25.44 98.69,22.24 97.63,21.39 C97.49,23.31 97.36,25.11 97.23,26.91 Z M136.17,115.61 L135.95,116.24 L138.77,115.98 L136.59,112.85 L136.17,115.62 L136.17,115.61 Z M56.17,85.04 C56.2295731,84.2945216 56.2295731,83.5454784 56.17,82.8 C56.0038681,82.1466061 55.7761834,81.5104282 55.49,80.9 L54.94,81.14 C55.03,82.65 53.77,84.68 56.2,85.05 L56.17,85.04 Z M101.71,24.87 C101.84,26.51 101.97,28.15 102.1,29.79 C102.27,28.13 104.17,26.44 101.71,24.87 Z M180.4,106.48 L180.89,106.09 C180.42,105.44 180.08,104.56 179.44,104.2 C178.8,103.84 177.99,104.13 177.24,104.13 C177.24,104.3 177.24,104.48 177.24,104.65 L180.41,106.48 L180.4,106.48 Z M56.29,57.09 L52.48,57.73 C53.26,58.38 53.6,58.91 53.96,58.91 C54.96,58.91 56.11,58.91 56.3,57.09 L56.29,57.09 Z M122.54,87.66 L122.33,88.04 L124.65,89.86 L126,88.1 L122.56,87.67 L122.54,87.66 Z M44.38,82.78 L45.94,80.9 L41.64,80.9 L44.38,82.78 Z M64,71.18 C64.17,69.59 63.86,69.31 61,68.58 L62.31,71.09 L63.97,71.18 L64,71.18 Z M172.41,60.31 C171.31,61.31 171.41,62.21 172.17,63.01 C172.35,63.19 173.3,62.95 173.55,62.63 C174.9,60.92 172.38,61.4 172.41,60.31 Z M95.51,56.7 L95.31,56.76 L97.01,62.57 L97.51,62.57 C97.65,62.15 98.01,61.63 97.88,61.33 C97.16,59.75 96.31,58.23 95.51,56.69 L95.51,56.7 Z M49.25,28.2 C50.05,28.58 50.67,29.09 50.9,28.95 C51.7827654,28.3433335 52.6215242,27.6749999 53.41,26.95 L53.06,26.43 L49.24,28.16 L49.25,28.2 Z M45.68,140.08 L46.11,139.77 L46.24,136.98 L45.6,136.69 C45.0780479,137.275463 44.6709608,137.953942 44.4,138.69 C44.34,139.07 45.22,139.59 45.68,140.05 L45.68,140.08 Z M180.57,50.53 L181.22,50.26 C181.15,49.74 181.22,48.94 180.99,48.76 C180.298964,48.4253928 179.565548,48.186528 178.81,48.05 L178.41,48.85 L180.57,50.53 Z M151.27,85.38 L150.86,86.24 L153.86,87.9 L154.71,86.65 L151.3,85.38 L151.27,85.38 Z M118.46,22.68 L115,21.93 L115,23.08 L117.46,23.95 L118.46,22.71 L118.46,22.68 Z M130,115.17 L130.37,114.78 L128.63,112.6 L127.7,115.06 L130.01,115.17 L130,115.17 Z M140.23,47.87 L140.85,52.39 L142.09,49.13 L140.23,47.87 Z M59.52,132.22 L61.74,134.62 L60.91,130.14 C60.6530784,130.412064 60.4126496,130.699243 60.19,131 C59.95,131.4 59.74,131.81 59.52,132.21 L59.52,132.22 Z M79.12,54.37 C79.32,56.21 80.25,56.63 81.8,55.65 C81.6,53.93 80.4,54.2 79.12,54.37 Z M83.89,19.7 C82.89,22.11 82.89,22.37 83.96,23.32 L85.15,21.26 L83.89,19.7 Z M110.73,83.47 C110.331537,82.9718127 109.907641,82.4945118 109.46,82.04 C109.23,81.83 108.79,81.6 108.56,81.68 C108.249907,81.8444742 108.048753,82.1594897 108.03,82.51 C108.17,84.8 109.76,83.27 110.73,83.51 L110.73,83.47 Z M110.35,49.14 C108.42,49.74 108.09,50.39 108.82,51.53 L110.72,50.99 L110.35,49.14 Z M129.6,118.58 L131.6,120.26 C131.37,120.93 131.17,121.5 130.97,122.06 L131.23,122.18 L133.23,119.56 L129.62,118.56 L129.6,118.58 Z M58.64,38.42 C58.64,37.6 58.57,36.95 58.55,36.3 L57.94,36.3 C57.9589392,37.0928436 58.0971554,37.8783158 58.35,38.63 C58.65,39.22 59.35,39.63 60.24,40.35 L60.24,38.22 L58.64,38.38 L58.64,38.42 Z M184.53,53 C185.45,52.47 187.04,53.21 186.82,51.38 L184.53,50.56 L184.53,53 Z M81.41,37.91 L80.41,35.18 C80.1217641,35.6475669 79.8901386,36.1477437 79.72,36.67 C79.53,37.61 79.72,38.35 81.45,37.91 L81.41,37.91 Z M50.19,83.91 C49.63,80.07 49.44,79.91 47.68,81.06 L50.19,83.91 Z M37.13,85.15 L39.47,86.23 L40.84,83.46 L37.13,85.16 L37.13,85.15 Z M58.25,63.32 L59.46,66.11 L59.94,66.21 L60.74,64.13 L58.25,63.32 Z M57.92,81.48 L59.28,79.69 L57,78.26 L56.55,78.59 L57.91,81.42 L57.92,81.48 Z M176.69,113.16 L178.8,113.84 L178.8,110.64 L176.69,113.16 Z M123.09,97.23 C121.55,99.6 121.66,99.97 123.76,100.32 C123.53,99.24 123.31,98.23 123.09,97.23 Z M140.09,67.39 C141.74,68.21 142.71,67.81 142.57,65.73 L140.09,67.39 Z M37.86,97.31 L37.68,98.23 L41.47,98.93 L41.58,98.33 L37.86,97.33 L37.86,97.31 Z M182.64,39.33 L182.15,40.68 L186.99,40.43 L182.64,39.32 L182.64,39.33 Z M136.52,29.13 L136.34,28.92 C135.71,30.07 135.08,31.22 134.47,32.38 C134.315333,32.674008 134.210575,32.9916638 134.16,33.32 C134.16,33.39 134.58,33.64 134.62,33.6 C134.950871,33.3709511 135.221819,33.0657057 135.41,32.71 C135.83,31.53 136.16,30.32 136.52,29.13 Z M162.8,26.54 L163.53,26.33 C163.59,25.75 163.89,25.02 163.65,24.63 C163.41,24.24 162.65,24.23 162.07,24.05 L161.63,24.49 L162.8,26.49 L162.8,26.54 Z M205.8,73.85 L205.46,73.26 L201.35,75.67 L201.66,76.21 L205.8,73.84 L205.8,73.85 Z M176.09,62.11 C176.8,60.48 178,58.82 176.69,56.6 L176.09,62.11 Z M142.18,15.62 L141.68,15.13 C141.17,15.58 140.47,15.94 140.24,16.49 C140.08,16.85 140.6,17.49 140.82,18.03 L141.32,17.87 L142.19,15.62 L142.18,15.62 Z M59.62,141 L57.56,139.06 L56.73,141.27 L59.62,141.01 L59.62,141 Z M65,6.61 L65.73,6.5 L65.29,2.83 L64.4,2.96 L65,6.61 Z M61.86,111.82 L62.15,112.48 L64.32,112.27 L63.24,110.74 L61.85,111.83 L61.86,111.82 Z M137.33,37.19 L138.92,34.5 C137.31,34.23 136.92,34.77 137.33,37.19 Z M44.33,55.58 L41.92,54.26 C41.9245512,54.7156689 41.9850029,55.1690573 42.1,55.61 C42.51,56.61 43.15,56.81 44.33,55.61 L44.33,55.58 Z M199.7,109.65 L201.34,111.57 C201.66,110.3 201.87,109.45 202.15,108.37 C201.59,108.61 201.3,108.71 201.04,108.85 C200.78,108.99 200.34,109.27 199.7,109.66 L199.7,109.65 Z M99.9,104.53 C100.76,106.76 101.65,107.31 102.73,106.53 L99.9,104.53 Z M123.09,48.23 L123.54,48.5 L125.84,47.15 L125.03,46.09 L123.09,48.23 Z M45.91,27.23 L46.21,26.73 L42.77,24.17 L42.31,24.84 L45.9,27.23 L45.91,27.23 Z M61,51.11 L60.83,51.58 C61.27,51.88 61.83,52.58 62.11,52.43 C62.69,52.22 63.11,51.6 63.62,51.15 L63.3,50.69 L61,51.11 Z M88,68.94 C88.6798251,69.1107777 89.3791465,69.1914686 90.08,69.18 C90.8233087,68.9748558 91.5386495,68.6793159 92.21,68.3 L88.51,68.08 L88.01,68.94 L88,68.94 Z M114.48,40.82 L116,37 L113.58,39 L114.42,40.8 L114.48,40.82 Z M136.55,89.32 C139.18,88.19 139.5,87.58 138.21,86.32 L136.55,89.32 Z M108,79 L107.78,79.69 L112.06,81.27 L112.23,80.75 L108,79 Z M189.42,69.77 L189.15,70.41 L193.51,72.41 L193.77,71.84 L189.43,69.78 L189.42,69.77 Z M109.23,43 L108.81,42.44 L107.09,43.26 L107.84,44.67 L109.23,43 Z M87.83,101 C88.4330382,100.994763 89.0310765,100.890022 89.6,100.69 C89.8455594,100.378856 89.9135783,99.963185 89.78,99.59 C89.3245412,99.2980002 88.8247098,99.0818568 88.3,98.95 L87.84,100.95 L87.83,101 Z M119,92.76 L117.57,90.48 L116.57,93.31 L119.02,92.76 L119,92.76 Z M74,30.06 L73.35,29.21 C72.78,29.69 72.19,30.15 71.66,30.67 C71.8034875,30.9401524 71.9743871,31.1948264 72.17,31.43 L74,30.06 Z M55.3,65.76 L50.8,64.4 C52.56,66.14 54.65,66.61 55.3,65.76 Z M100,68.88 L99.76,69.13 C100.63,69.4 101.49,69.7 102.38,69.9 C102.52,69.9 102.77,69.45 102.98,69.21 C102.63,69.01 102.3,68.65 101.98,68.64 C101.327148,68.6650244 100.677868,68.7486946 100.04,68.89 L100,68.88 Z M85.14,108.18 L85.54,108.43 C85.73,108.08 86.07,107.73 86.08,107.37 C86.09,107.01 85.77,106.37 85.59,106.37 C84.7705536,106.423291 83.9554764,106.530187 83.15,106.69 C85.73,107.09 85.73,107.09 85.15,108.16 L85.14,108.18 Z M93.85,76.29 L93.33,75.59 L91.33,76.83 C91.69,77.03 92.14,77.47 92.33,77.37 C92.85646,77.0765126 93.3408433,76.7132251 93.77,76.29 L93.85,76.29 Z M47.35,126.35 L48,126.84 L50.12,124.2 L49.66,123.83 L47.36,126.35 L47.35,126.35 Z M136.36,39.19 L139.36,41.92 C138.948227,41.2354588 138.612883,40.5077626 138.36,39.75 C138.15,38.6 137.61,38.55 136.36,39.19 Z M182.14,93.19 C180,93.04 181.06,94.8 180.4,95.45 L181.04,96.04 L182.14,93.19 Z M117.45,56.35 L116.99,56.27 L115.99,58.48 L117.62,58.83 C117.57,57.88 117.53,57.12 117.48,56.35 L117.45,56.35 Z M118.69,53.03 C118.95,51.88 119.17,50.92 119.4,49.91 C117.68,50.2 117.45,51.07 118.69,53.03 Z M119.84,96.1 L118.98,96.22 C118.3,97.32 119.71,98.08 119.68,99.08 L120.23,99.01 C120.096667,98.0433333 119.966667,97.0766667 119.84,96.11 L119.84,96.1 Z M157.2,40.41 C157.04,41.63 156.93,42.49 156.8,43.49 C158.51,42.76 158.56,42.42 157.2,40.41 Z M117.2,18.09 L116.87,17.7 C116.34,18.79 114.25,18.01 114.46,20.39 L117.2,18.09 Z M167.61,46.19 C168.25,45.38 168.9,44.91 168.88,44.48 C168.86,44.05 168.23,43.48 167.61,42.72 L167.61,46.19 Z M48,117.71 L47.93,116.82 C47.3142154,116.832489 46.701199,116.906185 46.1,117.04 C45.93,117.09 45.94,117.71 45.87,118.04 L48,117.68 L48,117.71 Z M131.27,124.78 L132.09,125.03 L133.09,122.39 L132.43,122.13 L131.27,124.78 Z M72.27,123.4 L71.77,126.79 C73.31,126.27 73.37,125.86 72.27,123.4 Z M87.93,57 L87.11,57.52 L88.49,59.52 C88.69,59.38 89.07,59.15 89.05,59.11 C88.7,58.4 88.31,57.71 87.93,57.02 L87.93,57 Z M50.72,97.48 C51.5,99.22 52.67,98.95 53.72,98.7 C54.08,98.61 54.3,97.94 54.58,97.54 C52.58,98.8 52.58,98.8 50.76,97.48 L50.72,97.48 Z M86.86,85.34 C87.25,87.39 87.25,87.39 89.52,87.09 L86.86,85.34 Z M49.94,138.49 L47.87,137.09 C47.94,138.09 47.99,138.69 48.06,139.55 L49.94,138.48 L49.94,138.49 Z M176.87,66.34 L177.22,66.67 L178.86,64.78 L176.86,64.78 L176.87,66.34 Z M173.87,88.49 L171.37,89.29 C171.37,89.49 171.43,89.7 171.46,89.9 C172.075004,89.9640487 172.694996,89.9640487 173.31,89.9 C173.49,89.9 173.57,89.27 173.88,88.44 L173.87,88.49 Z M117.1,63 L117.96,65.47 C118.424479,64.9061964 118.682077,64.2004466 118.69,63.47 C118.177094,63.2696378 117.64398,63.1254624 117.1,63.04 L117.1,63 Z M142.67,91.34 C142.67,91.51 142.77,91.68 142.82,91.84 L144.57,92.39 C144.47,91.64 144.39,91.13 144.32,90.61 L142.67,91.34 Z M95.15,55 L95.91,55.55 C96.2410721,55.1558943 96.5169394,54.7185437 96.73,54.25 C96.79,54.08 96.3,53.73 96.06,53.46 L95.15,55 Z M147.15,97.34 C146.75,97.25 146.15,96.89 145.84,97.07 C145.349626,97.5162247 144.931334,98.0357172 144.6,98.61 L144.92,98.8 L147.15,97.34 Z M97.3,43.94 L98.01,44.06 L98.69,40.56 L98.24,40.44 L97.3,43.94 Z M145.5,20.94 L145.63,20.53 L143.84,19.85 C143.71,20.37 143.59,20.85 143.42,21.59 L145.5,20.94 Z M166.82,68 L165,70.24 C167.63,69.53 167.82,69.29 166.77,67.97 L166.82,68 Z M170.01,33.72 L169.36,33.41 L168.07,36.01 L168.73,36.33 L170.01,33.73 L170.01,33.72 Z M164.08,77.87 L163.91,78.73 L166.05,79.12 C166.05,78.85 166.13,78.36 166.05,78.34 C165.41,78.13 164.74,78.01 164.05,77.86 L164.08,77.87 Z M85.51,34.73 L84.72,34.73 C84.82,35.63 84.92,36.52 85.02,37.42 L85.51,37.42 L85.51,34.73 Z M82,107.26 L81.69,106.48 L79.69,107.23 L80.01,108.03 L82.01,107.25 L82,107.26 Z M84.53,74.25 C84.74,73.56 85.06,72.99 84.93,72.86 C84.4255676,72.418475 83.8797043,72.026659 83.3,71.69 L83.03,72.08 L84.53,74.25 Z M106.01,80.85 L106.65,80.53 L105.35,78 L104.76,78.3 L106.01,80.85 Z M117.86,15.78 C117.86,15.56 117.78,15.35 117.75,15.14 L115.65,15.47 C115.73,15.78 115.82,16.1 115.9,16.41 L117.9,15.78 L117.86,15.78 Z M103.44,78.37 L103,78.37 L102.63,81.27 L103.36,81.27 L103.44,78.37 Z M183.61,79.76 C181.24,79.24 181.21,79.27 181.26,81.14 L183.61,79.76 Z M138.3,117.33 L139.45,118.43 C139.72,117.51 139.94,116.77 140.31,115.5 L138.31,117.33 L138.3,117.33 Z M93.57,98.33 L93.65,97.65 L89.89,97.3 L89.84,97.72 L93.57,98.34 L93.57,98.33 Z M90.41,114.34 L90.61,114.68 L94.75,112.68 L94.54,112.28 L90.41,114.33 L90.41,114.34 Z M119.35,31.4 L120.13,31.32 L119.69,28.79 L118.99,28.89 C119.11,29.73 119.23,30.57 119.35,31.41 L119.35,31.4 Z M72.26,85.51 L71.97,86.11 L74.72,87.88 L75,87.44 L72.26,85.51 Z M70.54,26.12 L69.71,26.22 C69.71,26.73 69.65,27.22 69.63,27.76 L70.87,27.76 C70.76,27.2 70.65,26.64 70.54,26.09 L70.54,26.12 Z M88.21,34.75 L88.89,37.2 C89.11,36.2 90.01,35.12 88.21,34.75 Z M145,113.18 L144.1,113.41 L144.67,115.67 L145.35,115.55 C145.223333,114.756667 145.103333,113.966667 144.99,113.18 L145,113.18 Z M161.36,43.59 L161.94,43.97 L163.04,42.64 L162.1,42.01 L161.35,43.58 L161.36,43.59 Z M155.29,50.72 L154.57,50.92 C154.69,51.47 154.8,52.02 154.91,52.57 L155.91,52.29 L155.32,50.71 L155.29,50.72 Z M108.58,110.43 L109.11,110.97 L111.11,108.74 L110.74,108.36 L108.63,110.43 L108.58,110.43 Z M69.44,22.43 C70.73,21.22 70.73,21.22 69.07,19.53 C69.19,20.44 69.31,21.35 69.45,22.43 L69.44,22.43 Z M126,100.02 L125.23,100.02 C125.23,100.62 125.17,101.22 125.14,101.82 L126.08,101.82 C126.08,101.21 126.02,100.61 126,100 L126,100.02 Z M119.86,64.1 L118.86,66.63 C120.32,66.39 120.65,65.48 119.86,64.1 Z M175.63,56.51 L174.88,56.33 C174.68,56.91 174.46,57.48 174.31,58.07 C174.558185,58.1796538 174.811855,58.2764488 175.07,58.36 L175.64,56.5 L175.63,56.51 Z M89,79 L88.67,79.3 C89.05,79.73 89.36,80.3 89.84,80.55 C90.14,80.69 90.69,80.32 91.18,80.17 L89,79 Z M141.32,108.28 L142.11,108.47 L142.72,106.58 C142.38,106.65 141.85,106.58 141.72,106.81 C141.514046,107.278708 141.372753,107.773234 141.3,108.28 L141.32,108.28 Z M117.47,29.46 L118.96,26.91 C116.96,27.19 117.05,28.16 117.47,29.46 Z M148.78,111.77 L149.31,111.77 C149.31,110.77 149.22,109.71 149.17,108.69 L148.78,108.69 L148.78,111.77 Z M163.54,108.12 L163,108 C162.82,109.28 162.63,110.56 162.44,111.84 L162.69,111.84 L163.61,108.05 L163.54,108.12 Z M135.39,73.56 L134.9,72.98 C134.38,73.36 133.9,73.73 133.36,74.15 C133.36,74.15 133.66,74.59 133.83,74.82 L135.38,73.55 L135.39,73.56 Z M48,116 L48.61,115.38 L46.81,114 L46.32,114.54 L48,116 Z M113,123.45 L113.52,123.65 L114.69,121.95 C114.252839,121.849158 113.80791,121.785597 113.36,121.76 C113.199884,122.313454 113.082868,122.878477 113.01,123.45 L113,123.45 Z M150.72,84.45 C152.25,83.69 152.51,82.8 151.67,81.79 L150.72,84.45 Z M74.09,125.93 L74.89,125.82 C74.5833333,124.7 74.28,123.583333 73.98,122.47 L73.81,122.47 C73.9,123.61 74,124.75 74.09,125.89 L74.09,125.93 Z M129.52,86.32 C129.52,86.18 129.52,86.05 129.52,85.92 L125.13,86.43 C125.13,86.55 125.13,86.67 125.13,86.8 L129.53,86.33 L129.52,86.32 Z M33.86,100.19 L36.86,98.9 C36.03,98.3 35.54,98.45 33.86,100.19 Z M63.54,129.8 C63.45,128.91 63.33,127.7 63.22,126.64 C62.22,127.64 62.22,127.64 63.54,129.8 Z M162.27,64.63 C162.27,64.4 162.18,64.18 162.13,63.95 L159.97,64.26 L160.11,65.02 L162.27,64.63 Z M78.67,128.68 L79.09,128.02 C78.7010956,127.697848 78.282561,127.413245 77.84,127.17 C77.77,127.17 77.42,127.73 77.2,128.03 L78.67,128.68 Z M108.92,98.06 L108.92,98.6 C109.35,98.6 109.92,98.86 110.18,98.67 C110.44,98.48 110.5,97.79 110.77,96.88 L108.88,98.07 L108.92,98.06 Z M82.88,133.07 L82.29,133.07 C82.1269539,133.544116 82.0326629,134.039144 82.01,134.54 C82.01,134.68 82.72,134.76 83.38,134.95 L82.88,133.1 L82.88,133.07 Z M83.16,99.67 C83.16,99.85 83.22,100.03 83.24,100.2 L85.85,99.84 L85.77,99.28 L83.15,99.66 L83.16,99.67 Z M75.15,79.5 L74.66,79.15 L73.28,80.9 L73.94,81.37 L75.14,79.5 L75.15,79.5 Z M53.83,45.5 L53.32,46.19 L54.86,47.46 L55.32,46.91 L53.83,45.49 L53.83,45.5 Z M66.83,79.97 L67.71,79.9 L67.49,78.38 C67.1872536,78.415934 66.8890134,78.4829543 66.6,78.58 C66.6369404,79.0483654 66.7104985,79.5131191 66.82,79.97 L66.83,79.97 Z M157.82,20.97 L157.82,22.91 L159.7,22.16 L157.82,20.96 L157.82,20.97 Z M68.61,38.08 L66.32,39.08 C67.05,39.94 68.08,39.53 68.61,38.08 Z M53.61,75.83 L53.09,75.83 L53.09,77.95 L53.61,77.95 L53.61,75.83 Z M107.73,55 L107.35,55.31 L108.86,57.4 L109.37,57 L107.73,55 Z M156.38,70.57 L155.74,70.36 C155.54,71.0933333 155.34,71.8266667 155.14,72.56 L155.85,72.74 L156.39,70.57 L156.38,70.57 Z M154,39.92 L153.62,40.1 C153.73,40.56 153.71,41.16 153.99,41.45 C154.27,41.74 154.82,41.38 155.68,41.25 L154,39.92 Z M62.74,77.1 L62.67,77.48 L64.29,77.8 L64.29,76.39 L62.74,77.1 Z M98.46,64.34 L97.88,64.75 L99.16,66.75 L99.72,66.4 L98.46,64.31 L98.46,64.34 Z M139.68,22.31 L140.15,22.31 L140.15,20 L139.51,20 L139.68,22.31 Z M48.21,101.31 L48.62,101.72 L50.62,99.54 L50.2,99.17 L48.2,101.31 L48.21,101.31 Z M69.57,33.52 C69.99,33.83 70.41,34.23 70.46,34.18 C70.9271513,33.7751281 71.3680437,33.340916 71.78,32.88 L71.52,32.59 L69.52,33.52 L69.57,33.52 Z M51.28,61.92 L52.02,61.92 C51.94,61.21 51.87,60.51 51.79,59.8 L51.28,59.8 L51.28,61.92 Z M68.38,49.28 C67.02,48.87 66.55,49.34 66.57,50.83 L68.38,49.28 Z M65.38,41.12 L65.09,40.74 L62.53,42.53 L62.93,43.05 L65.37,41.12 L65.38,41.12 Z M89.77,131.4 C89.54,132.26 89.33,132.89 89.21,133.55 C89.21,133.64 89.58,133.8 89.8,133.94 L90,132.53 C90.2800951,132.818366 90.5438404,133.122174 90.79,133.44 L89.77,131.4 Z M93.3,130.93 C93.3482499,131.414497 93.5516783,131.870458 93.88,132.23 L93.3,130.93 Z M89.52,123.46 C89.23,123.25 88.91,123.09 88.35,122.74 L89.52,123.46 Z M151.13,140.92 C153.13,138.58 154.95,136.01 156.9,133.43 L155.72,132.43 C153.65,135.31 156.72,136.3 152.78,137.43 C150.185438,138.187232 147.471361,138.448462 144.78,138.2 C145.29,137.04 148.38,136.6 148.88,135.45 C148.8,135.38 152.12,136.45 152.03,136.45 L151.13,140.92 Z M112.18,125.96 C111.506663,127.038503 111.007222,128.216239 110.7,129.45 C110.49,130.34 109.78,131.2 110.89,132.24 L112.18,125.96 Z M115.1,126.8 L114.39,126.57 C114.04,127.33 113.39,128.1 113.39,128.85 L115.1,126.8 Z M120.15,123.37 L119.57,123.28 L118.42,125.15 L117.92,125.02 C118.07,124.12 118.22,123.22 118.37,122.32 L120.15,123.37 Z M127.43,127.32 L126.14,127.42 C128.44,123.2 128.44,123.2 127.83,123.07 L126.99,123.79 C126.85,122.95 126.99,121.92 126.55,121.46 C125.477346,120.505115 124.939558,119.085953 125.11,117.66 C125.11,117.44 124.89,117.19 124.66,116.66 C123.98,119.18 123.37,121.4 122.79,123.66 C122.49,124.82 122.28,126.01 121.96,127.17 C121.64,128.33 120.96,128.64 119.87,127.66 L120.98,130.53 L121.62,130.45 L127.43,127.32 Z" id="Shape" fill-rule="nonzero"></path>
        </g>
    </g>
</svg>