<?xml version="1.0" encoding="UTF-8"?><svg id="Ebene_2" xmlns="http://www.w3.org/2000/svg" viewBox="0 0 363.75 130.66"><defs><style>.cls-1{fill:#858c73;}</style></defs><g id="Ebene_1-2"><path class="cls-1" d="m125.58,40.18c-.88.36-1.55.67-2.59,1.14-8.65-19.33-23.21-31.82-43.58-36.84-15.91-3.94-31.4-1.5-45.55,6.84C6.29,27.64-4.8,61.27,8.06,90.18c12.95,29.22,46.12,45.18,77.67,34.2,27.62-9.64,42.54-36.58,41.61-57.57h-38.86s4.66,10.62,6.94,15.8c-1.81.88-3.21,1.61-4.82,2.38-1.97-4.09-6.01-12.59-6.01-12.59l-19.38,42.49-19.28-42.59-5.96,12.8-4.82-2.49,7.62-17.2-7.62-17.36,5.03-2.38,5.86,12.54,19.22-42.7,19.33,42.8,5.8-12.44,5.08,2.02-6.94,15.86h41.76c1.5,26.06-15.49,56.07-47.93,64.67-34.25,9.07-69.59-10.16-79.75-44.87C-6.66,51.73,9.2,15.82,42.98,3.9c32.64-11.5,68.09,2.95,82.6,36.27h0Zm-76.59,25.13c5.44,12.02,16.27,36.17,16.27,36.17l15.7-35.03h-15.8v-2.75h15.6l-15.55-34.51c.05,0-10.93,24.41-16.22,36.12Z"/><polygon class="cls-1" points="196.61 78.57 189.44 97.25 188.16 100.98 186.88 97.25 179.76 78.57 177.78 78.57 187.11 102.69 189.26 102.69 198.54 78.57 196.61 78.57"/><rect class="cls-1" x="223.66" y="78.57" width="1.83" height="24.13"/><polygon class="cls-1" points="250.53 78.57 250.53 80.25 259.34 80.25 259.34 102.69 261.17 102.69 261.17 80.25 269.98 80.25 269.98 78.57 250.53 78.57"/><path class="cls-1" d="m298.31,82.84l.87-2.49h0l.87,2.56,4.2,10.53h-10.16l4.2-10.6h.02Zm-.18-4.28l-9.66,24.13h1.94l3-7.57h11.56l3.04,7.57h1.93l-9.64-24.1-2.15-.02h-.02Z"/><polygon class="cls-1" points="334.9 78.57 334.9 102.69 351.98 102.69 351.98 101.02 336.73 101.02 336.73 91.29 348.32 91.29 348.32 89.57 336.73 89.57 336.73 80.25 351.4 80.25 351.4 78.57 334.9 78.57"/><path class="cls-1" d="m175.42,43.57h10.78l-3.61-8.46c-.22-.47-.42-.91-.6-1.33s-.35-.79-.52-1.26l-.55-1.31c-.13-.38-.29-.79-.48-1.23-.32,1.05-.62,1.95-.9,2.7-.28.75-.57,1.59-.86,2.38l-3.27,8.5h.01Zm5.41-19.62c.61-.13,1.23-.2,1.85-.19l11.3,25.93c.38.89.72,1.59,1.03,2.19.24.48.53.93.85,1.35.21.29.48.53.79.72.3.16.63.26.97.31.11.34.19.69.24,1.04.03.33.05.67.05,1h-1.05l-1.47-.07-1.59-.05h-2.64l-1.54.05-1.45.05h-1.03c0-.38,0-.75.05-1.09.03-.33.12-.66.29-.95.52-.04,1.04-.13,1.54-.29.32-.09.59-.3.74-.6.13-.34.15-.71.05-1.06-.15-.6-.35-1.19-.61-1.76l-2.09-4.85c-2.06,0-4.23.02-6.51.05-2.18.03-4.21.08-6.08.14l-1.24,3.32c-.73,1.87-.95,3.16-.67,3.87s1.08,1.11,2.38,1.21c.24.65.36,1.35.33,2.04-.54-.06-1.22-.1-2.07-.12s-1.65,0-2.45,0-1.53,0-2.23.05-1.27.03-1.72.1c0-.34.03-.69.07-1.03.04-.33.13-.66.26-.97.38-.09.75-.23,1.09-.43.35-.22.66-.51.9-.85.32-.47.59-.97.79-1.49.26-.61.59-1.41.97-2.38l9.88-25.24h.02Z"/><path class="cls-1" d="m220.41,25.76c-.53.07-1.07.16-1.59.29v13.3c.3.06.6.09.91.1.38,0,.79.05,1.19.05,1.22,0,2.44-.13,3.63-.41,1.06-.24,2.06-.67,2.95-1.28.82-.57,1.5-1.33,1.97-2.21.5-.98.74-2.08.72-3.18.08-1.8-.56-3.55-1.78-4.87-1.19-1.25-3.21-1.88-6.06-1.88-.65,0-1.3.03-1.95.1m-3.85-1.71c1.33,0,2.65,0,3.97-.05s2.63-.05,3.97-.05c1.57-.03,3.15.18,4.66.62,1.16.35,2.24.92,3.18,1.68.81.68,1.46,1.54,1.88,2.52.42,1.01.63,2.09.62,3.18.05,2.11-.78,4.14-2.28,5.61-1.58,1.49-3.53,2.54-5.65,3.04.41.38.79.76,1.14,1.14.46.5.89,1.03,1.28,1.59.41.59.84,1.26,1.29,2.02.45.79.97,1.69,1.59,2.81.86,1.66,1.97,3.18,3.28,4.51,1.08,1,2.5,1.57,3.97,1.59v1.04c-.02.34-.08.67-.17,1-1.2,0-2.45.02-3.75.05s-2.53.11-3.7.24c-.53-.79-1.15-1.83-1.85-3.13-.7-1.3-1.45-2.72-2.25-4.28-.76-1.5-1.65-2.93-2.66-4.28-.84-1.16-1.75-2.25-2.75-3.27-1.16.06-2.32.06-3.47,0v8.46c0,1.59.22,2.65.67,3.18.66.64,1.55.98,2.47.92.1.32.17.65.19.98,0,.37.05.72.05,1.06-1.01-.06-2.06-.1-3.13-.12h-5.45l-1.52.05c-.49,0-.91,0-1.26.07,0-.35,0-.7.05-1.04.03-.34.09-.68.19-1,.95.06,1.89-.27,2.59-.92.46-.53.69-1.59.69-3.18v-19.98c0-1.59-.23-2.66-.69-3.26s-1.32-.87-2.59-.87c-.09-.31-.16-.63-.19-.95,0-.32-.05-.67-.05-1.04.48.03,1.27.06,2.38.07,1.11.02,2.22.02,3.32,0"/><path class="cls-1" d="m260.41,40.44v9.16c-.02.8.05,1.6.19,2.38.09.51.33.98.69,1.35.38.34.85.56,1.35.64.72.12,1.45.18,2.19.17,2.34,0,4.06-.59,5.16-1.76,1.16-1.36,1.75-3.11,1.64-4.9.05-1.25-.27-2.49-.92-3.56-.6-.91-1.42-1.65-2.38-2.16-1.02-.53-2.12-.89-3.26-1.04-1.17-.17-2.35-.26-3.54-.26l-1.11-.03h-.01Zm.72-14.39c-.24.04-.48.08-.72.14v12.1h1.47c1.27.03,2.54-.14,3.75-.5.87-.27,1.67-.73,2.33-1.35.55-.53.95-1.19,1.17-1.92.21-.72.31-1.46.31-2.21.04-1.07-.19-2.13-.67-3.08-.41-.78-.99-1.46-1.71-1.97-.69-.48-1.46-.83-2.28-1.02-.78-.18-1.58-.28-2.38-.29-.42,0-.83.03-1.24.1m-3.75-1.99c1.14,0,2.28,0,3.42-.05s2.27-.05,3.38-.05c1.3,0,2.59.1,3.87.31,1.13.18,2.22.55,3.23,1.1.91.5,1.67,1.23,2.21,2.11.57,1.04.85,2.23.79,3.42.05,1.91-.61,3.78-1.85,5.23-1.3,1.46-3.1,2.39-5.04,2.61,1.19.06,2.38.24,3.54.55,1.07.27,2.07.74,2.97,1.37.87.64,1.57,1.48,2.04,2.45.55,1.16.82,2.42.79,3.7,0,1.25-.21,2.49-.64,3.66-.43,1.14-1.12,2.16-2.02,2.97-1.03.9-2.23,1.58-3.54,1.99-1.68.53-3.44.78-5.2.74h-6.88l-3.5.05c-1.09,0-1.94.02-2.54.07-.03-.69.05-1.38.24-2.04.54,0,1.07-.1,1.59-.26.41-.13.77-.39,1.03-.74.28-.42.46-.9.54-1.4.12-.75.18-1.5.17-2.26v-19.48c0-1.59-.23-2.65-.69-3.18-.7-.65-1.64-.98-2.59-.92-.11-.3-.17-.61-.19-.93,0-.37-.05-.74-.05-1.12.64.06,1.4.1,2.3.12h2.64"/><path class="cls-1" d="m295.27,38.72c0,1.96.27,3.91.79,5.79.46,1.77,1.22,3.45,2.25,4.97.96,1.4,2.22,2.59,3.68,3.47,1.53.89,3.27,1.34,5.04,1.3,1.45.03,2.88-.32,4.16-1.02,1.23-.69,2.29-1.63,3.11-2.77.89-1.25,1.55-2.65,1.95-4.13.45-1.66.68-3.37.67-5.09.01-2.03-.29-4.05-.91-5.98-.54-1.76-1.38-3.41-2.47-4.89-.99-1.35-2.26-2.46-3.73-3.27-1.45-.79-3.08-1.21-4.73-1.19-1.35,0-2.69.31-3.89.92-1.22.63-2.28,1.52-3.11,2.61-.92,1.21-1.61,2.58-2.04,4.04-.51,1.7-.76,3.47-.74,5.25m-4.9,1.29c-.03-2.27.39-4.52,1.22-6.63.76-1.93,1.89-3.7,3.33-5.2,1.41-1.46,3.1-2.61,4.98-3.38,1.95-.8,4.04-1.2,6.15-1.18,2.16-.02,4.3.38,6.29,1.18,1.87.76,3.56,1.9,4.97,3.35,1.43,1.49,2.54,3.25,3.28,5.17,1.56,4.26,1.56,8.94,0,13.21-.74,1.94-1.84,3.72-3.26,5.25-1.4,1.49-3.09,2.69-4.97,3.51-2,.88-4.17,1.32-6.36,1.29-2.2.03-4.39-.4-6.41-1.26-1.88-.8-3.57-1.99-4.97-3.49-1.4-1.52-2.48-3.3-3.18-5.25-.76-2.11-1.14-4.34-1.11-6.58"/><path class="cls-1" d="m344.72,25.76c-.53.07-1.07.16-1.59.29v13.3c.3.06.6.09.91.1.38,0,.79.05,1.18.05,1.22,0,2.44-.13,3.63-.41,1.06-.24,2.06-.67,2.95-1.28.82-.57,1.5-1.33,1.97-2.21.5-.98.74-2.08.72-3.18.08-1.8-.56-3.55-1.78-4.87-1.19-1.25-3.21-1.88-6.06-1.88-.65,0-1.3.03-1.95.1m-3.85-1.71c1.33,0,2.65,0,3.97-.05s2.63-.05,3.97-.05c1.57-.03,3.15.18,4.66.62,1.16.35,2.24.92,3.18,1.68.81.68,1.46,1.54,1.88,2.52.42,1.01.63,2.09.62,3.18.05,2.1-.78,4.14-2.28,5.61-1.58,1.49-3.53,2.54-5.65,3.04.41.38.79.76,1.14,1.14.46.5.89,1.03,1.28,1.59.41.59.84,1.26,1.29,2.02.45.79.97,1.69,1.59,2.81.86,1.66,1.97,3.18,3.28,4.51,1.08,1,2.5,1.57,3.97,1.59v1.04c-.02.34-.08.67-.17,1-1.21,0-2.46.02-3.75.05s-2.53.11-3.7.24c-.53-.79-1.15-1.83-1.85-3.13s-1.45-2.72-2.23-4.28c-.76-1.5-1.65-2.93-2.66-4.28-.84-1.16-1.75-2.25-2.75-3.27-1.16.06-2.32.06-3.47,0v8.46c0,1.59.22,2.65.67,3.18.66.64,1.55.98,2.47.92.1.32.16.65.19.98,0,.37.05.72.05,1.06-1.01-.06-2.06-.1-3.13-.12h-5.46l-1.52.05c-.49,0-.91,0-1.26.07,0-.35,0-.7.05-1.04.03-.34.09-.68.19-1,.95.06,1.89-.27,2.59-.92.46-.53.69-1.59.69-3.18v-19.98c0-1.59-.23-2.66-.69-3.26s-1.32-.87-2.59-.87c-.09-.31-.16-.63-.19-.95,0-.32-.05-.67-.05-1.04.48.03,1.27.06,2.38.07,1.11.02,2.22.02,3.33,0"/></g></svg>